%TF.GenerationSoftware,KiCad,Pcbnew,(7.0.0-0)*%
%TF.CreationDate,2023-05-18T18:53:27-07:00*%
%TF.ProjectId,Cantor_MX,43616e74-6f72-45f4-9d58-2e6b69636164,rev1.0*%
%TF.SameCoordinates,PX78114e0PY44b6550*%
%TF.FileFunction,Legend,Bot*%
%TF.FilePolarity,Positive*%
%FSLAX46Y46*%
G04 Gerber Fmt 4.6, Leading zero omitted, Abs format (unit mm)*
G04 Created by KiCad (PCBNEW (7.0.0-0)) date 2023-05-18 18:53:27*
%MOMM*%
%LPD*%
G01*
G04 APERTURE LIST*
%ADD10C,0.200000*%
%ADD11C,0.150000*%
%ADD12C,0.120000*%
%TA.AperFunction,Profile*%
%ADD13C,0.100000*%
%TD*%
G04 APERTURE END LIST*
D10*
X-53429048Y-43255904D02*
X-53429048Y-43827333D01*
X-53429048Y-43827333D02*
X-53390953Y-43941619D01*
X-53390953Y-43941619D02*
X-53314762Y-44017809D01*
X-53314762Y-44017809D02*
X-53200477Y-44055904D01*
X-53200477Y-44055904D02*
X-53124286Y-44055904D01*
X-54190953Y-44055904D02*
X-53810001Y-44055904D01*
X-53810001Y-44055904D02*
X-53810001Y-43255904D01*
X-54914763Y-43979714D02*
X-54876667Y-44017809D01*
X-54876667Y-44017809D02*
X-54762382Y-44055904D01*
X-54762382Y-44055904D02*
X-54686191Y-44055904D01*
X-54686191Y-44055904D02*
X-54571905Y-44017809D01*
X-54571905Y-44017809D02*
X-54495715Y-43941619D01*
X-54495715Y-43941619D02*
X-54457620Y-43865428D01*
X-54457620Y-43865428D02*
X-54419524Y-43713047D01*
X-54419524Y-43713047D02*
X-54419524Y-43598761D01*
X-54419524Y-43598761D02*
X-54457620Y-43446380D01*
X-54457620Y-43446380D02*
X-54495715Y-43370190D01*
X-54495715Y-43370190D02*
X-54571905Y-43294000D01*
X-54571905Y-43294000D02*
X-54686191Y-43255904D01*
X-54686191Y-43255904D02*
X-54762382Y-43255904D01*
X-54762382Y-43255904D02*
X-54876667Y-43294000D01*
X-54876667Y-43294000D02*
X-54914763Y-43332095D01*
X-55486191Y-43255904D02*
X-55486191Y-43827333D01*
X-55486191Y-43827333D02*
X-55448096Y-43941619D01*
X-55448096Y-43941619D02*
X-55371905Y-44017809D01*
X-55371905Y-44017809D02*
X-55257620Y-44055904D01*
X-55257620Y-44055904D02*
X-55181429Y-44055904D01*
X-56248096Y-44055904D02*
X-55867144Y-44055904D01*
X-55867144Y-44055904D02*
X-55867144Y-43255904D01*
X-56971906Y-43979714D02*
X-56933810Y-44017809D01*
X-56933810Y-44017809D02*
X-56819525Y-44055904D01*
X-56819525Y-44055904D02*
X-56743334Y-44055904D01*
X-56743334Y-44055904D02*
X-56629048Y-44017809D01*
X-56629048Y-44017809D02*
X-56552858Y-43941619D01*
X-56552858Y-43941619D02*
X-56514763Y-43865428D01*
X-56514763Y-43865428D02*
X-56476667Y-43713047D01*
X-56476667Y-43713047D02*
X-56476667Y-43598761D01*
X-56476667Y-43598761D02*
X-56514763Y-43446380D01*
X-56514763Y-43446380D02*
X-56552858Y-43370190D01*
X-56552858Y-43370190D02*
X-56629048Y-43294000D01*
X-56629048Y-43294000D02*
X-56743334Y-43255904D01*
X-56743334Y-43255904D02*
X-56819525Y-43255904D01*
X-56819525Y-43255904D02*
X-56933810Y-43294000D01*
X-56933810Y-43294000D02*
X-56971906Y-43332095D01*
X-57543334Y-43255904D02*
X-57543334Y-43827333D01*
X-57543334Y-43827333D02*
X-57505239Y-43941619D01*
X-57505239Y-43941619D02*
X-57429048Y-44017809D01*
X-57429048Y-44017809D02*
X-57314763Y-44055904D01*
X-57314763Y-44055904D02*
X-57238572Y-44055904D01*
X-58305239Y-44055904D02*
X-57924287Y-44055904D01*
X-57924287Y-44055904D02*
X-57924287Y-43255904D01*
X-59029049Y-43979714D02*
X-58990953Y-44017809D01*
X-58990953Y-44017809D02*
X-58876668Y-44055904D01*
X-58876668Y-44055904D02*
X-58800477Y-44055904D01*
X-58800477Y-44055904D02*
X-58686191Y-44017809D01*
X-58686191Y-44017809D02*
X-58610001Y-43941619D01*
X-58610001Y-43941619D02*
X-58571906Y-43865428D01*
X-58571906Y-43865428D02*
X-58533810Y-43713047D01*
X-58533810Y-43713047D02*
X-58533810Y-43598761D01*
X-58533810Y-43598761D02*
X-58571906Y-43446380D01*
X-58571906Y-43446380D02*
X-58610001Y-43370190D01*
X-58610001Y-43370190D02*
X-58686191Y-43294000D01*
X-58686191Y-43294000D02*
X-58800477Y-43255904D01*
X-58800477Y-43255904D02*
X-58876668Y-43255904D01*
X-58876668Y-43255904D02*
X-58990953Y-43294000D01*
X-58990953Y-43294000D02*
X-59029049Y-43332095D01*
X-59600477Y-43255904D02*
X-59600477Y-43827333D01*
X-59600477Y-43827333D02*
X-59562382Y-43941619D01*
X-59562382Y-43941619D02*
X-59486191Y-44017809D01*
X-59486191Y-44017809D02*
X-59371906Y-44055904D01*
X-59371906Y-44055904D02*
X-59295715Y-44055904D01*
X-60362382Y-44055904D02*
X-59981430Y-44055904D01*
X-59981430Y-44055904D02*
X-59981430Y-43255904D01*
X-61086192Y-43979714D02*
X-61048096Y-44017809D01*
X-61048096Y-44017809D02*
X-60933811Y-44055904D01*
X-60933811Y-44055904D02*
X-60857620Y-44055904D01*
X-60857620Y-44055904D02*
X-60743334Y-44017809D01*
X-60743334Y-44017809D02*
X-60667144Y-43941619D01*
X-60667144Y-43941619D02*
X-60629049Y-43865428D01*
X-60629049Y-43865428D02*
X-60590953Y-43713047D01*
X-60590953Y-43713047D02*
X-60590953Y-43598761D01*
X-60590953Y-43598761D02*
X-60629049Y-43446380D01*
X-60629049Y-43446380D02*
X-60667144Y-43370190D01*
X-60667144Y-43370190D02*
X-60743334Y-43294000D01*
X-60743334Y-43294000D02*
X-60857620Y-43255904D01*
X-60857620Y-43255904D02*
X-60933811Y-43255904D01*
X-60933811Y-43255904D02*
X-61048096Y-43294000D01*
X-61048096Y-43294000D02*
X-61086192Y-43332095D01*
D11*
%TO.C,K25*%
X39364285Y-30362380D02*
X39364285Y-29362380D01*
X38792857Y-30362380D02*
X39221428Y-29790952D01*
X38792857Y-29362380D02*
X39364285Y-29933809D01*
X38411904Y-29457619D02*
X38364285Y-29410000D01*
X38364285Y-29410000D02*
X38269047Y-29362380D01*
X38269047Y-29362380D02*
X38030952Y-29362380D01*
X38030952Y-29362380D02*
X37935714Y-29410000D01*
X37935714Y-29410000D02*
X37888095Y-29457619D01*
X37888095Y-29457619D02*
X37840476Y-29552857D01*
X37840476Y-29552857D02*
X37840476Y-29648095D01*
X37840476Y-29648095D02*
X37888095Y-29790952D01*
X37888095Y-29790952D02*
X38459523Y-30362380D01*
X38459523Y-30362380D02*
X37840476Y-30362380D01*
X36935714Y-29362380D02*
X37411904Y-29362380D01*
X37411904Y-29362380D02*
X37459523Y-29838571D01*
X37459523Y-29838571D02*
X37411904Y-29790952D01*
X37411904Y-29790952D02*
X37316666Y-29743333D01*
X37316666Y-29743333D02*
X37078571Y-29743333D01*
X37078571Y-29743333D02*
X36983333Y-29790952D01*
X36983333Y-29790952D02*
X36935714Y-29838571D01*
X36935714Y-29838571D02*
X36888095Y-29933809D01*
X36888095Y-29933809D02*
X36888095Y-30171904D01*
X36888095Y-30171904D02*
X36935714Y-30267142D01*
X36935714Y-30267142D02*
X36983333Y-30314761D01*
X36983333Y-30314761D02*
X37078571Y-30362380D01*
X37078571Y-30362380D02*
X37316666Y-30362380D01*
X37316666Y-30362380D02*
X37411904Y-30314761D01*
X37411904Y-30314761D02*
X37459523Y-30267142D01*
%TO.C,K24*%
X20314285Y-28362380D02*
X20314285Y-27362380D01*
X19742857Y-28362380D02*
X20171428Y-27790952D01*
X19742857Y-27362380D02*
X20314285Y-27933809D01*
X19361904Y-27457619D02*
X19314285Y-27410000D01*
X19314285Y-27410000D02*
X19219047Y-27362380D01*
X19219047Y-27362380D02*
X18980952Y-27362380D01*
X18980952Y-27362380D02*
X18885714Y-27410000D01*
X18885714Y-27410000D02*
X18838095Y-27457619D01*
X18838095Y-27457619D02*
X18790476Y-27552857D01*
X18790476Y-27552857D02*
X18790476Y-27648095D01*
X18790476Y-27648095D02*
X18838095Y-27790952D01*
X18838095Y-27790952D02*
X19409523Y-28362380D01*
X19409523Y-28362380D02*
X18790476Y-28362380D01*
X17933333Y-27695714D02*
X17933333Y-28362380D01*
X18171428Y-27314761D02*
X18409523Y-28029047D01*
X18409523Y-28029047D02*
X17790476Y-28029047D01*
%TO.C,K21*%
X-36835715Y-40362380D02*
X-36835715Y-39362380D01*
X-37407143Y-40362380D02*
X-36978572Y-39790952D01*
X-37407143Y-39362380D02*
X-36835715Y-39933809D01*
X-37788096Y-39457619D02*
X-37835715Y-39410000D01*
X-37835715Y-39410000D02*
X-37930953Y-39362380D01*
X-37930953Y-39362380D02*
X-38169048Y-39362380D01*
X-38169048Y-39362380D02*
X-38264286Y-39410000D01*
X-38264286Y-39410000D02*
X-38311905Y-39457619D01*
X-38311905Y-39457619D02*
X-38359524Y-39552857D01*
X-38359524Y-39552857D02*
X-38359524Y-39648095D01*
X-38359524Y-39648095D02*
X-38311905Y-39790952D01*
X-38311905Y-39790952D02*
X-37740477Y-40362380D01*
X-37740477Y-40362380D02*
X-38359524Y-40362380D01*
X-39311905Y-40362380D02*
X-38740477Y-40362380D01*
X-39026191Y-40362380D02*
X-39026191Y-39362380D01*
X-39026191Y-39362380D02*
X-38930953Y-39505238D01*
X-38930953Y-39505238D02*
X-38835715Y-39600476D01*
X-38835715Y-39600476D02*
X-38740477Y-39648095D01*
%TO.C,K02*%
X-17785715Y9737620D02*
X-17785715Y10737620D01*
X-18357143Y9737620D02*
X-17928572Y10309048D01*
X-18357143Y10737620D02*
X-17785715Y10166191D01*
X-18976191Y10737620D02*
X-19071429Y10737620D01*
X-19071429Y10737620D02*
X-19166667Y10690000D01*
X-19166667Y10690000D02*
X-19214286Y10642381D01*
X-19214286Y10642381D02*
X-19261905Y10547143D01*
X-19261905Y10547143D02*
X-19309524Y10356667D01*
X-19309524Y10356667D02*
X-19309524Y10118572D01*
X-19309524Y10118572D02*
X-19261905Y9928096D01*
X-19261905Y9928096D02*
X-19214286Y9832858D01*
X-19214286Y9832858D02*
X-19166667Y9785239D01*
X-19166667Y9785239D02*
X-19071429Y9737620D01*
X-19071429Y9737620D02*
X-18976191Y9737620D01*
X-18976191Y9737620D02*
X-18880953Y9785239D01*
X-18880953Y9785239D02*
X-18833334Y9832858D01*
X-18833334Y9832858D02*
X-18785715Y9928096D01*
X-18785715Y9928096D02*
X-18738096Y10118572D01*
X-18738096Y10118572D02*
X-18738096Y10356667D01*
X-18738096Y10356667D02*
X-18785715Y10547143D01*
X-18785715Y10547143D02*
X-18833334Y10642381D01*
X-18833334Y10642381D02*
X-18880953Y10690000D01*
X-18880953Y10690000D02*
X-18976191Y10737620D01*
X-19690477Y10642381D02*
X-19738096Y10690000D01*
X-19738096Y10690000D02*
X-19833334Y10737620D01*
X-19833334Y10737620D02*
X-20071429Y10737620D01*
X-20071429Y10737620D02*
X-20166667Y10690000D01*
X-20166667Y10690000D02*
X-20214286Y10642381D01*
X-20214286Y10642381D02*
X-20261905Y10547143D01*
X-20261905Y10547143D02*
X-20261905Y10451905D01*
X-20261905Y10451905D02*
X-20214286Y10309048D01*
X-20214286Y10309048D02*
X-19642858Y9737620D01*
X-19642858Y9737620D02*
X-20261905Y9737620D01*
%TO.C,K10*%
X-55885715Y-21312380D02*
X-55885715Y-20312380D01*
X-56457143Y-21312380D02*
X-56028572Y-20740952D01*
X-56457143Y-20312380D02*
X-55885715Y-20883809D01*
X-57409524Y-21312380D02*
X-56838096Y-21312380D01*
X-57123810Y-21312380D02*
X-57123810Y-20312380D01*
X-57123810Y-20312380D02*
X-57028572Y-20455238D01*
X-57028572Y-20455238D02*
X-56933334Y-20550476D01*
X-56933334Y-20550476D02*
X-56838096Y-20598095D01*
X-58028572Y-20312380D02*
X-58123810Y-20312380D01*
X-58123810Y-20312380D02*
X-58219048Y-20360000D01*
X-58219048Y-20360000D02*
X-58266667Y-20407619D01*
X-58266667Y-20407619D02*
X-58314286Y-20502857D01*
X-58314286Y-20502857D02*
X-58361905Y-20693333D01*
X-58361905Y-20693333D02*
X-58361905Y-20931428D01*
X-58361905Y-20931428D02*
X-58314286Y-21121904D01*
X-58314286Y-21121904D02*
X-58266667Y-21217142D01*
X-58266667Y-21217142D02*
X-58219048Y-21264761D01*
X-58219048Y-21264761D02*
X-58123810Y-21312380D01*
X-58123810Y-21312380D02*
X-58028572Y-21312380D01*
X-58028572Y-21312380D02*
X-57933334Y-21264761D01*
X-57933334Y-21264761D02*
X-57885715Y-21217142D01*
X-57885715Y-21217142D02*
X-57838096Y-21121904D01*
X-57838096Y-21121904D02*
X-57790477Y-20931428D01*
X-57790477Y-20931428D02*
X-57790477Y-20693333D01*
X-57790477Y-20693333D02*
X-57838096Y-20502857D01*
X-57838096Y-20502857D02*
X-57885715Y-20407619D01*
X-57885715Y-20407619D02*
X-57933334Y-20360000D01*
X-57933334Y-20360000D02*
X-58028572Y-20312380D01*
%TO.C,K04*%
X20314285Y9737620D02*
X20314285Y10737620D01*
X19742857Y9737620D02*
X20171428Y10309048D01*
X19742857Y10737620D02*
X20314285Y10166191D01*
X19123809Y10737620D02*
X19028571Y10737620D01*
X19028571Y10737620D02*
X18933333Y10690000D01*
X18933333Y10690000D02*
X18885714Y10642381D01*
X18885714Y10642381D02*
X18838095Y10547143D01*
X18838095Y10547143D02*
X18790476Y10356667D01*
X18790476Y10356667D02*
X18790476Y10118572D01*
X18790476Y10118572D02*
X18838095Y9928096D01*
X18838095Y9928096D02*
X18885714Y9832858D01*
X18885714Y9832858D02*
X18933333Y9785239D01*
X18933333Y9785239D02*
X19028571Y9737620D01*
X19028571Y9737620D02*
X19123809Y9737620D01*
X19123809Y9737620D02*
X19219047Y9785239D01*
X19219047Y9785239D02*
X19266666Y9832858D01*
X19266666Y9832858D02*
X19314285Y9928096D01*
X19314285Y9928096D02*
X19361904Y10118572D01*
X19361904Y10118572D02*
X19361904Y10356667D01*
X19361904Y10356667D02*
X19314285Y10547143D01*
X19314285Y10547143D02*
X19266666Y10642381D01*
X19266666Y10642381D02*
X19219047Y10690000D01*
X19219047Y10690000D02*
X19123809Y10737620D01*
X17933333Y10404286D02*
X17933333Y9737620D01*
X18171428Y10785239D02*
X18409523Y10070953D01*
X18409523Y10070953D02*
X17790476Y10070953D01*
%TO.C,K12*%
X-17785715Y-9312380D02*
X-17785715Y-8312380D01*
X-18357143Y-9312380D02*
X-17928572Y-8740952D01*
X-18357143Y-8312380D02*
X-17785715Y-8883809D01*
X-19309524Y-9312380D02*
X-18738096Y-9312380D01*
X-19023810Y-9312380D02*
X-19023810Y-8312380D01*
X-19023810Y-8312380D02*
X-18928572Y-8455238D01*
X-18928572Y-8455238D02*
X-18833334Y-8550476D01*
X-18833334Y-8550476D02*
X-18738096Y-8598095D01*
X-19690477Y-8407619D02*
X-19738096Y-8360000D01*
X-19738096Y-8360000D02*
X-19833334Y-8312380D01*
X-19833334Y-8312380D02*
X-20071429Y-8312380D01*
X-20071429Y-8312380D02*
X-20166667Y-8360000D01*
X-20166667Y-8360000D02*
X-20214286Y-8407619D01*
X-20214286Y-8407619D02*
X-20261905Y-8502857D01*
X-20261905Y-8502857D02*
X-20261905Y-8598095D01*
X-20261905Y-8598095D02*
X-20214286Y-8740952D01*
X-20214286Y-8740952D02*
X-19642858Y-9312380D01*
X-19642858Y-9312380D02*
X-20261905Y-9312380D01*
%TO.C,K30*%
X16535323Y-51335781D02*
X16448167Y-50339586D01*
X15966069Y-51385584D02*
X16343206Y-50778977D01*
X15878913Y-50389389D02*
X16497970Y-50908840D01*
X15546848Y-50418441D02*
X14930156Y-50472395D01*
X14930156Y-50472395D02*
X15295423Y-50822845D01*
X15295423Y-50822845D02*
X15153110Y-50835296D01*
X15153110Y-50835296D02*
X15062384Y-50891035D01*
X15062384Y-50891035D02*
X15019097Y-50942623D01*
X15019097Y-50942623D02*
X14979959Y-51041649D01*
X14979959Y-51041649D02*
X15000711Y-51278838D01*
X15000711Y-51278838D02*
X15056449Y-51369563D01*
X15056449Y-51369563D02*
X15108037Y-51412851D01*
X15108037Y-51412851D02*
X15207063Y-51451988D01*
X15207063Y-51451988D02*
X15491690Y-51427087D01*
X15491690Y-51427087D02*
X15582416Y-51371348D01*
X15582416Y-51371348D02*
X15625703Y-51319760D01*
X14313464Y-50526348D02*
X14218588Y-50534649D01*
X14218588Y-50534649D02*
X14127863Y-50590387D01*
X14127863Y-50590387D02*
X14084575Y-50641975D01*
X14084575Y-50641975D02*
X14045438Y-50741001D01*
X14045438Y-50741001D02*
X14014601Y-50934903D01*
X14014601Y-50934903D02*
X14035353Y-51172092D01*
X14035353Y-51172092D02*
X14099392Y-51357693D01*
X14099392Y-51357693D02*
X14155130Y-51448419D01*
X14155130Y-51448419D02*
X14206718Y-51491706D01*
X14206718Y-51491706D02*
X14305744Y-51530843D01*
X14305744Y-51530843D02*
X14400620Y-51522543D01*
X14400620Y-51522543D02*
X14491345Y-51466805D01*
X14491345Y-51466805D02*
X14534633Y-51415216D01*
X14534633Y-51415216D02*
X14573770Y-51316190D01*
X14573770Y-51316190D02*
X14604607Y-51122289D01*
X14604607Y-51122289D02*
X14583855Y-50885100D01*
X14583855Y-50885100D02*
X14519817Y-50699498D01*
X14519817Y-50699498D02*
X14464078Y-50608773D01*
X14464078Y-50608773D02*
X14412490Y-50565485D01*
X14412490Y-50565485D02*
X14313464Y-50526348D01*
%TO.C,K01*%
X-36835715Y-2262380D02*
X-36835715Y-1262380D01*
X-37407143Y-2262380D02*
X-36978572Y-1690952D01*
X-37407143Y-1262380D02*
X-36835715Y-1833809D01*
X-38026191Y-1262380D02*
X-38121429Y-1262380D01*
X-38121429Y-1262380D02*
X-38216667Y-1310000D01*
X-38216667Y-1310000D02*
X-38264286Y-1357619D01*
X-38264286Y-1357619D02*
X-38311905Y-1452857D01*
X-38311905Y-1452857D02*
X-38359524Y-1643333D01*
X-38359524Y-1643333D02*
X-38359524Y-1881428D01*
X-38359524Y-1881428D02*
X-38311905Y-2071904D01*
X-38311905Y-2071904D02*
X-38264286Y-2167142D01*
X-38264286Y-2167142D02*
X-38216667Y-2214761D01*
X-38216667Y-2214761D02*
X-38121429Y-2262380D01*
X-38121429Y-2262380D02*
X-38026191Y-2262380D01*
X-38026191Y-2262380D02*
X-37930953Y-2214761D01*
X-37930953Y-2214761D02*
X-37883334Y-2167142D01*
X-37883334Y-2167142D02*
X-37835715Y-2071904D01*
X-37835715Y-2071904D02*
X-37788096Y-1881428D01*
X-37788096Y-1881428D02*
X-37788096Y-1643333D01*
X-37788096Y-1643333D02*
X-37835715Y-1452857D01*
X-37835715Y-1452857D02*
X-37883334Y-1357619D01*
X-37883334Y-1357619D02*
X-37930953Y-1310000D01*
X-37930953Y-1310000D02*
X-38026191Y-1262380D01*
X-39311905Y-2262380D02*
X-38740477Y-2262380D01*
X-39026191Y-2262380D02*
X-39026191Y-1262380D01*
X-39026191Y-1262380D02*
X-38930953Y-1405238D01*
X-38930953Y-1405238D02*
X-38835715Y-1500476D01*
X-38835715Y-1500476D02*
X-38740477Y-1548095D01*
%TO.C,K14*%
X20314285Y-9312380D02*
X20314285Y-8312380D01*
X19742857Y-9312380D02*
X20171428Y-8740952D01*
X19742857Y-8312380D02*
X20314285Y-8883809D01*
X18790476Y-9312380D02*
X19361904Y-9312380D01*
X19076190Y-9312380D02*
X19076190Y-8312380D01*
X19076190Y-8312380D02*
X19171428Y-8455238D01*
X19171428Y-8455238D02*
X19266666Y-8550476D01*
X19266666Y-8550476D02*
X19361904Y-8598095D01*
X17933333Y-8645714D02*
X17933333Y-9312380D01*
X18171428Y-8264761D02*
X18409523Y-8979047D01*
X18409523Y-8979047D02*
X17790476Y-8979047D01*
%TO.C,K23*%
X1264285Y-23362380D02*
X1264285Y-22362380D01*
X692857Y-23362380D02*
X1121428Y-22790952D01*
X692857Y-22362380D02*
X1264285Y-22933809D01*
X311904Y-22457619D02*
X264285Y-22410000D01*
X264285Y-22410000D02*
X169047Y-22362380D01*
X169047Y-22362380D02*
X-69048Y-22362380D01*
X-69048Y-22362380D02*
X-164286Y-22410000D01*
X-164286Y-22410000D02*
X-211905Y-22457619D01*
X-211905Y-22457619D02*
X-259524Y-22552857D01*
X-259524Y-22552857D02*
X-259524Y-22648095D01*
X-259524Y-22648095D02*
X-211905Y-22790952D01*
X-211905Y-22790952D02*
X359523Y-23362380D01*
X359523Y-23362380D02*
X-259524Y-23362380D01*
X-592858Y-22362380D02*
X-1211905Y-22362380D01*
X-1211905Y-22362380D02*
X-878572Y-22743333D01*
X-878572Y-22743333D02*
X-1021429Y-22743333D01*
X-1021429Y-22743333D02*
X-1116667Y-22790952D01*
X-1116667Y-22790952D02*
X-1164286Y-22838571D01*
X-1164286Y-22838571D02*
X-1211905Y-22933809D01*
X-1211905Y-22933809D02*
X-1211905Y-23171904D01*
X-1211905Y-23171904D02*
X-1164286Y-23267142D01*
X-1164286Y-23267142D02*
X-1116667Y-23314761D01*
X-1116667Y-23314761D02*
X-1021429Y-23362380D01*
X-1021429Y-23362380D02*
X-735715Y-23362380D01*
X-735715Y-23362380D02*
X-640477Y-23314761D01*
X-640477Y-23314761D02*
X-592858Y-23267142D01*
%TO.C,K03*%
X1264285Y14737620D02*
X1264285Y15737620D01*
X692857Y14737620D02*
X1121428Y15309048D01*
X692857Y15737620D02*
X1264285Y15166191D01*
X73809Y15737620D02*
X-21429Y15737620D01*
X-21429Y15737620D02*
X-116667Y15690000D01*
X-116667Y15690000D02*
X-164286Y15642381D01*
X-164286Y15642381D02*
X-211905Y15547143D01*
X-211905Y15547143D02*
X-259524Y15356667D01*
X-259524Y15356667D02*
X-259524Y15118572D01*
X-259524Y15118572D02*
X-211905Y14928096D01*
X-211905Y14928096D02*
X-164286Y14832858D01*
X-164286Y14832858D02*
X-116667Y14785239D01*
X-116667Y14785239D02*
X-21429Y14737620D01*
X-21429Y14737620D02*
X73809Y14737620D01*
X73809Y14737620D02*
X169047Y14785239D01*
X169047Y14785239D02*
X216666Y14832858D01*
X216666Y14832858D02*
X264285Y14928096D01*
X264285Y14928096D02*
X311904Y15118572D01*
X311904Y15118572D02*
X311904Y15356667D01*
X311904Y15356667D02*
X264285Y15547143D01*
X264285Y15547143D02*
X216666Y15642381D01*
X216666Y15642381D02*
X169047Y15690000D01*
X169047Y15690000D02*
X73809Y15737620D01*
X-592858Y15737620D02*
X-1211905Y15737620D01*
X-1211905Y15737620D02*
X-878572Y15356667D01*
X-878572Y15356667D02*
X-1021429Y15356667D01*
X-1021429Y15356667D02*
X-1116667Y15309048D01*
X-1116667Y15309048D02*
X-1164286Y15261429D01*
X-1164286Y15261429D02*
X-1211905Y15166191D01*
X-1211905Y15166191D02*
X-1211905Y14928096D01*
X-1211905Y14928096D02*
X-1164286Y14832858D01*
X-1164286Y14832858D02*
X-1116667Y14785239D01*
X-1116667Y14785239D02*
X-1021429Y14737620D01*
X-1021429Y14737620D02*
X-735715Y14737620D01*
X-735715Y14737620D02*
X-640477Y14785239D01*
X-640477Y14785239D02*
X-592858Y14832858D01*
%TO.C,K22*%
X-17785715Y-28362380D02*
X-17785715Y-27362380D01*
X-18357143Y-28362380D02*
X-17928572Y-27790952D01*
X-18357143Y-27362380D02*
X-17785715Y-27933809D01*
X-18738096Y-27457619D02*
X-18785715Y-27410000D01*
X-18785715Y-27410000D02*
X-18880953Y-27362380D01*
X-18880953Y-27362380D02*
X-19119048Y-27362380D01*
X-19119048Y-27362380D02*
X-19214286Y-27410000D01*
X-19214286Y-27410000D02*
X-19261905Y-27457619D01*
X-19261905Y-27457619D02*
X-19309524Y-27552857D01*
X-19309524Y-27552857D02*
X-19309524Y-27648095D01*
X-19309524Y-27648095D02*
X-19261905Y-27790952D01*
X-19261905Y-27790952D02*
X-18690477Y-28362380D01*
X-18690477Y-28362380D02*
X-19309524Y-28362380D01*
X-19690477Y-27457619D02*
X-19738096Y-27410000D01*
X-19738096Y-27410000D02*
X-19833334Y-27362380D01*
X-19833334Y-27362380D02*
X-20071429Y-27362380D01*
X-20071429Y-27362380D02*
X-20166667Y-27410000D01*
X-20166667Y-27410000D02*
X-20214286Y-27457619D01*
X-20214286Y-27457619D02*
X-20261905Y-27552857D01*
X-20261905Y-27552857D02*
X-20261905Y-27648095D01*
X-20261905Y-27648095D02*
X-20214286Y-27790952D01*
X-20214286Y-27790952D02*
X-19642858Y-28362380D01*
X-19642858Y-28362380D02*
X-20261905Y-28362380D01*
%TO.C,K15*%
X39364285Y-11312380D02*
X39364285Y-10312380D01*
X38792857Y-11312380D02*
X39221428Y-10740952D01*
X38792857Y-10312380D02*
X39364285Y-10883809D01*
X37840476Y-11312380D02*
X38411904Y-11312380D01*
X38126190Y-11312380D02*
X38126190Y-10312380D01*
X38126190Y-10312380D02*
X38221428Y-10455238D01*
X38221428Y-10455238D02*
X38316666Y-10550476D01*
X38316666Y-10550476D02*
X38411904Y-10598095D01*
X36935714Y-10312380D02*
X37411904Y-10312380D01*
X37411904Y-10312380D02*
X37459523Y-10788571D01*
X37459523Y-10788571D02*
X37411904Y-10740952D01*
X37411904Y-10740952D02*
X37316666Y-10693333D01*
X37316666Y-10693333D02*
X37078571Y-10693333D01*
X37078571Y-10693333D02*
X36983333Y-10740952D01*
X36983333Y-10740952D02*
X36935714Y-10788571D01*
X36935714Y-10788571D02*
X36888095Y-10883809D01*
X36888095Y-10883809D02*
X36888095Y-11121904D01*
X36888095Y-11121904D02*
X36935714Y-11217142D01*
X36935714Y-11217142D02*
X36983333Y-11264761D01*
X36983333Y-11264761D02*
X37078571Y-11312380D01*
X37078571Y-11312380D02*
X37316666Y-11312380D01*
X37316666Y-11312380D02*
X37411904Y-11264761D01*
X37411904Y-11264761D02*
X37459523Y-11217142D01*
%TO.C,K32*%
X57223341Y-59592654D02*
X57645959Y-58686346D01*
X56705451Y-59351158D02*
X57335365Y-59014390D01*
X57128069Y-58444850D02*
X57404463Y-59204236D01*
X56825966Y-58303977D02*
X56264919Y-58042356D01*
X56264919Y-58042356D02*
X56406024Y-58528489D01*
X56406024Y-58528489D02*
X56276551Y-58468115D01*
X56276551Y-58468115D02*
X56170112Y-58471023D01*
X56170112Y-58471023D02*
X56106829Y-58494056D01*
X56106829Y-58494056D02*
X56023423Y-58560247D01*
X56023423Y-58560247D02*
X55922799Y-58776034D01*
X55922799Y-58776034D02*
X55925707Y-58882474D01*
X55925707Y-58882474D02*
X55948740Y-58945756D01*
X55948740Y-58945756D02*
X56014931Y-59029163D01*
X56014931Y-59029163D02*
X56273876Y-59149911D01*
X56273876Y-59149911D02*
X56380315Y-59147003D01*
X56380315Y-59147003D02*
X56443598Y-59123970D01*
X55879409Y-57967674D02*
X55856376Y-57904392D01*
X55856376Y-57904392D02*
X55790186Y-57820985D01*
X55790186Y-57820985D02*
X55574398Y-57720362D01*
X55574398Y-57720362D02*
X55467959Y-57723270D01*
X55467959Y-57723270D02*
X55404677Y-57746303D01*
X55404677Y-57746303D02*
X55321270Y-57812493D01*
X55321270Y-57812493D02*
X55281020Y-57898808D01*
X55281020Y-57898808D02*
X55263804Y-58048405D01*
X55263804Y-58048405D02*
X55540198Y-58807791D01*
X55540198Y-58807791D02*
X54979150Y-58546171D01*
%TO.C,K11*%
X-36835715Y-21312380D02*
X-36835715Y-20312380D01*
X-37407143Y-21312380D02*
X-36978572Y-20740952D01*
X-37407143Y-20312380D02*
X-36835715Y-20883809D01*
X-38359524Y-21312380D02*
X-37788096Y-21312380D01*
X-38073810Y-21312380D02*
X-38073810Y-20312380D01*
X-38073810Y-20312380D02*
X-37978572Y-20455238D01*
X-37978572Y-20455238D02*
X-37883334Y-20550476D01*
X-37883334Y-20550476D02*
X-37788096Y-20598095D01*
X-39311905Y-21312380D02*
X-38740477Y-21312380D01*
X-39026191Y-21312380D02*
X-39026191Y-20312380D01*
X-39026191Y-20312380D02*
X-38930953Y-20455238D01*
X-38930953Y-20455238D02*
X-38835715Y-20550476D01*
X-38835715Y-20550476D02*
X-38740477Y-20598095D01*
%TO.C,U1*%
X61558095Y22082620D02*
X61558095Y21273096D01*
X61558095Y21273096D02*
X61605714Y21177858D01*
X61605714Y21177858D02*
X61653333Y21130239D01*
X61653333Y21130239D02*
X61748571Y21082620D01*
X61748571Y21082620D02*
X61939047Y21082620D01*
X61939047Y21082620D02*
X62034285Y21130239D01*
X62034285Y21130239D02*
X62081904Y21177858D01*
X62081904Y21177858D02*
X62129523Y21273096D01*
X62129523Y21273096D02*
X62129523Y22082620D01*
X63129523Y21082620D02*
X62558095Y21082620D01*
X62843809Y21082620D02*
X62843809Y22082620D01*
X62843809Y22082620D02*
X62748571Y21939762D01*
X62748571Y21939762D02*
X62653333Y21844524D01*
X62653333Y21844524D02*
X62558095Y21796905D01*
%TO.C,K05*%
X39364285Y7737620D02*
X39364285Y8737620D01*
X38792857Y7737620D02*
X39221428Y8309048D01*
X38792857Y8737620D02*
X39364285Y8166191D01*
X38173809Y8737620D02*
X38078571Y8737620D01*
X38078571Y8737620D02*
X37983333Y8690000D01*
X37983333Y8690000D02*
X37935714Y8642381D01*
X37935714Y8642381D02*
X37888095Y8547143D01*
X37888095Y8547143D02*
X37840476Y8356667D01*
X37840476Y8356667D02*
X37840476Y8118572D01*
X37840476Y8118572D02*
X37888095Y7928096D01*
X37888095Y7928096D02*
X37935714Y7832858D01*
X37935714Y7832858D02*
X37983333Y7785239D01*
X37983333Y7785239D02*
X38078571Y7737620D01*
X38078571Y7737620D02*
X38173809Y7737620D01*
X38173809Y7737620D02*
X38269047Y7785239D01*
X38269047Y7785239D02*
X38316666Y7832858D01*
X38316666Y7832858D02*
X38364285Y7928096D01*
X38364285Y7928096D02*
X38411904Y8118572D01*
X38411904Y8118572D02*
X38411904Y8356667D01*
X38411904Y8356667D02*
X38364285Y8547143D01*
X38364285Y8547143D02*
X38316666Y8642381D01*
X38316666Y8642381D02*
X38269047Y8690000D01*
X38269047Y8690000D02*
X38173809Y8737620D01*
X36935714Y8737620D02*
X37411904Y8737620D01*
X37411904Y8737620D02*
X37459523Y8261429D01*
X37459523Y8261429D02*
X37411904Y8309048D01*
X37411904Y8309048D02*
X37316666Y8356667D01*
X37316666Y8356667D02*
X37078571Y8356667D01*
X37078571Y8356667D02*
X36983333Y8309048D01*
X36983333Y8309048D02*
X36935714Y8261429D01*
X36935714Y8261429D02*
X36888095Y8166191D01*
X36888095Y8166191D02*
X36888095Y7928096D01*
X36888095Y7928096D02*
X36935714Y7832858D01*
X36935714Y7832858D02*
X36983333Y7785239D01*
X36983333Y7785239D02*
X37078571Y7737620D01*
X37078571Y7737620D02*
X37316666Y7737620D01*
X37316666Y7737620D02*
X37411904Y7785239D01*
X37411904Y7785239D02*
X37459523Y7832858D01*
%TO.C,K20*%
X-55885715Y-40362380D02*
X-55885715Y-39362380D01*
X-56457143Y-40362380D02*
X-56028572Y-39790952D01*
X-56457143Y-39362380D02*
X-55885715Y-39933809D01*
X-56838096Y-39457619D02*
X-56885715Y-39410000D01*
X-56885715Y-39410000D02*
X-56980953Y-39362380D01*
X-56980953Y-39362380D02*
X-57219048Y-39362380D01*
X-57219048Y-39362380D02*
X-57314286Y-39410000D01*
X-57314286Y-39410000D02*
X-57361905Y-39457619D01*
X-57361905Y-39457619D02*
X-57409524Y-39552857D01*
X-57409524Y-39552857D02*
X-57409524Y-39648095D01*
X-57409524Y-39648095D02*
X-57361905Y-39790952D01*
X-57361905Y-39790952D02*
X-56790477Y-40362380D01*
X-56790477Y-40362380D02*
X-57409524Y-40362380D01*
X-58028572Y-39362380D02*
X-58123810Y-39362380D01*
X-58123810Y-39362380D02*
X-58219048Y-39410000D01*
X-58219048Y-39410000D02*
X-58266667Y-39457619D01*
X-58266667Y-39457619D02*
X-58314286Y-39552857D01*
X-58314286Y-39552857D02*
X-58361905Y-39743333D01*
X-58361905Y-39743333D02*
X-58361905Y-39981428D01*
X-58361905Y-39981428D02*
X-58314286Y-40171904D01*
X-58314286Y-40171904D02*
X-58266667Y-40267142D01*
X-58266667Y-40267142D02*
X-58219048Y-40314761D01*
X-58219048Y-40314761D02*
X-58123810Y-40362380D01*
X-58123810Y-40362380D02*
X-58028572Y-40362380D01*
X-58028572Y-40362380D02*
X-57933334Y-40314761D01*
X-57933334Y-40314761D02*
X-57885715Y-40267142D01*
X-57885715Y-40267142D02*
X-57838096Y-40171904D01*
X-57838096Y-40171904D02*
X-57790477Y-39981428D01*
X-57790477Y-39981428D02*
X-57790477Y-39743333D01*
X-57790477Y-39743333D02*
X-57838096Y-39552857D01*
X-57838096Y-39552857D02*
X-57885715Y-39457619D01*
X-57885715Y-39457619D02*
X-57933334Y-39410000D01*
X-57933334Y-39410000D02*
X-58028572Y-39362380D01*
%TO.C,K13*%
X1264285Y-4312380D02*
X1264285Y-3312380D01*
X692857Y-4312380D02*
X1121428Y-3740952D01*
X692857Y-3312380D02*
X1264285Y-3883809D01*
X-259524Y-4312380D02*
X311904Y-4312380D01*
X26190Y-4312380D02*
X26190Y-3312380D01*
X26190Y-3312380D02*
X121428Y-3455238D01*
X121428Y-3455238D02*
X216666Y-3550476D01*
X216666Y-3550476D02*
X311904Y-3598095D01*
X-592858Y-3312380D02*
X-1211905Y-3312380D01*
X-1211905Y-3312380D02*
X-878572Y-3693333D01*
X-878572Y-3693333D02*
X-1021429Y-3693333D01*
X-1021429Y-3693333D02*
X-1116667Y-3740952D01*
X-1116667Y-3740952D02*
X-1164286Y-3788571D01*
X-1164286Y-3788571D02*
X-1211905Y-3883809D01*
X-1211905Y-3883809D02*
X-1211905Y-4121904D01*
X-1211905Y-4121904D02*
X-1164286Y-4217142D01*
X-1164286Y-4217142D02*
X-1116667Y-4264761D01*
X-1116667Y-4264761D02*
X-1021429Y-4312380D01*
X-1021429Y-4312380D02*
X-735715Y-4312380D01*
X-735715Y-4312380D02*
X-640477Y-4264761D01*
X-640477Y-4264761D02*
X-592858Y-4217142D01*
%TO.C,K00*%
X-55885715Y-2262380D02*
X-55885715Y-1262380D01*
X-56457143Y-2262380D02*
X-56028572Y-1690952D01*
X-56457143Y-1262380D02*
X-55885715Y-1833809D01*
X-57076191Y-1262380D02*
X-57171429Y-1262380D01*
X-57171429Y-1262380D02*
X-57266667Y-1310000D01*
X-57266667Y-1310000D02*
X-57314286Y-1357619D01*
X-57314286Y-1357619D02*
X-57361905Y-1452857D01*
X-57361905Y-1452857D02*
X-57409524Y-1643333D01*
X-57409524Y-1643333D02*
X-57409524Y-1881428D01*
X-57409524Y-1881428D02*
X-57361905Y-2071904D01*
X-57361905Y-2071904D02*
X-57314286Y-2167142D01*
X-57314286Y-2167142D02*
X-57266667Y-2214761D01*
X-57266667Y-2214761D02*
X-57171429Y-2262380D01*
X-57171429Y-2262380D02*
X-57076191Y-2262380D01*
X-57076191Y-2262380D02*
X-56980953Y-2214761D01*
X-56980953Y-2214761D02*
X-56933334Y-2167142D01*
X-56933334Y-2167142D02*
X-56885715Y-2071904D01*
X-56885715Y-2071904D02*
X-56838096Y-1881428D01*
X-56838096Y-1881428D02*
X-56838096Y-1643333D01*
X-56838096Y-1643333D02*
X-56885715Y-1452857D01*
X-56885715Y-1452857D02*
X-56933334Y-1357619D01*
X-56933334Y-1357619D02*
X-56980953Y-1310000D01*
X-56980953Y-1310000D02*
X-57076191Y-1262380D01*
X-58028572Y-1262380D02*
X-58123810Y-1262380D01*
X-58123810Y-1262380D02*
X-58219048Y-1310000D01*
X-58219048Y-1310000D02*
X-58266667Y-1357619D01*
X-58266667Y-1357619D02*
X-58314286Y-1452857D01*
X-58314286Y-1452857D02*
X-58361905Y-1643333D01*
X-58361905Y-1643333D02*
X-58361905Y-1881428D01*
X-58361905Y-1881428D02*
X-58314286Y-2071904D01*
X-58314286Y-2071904D02*
X-58266667Y-2167142D01*
X-58266667Y-2167142D02*
X-58219048Y-2214761D01*
X-58219048Y-2214761D02*
X-58123810Y-2262380D01*
X-58123810Y-2262380D02*
X-58028572Y-2262380D01*
X-58028572Y-2262380D02*
X-57933334Y-2214761D01*
X-57933334Y-2214761D02*
X-57885715Y-2167142D01*
X-57885715Y-2167142D02*
X-57838096Y-2071904D01*
X-57838096Y-2071904D02*
X-57790477Y-1881428D01*
X-57790477Y-1881428D02*
X-57790477Y-1643333D01*
X-57790477Y-1643333D02*
X-57838096Y-1452857D01*
X-57838096Y-1452857D02*
X-57885715Y-1357619D01*
X-57885715Y-1357619D02*
X-57933334Y-1310000D01*
X-57933334Y-1310000D02*
X-58028572Y-1262380D01*
%TO.C,K31*%
X37396241Y-52616407D02*
X37569889Y-51631599D01*
X36833493Y-52517180D02*
X37354781Y-52028853D01*
X37007142Y-51532372D02*
X37470661Y-52194347D01*
X36678872Y-51474489D02*
X36069229Y-51366993D01*
X36069229Y-51366993D02*
X36331347Y-51800040D01*
X36331347Y-51800040D02*
X36190660Y-51775233D01*
X36190660Y-51775233D02*
X36088600Y-51805591D01*
X36088600Y-51805591D02*
X36033435Y-51844218D01*
X36033435Y-51844218D02*
X35970002Y-51929740D01*
X35970002Y-51929740D02*
X35928657Y-52164218D01*
X35928657Y-52164218D02*
X35959015Y-52266278D01*
X35959015Y-52266278D02*
X35997641Y-52321443D01*
X35997641Y-52321443D02*
X36083164Y-52384876D01*
X36083164Y-52384876D02*
X36364537Y-52434490D01*
X36364537Y-52434490D02*
X36466597Y-52404132D01*
X36466597Y-52404132D02*
X36521762Y-52365506D01*
X34957669Y-52186421D02*
X35520416Y-52285649D01*
X35239043Y-52236035D02*
X35412691Y-51251227D01*
X35412691Y-51251227D02*
X35481675Y-51408452D01*
X35481675Y-51408452D02*
X35558929Y-51518781D01*
X35558929Y-51518781D02*
X35644451Y-51582215D01*
%TO.C,G\u002A\u002A\u002A*%
G36*
X63019110Y-11671200D02*
G01*
X62973786Y-11629768D01*
X62917995Y-11550015D01*
X62886957Y-11495950D01*
X62845033Y-11412703D01*
X62829149Y-11364980D01*
X62829763Y-11360688D01*
X62841244Y-11332947D01*
X62909695Y-11332947D01*
X62914010Y-11429073D01*
X62962413Y-11529124D01*
X63023238Y-11623964D01*
X63193782Y-11323001D01*
X63241424Y-11238601D01*
X63307467Y-11120379D01*
X63355194Y-11033378D01*
X63376599Y-10992090D01*
X63373911Y-10984014D01*
X63327171Y-10972531D01*
X63260369Y-10972871D01*
X63240041Y-10972975D01*
X63189560Y-10977762D01*
X63115031Y-10998020D01*
X63058952Y-11046365D01*
X62996590Y-11139741D01*
X62951282Y-11220087D01*
X62909695Y-11332947D01*
X62841244Y-11332947D01*
X62852272Y-11306300D01*
X62900890Y-11213456D01*
X62967101Y-11096317D01*
X63042389Y-10969044D01*
X63081374Y-10905699D01*
X63145432Y-10905699D01*
X63175204Y-10927846D01*
X63260369Y-10931828D01*
X63325815Y-10930848D01*
X63371070Y-10918392D01*
X63366482Y-10878622D01*
X63318884Y-10795639D01*
X63256117Y-10692427D01*
X63197601Y-10791485D01*
X63164212Y-10850092D01*
X63145432Y-10905699D01*
X63081374Y-10905699D01*
X63118240Y-10845797D01*
X63186137Y-10740738D01*
X63237565Y-10668027D01*
X63264009Y-10641826D01*
X63279361Y-10653078D01*
X63323352Y-10710188D01*
X63377372Y-10798452D01*
X63462281Y-10950538D01*
X63263288Y-11296367D01*
X63189694Y-11422935D01*
X63117709Y-11543852D01*
X63063865Y-11631065D01*
X63036206Y-11671297D01*
X63023238Y-11671223D01*
X63019110Y-11671200D01*
G37*
G36*
X64088390Y-12653699D02*
G01*
X64037944Y-12747952D01*
X63963997Y-12881732D01*
X63902440Y-12988017D01*
X63862974Y-13049763D01*
X63831503Y-13088440D01*
X63818098Y-13092383D01*
X63804103Y-13096500D01*
X63770489Y-13060415D01*
X63716030Y-12972490D01*
X63683587Y-12916558D01*
X63641255Y-12836044D01*
X63624544Y-12792542D01*
X63626324Y-12788129D01*
X63701897Y-12788129D01*
X63713651Y-12864375D01*
X63758342Y-12948092D01*
X63818098Y-13041164D01*
X63989711Y-12723571D01*
X64042512Y-12625602D01*
X64106522Y-12506046D01*
X64152473Y-12419241D01*
X64172874Y-12379272D01*
X64172218Y-12373535D01*
X64132153Y-12358567D01*
X64050231Y-12352565D01*
X64041099Y-12352587D01*
X63968716Y-12358057D01*
X63917006Y-12382844D01*
X63868262Y-12440924D01*
X63804778Y-12546270D01*
X63786375Y-12578661D01*
X63725374Y-12699506D01*
X63701897Y-12788129D01*
X63626324Y-12788129D01*
X63638198Y-12758688D01*
X63679577Y-12678129D01*
X63740374Y-12566527D01*
X63812138Y-12438734D01*
X63886417Y-12309603D01*
X63895117Y-12294885D01*
X63957171Y-12294885D01*
X63984538Y-12314376D01*
X64057038Y-12317913D01*
X64180429Y-12317913D01*
X64124062Y-12208911D01*
X64098221Y-12162876D01*
X64064048Y-12128591D01*
X64035382Y-12148269D01*
X64031041Y-12154771D01*
X63973239Y-12246123D01*
X63957171Y-12294885D01*
X63895117Y-12294885D01*
X63954761Y-12193986D01*
X64008718Y-12106735D01*
X64039836Y-12062703D01*
X64057958Y-12062610D01*
X64105207Y-12103605D01*
X64163408Y-12182607D01*
X64258020Y-12332482D01*
X64180429Y-12479411D01*
X64088390Y-12653699D01*
G37*
G36*
X59891698Y-10840657D02*
G01*
X59859166Y-10834038D01*
X59796299Y-10807749D01*
X59718978Y-10728612D01*
X59661776Y-10619295D01*
X59648019Y-10547303D01*
X59719268Y-10547303D01*
X59763431Y-10680601D01*
X59769557Y-10694105D01*
X59824039Y-10770705D01*
X59896180Y-10793220D01*
X59900017Y-10793164D01*
X59947232Y-10780206D01*
X59996450Y-10737115D01*
X60057108Y-10653162D01*
X60138646Y-10517618D01*
X60175010Y-10454069D01*
X60237934Y-10341304D01*
X60281396Y-10259499D01*
X60297613Y-10223075D01*
X60268020Y-10213729D01*
X60186727Y-10206787D01*
X60071865Y-10204134D01*
X60038021Y-10204187D01*
X59928055Y-10207649D01*
X59861815Y-10222269D01*
X59818535Y-10255990D01*
X59777451Y-10316753D01*
X59774251Y-10322042D01*
X59722511Y-10437228D01*
X59719268Y-10547303D01*
X59648019Y-10547303D01*
X59639352Y-10501948D01*
X59640654Y-10482853D01*
X59670557Y-10384192D01*
X59727616Y-10285372D01*
X59762059Y-10241737D01*
X59806112Y-10200628D01*
X59861335Y-10179063D01*
X59947105Y-10170704D01*
X60082801Y-10169215D01*
X60349591Y-10168948D01*
X60426185Y-10034790D01*
X60502780Y-9900632D01*
X60348218Y-9841604D01*
X60256252Y-9800066D01*
X60203767Y-9749061D01*
X60205379Y-9739621D01*
X60274497Y-9739621D01*
X60299743Y-9765278D01*
X60380936Y-9802020D01*
X60395122Y-9807973D01*
X60481116Y-9843057D01*
X60527384Y-9849187D01*
X60556779Y-9821131D01*
X60592156Y-9753656D01*
X60645914Y-9649700D01*
X60536088Y-9649700D01*
X60513038Y-9649700D01*
X60497513Y-9650013D01*
X60392281Y-9665791D01*
X60314023Y-9698063D01*
X60296408Y-9711394D01*
X60274497Y-9739621D01*
X60205379Y-9739621D01*
X60214365Y-9687016D01*
X60285012Y-9602447D01*
X60303100Y-9587684D01*
X60416780Y-9587684D01*
X60449294Y-9607646D01*
X60536088Y-9615048D01*
X60564344Y-9614342D01*
X60650747Y-9602407D01*
X60696112Y-9580396D01*
X60698227Y-9573108D01*
X60665714Y-9553146D01*
X60578920Y-9545744D01*
X60550663Y-9546450D01*
X60464260Y-9558385D01*
X60418895Y-9580396D01*
X60416780Y-9587684D01*
X60303100Y-9587684D01*
X60352824Y-9547101D01*
X60434446Y-9518423D01*
X60554824Y-9511092D01*
X60733281Y-9511092D01*
X60948598Y-9146063D01*
X60951807Y-9140620D01*
X61034292Y-8998359D01*
X61101722Y-8877749D01*
X61147221Y-8791377D01*
X61163916Y-8751831D01*
X61168519Y-8743483D01*
X61216809Y-8709521D01*
X61300395Y-8665796D01*
X61397677Y-8622253D01*
X61487058Y-8588834D01*
X61546938Y-8575485D01*
X61562987Y-8571383D01*
X61626274Y-8534425D01*
X61706318Y-8471528D01*
X61755522Y-8431625D01*
X61855294Y-8381034D01*
X61977816Y-8367572D01*
X61998493Y-8367749D01*
X62156121Y-8387565D01*
X62273308Y-8447061D01*
X62370392Y-8555997D01*
X62464399Y-8652188D01*
X62594996Y-8726933D01*
X62625672Y-8739467D01*
X62657748Y-8756851D01*
X62690930Y-8782819D01*
X62728592Y-8822503D01*
X62774108Y-8881036D01*
X62830852Y-8963549D01*
X62902197Y-9075176D01*
X62991519Y-9221048D01*
X63102191Y-9406297D01*
X63237586Y-9636056D01*
X63401080Y-9915458D01*
X63596046Y-10249634D01*
X63610900Y-10275116D01*
X63780701Y-10567543D01*
X63939818Y-10843596D01*
X64084762Y-11097078D01*
X64212040Y-11321793D01*
X64318163Y-11511545D01*
X64399638Y-11660138D01*
X64452976Y-11761377D01*
X64474685Y-11809065D01*
X64475640Y-11906322D01*
X64424012Y-12043109D01*
X64350159Y-12184798D01*
X64495529Y-12453940D01*
X64640898Y-12723083D01*
X64344991Y-13239529D01*
X64049083Y-13755976D01*
X64017926Y-13757245D01*
X63796436Y-13766269D01*
X63543789Y-13776562D01*
X63532650Y-13788241D01*
X63379273Y-13949056D01*
X63374920Y-13953677D01*
X63321823Y-14018640D01*
X63292414Y-14054622D01*
X63190887Y-14197382D01*
X63082809Y-14363626D01*
X62980649Y-14535024D01*
X62914850Y-14650282D01*
X62834121Y-14785582D01*
X62771597Y-14877729D01*
X62718539Y-14937677D01*
X62700560Y-14950973D01*
X62666207Y-14976378D01*
X62605864Y-15004787D01*
X62563031Y-15025328D01*
X62448562Y-15102822D01*
X62348959Y-15196861D01*
X62328456Y-15220664D01*
X62267212Y-15284072D01*
X62209328Y-15317465D01*
X62130587Y-15330453D01*
X62115463Y-15330721D01*
X62006769Y-15332647D01*
X61897968Y-15330338D01*
X61886854Y-15330102D01*
X61803372Y-15316992D01*
X61743517Y-15285718D01*
X61683697Y-15228691D01*
X61668120Y-15212960D01*
X61582330Y-15149843D01*
X61541569Y-15136546D01*
X61505197Y-15124680D01*
X61496460Y-15124371D01*
X61406482Y-15104774D01*
X61320120Y-15069710D01*
X61306151Y-15064039D01*
X61297340Y-15059109D01*
X61264935Y-15034374D01*
X61226031Y-14993412D01*
X61177523Y-14931346D01*
X61116307Y-14843294D01*
X61039276Y-14724379D01*
X60943326Y-14569722D01*
X60825352Y-14374443D01*
X60682248Y-14133663D01*
X60510908Y-13842503D01*
X60308229Y-13496085D01*
X60305143Y-13490801D01*
X60098573Y-13138153D01*
X59923841Y-12839904D01*
X59779268Y-12589887D01*
X59663175Y-12381937D01*
X59573885Y-12209891D01*
X59509719Y-12067581D01*
X59468999Y-11948844D01*
X59451671Y-11856201D01*
X59477856Y-11856201D01*
X59484307Y-11895963D01*
X59501610Y-11949318D01*
X59532496Y-12021374D01*
X59579697Y-12117237D01*
X59645945Y-12242016D01*
X59733970Y-12400818D01*
X59846504Y-12598751D01*
X59986278Y-12840922D01*
X60156025Y-13132438D01*
X60358474Y-13478407D01*
X60463345Y-13656940D01*
X60666139Y-13999493D01*
X60844356Y-14296687D01*
X60996434Y-14546011D01*
X61120815Y-14744953D01*
X61215941Y-14891001D01*
X61280250Y-14981645D01*
X61312184Y-15014373D01*
X61320120Y-15014596D01*
X61327655Y-14991188D01*
X61303937Y-14926390D01*
X61246587Y-14814766D01*
X61153228Y-14650877D01*
X61097855Y-14556100D01*
X61003805Y-14394986D01*
X60885366Y-14191995D01*
X60748278Y-13956969D01*
X60598283Y-13699752D01*
X60441122Y-13430187D01*
X60282538Y-13158117D01*
X59631163Y-12040477D01*
X59642465Y-11869121D01*
X59680746Y-11869121D01*
X59693493Y-12001626D01*
X59745104Y-12126095D01*
X59780001Y-12188662D01*
X59853584Y-12318092D01*
X59950706Y-12487089D01*
X60067199Y-12688547D01*
X60198898Y-12915357D01*
X60341635Y-13160413D01*
X60491245Y-13416607D01*
X60643561Y-13676831D01*
X60794416Y-13933977D01*
X60939645Y-14180938D01*
X61075080Y-14410606D01*
X61196556Y-14615874D01*
X61299905Y-14789634D01*
X61380962Y-14924778D01*
X61435560Y-15014199D01*
X61459533Y-15050789D01*
X61488794Y-15073985D01*
X61541569Y-15085441D01*
X61536216Y-15062407D01*
X61500459Y-14984832D01*
X61435888Y-14858414D01*
X61345753Y-14689162D01*
X61233302Y-14483086D01*
X61101785Y-14246193D01*
X60954452Y-13984494D01*
X60794552Y-13703998D01*
X60668683Y-13484406D01*
X60511352Y-13209613D01*
X60365692Y-12954854D01*
X60235508Y-12726808D01*
X60124609Y-12532152D01*
X60036802Y-12377562D01*
X59975893Y-12269717D01*
X59945692Y-12215293D01*
X59932063Y-12186934D01*
X59888845Y-12024730D01*
X59884553Y-11933972D01*
X59918088Y-11933972D01*
X59939811Y-12075348D01*
X59959438Y-12117201D01*
X60010993Y-12214604D01*
X60089626Y-12357870D01*
X60191257Y-12539920D01*
X60311807Y-12753675D01*
X60447196Y-12992055D01*
X60593344Y-13247982D01*
X60746171Y-13514376D01*
X60901599Y-13784158D01*
X61055547Y-14050248D01*
X61203936Y-14305568D01*
X61342686Y-14543038D01*
X61467717Y-14755580D01*
X61574950Y-14936113D01*
X61660305Y-15077558D01*
X61719703Y-15172837D01*
X61749064Y-15214870D01*
X61752120Y-15217898D01*
X61828709Y-15274571D01*
X61897968Y-15297995D01*
X61916042Y-15297276D01*
X61937288Y-15284736D01*
X61920884Y-15246128D01*
X61863252Y-15168049D01*
X61818005Y-15102081D01*
X61743548Y-14982900D01*
X61645514Y-14819785D01*
X61528076Y-14620152D01*
X61395404Y-14391420D01*
X61251673Y-14141006D01*
X61101055Y-13876328D01*
X60947722Y-13604803D01*
X60795846Y-13333848D01*
X60649601Y-13070883D01*
X60513159Y-12823323D01*
X60390693Y-12598586D01*
X60286374Y-12404091D01*
X60204376Y-12247254D01*
X60148871Y-12135494D01*
X60124031Y-12076227D01*
X60109767Y-12007440D01*
X60102820Y-11845753D01*
X60132484Y-11845753D01*
X60133209Y-11910972D01*
X60147642Y-11988718D01*
X60156565Y-12024655D01*
X60173225Y-12076512D01*
X60198280Y-12139186D01*
X60234638Y-12218149D01*
X60285205Y-12318873D01*
X60352892Y-12446832D01*
X60440604Y-12607497D01*
X60551250Y-12806340D01*
X60687739Y-13048836D01*
X60852977Y-13340455D01*
X61049873Y-13686671D01*
X61087581Y-13752862D01*
X61289513Y-14105587D01*
X61461687Y-14402580D01*
X61606999Y-14648224D01*
X61728348Y-14846901D01*
X61828631Y-15002991D01*
X61910745Y-15120876D01*
X61977587Y-15204938D01*
X62032057Y-15259557D01*
X62077049Y-15289116D01*
X62115463Y-15297995D01*
X62122772Y-15297261D01*
X62185470Y-15269009D01*
X62262188Y-15212460D01*
X62359414Y-15126924D01*
X62229435Y-15125939D01*
X62214976Y-15125829D01*
X62089484Y-15118124D01*
X62053519Y-15108574D01*
X61993920Y-15092747D01*
X61960914Y-15051191D01*
X61948284Y-15023950D01*
X61904950Y-14942603D01*
X61834700Y-14814616D01*
X61741615Y-14647174D01*
X61629774Y-14447465D01*
X61503259Y-14222673D01*
X61366148Y-13979987D01*
X61222522Y-13726592D01*
X61076462Y-13469674D01*
X60932047Y-13216420D01*
X60793359Y-12974016D01*
X60664476Y-12749649D01*
X60549480Y-12550504D01*
X60452450Y-12383769D01*
X60377467Y-12256629D01*
X60363110Y-12233015D01*
X60437227Y-12233015D01*
X60444957Y-12252099D01*
X60482573Y-12325047D01*
X60547764Y-12444895D01*
X60636418Y-12604494D01*
X60744425Y-12796694D01*
X60867673Y-13014346D01*
X61002051Y-13250301D01*
X61143448Y-13497409D01*
X61287753Y-13748522D01*
X61430854Y-13996490D01*
X61568640Y-14234165D01*
X61697000Y-14454396D01*
X61811823Y-14650034D01*
X61908997Y-14813931D01*
X61984412Y-14938938D01*
X62033956Y-15017904D01*
X62053519Y-15043681D01*
X62051359Y-15036596D01*
X62023452Y-14980546D01*
X61966975Y-14874841D01*
X61886017Y-14726716D01*
X61784665Y-14543407D01*
X61667007Y-14332149D01*
X61537131Y-14100177D01*
X61399124Y-13854728D01*
X61257073Y-13603035D01*
X61115067Y-13352336D01*
X60977193Y-13109864D01*
X60847539Y-12882857D01*
X60730193Y-12678549D01*
X60629242Y-12504175D01*
X60548773Y-12366971D01*
X60492875Y-12274173D01*
X60465635Y-12233015D01*
X60451188Y-12219918D01*
X60437227Y-12233015D01*
X60363110Y-12233015D01*
X60328611Y-12176271D01*
X60287042Y-12100052D01*
X60232436Y-11917362D01*
X60235017Y-11737007D01*
X60295717Y-11575960D01*
X60299867Y-11569105D01*
X60337289Y-11482131D01*
X60335709Y-11422531D01*
X60326340Y-11412171D01*
X60288392Y-11419874D01*
X60243013Y-11478596D01*
X60197846Y-11576207D01*
X60160534Y-11700577D01*
X60146884Y-11761342D01*
X60132484Y-11845753D01*
X60102820Y-11845753D01*
X60101476Y-11814479D01*
X60130918Y-11621772D01*
X60194549Y-11460273D01*
X60260623Y-11347654D01*
X60173568Y-11347654D01*
X60158153Y-11348252D01*
X60104881Y-11366946D01*
X60057319Y-11422566D01*
X60001814Y-11529577D01*
X59976854Y-11589937D01*
X59931496Y-11762836D01*
X59918088Y-11933972D01*
X59884553Y-11933972D01*
X59879891Y-11835380D01*
X59904588Y-11645836D01*
X59962325Y-11483049D01*
X59987343Y-11437049D01*
X60038009Y-11365587D01*
X60096483Y-11332425D01*
X60187402Y-11319680D01*
X60280531Y-11318281D01*
X60335131Y-11339154D01*
X60370026Y-11392617D01*
X60386800Y-11445748D01*
X60379399Y-11517593D01*
X60335535Y-11618460D01*
X60276190Y-11779562D01*
X60273355Y-11943041D01*
X60336218Y-12099070D01*
X60387788Y-12173213D01*
X60420547Y-12200903D01*
X60421689Y-12172473D01*
X60385076Y-12089167D01*
X60380448Y-12080232D01*
X60360045Y-12037302D01*
X60345159Y-11993823D01*
X60337613Y-11946078D01*
X60339228Y-11890351D01*
X60350175Y-11831770D01*
X60378224Y-11831770D01*
X60378329Y-11865723D01*
X60386227Y-11907795D01*
X60404613Y-11963171D01*
X60436182Y-12037036D01*
X60483627Y-12134574D01*
X60549643Y-12260973D01*
X60636925Y-12421415D01*
X60748166Y-12621087D01*
X60886061Y-12865174D01*
X61053304Y-13158861D01*
X61252591Y-13507332D01*
X61310333Y-13608039D01*
X61480379Y-13902974D01*
X61640088Y-14177607D01*
X61786054Y-14426225D01*
X61914868Y-14643118D01*
X62023123Y-14822573D01*
X62107412Y-14958880D01*
X62164325Y-15046327D01*
X62190455Y-15079202D01*
X62229435Y-15079725D01*
X62318386Y-15059442D01*
X62428727Y-15020774D01*
X62618519Y-14943743D01*
X62555369Y-14852315D01*
X62554190Y-14850601D01*
X62503035Y-14770536D01*
X62426042Y-14642733D01*
X62327233Y-14474381D01*
X62210627Y-14272673D01*
X62080246Y-14044798D01*
X61940109Y-13797948D01*
X61794238Y-13539313D01*
X61646652Y-13276085D01*
X61501371Y-13015454D01*
X61362418Y-12764611D01*
X61233811Y-12530748D01*
X61119572Y-12321053D01*
X61023721Y-12142720D01*
X60950278Y-12002938D01*
X60903264Y-11908899D01*
X60889412Y-11874526D01*
X60922340Y-11874526D01*
X60933937Y-11902065D01*
X60976513Y-11984431D01*
X61046527Y-12113768D01*
X61139924Y-12282978D01*
X61252652Y-12484957D01*
X61380658Y-12712606D01*
X61519890Y-12958824D01*
X61666292Y-13216510D01*
X61815814Y-13478564D01*
X61964401Y-13737883D01*
X62108001Y-13987368D01*
X62242560Y-14219918D01*
X62364026Y-14428431D01*
X62468345Y-14605808D01*
X62551464Y-14744946D01*
X62609331Y-14838746D01*
X62637891Y-14880107D01*
X62669186Y-14906406D01*
X62700560Y-14914759D01*
X62702948Y-14911402D01*
X62731787Y-14863963D01*
X62786478Y-14770709D01*
X62860298Y-14643173D01*
X62946525Y-14492886D01*
X63178889Y-14086277D01*
X63158243Y-14068002D01*
X63090180Y-14007757D01*
X63083140Y-13999678D01*
X63041751Y-13938607D01*
X62972042Y-13826837D01*
X62878172Y-13671570D01*
X62764298Y-13480006D01*
X62634582Y-13259343D01*
X62493182Y-13016782D01*
X62344257Y-12759522D01*
X62191966Y-12494764D01*
X62040468Y-12229708D01*
X61893923Y-11971552D01*
X61756490Y-11727497D01*
X61632327Y-11504743D01*
X61525595Y-11310490D01*
X61440451Y-11151937D01*
X61382902Y-11042851D01*
X61152127Y-11436244D01*
X61136211Y-11463486D01*
X61052289Y-11611056D01*
X60984252Y-11737178D01*
X60938727Y-11829214D01*
X60922340Y-11874526D01*
X60889412Y-11874526D01*
X60886699Y-11867793D01*
X60898500Y-11829797D01*
X60941344Y-11736845D01*
X61011009Y-11600747D01*
X61102759Y-11430450D01*
X61211863Y-11234903D01*
X61332142Y-11025565D01*
X61440161Y-11025565D01*
X61443781Y-11040204D01*
X61453851Y-11064638D01*
X61473123Y-11103928D01*
X61504347Y-11163137D01*
X61550277Y-11247325D01*
X61613662Y-11361555D01*
X61697255Y-11510888D01*
X61803808Y-11700385D01*
X61936071Y-11935108D01*
X62096796Y-12220118D01*
X62288735Y-12560478D01*
X62396352Y-12750845D01*
X62549893Y-13020683D01*
X62692432Y-13269138D01*
X62820164Y-13489692D01*
X62929287Y-13675827D01*
X63015997Y-13821025D01*
X63076490Y-13918769D01*
X63106962Y-13962541D01*
X63158243Y-14001595D01*
X63205294Y-13997193D01*
X63206277Y-13993607D01*
X63188796Y-13942489D01*
X63137163Y-13835561D01*
X63052889Y-13675587D01*
X62937485Y-13465328D01*
X62792462Y-13207548D01*
X62619331Y-12905011D01*
X62419602Y-12560478D01*
X62297404Y-12350658D01*
X62125654Y-12054740D01*
X61984415Y-11809465D01*
X61870758Y-11609247D01*
X61781753Y-11448497D01*
X61714469Y-11321627D01*
X61665977Y-11223050D01*
X61633347Y-11147178D01*
X61613648Y-11088422D01*
X61603951Y-11041195D01*
X61602082Y-11011810D01*
X61651775Y-11011810D01*
X61653324Y-11034228D01*
X61663242Y-11082419D01*
X61684854Y-11144882D01*
X61721143Y-11227269D01*
X61775091Y-11335233D01*
X61849680Y-11474425D01*
X61947894Y-11650497D01*
X62072714Y-11869103D01*
X62227124Y-12135894D01*
X62414105Y-12456521D01*
X62510216Y-12620730D01*
X62668038Y-12889452D01*
X62815055Y-13138652D01*
X62947257Y-13361600D01*
X63060638Y-13551566D01*
X63151188Y-13701821D01*
X63214900Y-13805634D01*
X63247765Y-13856275D01*
X63321823Y-13956574D01*
X63384718Y-13873601D01*
X63424493Y-13816693D01*
X63422476Y-13788747D01*
X63372553Y-13772031D01*
X63370975Y-13771564D01*
X63341016Y-13747584D01*
X63293354Y-13688194D01*
X63225740Y-13589783D01*
X63135925Y-13448737D01*
X63021660Y-13261443D01*
X62880695Y-13024289D01*
X62710782Y-12733661D01*
X62509672Y-12385947D01*
X62375626Y-12152765D01*
X62222900Y-11885775D01*
X62084197Y-11641873D01*
X61962971Y-11427205D01*
X61862676Y-11247918D01*
X61786765Y-11110159D01*
X61785215Y-11107255D01*
X61738690Y-11020073D01*
X61737943Y-11018459D01*
X61786517Y-11018459D01*
X62552024Y-12352565D01*
X62667958Y-12554396D01*
X62820786Y-12819766D01*
X62960892Y-13062258D01*
X63084663Y-13275660D01*
X63188483Y-13453758D01*
X63268737Y-13590338D01*
X63321811Y-13679186D01*
X63344089Y-13714090D01*
X63354256Y-13719006D01*
X63421108Y-13728552D01*
X63532650Y-13733000D01*
X63671261Y-13731416D01*
X63971874Y-13721324D01*
X63206367Y-12387217D01*
X63090433Y-12185386D01*
X62937605Y-11920016D01*
X62797498Y-11677524D01*
X62673728Y-11464122D01*
X62569908Y-11286024D01*
X62489654Y-11149444D01*
X62436580Y-11060596D01*
X62414302Y-11025692D01*
X62404135Y-11020776D01*
X62337283Y-11011230D01*
X62225741Y-11006782D01*
X62087130Y-11008366D01*
X61786517Y-11018459D01*
X61737943Y-11018459D01*
X61721906Y-10983807D01*
X61728222Y-10966480D01*
X61785215Y-10966480D01*
X62095455Y-10966480D01*
X62405694Y-10966480D01*
X62409999Y-10959565D01*
X62493132Y-10959565D01*
X62496250Y-10975057D01*
X62527367Y-11046936D01*
X62588860Y-11169899D01*
X62677672Y-11338277D01*
X62790741Y-11546402D01*
X62925010Y-11788604D01*
X63077418Y-12059215D01*
X63244907Y-12352565D01*
X63363207Y-12558390D01*
X63514705Y-12821806D01*
X63652722Y-13061588D01*
X63773753Y-13271659D01*
X63874293Y-13445941D01*
X63950839Y-13578355D01*
X63999885Y-13662824D01*
X64017926Y-13693268D01*
X64025235Y-13686140D01*
X64059951Y-13632570D01*
X64116652Y-13537213D01*
X64188474Y-13412380D01*
X64268554Y-13270387D01*
X64350028Y-13123548D01*
X64426032Y-12984175D01*
X64489704Y-12864585D01*
X64534179Y-12777089D01*
X64552595Y-12734003D01*
X64552548Y-12727250D01*
X64532480Y-12665846D01*
X64484876Y-12560543D01*
X64415836Y-12424151D01*
X64331458Y-12269482D01*
X64306514Y-12225272D01*
X64100223Y-11859649D01*
X64124063Y-11809656D01*
X64189089Y-11809656D01*
X64192714Y-11907840D01*
X64242459Y-12014645D01*
X64261684Y-12045658D01*
X64306514Y-12099606D01*
X64342384Y-12092700D01*
X64385038Y-12026218D01*
X64415307Y-11953129D01*
X64422090Y-11814649D01*
X64362289Y-11668260D01*
X64294701Y-11557120D01*
X64236675Y-11678801D01*
X64231076Y-11690694D01*
X64189089Y-11809656D01*
X64124063Y-11809656D01*
X64156762Y-11741084D01*
X64164353Y-11724742D01*
X64199156Y-11636229D01*
X64213302Y-11575610D01*
X64210771Y-11564513D01*
X64182477Y-11499173D01*
X64127760Y-11390698D01*
X64052831Y-11251122D01*
X63963905Y-11092485D01*
X63729574Y-10682620D01*
X63714509Y-10656270D01*
X63622824Y-10766094D01*
X63543134Y-10861550D01*
X63531139Y-10875918D01*
X63392793Y-10635319D01*
X63392542Y-10634882D01*
X63388953Y-10628622D01*
X63452183Y-10628622D01*
X63464659Y-10655437D01*
X63498272Y-10718158D01*
X63543134Y-10799031D01*
X63601800Y-10709495D01*
X63604229Y-10705786D01*
X63639553Y-10645417D01*
X63626645Y-10623152D01*
X63555710Y-10619959D01*
X63553752Y-10619961D01*
X63481451Y-10622558D01*
X63452183Y-10628622D01*
X63388953Y-10628622D01*
X63308949Y-10489088D01*
X63222739Y-10338074D01*
X63152537Y-10214464D01*
X63050625Y-10034207D01*
X62779286Y-10467440D01*
X62738600Y-10532795D01*
X62645904Y-10684847D01*
X62569412Y-10814713D01*
X62516146Y-10910312D01*
X62493132Y-10959565D01*
X62409999Y-10959565D01*
X62680754Y-10524666D01*
X62726465Y-10451186D01*
X62820029Y-10300406D01*
X62898247Y-10173856D01*
X62954005Y-10083059D01*
X62980191Y-10039536D01*
X62976283Y-10018870D01*
X62930088Y-10005445D01*
X62832515Y-9998317D01*
X62674651Y-9996221D01*
X62344734Y-9996221D01*
X62105691Y-10403384D01*
X62087024Y-10435205D01*
X61996695Y-10589913D01*
X61917781Y-10726206D01*
X61858215Y-10830326D01*
X61825931Y-10888513D01*
X61785215Y-10966480D01*
X61728222Y-10966480D01*
X61729342Y-10963407D01*
X61766392Y-10890037D01*
X61829228Y-10775147D01*
X61911893Y-10629541D01*
X62008432Y-10464025D01*
X62114453Y-10287588D01*
X62207835Y-10141342D01*
X62278654Y-10043776D01*
X62331884Y-9988109D01*
X62372498Y-9967557D01*
X62419748Y-9950650D01*
X62439407Y-9901967D01*
X62429516Y-9876967D01*
X62386579Y-9825432D01*
X62334077Y-9789605D01*
X62297343Y-9789534D01*
X62279971Y-9816743D01*
X62232085Y-9894965D01*
X62159913Y-10014145D01*
X62069398Y-10164461D01*
X61966486Y-10336094D01*
X61964923Y-10338706D01*
X61848111Y-10536183D01*
X61763599Y-10685691D01*
X61706547Y-10797619D01*
X61672118Y-10882355D01*
X61655474Y-10950290D01*
X61651775Y-11011810D01*
X61602082Y-11011810D01*
X61601325Y-10999910D01*
X61601415Y-10988098D01*
X61607065Y-10923889D01*
X61625053Y-10854655D01*
X61660341Y-10769697D01*
X61717887Y-10658320D01*
X61802653Y-10509825D01*
X61919598Y-10313516D01*
X62010686Y-10160807D01*
X62101564Y-10005293D01*
X62173600Y-9878496D01*
X62221040Y-9790563D01*
X62238131Y-9751642D01*
X62234168Y-9738478D01*
X62191753Y-9719004D01*
X62187345Y-9720695D01*
X62149746Y-9762565D01*
X62085714Y-9853891D01*
X62001071Y-9985674D01*
X61901643Y-10148917D01*
X61793254Y-10334622D01*
X61768998Y-10377152D01*
X61664847Y-10562705D01*
X61574810Y-10727785D01*
X61504083Y-10862540D01*
X61457863Y-10957121D01*
X61441346Y-11001676D01*
X61441265Y-11005428D01*
X61440239Y-11015661D01*
X61440161Y-11025565D01*
X61332142Y-11025565D01*
X61333586Y-11023052D01*
X61371521Y-10957854D01*
X61529042Y-10685585D01*
X61699456Y-10388987D01*
X61870751Y-10089075D01*
X62030916Y-9806862D01*
X62109606Y-9667026D01*
X62172900Y-9667026D01*
X62309328Y-9725033D01*
X62310215Y-9725411D01*
X62418028Y-9791432D01*
X62479153Y-9870880D01*
X62492234Y-9901211D01*
X62519260Y-9933465D01*
X62568421Y-9952244D01*
X62655439Y-9962406D01*
X62796032Y-9968808D01*
X63079513Y-9978895D01*
X63251823Y-10282101D01*
X63424134Y-10585307D01*
X63576854Y-10585307D01*
X63729574Y-10585307D01*
X63633580Y-10419173D01*
X63468721Y-10134142D01*
X63274999Y-9800200D01*
X63112234Y-9521010D01*
X62978546Y-9293413D01*
X62872052Y-9114249D01*
X62790871Y-8980357D01*
X62733120Y-8888577D01*
X62696917Y-8835750D01*
X62680380Y-8818716D01*
X62670159Y-8823598D01*
X62628043Y-8869426D01*
X62573575Y-8947995D01*
X62554164Y-8979825D01*
X62490774Y-9088572D01*
X62412724Y-9226855D01*
X62332612Y-9372483D01*
X62172900Y-9667026D01*
X62109606Y-9667026D01*
X62167940Y-9563363D01*
X62227611Y-9456899D01*
X62335561Y-9265466D01*
X62430775Y-9098111D01*
X62508019Y-8963957D01*
X62562059Y-8872129D01*
X62587660Y-8831751D01*
X62591954Y-8810998D01*
X62548982Y-8770632D01*
X62441727Y-8718839D01*
X62368297Y-8689845D01*
X62273691Y-8657407D01*
X62217948Y-8644789D01*
X62209635Y-8645489D01*
X62187420Y-8654516D01*
X62159916Y-8677642D01*
X62124249Y-8719497D01*
X62077545Y-8784706D01*
X62016932Y-8877898D01*
X61939536Y-9003702D01*
X61842484Y-9166744D01*
X61722902Y-9371653D01*
X61577916Y-9623056D01*
X61404654Y-9925581D01*
X61200242Y-10283856D01*
X61047084Y-10553640D01*
X60848027Y-10908300D01*
X60683644Y-11206662D01*
X60554235Y-11448165D01*
X60460101Y-11632243D01*
X60401540Y-11758334D01*
X60378855Y-11825875D01*
X60378224Y-11831770D01*
X60350175Y-11831770D01*
X60351828Y-11822927D01*
X60377234Y-11740089D01*
X60417269Y-11638120D01*
X60473755Y-11513306D01*
X60548513Y-11361929D01*
X60643367Y-11180275D01*
X60760138Y-10964625D01*
X60900649Y-10711266D01*
X61066722Y-10416479D01*
X61260179Y-10076550D01*
X61482842Y-9687762D01*
X61736534Y-9246399D01*
X62023077Y-8748745D01*
X62043009Y-8709150D01*
X62028462Y-8715680D01*
X61973630Y-8775047D01*
X61892415Y-8846516D01*
X61865101Y-8857152D01*
X61781130Y-8889852D01*
X61754724Y-8886078D01*
X61677129Y-8874988D01*
X61609363Y-8814626D01*
X61594056Y-8800991D01*
X61569278Y-8745885D01*
X61639868Y-8745885D01*
X61650828Y-8791152D01*
X61693577Y-8833795D01*
X61754724Y-8852702D01*
X61767054Y-8851850D01*
X61813890Y-8821308D01*
X61817107Y-8769505D01*
X61772352Y-8727401D01*
X61750153Y-8721134D01*
X61670446Y-8719825D01*
X61639868Y-8745885D01*
X61569278Y-8745885D01*
X61560716Y-8726843D01*
X61558790Y-8683364D01*
X61830014Y-8683364D01*
X61831890Y-8709515D01*
X61852582Y-8742851D01*
X61865101Y-8757203D01*
X61899818Y-8752192D01*
X61953229Y-8690872D01*
X62005985Y-8631690D01*
X62074185Y-8600414D01*
X62181277Y-8592811D01*
X62337891Y-8592811D01*
X62264645Y-8514843D01*
X62231365Y-8483647D01*
X62136222Y-8441132D01*
X62036792Y-8466228D01*
X61929852Y-8559364D01*
X61914747Y-8576531D01*
X61854963Y-8645376D01*
X61830014Y-8683364D01*
X61558790Y-8683364D01*
X61558616Y-8679441D01*
X61609363Y-8679441D01*
X61694523Y-8679441D01*
X61757206Y-8664360D01*
X61833260Y-8597673D01*
X61879989Y-8533129D01*
X61943677Y-8459064D01*
X61966970Y-8430616D01*
X61964407Y-8404528D01*
X61916355Y-8409499D01*
X61833879Y-8446767D01*
X61833257Y-8447118D01*
X61758511Y-8504858D01*
X61684093Y-8584148D01*
X61609363Y-8679441D01*
X61558616Y-8679441D01*
X61557825Y-8661581D01*
X61560041Y-8655602D01*
X61560335Y-8625711D01*
X61515470Y-8642095D01*
X61504521Y-8647950D01*
X61484185Y-8660043D01*
X61463362Y-8676802D01*
X61438915Y-8703242D01*
X61407707Y-8744376D01*
X61366602Y-8805218D01*
X61312462Y-8890783D01*
X61242150Y-9006085D01*
X61152530Y-9156137D01*
X61040465Y-9345954D01*
X60902817Y-9580550D01*
X60736450Y-9864938D01*
X60538227Y-10204134D01*
X60461606Y-10335329D01*
X60277593Y-10651327D01*
X60124981Y-10915297D01*
X60000846Y-11132751D01*
X59902266Y-11309200D01*
X59826318Y-11450157D01*
X59770079Y-11561133D01*
X59730627Y-11647639D01*
X59705039Y-11715187D01*
X59690392Y-11769290D01*
X59683764Y-11815457D01*
X59680746Y-11869121D01*
X59642465Y-11869121D01*
X59645440Y-11824011D01*
X59648021Y-11789603D01*
X59654152Y-11739818D01*
X59665589Y-11687861D01*
X59685304Y-11627970D01*
X59716270Y-11554381D01*
X59761459Y-11461331D01*
X59823844Y-11343059D01*
X59906396Y-11193801D01*
X60012089Y-11007794D01*
X60143895Y-10779277D01*
X60304786Y-10502485D01*
X60497735Y-10171657D01*
X60700154Y-9824036D01*
X60875250Y-9521375D01*
X61018039Y-9271938D01*
X61130201Y-9072565D01*
X61213419Y-8920100D01*
X61269375Y-8811382D01*
X61299750Y-8743252D01*
X61306226Y-8712553D01*
X61290486Y-8716124D01*
X61254210Y-8750808D01*
X61253370Y-8751772D01*
X61224344Y-8795217D01*
X61164126Y-8891974D01*
X61076320Y-9036043D01*
X60964531Y-9221426D01*
X60832365Y-9442123D01*
X60683425Y-9692135D01*
X60527384Y-9955235D01*
X60521317Y-9965465D01*
X60349645Y-10256112D01*
X60166785Y-10567591D01*
X59959974Y-10923904D01*
X59789920Y-11222180D01*
X59656680Y-11462312D01*
X59560313Y-11644194D01*
X59500878Y-11767720D01*
X59478435Y-11832783D01*
X59477856Y-11856201D01*
X59451671Y-11856201D01*
X59450046Y-11847514D01*
X59451182Y-11757426D01*
X59470728Y-11672415D01*
X59507007Y-11586315D01*
X59558340Y-11492962D01*
X59623049Y-11386190D01*
X59699455Y-11259834D01*
X59734433Y-11200617D01*
X59820368Y-11053515D01*
X59875515Y-10953427D01*
X59903420Y-10890893D01*
X59907632Y-10856456D01*
X59896180Y-10845101D01*
X59891698Y-10840657D01*
G37*
G36*
X59591230Y-18797858D02*
G01*
X59590078Y-18797857D01*
X59487286Y-18778573D01*
X59417969Y-18712447D01*
X59392240Y-18661379D01*
X59366523Y-18534892D01*
X59436120Y-18534892D01*
X59473603Y-18685239D01*
X59476075Y-18690204D01*
X59530493Y-18746858D01*
X59625644Y-18763206D01*
X59651412Y-18762616D01*
X59705954Y-18751598D01*
X59753326Y-18716994D01*
X59806947Y-18646370D01*
X59880240Y-18527289D01*
X59897269Y-18498448D01*
X59959916Y-18388894D01*
X60003837Y-18306541D01*
X60020396Y-18267398D01*
X60019645Y-18265554D01*
X59979048Y-18254336D01*
X59888816Y-18246421D01*
X59766067Y-18243425D01*
X59709316Y-18243588D01*
X59598816Y-18247253D01*
X59533858Y-18259709D01*
X59497182Y-18286129D01*
X59471524Y-18331685D01*
X59454286Y-18377269D01*
X59436120Y-18534892D01*
X59366523Y-18534892D01*
X59365742Y-18531051D01*
X59376271Y-18395916D01*
X59423417Y-18287923D01*
X59433317Y-18275859D01*
X59473994Y-18241625D01*
X59533830Y-18220510D01*
X59629538Y-18208428D01*
X59777831Y-18201293D01*
X60072374Y-18191446D01*
X60488200Y-17473769D01*
X60565610Y-17340619D01*
X60677921Y-17149129D01*
X60776767Y-16982605D01*
X60856882Y-16849827D01*
X60913001Y-16759578D01*
X60939857Y-16720638D01*
X60996761Y-16689296D01*
X61106025Y-16648589D01*
X61252008Y-16602698D01*
X61419079Y-16555797D01*
X61591608Y-16512056D01*
X61753965Y-16475647D01*
X61890520Y-16450743D01*
X61985643Y-16441515D01*
X62054526Y-16440646D01*
X62095801Y-16435733D01*
X62209219Y-16435733D01*
X62231001Y-16467469D01*
X62306546Y-16476167D01*
X62328886Y-16474877D01*
X62485919Y-16474877D01*
X62503880Y-16572164D01*
X62504941Y-16574598D01*
X62535355Y-16583251D01*
X62590290Y-16528849D01*
X62603506Y-16513218D01*
X62700600Y-16451049D01*
X62816167Y-16453923D01*
X62945229Y-16521937D01*
X62995023Y-16558949D01*
X63076463Y-16615023D01*
X63112893Y-16627642D01*
X63110587Y-16596839D01*
X63075818Y-16522650D01*
X63015141Y-16420823D01*
X62923095Y-16307082D01*
X62829841Y-16228363D01*
X62749764Y-16198950D01*
X62732581Y-16201526D01*
X62659678Y-16238893D01*
X62581229Y-16306571D01*
X62520915Y-16381464D01*
X62485919Y-16474877D01*
X62328886Y-16474877D01*
X62343086Y-16474057D01*
X62412029Y-16443855D01*
X62467315Y-16363547D01*
X62473748Y-16351281D01*
X62522809Y-16271651D01*
X62563498Y-16225470D01*
X62567086Y-16222648D01*
X62555730Y-16206397D01*
X62492439Y-16199480D01*
X62480921Y-16199631D01*
X62382774Y-16225644D01*
X62293190Y-16305565D01*
X62240538Y-16372497D01*
X62209219Y-16435733D01*
X62095801Y-16435733D01*
X62131364Y-16431500D01*
X62169809Y-16405445D01*
X62189452Y-16354076D01*
X62189466Y-16354020D01*
X62230971Y-16264074D01*
X62308526Y-16205557D01*
X62432462Y-16173841D01*
X62613112Y-16164298D01*
X62654637Y-16164402D01*
X62774862Y-16168252D01*
X62852105Y-16182019D01*
X62907158Y-16211599D01*
X62960812Y-16262886D01*
X62996790Y-16306597D01*
X63070430Y-16417193D01*
X63135599Y-16538025D01*
X63145127Y-16557858D01*
X63174017Y-16610174D01*
X63210900Y-16661465D01*
X63261931Y-16716743D01*
X63333266Y-16781021D01*
X63431061Y-16859312D01*
X63561471Y-16956628D01*
X63730653Y-17077982D01*
X63944761Y-17228385D01*
X64209952Y-17412851D01*
X64248440Y-17456412D01*
X64316302Y-17551949D01*
X64407742Y-17690734D01*
X64517287Y-17864262D01*
X64639465Y-18064027D01*
X64768803Y-18281521D01*
X65244375Y-19092401D01*
X65405339Y-19102995D01*
X65448316Y-19106373D01*
X65534441Y-19124206D01*
X65594206Y-19168370D01*
X65656555Y-19256558D01*
X65672287Y-19281798D01*
X65716152Y-19363933D01*
X65724297Y-19419326D01*
X65701596Y-19471203D01*
X65682913Y-19500785D01*
X65615605Y-19610510D01*
X65581127Y-19685980D01*
X65577108Y-19747949D01*
X65601178Y-19817169D01*
X65650966Y-19914393D01*
X65750510Y-20104520D01*
X65657214Y-20263717D01*
X65609286Y-20341647D01*
X65557902Y-20398277D01*
X65542070Y-20404344D01*
X65499864Y-20420517D01*
X65492424Y-20423368D01*
X65386610Y-20433374D01*
X65209301Y-20443834D01*
X64780355Y-21188854D01*
X64693686Y-21338904D01*
X64577108Y-21539183D01*
X64472649Y-21716880D01*
X64385876Y-21862597D01*
X64322357Y-21966938D01*
X64287659Y-22020505D01*
X64284305Y-22024689D01*
X64229518Y-22075210D01*
X64186376Y-22109553D01*
X64128387Y-22155716D01*
X63990845Y-22258741D01*
X63826825Y-22376821D01*
X63646262Y-22502492D01*
X63444120Y-22642246D01*
X63293271Y-22750280D01*
X63188453Y-22831038D01*
X63123491Y-22889587D01*
X63092213Y-22930993D01*
X63088445Y-22960323D01*
X63091499Y-23023126D01*
X63048726Y-23134160D01*
X62955455Y-23259318D01*
X62944489Y-23270927D01*
X62899648Y-23305848D01*
X62839244Y-23325931D01*
X62745385Y-23335101D01*
X62718426Y-23335506D01*
X62600181Y-23337285D01*
X62471674Y-23335438D01*
X62456375Y-23333827D01*
X62360894Y-23323772D01*
X62288019Y-23294444D01*
X62235706Y-23239670D01*
X62186611Y-23151666D01*
X62174790Y-23131656D01*
X62131720Y-23095592D01*
X62071045Y-23077531D01*
X62054425Y-23072584D01*
X61925367Y-23056222D01*
X61883260Y-23051228D01*
X61746882Y-23027022D01*
X61735198Y-23024370D01*
X61584671Y-22990209D01*
X61412243Y-22945243D01*
X61245209Y-22896580D01*
X61099184Y-22848674D01*
X60989782Y-22805980D01*
X60932616Y-22772955D01*
X60917882Y-22751652D01*
X60870263Y-22674628D01*
X60794527Y-22548262D01*
X60694377Y-22378852D01*
X60573516Y-22172698D01*
X60435646Y-21936100D01*
X60284470Y-21675357D01*
X60123692Y-21396767D01*
X60007401Y-21194963D01*
X59853970Y-20929197D01*
X59713267Y-20686038D01*
X59588925Y-20471733D01*
X59484577Y-20292530D01*
X59403856Y-20154676D01*
X59350394Y-20064420D01*
X59327824Y-20028008D01*
X59309879Y-19998228D01*
X59281364Y-19924052D01*
X59268219Y-19857989D01*
X59269100Y-19763112D01*
X59302400Y-19763112D01*
X59304557Y-19795325D01*
X59314659Y-19835880D01*
X59335370Y-19889948D01*
X59369355Y-19962701D01*
X59419278Y-20059309D01*
X59487804Y-20184945D01*
X59577597Y-20344779D01*
X59691323Y-20543982D01*
X59831645Y-20787727D01*
X60001229Y-21081183D01*
X60202738Y-21429523D01*
X60973329Y-22761734D01*
X61354502Y-22875774D01*
X61458463Y-22906924D01*
X61599597Y-22948913D01*
X61688723Y-22973758D01*
X61735198Y-22982880D01*
X61748379Y-22977701D01*
X61737622Y-22959641D01*
X61712286Y-22930123D01*
X61711231Y-22928804D01*
X61681270Y-22882369D01*
X61620776Y-22782386D01*
X61533306Y-22634936D01*
X61422419Y-22446097D01*
X61291673Y-22221950D01*
X61144625Y-21968574D01*
X60984835Y-21692048D01*
X60815861Y-21398454D01*
X60727754Y-21245019D01*
X60548784Y-20932760D01*
X60400417Y-20672498D01*
X60279797Y-20458662D01*
X60184066Y-20285680D01*
X60110369Y-20147982D01*
X60055848Y-20039997D01*
X60017646Y-19956155D01*
X59992906Y-19890884D01*
X59978772Y-19838613D01*
X59972387Y-19793773D01*
X59970893Y-19750792D01*
X59971080Y-19735643D01*
X60013645Y-19735643D01*
X60034182Y-19877655D01*
X60040962Y-19894708D01*
X60079662Y-19973010D01*
X60147381Y-20100538D01*
X60239932Y-20269977D01*
X60353127Y-20474012D01*
X60482781Y-20705329D01*
X60624705Y-20956612D01*
X60774712Y-21220548D01*
X60928616Y-21489821D01*
X61082229Y-21757117D01*
X61231365Y-22015121D01*
X61371835Y-22256519D01*
X61499454Y-22473995D01*
X61610033Y-22660236D01*
X61699387Y-22807926D01*
X61763327Y-22909750D01*
X61797667Y-22958395D01*
X61837785Y-22985392D01*
X61915938Y-23012973D01*
X62001771Y-23028964D01*
X62071045Y-23029247D01*
X62099523Y-23009702D01*
X62084460Y-22978910D01*
X62040068Y-22900310D01*
X61973411Y-22786504D01*
X61891610Y-22649820D01*
X61814602Y-22520586D01*
X61746655Y-22402861D01*
X61700631Y-22318778D01*
X61695069Y-22306385D01*
X61753214Y-22306385D01*
X61760526Y-22320476D01*
X61797421Y-22384750D01*
X61860128Y-22491683D01*
X61942676Y-22631113D01*
X62039094Y-22792881D01*
X62044165Y-22801357D01*
X62164569Y-22997696D01*
X62259628Y-23139548D01*
X62335708Y-23233677D01*
X62399169Y-23286844D01*
X62456375Y-23305816D01*
X62513690Y-23297354D01*
X62513247Y-23278609D01*
X62484529Y-23209235D01*
X62428244Y-23098295D01*
X62349510Y-22955739D01*
X62253446Y-22791515D01*
X62196421Y-22696718D01*
X62100243Y-22539702D01*
X62028844Y-22430124D01*
X61975427Y-22359562D01*
X61933198Y-22319590D01*
X61895360Y-22301785D01*
X61855118Y-22297722D01*
X61783194Y-22300255D01*
X61779780Y-22300953D01*
X61753214Y-22306385D01*
X61695069Y-22306385D01*
X61686270Y-22286781D01*
X62030452Y-22286781D01*
X62046006Y-22324190D01*
X62091417Y-22408786D01*
X62159050Y-22527125D01*
X62241217Y-22666463D01*
X62330227Y-22814059D01*
X62418393Y-22957170D01*
X62498025Y-23083053D01*
X62561434Y-23178968D01*
X62600931Y-23232172D01*
X62622092Y-23253132D01*
X62718426Y-23298900D01*
X62823859Y-23277956D01*
X62933127Y-23190954D01*
X62985719Y-23122485D01*
X63026775Y-23042086D01*
X63037997Y-22980613D01*
X63013231Y-22956112D01*
X63006841Y-22957456D01*
X62954387Y-22982082D01*
X62875147Y-23027918D01*
X62859272Y-23037241D01*
X62766397Y-23075211D01*
X62747159Y-23076351D01*
X62695052Y-23079440D01*
X62670143Y-23065786D01*
X62637261Y-23032627D01*
X62593985Y-22973516D01*
X62535887Y-22881403D01*
X62458541Y-22749241D01*
X62357518Y-22569982D01*
X62228390Y-22336576D01*
X62206196Y-22296465D01*
X62150743Y-22201675D01*
X62115320Y-22157464D01*
X62090905Y-22155394D01*
X62068477Y-22187027D01*
X62045150Y-22236635D01*
X62030452Y-22286781D01*
X61686270Y-22286781D01*
X61683697Y-22281047D01*
X61684185Y-22277493D01*
X61699454Y-22245987D01*
X61761204Y-22245987D01*
X61779780Y-22261799D01*
X61855708Y-22257048D01*
X61937056Y-22236230D01*
X62023604Y-22165135D01*
X62029434Y-22156284D01*
X62056668Y-22106892D01*
X62038092Y-22091081D01*
X61962164Y-22095831D01*
X61880817Y-22116649D01*
X61794269Y-22187744D01*
X61788438Y-22196595D01*
X61761204Y-22245987D01*
X61699454Y-22245987D01*
X61707616Y-22229147D01*
X61755361Y-22155800D01*
X61771984Y-22133684D01*
X61846456Y-22071764D01*
X61948111Y-22055157D01*
X62069196Y-22055157D01*
X61974646Y-21881438D01*
X61880097Y-21707719D01*
X61790560Y-21814672D01*
X61784849Y-21821452D01*
X61719475Y-21885894D01*
X61706423Y-21890752D01*
X61653480Y-21910460D01*
X61651323Y-21911263D01*
X61547778Y-21910424D01*
X61476938Y-21902898D01*
X61409695Y-21880043D01*
X61355469Y-21828081D01*
X61291400Y-21731013D01*
X61212333Y-21602053D01*
X61289579Y-21602053D01*
X61306081Y-21647010D01*
X61356881Y-21734625D01*
X61419011Y-21825540D01*
X61476927Y-21870413D01*
X61549270Y-21881897D01*
X61653480Y-21881897D01*
X61573295Y-21738952D01*
X61547311Y-21695274D01*
X61492505Y-21617969D01*
X61452316Y-21580277D01*
X61418196Y-21573534D01*
X61370939Y-21574996D01*
X61340111Y-21575950D01*
X61305626Y-21583220D01*
X61289579Y-21602053D01*
X61212333Y-21602053D01*
X61188268Y-21562803D01*
X61214019Y-21509799D01*
X61273462Y-21509799D01*
X61298008Y-21531705D01*
X61370939Y-21535375D01*
X61389559Y-21534878D01*
X61430091Y-21522008D01*
X61550392Y-21522008D01*
X61566761Y-21607693D01*
X61625934Y-21720318D01*
X61706423Y-21853282D01*
X61764364Y-21764852D01*
X61782975Y-21736459D01*
X61811449Y-21684392D01*
X61813908Y-21638662D01*
X61787710Y-21577017D01*
X61730213Y-21477202D01*
X61677535Y-21389645D01*
X61644513Y-21350422D01*
X61620662Y-21356858D01*
X61592833Y-21401728D01*
X61574190Y-21437879D01*
X61550392Y-21522008D01*
X61430091Y-21522008D01*
X61469168Y-21509600D01*
X61526873Y-21433140D01*
X61556160Y-21374874D01*
X61574152Y-21318387D01*
X61549605Y-21296481D01*
X61476675Y-21292811D01*
X61458054Y-21293308D01*
X61378445Y-21318586D01*
X61320740Y-21395046D01*
X61291453Y-21453312D01*
X61273462Y-21509799D01*
X61214019Y-21509799D01*
X61262272Y-21410481D01*
X61283432Y-21368135D01*
X61329966Y-21295817D01*
X61381590Y-21264768D01*
X61460171Y-21258159D01*
X61584067Y-21258159D01*
X61488652Y-21082850D01*
X61393237Y-20907542D01*
X61345823Y-20998035D01*
X61336264Y-21015552D01*
X61309013Y-21048560D01*
X61297688Y-21062278D01*
X61239535Y-21079979D01*
X61137322Y-21078050D01*
X61131534Y-21077674D01*
X60976234Y-21067572D01*
X60704586Y-20613319D01*
X60675769Y-20564808D01*
X60544849Y-20331287D01*
X60453358Y-20136706D01*
X60398005Y-19968284D01*
X60375498Y-19813238D01*
X60376156Y-19798827D01*
X60421031Y-19798827D01*
X60434729Y-19926872D01*
X60473081Y-20060359D01*
X60539709Y-20212228D01*
X60638234Y-20395415D01*
X60772277Y-20622859D01*
X60871146Y-20785280D01*
X60947664Y-20904778D01*
X61004361Y-20981982D01*
X61048838Y-21025934D01*
X61088696Y-21045675D01*
X61131534Y-21050246D01*
X61203095Y-21046049D01*
X61233220Y-21035835D01*
X61228140Y-21024258D01*
X61195100Y-20962534D01*
X61136414Y-20857389D01*
X61058048Y-20719456D01*
X60965966Y-20559369D01*
X60698713Y-20097313D01*
X60685289Y-19793781D01*
X60683007Y-19710619D01*
X60710484Y-19710619D01*
X60736512Y-19950092D01*
X60828753Y-20190088D01*
X60914311Y-20351514D01*
X61040044Y-20582562D01*
X61139986Y-20756005D01*
X61216531Y-20875057D01*
X61272076Y-20942932D01*
X61309013Y-20962843D01*
X61329738Y-20938002D01*
X61336646Y-20871624D01*
X61334740Y-20860959D01*
X61307773Y-20794167D01*
X61253860Y-20684501D01*
X61179334Y-20544448D01*
X61090531Y-20386494D01*
X60986403Y-20199560D01*
X60894842Y-20012432D01*
X60840155Y-19860896D01*
X60826450Y-19776314D01*
X60856876Y-19776314D01*
X60886253Y-19893938D01*
X60896827Y-19916929D01*
X60941659Y-20003170D01*
X61012688Y-20133419D01*
X61103890Y-20297133D01*
X61209239Y-20483767D01*
X61322710Y-20682779D01*
X61438276Y-20883626D01*
X61549912Y-21075764D01*
X61651593Y-21248650D01*
X61737293Y-21391741D01*
X61800987Y-21494493D01*
X61855872Y-21583372D01*
X61945176Y-21734478D01*
X62050985Y-21918410D01*
X62164405Y-22119673D01*
X62276538Y-22322771D01*
X62302897Y-22371025D01*
X62422108Y-22587416D01*
X62514778Y-22750956D01*
X62585684Y-22868774D01*
X62639599Y-22948000D01*
X62681300Y-22995762D01*
X62715562Y-23019191D01*
X62747159Y-23025416D01*
X62756826Y-23021905D01*
X62815745Y-22988613D01*
X62917429Y-22925579D01*
X63051834Y-22839469D01*
X63208916Y-22736952D01*
X63378629Y-22624693D01*
X63550930Y-22509360D01*
X63715775Y-22397619D01*
X63863119Y-22296138D01*
X63982918Y-22211582D01*
X64065128Y-22150619D01*
X64079403Y-22134267D01*
X64076415Y-22087226D01*
X64027298Y-22008348D01*
X64010452Y-21983326D01*
X63956500Y-21896625D01*
X63875680Y-21762479D01*
X63772791Y-21589000D01*
X63652633Y-21384303D01*
X63520006Y-21156500D01*
X63379711Y-20913707D01*
X63342284Y-20848673D01*
X63193627Y-20589538D01*
X63075604Y-20381477D01*
X62984706Y-20217296D01*
X62917422Y-20089801D01*
X62870242Y-19991796D01*
X62839656Y-19916087D01*
X62822155Y-19855480D01*
X62814229Y-19802779D01*
X62813435Y-19780629D01*
X62851257Y-19780629D01*
X62855165Y-19836559D01*
X62861175Y-19853442D01*
X62896840Y-19927015D01*
X62960097Y-20047315D01*
X63046053Y-20205725D01*
X63149814Y-20393624D01*
X63266486Y-20602393D01*
X63391177Y-20823413D01*
X63518993Y-21048064D01*
X63645041Y-21267727D01*
X63764426Y-21473782D01*
X63872255Y-21657611D01*
X63963636Y-21810593D01*
X64033674Y-21924110D01*
X64077476Y-21989542D01*
X64128288Y-22035902D01*
X64186376Y-22046310D01*
X64203584Y-22029545D01*
X64254291Y-21959623D01*
X64330045Y-21843597D01*
X64425452Y-21690031D01*
X64535116Y-21507492D01*
X64653641Y-21304544D01*
X64670379Y-21275494D01*
X64813077Y-21027985D01*
X64924907Y-20833639D01*
X65008993Y-20686071D01*
X65068457Y-20578896D01*
X65106422Y-20505727D01*
X65126012Y-20460181D01*
X65130349Y-20435871D01*
X65122556Y-20426412D01*
X65120636Y-20426299D01*
X65105756Y-20425420D01*
X65083072Y-20426508D01*
X65065017Y-20430884D01*
X65017017Y-20468805D01*
X64950031Y-20550471D01*
X64859554Y-20681703D01*
X64741078Y-20868322D01*
X64697994Y-20937748D01*
X64603072Y-21088313D01*
X64533462Y-21191709D01*
X64481413Y-21256762D01*
X64440332Y-21291323D01*
X64439172Y-21292299D01*
X64398990Y-21307149D01*
X64358969Y-21309756D01*
X64353115Y-21310137D01*
X64346325Y-21310117D01*
X64313357Y-21307829D01*
X64282492Y-21297146D01*
X64249165Y-21271598D01*
X64208812Y-21224716D01*
X64156867Y-21150029D01*
X64088766Y-21041067D01*
X63999942Y-20891360D01*
X63885832Y-20694439D01*
X63741871Y-20443834D01*
X63713425Y-20394193D01*
X63588381Y-20174539D01*
X63476372Y-19975494D01*
X63381736Y-19804932D01*
X63308813Y-19670727D01*
X63264775Y-19586194D01*
X63315464Y-19586194D01*
X63323897Y-19609728D01*
X63363005Y-19687997D01*
X63428815Y-19808446D01*
X63515766Y-19961774D01*
X63618297Y-20138680D01*
X63730849Y-20329864D01*
X63847859Y-20526026D01*
X63963768Y-20717864D01*
X64073015Y-20896079D01*
X64170039Y-21051369D01*
X64249280Y-21174434D01*
X64305176Y-21255974D01*
X64332167Y-21286688D01*
X64358969Y-21290127D01*
X64386562Y-21281962D01*
X64374128Y-21248915D01*
X64330930Y-21164276D01*
X64262036Y-21038846D01*
X64172909Y-20881804D01*
X64069012Y-20702328D01*
X63955808Y-20509595D01*
X63838761Y-20312782D01*
X63723332Y-20121069D01*
X63614987Y-19943632D01*
X63519186Y-19789649D01*
X63441394Y-19668299D01*
X63387074Y-19588758D01*
X63361688Y-19560205D01*
X63361177Y-19560269D01*
X63340330Y-19562864D01*
X63315464Y-19586194D01*
X63264775Y-19586194D01*
X63261939Y-19580751D01*
X63252284Y-19558570D01*
X63488842Y-19558570D01*
X63490280Y-19564931D01*
X63516298Y-19623894D01*
X63570875Y-19730249D01*
X63648752Y-19874221D01*
X63744669Y-20046037D01*
X63853365Y-20235921D01*
X63866094Y-20257899D01*
X63983132Y-20460210D01*
X64095258Y-20654405D01*
X64195004Y-20827527D01*
X64274904Y-20966619D01*
X64327493Y-21058723D01*
X64440332Y-21257787D01*
X64690846Y-20850810D01*
X64941360Y-20443834D01*
X64522953Y-20413832D01*
X64216476Y-20391856D01*
X65177909Y-20391856D01*
X65338887Y-20391856D01*
X65499864Y-20391856D01*
X65422180Y-20253635D01*
X65397672Y-20210904D01*
X65357503Y-20145688D01*
X65339350Y-20123689D01*
X65334996Y-20130853D01*
X65304584Y-20181277D01*
X65256057Y-20261910D01*
X65177909Y-20391856D01*
X64216476Y-20391856D01*
X64104546Y-20383830D01*
X64032309Y-20235145D01*
X63985914Y-20139650D01*
X64041429Y-20139650D01*
X64041433Y-20139728D01*
X64057645Y-20186804D01*
X64094514Y-20261910D01*
X64146211Y-20357204D01*
X64633424Y-20357204D01*
X65120636Y-20357204D01*
X65054920Y-20244584D01*
X64989204Y-20131965D01*
X64514623Y-20122324D01*
X64505485Y-20122168D01*
X64460346Y-20121398D01*
X64295386Y-20120941D01*
X64162262Y-20124136D01*
X64073450Y-20130524D01*
X64041429Y-20139650D01*
X63985914Y-20139650D01*
X63960072Y-20086460D01*
X63972946Y-20064641D01*
X64040041Y-20064641D01*
X64042318Y-20066159D01*
X64090706Y-20071583D01*
X64192469Y-20075973D01*
X64334948Y-20078914D01*
X64505485Y-20079987D01*
X64970929Y-20079987D01*
X65036911Y-19984693D01*
X65038038Y-19983066D01*
X65091381Y-19903891D01*
X65127946Y-19846085D01*
X65125666Y-19829933D01*
X65087518Y-19816918D01*
X65004053Y-19808556D01*
X64867291Y-19804091D01*
X64669247Y-19802770D01*
X64185495Y-19802770D01*
X64183842Y-19805572D01*
X64112768Y-19926033D01*
X64095993Y-19954880D01*
X64056023Y-20027983D01*
X64040041Y-20064641D01*
X63972946Y-20064641D01*
X64034709Y-19959960D01*
X64060909Y-19914732D01*
X64096286Y-19838290D01*
X64101477Y-19771995D01*
X64075392Y-19692234D01*
X64016938Y-19575394D01*
X63950022Y-19447586D01*
X64008855Y-19447586D01*
X64014892Y-19464604D01*
X64047468Y-19530154D01*
X64098082Y-19620846D01*
X64183842Y-19768118D01*
X64666376Y-19768118D01*
X64727092Y-19768015D01*
X64892989Y-19766589D01*
X65026879Y-19763749D01*
X65116329Y-19759826D01*
X65148909Y-19755156D01*
X65141997Y-19737810D01*
X65109484Y-19673893D01*
X65059316Y-19581896D01*
X64969723Y-19421596D01*
X64487556Y-19421596D01*
X64485051Y-19421605D01*
X64426597Y-19421805D01*
X64261321Y-19424667D01*
X64128395Y-19430363D01*
X64040134Y-19438226D01*
X64008855Y-19447586D01*
X63950022Y-19447586D01*
X63933320Y-19415686D01*
X65052255Y-19415686D01*
X65078411Y-19495906D01*
X65137157Y-19613932D01*
X65229361Y-19790040D01*
X65137157Y-19925731D01*
X65079908Y-20014653D01*
X65052726Y-20083936D01*
X65061001Y-20147476D01*
X65101685Y-20231571D01*
X65155642Y-20331177D01*
X65241232Y-20187648D01*
X65272191Y-20139955D01*
X65323825Y-20078794D01*
X65357512Y-20063087D01*
X65368896Y-20073564D01*
X65412160Y-20132030D01*
X65465136Y-20218941D01*
X65542070Y-20355827D01*
X65605380Y-20251721D01*
X65622735Y-20222633D01*
X65656676Y-20151011D01*
X65661516Y-20086349D01*
X65635500Y-20006268D01*
X65576871Y-19888385D01*
X65485051Y-19713012D01*
X65582529Y-19565712D01*
X65634969Y-19483688D01*
X65659723Y-19423326D01*
X65653109Y-19368009D01*
X65618764Y-19290059D01*
X65557521Y-19161706D01*
X65470673Y-19332521D01*
X65383826Y-19503336D01*
X65377337Y-19494838D01*
X65319544Y-19419151D01*
X65268446Y-19341921D01*
X65214652Y-19238332D01*
X65184298Y-19166101D01*
X65263294Y-19166101D01*
X65269827Y-19215628D01*
X65316554Y-19310340D01*
X65377337Y-19424323D01*
X65436384Y-19300502D01*
X65448198Y-19275399D01*
X65481889Y-19199189D01*
X65495430Y-19160530D01*
X65494401Y-19158429D01*
X65454362Y-19148442D01*
X65374148Y-19144380D01*
X65302003Y-19147212D01*
X65263294Y-19166101D01*
X65184298Y-19166101D01*
X65174042Y-19141697D01*
X65109497Y-19247832D01*
X65090933Y-19278968D01*
X65056993Y-19350848D01*
X65052255Y-19415686D01*
X63933320Y-19415686D01*
X63924531Y-19398899D01*
X63962558Y-19343629D01*
X64026352Y-19343629D01*
X64028632Y-19359781D01*
X64066780Y-19372796D01*
X64150245Y-19381159D01*
X64287008Y-19385624D01*
X64485051Y-19386944D01*
X64968803Y-19386944D01*
X65041530Y-19263681D01*
X65058305Y-19234834D01*
X65098275Y-19161731D01*
X65114257Y-19125073D01*
X65111980Y-19123555D01*
X65063592Y-19118131D01*
X64961829Y-19113741D01*
X64819350Y-19110800D01*
X64648813Y-19109727D01*
X64183369Y-19109727D01*
X64117387Y-19205021D01*
X64116261Y-19206648D01*
X64062917Y-19285823D01*
X64026352Y-19343629D01*
X63962558Y-19343629D01*
X64034973Y-19238377D01*
X64145414Y-19077855D01*
X64421216Y-19067802D01*
X64697017Y-19057749D01*
X64466098Y-18651199D01*
X64442166Y-18609181D01*
X64360112Y-18466998D01*
X64292682Y-18353030D01*
X64246308Y-18278017D01*
X64227423Y-18252700D01*
X64225192Y-18256017D01*
X64196687Y-18302858D01*
X64139879Y-18397872D01*
X64060069Y-18532149D01*
X63962556Y-18696780D01*
X63852638Y-18882853D01*
X63822103Y-18934813D01*
X63715251Y-19120055D01*
X63623274Y-19284756D01*
X63551397Y-19419211D01*
X63504845Y-19513717D01*
X63488842Y-19558570D01*
X63252284Y-19558570D01*
X63245454Y-19542879D01*
X63248891Y-19532687D01*
X63264611Y-19501517D01*
X63330739Y-19501517D01*
X63330958Y-19519492D01*
X63342278Y-19525193D01*
X63361177Y-19525553D01*
X63392233Y-19499957D01*
X63453168Y-19421354D01*
X63537630Y-19297462D01*
X63640296Y-19136111D01*
X63755841Y-18945130D01*
X63871596Y-18749457D01*
X63979700Y-18566114D01*
X64059097Y-18429710D01*
X64113308Y-18333313D01*
X64145855Y-18269990D01*
X64160258Y-18232808D01*
X64160039Y-18214833D01*
X64148719Y-18209132D01*
X64129819Y-18208772D01*
X64098763Y-18234368D01*
X64037829Y-18312971D01*
X63953366Y-18436863D01*
X63850701Y-18598215D01*
X63735155Y-18789195D01*
X63619400Y-18984868D01*
X63511297Y-19168211D01*
X63431900Y-19304615D01*
X63377689Y-19401012D01*
X63345142Y-19464335D01*
X63330739Y-19501517D01*
X63264611Y-19501517D01*
X63280107Y-19470791D01*
X63339667Y-19362510D01*
X63422457Y-19216892D01*
X63523360Y-19042985D01*
X63637263Y-18849837D01*
X63764168Y-18636786D01*
X63862293Y-18474662D01*
X63936430Y-18357588D01*
X63992232Y-18278233D01*
X64035352Y-18229271D01*
X64071445Y-18203371D01*
X64106163Y-18193206D01*
X64145160Y-18191446D01*
X64163046Y-18191639D01*
X64206692Y-18197085D01*
X64245715Y-18216977D01*
X64287856Y-18260494D01*
X64340855Y-18336816D01*
X64412454Y-18455124D01*
X64510391Y-18624598D01*
X64758951Y-19057749D01*
X64953930Y-19068142D01*
X65036698Y-19070284D01*
X65117612Y-19065938D01*
X65148909Y-19054689D01*
X65148171Y-19050383D01*
X65124074Y-18996775D01*
X65070261Y-18896616D01*
X64992591Y-18759590D01*
X64896925Y-18595380D01*
X64789123Y-18413670D01*
X64675045Y-18224142D01*
X64560550Y-18036480D01*
X64451499Y-17860367D01*
X64353752Y-17705487D01*
X64273169Y-17581523D01*
X64215609Y-17498159D01*
X64186934Y-17465077D01*
X64177880Y-17461762D01*
X64157266Y-17457854D01*
X64135263Y-17464129D01*
X64108174Y-17486123D01*
X64072301Y-17529374D01*
X64023948Y-17599417D01*
X63959417Y-17701789D01*
X63875010Y-17842027D01*
X63767031Y-18025668D01*
X63631781Y-18258247D01*
X63465565Y-18545302D01*
X63316625Y-18803754D01*
X63175665Y-19051899D01*
X63064695Y-19252925D01*
X62980617Y-19413384D01*
X62920332Y-19539831D01*
X62880742Y-19638818D01*
X62858749Y-19716899D01*
X62851257Y-19780629D01*
X62813435Y-19780629D01*
X62812366Y-19750792D01*
X62812438Y-19738756D01*
X62815355Y-19687259D01*
X62825121Y-19633449D01*
X62845247Y-19570133D01*
X62879247Y-19490120D01*
X62930631Y-19386217D01*
X63002913Y-19251234D01*
X63099604Y-19077977D01*
X63224216Y-18859255D01*
X63380262Y-18587876D01*
X63462556Y-18445248D01*
X63597703Y-18211836D01*
X63721575Y-17998894D01*
X63829527Y-17814350D01*
X63916915Y-17666130D01*
X63979096Y-17562165D01*
X64011425Y-17510381D01*
X64014293Y-17506194D01*
X64057048Y-17438872D01*
X64074693Y-17401627D01*
X64065583Y-17390819D01*
X64009914Y-17345385D01*
X63912061Y-17272012D01*
X63781791Y-17177499D01*
X63628873Y-17068645D01*
X63463077Y-16952247D01*
X63294170Y-16835105D01*
X63131921Y-16724016D01*
X63112893Y-16711197D01*
X62986100Y-16625780D01*
X62866475Y-16547194D01*
X62782814Y-16495057D01*
X62744887Y-16476167D01*
X62707215Y-16488378D01*
X62647962Y-16536808D01*
X62637608Y-16551420D01*
X62593194Y-16622496D01*
X62520851Y-16743090D01*
X62424729Y-16905972D01*
X62308982Y-17103909D01*
X62177759Y-17329670D01*
X62035213Y-17576023D01*
X61885494Y-17835738D01*
X61732754Y-18101582D01*
X61581145Y-18366325D01*
X61434817Y-18622735D01*
X61297923Y-18863580D01*
X61174612Y-19081630D01*
X61069038Y-19269652D01*
X60985350Y-19420415D01*
X60927701Y-19526688D01*
X60900242Y-19581240D01*
X60872628Y-19657114D01*
X60856876Y-19776314D01*
X60826450Y-19776314D01*
X60819616Y-19734133D01*
X60830498Y-19621321D01*
X60870075Y-19511641D01*
X60886325Y-19475329D01*
X60910911Y-19382605D01*
X60895013Y-19307514D01*
X60878860Y-19276144D01*
X60857810Y-19262859D01*
X60830871Y-19297124D01*
X60787175Y-19386944D01*
X60751031Y-19478664D01*
X60710484Y-19710619D01*
X60683007Y-19710619D01*
X60681237Y-19646114D01*
X60686791Y-19527060D01*
X60705582Y-19436169D01*
X60740283Y-19351966D01*
X60808700Y-19213684D01*
X60711606Y-19213684D01*
X60684400Y-19216025D01*
X60585403Y-19263703D01*
X60504498Y-19361054D01*
X60455943Y-19492528D01*
X60453119Y-19507315D01*
X60428369Y-19663288D01*
X60421031Y-19798827D01*
X60376156Y-19798827D01*
X60382546Y-19658787D01*
X60415855Y-19492148D01*
X60447363Y-19381535D01*
X60482658Y-19280858D01*
X60510626Y-19224864D01*
X60552622Y-19197411D01*
X60648737Y-19178014D01*
X60762252Y-19180634D01*
X60865254Y-19203846D01*
X60929836Y-19246230D01*
X60934888Y-19252446D01*
X60950008Y-19259582D01*
X60971008Y-19250506D01*
X61001046Y-19220327D01*
X61043277Y-19164156D01*
X61100860Y-19077101D01*
X61176951Y-18954273D01*
X61274707Y-18790780D01*
X61397285Y-18581734D01*
X61547842Y-18322243D01*
X61729534Y-18007416D01*
X62482164Y-16701405D01*
X62388959Y-16693252D01*
X62357236Y-16690477D01*
X62331587Y-16687616D01*
X62238802Y-16655223D01*
X62174578Y-16578077D01*
X62153247Y-16545355D01*
X62220776Y-16545355D01*
X62246655Y-16591759D01*
X62289322Y-16628862D01*
X62388959Y-16643737D01*
X62438168Y-16635769D01*
X62463400Y-16614891D01*
X62437520Y-16568487D01*
X62394853Y-16531384D01*
X62306546Y-16518200D01*
X62295216Y-16516509D01*
X62246008Y-16524478D01*
X62220776Y-16545355D01*
X62153247Y-16545355D01*
X62145075Y-16532818D01*
X62084480Y-16487718D01*
X61988253Y-16476386D01*
X61893483Y-16488320D01*
X61797667Y-16543188D01*
X61797556Y-16543308D01*
X61767900Y-16586647D01*
X61707498Y-16683904D01*
X61620003Y-16828902D01*
X61509070Y-17015465D01*
X61378352Y-17237417D01*
X61231503Y-17488581D01*
X61072176Y-17762782D01*
X60904025Y-18053842D01*
X60738047Y-18343162D01*
X60579581Y-18621751D01*
X60434444Y-18879262D01*
X60306222Y-19109224D01*
X60198500Y-19305164D01*
X60114862Y-19460611D01*
X60058894Y-19569091D01*
X60034182Y-19624133D01*
X60013645Y-19735643D01*
X59971080Y-19735643D01*
X59971125Y-19731970D01*
X59974395Y-19688865D01*
X59983799Y-19641478D01*
X60002194Y-19584238D01*
X60032437Y-19511575D01*
X60077386Y-19417918D01*
X60139895Y-19297695D01*
X60222824Y-19145337D01*
X60329028Y-18955272D01*
X60461364Y-18721930D01*
X60622689Y-18439739D01*
X60815861Y-18103129D01*
X60830988Y-18076799D01*
X60999298Y-17784460D01*
X61158111Y-17509726D01*
X61303868Y-17258675D01*
X61433012Y-17037387D01*
X61541983Y-16851942D01*
X61627225Y-16708419D01*
X61685179Y-16612899D01*
X61712286Y-16571460D01*
X61727562Y-16553782D01*
X61745980Y-16530434D01*
X61744637Y-16519332D01*
X61714175Y-16521894D01*
X61645237Y-16539541D01*
X61528466Y-16573694D01*
X61354502Y-16625774D01*
X60973329Y-16739779D01*
X60153251Y-18160178D01*
X59997813Y-18430893D01*
X59840867Y-18707435D01*
X59697663Y-18963051D01*
X59571744Y-19191256D01*
X59466651Y-19385570D01*
X59385926Y-19539509D01*
X59333111Y-19646592D01*
X59311747Y-19700336D01*
X59311261Y-19703027D01*
X59305523Y-19734070D01*
X59302400Y-19763112D01*
X59269100Y-19763112D01*
X59269391Y-19731712D01*
X59305510Y-19586873D01*
X59379932Y-19412094D01*
X59496010Y-19195995D01*
X59501679Y-19186111D01*
X59582216Y-19044556D01*
X59647962Y-18926972D01*
X59692279Y-18845365D01*
X59708527Y-18811740D01*
X59707878Y-18810279D01*
X59669853Y-18801461D01*
X59625644Y-18799435D01*
X59591230Y-18797858D01*
G37*
G36*
X59912375Y-2760838D02*
G01*
X59792220Y-2749363D01*
X59645481Y-2709047D01*
X59636320Y-2701731D01*
X59813503Y-2701731D01*
X59855892Y-2706412D01*
X59951092Y-2708186D01*
X59965344Y-2708157D01*
X60054487Y-2705975D01*
X60089865Y-2701004D01*
X60063711Y-2694210D01*
X59959981Y-2688475D01*
X59838472Y-2694210D01*
X59831694Y-2695109D01*
X59814003Y-2701549D01*
X59813503Y-2701731D01*
X59636320Y-2701731D01*
X59561923Y-2642319D01*
X59542126Y-2549513D01*
X59544633Y-2536755D01*
X59558222Y-2536755D01*
X59647158Y-2595028D01*
X59709525Y-2624813D01*
X59814003Y-2643026D01*
X59966439Y-2642974D01*
X59998617Y-2641476D01*
X60111463Y-2632788D01*
X60180492Y-2614725D01*
X60226652Y-2578506D01*
X60270890Y-2515348D01*
X60344997Y-2398049D01*
X60052751Y-2413838D01*
X60038557Y-2414653D01*
X59880477Y-2430198D01*
X59746556Y-2454370D01*
X59659364Y-2483191D01*
X59558222Y-2536755D01*
X59544633Y-2536755D01*
X59546356Y-2527991D01*
X59593770Y-2459930D01*
X59694343Y-2412736D01*
X59852819Y-2384849D01*
X60073940Y-2374712D01*
X60352723Y-2372756D01*
X60763052Y-1653725D01*
X60810689Y-1570383D01*
X60933816Y-1357135D01*
X61031068Y-1193750D01*
X61108088Y-1072075D01*
X61170519Y-983956D01*
X61224007Y-921239D01*
X61274194Y-875772D01*
X61326725Y-839400D01*
X61383615Y-806391D01*
X61477531Y-761648D01*
X61540714Y-744107D01*
X61549434Y-743190D01*
X61612250Y-708811D01*
X61678218Y-640150D01*
X61686867Y-628564D01*
X61731999Y-577578D01*
X61783173Y-550037D01*
X61861463Y-538942D01*
X61987941Y-537296D01*
X62098303Y-541183D01*
X62224982Y-563026D01*
X62305152Y-608641D01*
X62351710Y-683203D01*
X62352175Y-684358D01*
X62394995Y-729832D01*
X62482232Y-790177D01*
X62595562Y-852660D01*
X62816760Y-961738D01*
X63380040Y-1936815D01*
X63451206Y-2059420D01*
X63591551Y-2297842D01*
X63724147Y-2518869D01*
X63843702Y-2713925D01*
X63944928Y-2874434D01*
X64022534Y-2991817D01*
X64071231Y-3057498D01*
X64111637Y-3108381D01*
X64199062Y-3247279D01*
X64262695Y-3385679D01*
X64291293Y-3461616D01*
X64356924Y-3614849D01*
X64425709Y-3756331D01*
X64468620Y-3844792D01*
X64509412Y-3948910D01*
X64525171Y-4018732D01*
X64515378Y-4069315D01*
X64479269Y-4168077D01*
X64425709Y-4281132D01*
X64387075Y-4358168D01*
X64362611Y-4412447D01*
X64317035Y-4513569D01*
X64261442Y-4655270D01*
X64238976Y-4710970D01*
X64156466Y-4860652D01*
X64057697Y-4990528D01*
X64037231Y-5015183D01*
X63971742Y-5107683D01*
X63880433Y-5247925D01*
X63768670Y-5427225D01*
X63641820Y-5636896D01*
X63505249Y-5868255D01*
X63364325Y-6112615D01*
X62809891Y-7085505D01*
X62776621Y-7098498D01*
X62757650Y-7105906D01*
X62619305Y-7159933D01*
X62588964Y-7172277D01*
X62440542Y-7255895D01*
X62333754Y-7367815D01*
X62303379Y-7409878D01*
X62256731Y-7462532D01*
X62204485Y-7489684D01*
X62148260Y-7496863D01*
X62125405Y-7499781D01*
X61998255Y-7501269D01*
X61956975Y-7501178D01*
X61899342Y-7499293D01*
X61843848Y-7497478D01*
X61774130Y-7483408D01*
X61727515Y-7452256D01*
X61683697Y-7397313D01*
X61674270Y-7384739D01*
X61606780Y-7319809D01*
X61544871Y-7293356D01*
X61512679Y-7287391D01*
X61426410Y-7252950D01*
X61325440Y-7198063D01*
X61302775Y-7183553D01*
X61294860Y-7177287D01*
X61225486Y-7122365D01*
X61151887Y-7039970D01*
X61070898Y-6922541D01*
X60971442Y-6756249D01*
X60899769Y-6634298D01*
X60815520Y-6497218D01*
X60744345Y-6388049D01*
X60707174Y-6337490D01*
X60696592Y-6323097D01*
X60673910Y-6294397D01*
X60635769Y-6238440D01*
X60752686Y-6238440D01*
X60764254Y-6279468D01*
X60799902Y-6353375D01*
X60863526Y-6468988D01*
X60959020Y-6635137D01*
X61054790Y-6797696D01*
X61150679Y-6951869D01*
X61220664Y-7051639D01*
X61267729Y-7101178D01*
X61294860Y-7104659D01*
X61295412Y-7100500D01*
X61276367Y-7052260D01*
X61230098Y-6961686D01*
X61164125Y-6841598D01*
X61085964Y-6704815D01*
X61003136Y-6564156D01*
X60923158Y-6432441D01*
X60853548Y-6322487D01*
X60801824Y-6247114D01*
X60775506Y-6219141D01*
X60761305Y-6221462D01*
X60752686Y-6238440D01*
X60635769Y-6238440D01*
X60607677Y-6197225D01*
X60522678Y-6061403D01*
X60426854Y-5900842D01*
X60328146Y-5729450D01*
X60234493Y-5561136D01*
X60153838Y-5409810D01*
X60094120Y-5289381D01*
X60092971Y-5286563D01*
X60159004Y-5286563D01*
X60162772Y-5301668D01*
X60193601Y-5371046D01*
X60249088Y-5479529D01*
X60321479Y-5613397D01*
X60403022Y-5758928D01*
X60485964Y-5902400D01*
X60562552Y-6030092D01*
X60625032Y-6128283D01*
X60665653Y-6183251D01*
X60677501Y-6195590D01*
X60707174Y-6215885D01*
X60713438Y-6181467D01*
X60699002Y-6145227D01*
X60655517Y-6061062D01*
X60590475Y-5942910D01*
X60511471Y-5803833D01*
X60426100Y-5656894D01*
X60341957Y-5515156D01*
X60266638Y-5391680D01*
X60207738Y-5299531D01*
X60204118Y-5294575D01*
X60172853Y-5251769D01*
X60166484Y-5250680D01*
X60159004Y-5286563D01*
X60092971Y-5286563D01*
X60063280Y-5213758D01*
X60051094Y-5178733D01*
X60004505Y-5073787D01*
X59936932Y-4940196D01*
X59858458Y-4798404D01*
X59687837Y-4503861D01*
X59464280Y-4494348D01*
X59434362Y-4492915D01*
X59433553Y-4492876D01*
X59309767Y-4480316D01*
X59231782Y-4455410D01*
X59180082Y-4412542D01*
X59173421Y-4404262D01*
X59228248Y-4404262D01*
X59246499Y-4428782D01*
X59266586Y-4438517D01*
X59337880Y-4449173D01*
X59434362Y-4451679D01*
X59532460Y-4446729D01*
X59608603Y-4435015D01*
X59639223Y-4417231D01*
X59617138Y-4401582D01*
X59542056Y-4387839D01*
X59431310Y-4382579D01*
X59418328Y-4382585D01*
X59365334Y-4383281D01*
X59302390Y-4384107D01*
X59242954Y-4390352D01*
X59228248Y-4404262D01*
X59173421Y-4404262D01*
X59169642Y-4399564D01*
X59120673Y-4298910D01*
X59125447Y-4271467D01*
X59156640Y-4271467D01*
X59177195Y-4324825D01*
X59198233Y-4333276D01*
X59269127Y-4342757D01*
X59365334Y-4347212D01*
X59463264Y-4346432D01*
X59539323Y-4340205D01*
X59569918Y-4328322D01*
X59562849Y-4303463D01*
X59534047Y-4241692D01*
X59514189Y-4216912D01*
X59433716Y-4180224D01*
X59327422Y-4177242D01*
X59221119Y-4210537D01*
X59204766Y-4219920D01*
X59156640Y-4271467D01*
X59125447Y-4271467D01*
X59135033Y-4216367D01*
X59207859Y-4160536D01*
X59334284Y-4140014D01*
X59367993Y-4139842D01*
X59436094Y-4131114D01*
X59461914Y-4094116D01*
X59465272Y-4022968D01*
X59501455Y-4022968D01*
X59503215Y-4033518D01*
X59530416Y-4102209D01*
X59584966Y-4213366D01*
X59659712Y-4354454D01*
X59747501Y-4512938D01*
X59841182Y-4676284D01*
X59933601Y-4831957D01*
X60017607Y-4967424D01*
X60086047Y-5070149D01*
X60131770Y-5127599D01*
X60204118Y-5196903D01*
X60133987Y-5075621D01*
X60099233Y-5015839D01*
X60032359Y-4901377D01*
X59949192Y-4759405D01*
X59860203Y-4607817D01*
X59802379Y-4508822D01*
X59733533Y-4384917D01*
X59690657Y-4291688D01*
X59667621Y-4211402D01*
X59658295Y-4126327D01*
X59658087Y-4113492D01*
X59687900Y-4113492D01*
X59696437Y-4186281D01*
X59712244Y-4220743D01*
X59760232Y-4310694D01*
X59835847Y-4446574D01*
X59934943Y-4621317D01*
X60053372Y-4827857D01*
X60186988Y-5059126D01*
X60331645Y-5308059D01*
X60483197Y-5567589D01*
X60637496Y-5830650D01*
X60790397Y-6090176D01*
X60937753Y-6339099D01*
X61075417Y-6570355D01*
X61199243Y-6776876D01*
X61305085Y-6951596D01*
X61388795Y-7087449D01*
X61446229Y-7177368D01*
X61473238Y-7214287D01*
X61533999Y-7251731D01*
X61569942Y-7238871D01*
X61580272Y-7163411D01*
X61583299Y-7120030D01*
X61603646Y-7040080D01*
X61634899Y-6989580D01*
X61667295Y-6988186D01*
X61672857Y-7016897D01*
X61651977Y-7079966D01*
X61634429Y-7132496D01*
X61636923Y-7212879D01*
X61678383Y-7288627D01*
X61751372Y-7373859D01*
X61832084Y-7440014D01*
X61899342Y-7466617D01*
X61915979Y-7466080D01*
X61939092Y-7454474D01*
X61926512Y-7416439D01*
X61875533Y-7337291D01*
X61840781Y-7284106D01*
X61797441Y-7195596D01*
X61796228Y-7158114D01*
X61829048Y-7158114D01*
X61855312Y-7211025D01*
X61916119Y-7302639D01*
X61950741Y-7348616D01*
X62050133Y-7435187D01*
X62148260Y-7457411D01*
X62239528Y-7413375D01*
X62266111Y-7387905D01*
X62302734Y-7332474D01*
X62291321Y-7319591D01*
X62276100Y-7302410D01*
X62184200Y-7293356D01*
X62159285Y-7292668D01*
X62057546Y-7265824D01*
X61965404Y-7188732D01*
X61941760Y-7164306D01*
X61881529Y-7115823D01*
X61846075Y-7107877D01*
X61831094Y-7126571D01*
X61829048Y-7158114D01*
X61796228Y-7158114D01*
X61795170Y-7125396D01*
X61830382Y-7050737D01*
X61854242Y-7018217D01*
X61882331Y-7011705D01*
X61924856Y-7045317D01*
X61996631Y-7125736D01*
X62026746Y-7160166D01*
X62093091Y-7229657D01*
X62131366Y-7257019D01*
X62140653Y-7240376D01*
X62120036Y-7177849D01*
X62068598Y-7067561D01*
X61985422Y-6907636D01*
X61869592Y-6696195D01*
X61720191Y-6431363D01*
X61536303Y-6111260D01*
X61317010Y-5734011D01*
X60436948Y-4226644D01*
X60436703Y-4087445D01*
X60471569Y-4087445D01*
X60476246Y-4121565D01*
X60489201Y-4164548D01*
X60513068Y-4221512D01*
X60550482Y-4297574D01*
X60604075Y-4397852D01*
X60676481Y-4527464D01*
X60770335Y-4691528D01*
X60888269Y-4895160D01*
X61032918Y-5143480D01*
X61206915Y-5441605D01*
X61412895Y-5794652D01*
X61415744Y-5799539D01*
X61583608Y-6085827D01*
X61741942Y-6352846D01*
X61887167Y-6594772D01*
X62015701Y-6805775D01*
X62123964Y-6980032D01*
X62208375Y-7111714D01*
X62265354Y-7194997D01*
X62291321Y-7224052D01*
X62302656Y-7222973D01*
X62369301Y-7204402D01*
X62460187Y-7170128D01*
X62552881Y-7129742D01*
X62624949Y-7092835D01*
X62653957Y-7069001D01*
X62653545Y-7067690D01*
X62636631Y-7035227D01*
X62631811Y-7025976D01*
X62609794Y-6986016D01*
X62600959Y-6969981D01*
X62660725Y-6969981D01*
X62714598Y-7020559D01*
X62739705Y-7039917D01*
X62757650Y-7048522D01*
X62727681Y-7007476D01*
X62695965Y-6970516D01*
X62667040Y-6946835D01*
X62660959Y-6947404D01*
X62660725Y-6969981D01*
X62600959Y-6969981D01*
X62579407Y-6930864D01*
X62559273Y-6894857D01*
X62619305Y-6894857D01*
X62636631Y-6912183D01*
X62653957Y-6894857D01*
X62636631Y-6877531D01*
X62619305Y-6894857D01*
X62559273Y-6894857D01*
X62499619Y-6788177D01*
X62498022Y-6785342D01*
X62471186Y-6737697D01*
X62453712Y-6706673D01*
X62519810Y-6706673D01*
X62523796Y-6731124D01*
X62569238Y-6792941D01*
X62599039Y-6829453D01*
X62609794Y-6835424D01*
X62585345Y-6782238D01*
X62556846Y-6731486D01*
X62531455Y-6704270D01*
X62519810Y-6706673D01*
X62453712Y-6706673D01*
X62423082Y-6652292D01*
X62480696Y-6652292D01*
X62498022Y-6669618D01*
X62515348Y-6652292D01*
X62498022Y-6634966D01*
X62480696Y-6652292D01*
X62423082Y-6652292D01*
X62395734Y-6603738D01*
X62359414Y-6539551D01*
X62332577Y-6492123D01*
X62316725Y-6464109D01*
X62381201Y-6464109D01*
X62385187Y-6488559D01*
X62430630Y-6550376D01*
X62460430Y-6586889D01*
X62471186Y-6592859D01*
X62446736Y-6539673D01*
X62418238Y-6488921D01*
X62392847Y-6461706D01*
X62381201Y-6464109D01*
X62316725Y-6464109D01*
X62285953Y-6409727D01*
X62342088Y-6409727D01*
X62359414Y-6427053D01*
X62376740Y-6409727D01*
X62359414Y-6392401D01*
X62342088Y-6409727D01*
X62285953Y-6409727D01*
X62271041Y-6383373D01*
X62220805Y-6294898D01*
X62193969Y-6247635D01*
X62179155Y-6221544D01*
X62242593Y-6221544D01*
X62246579Y-6245994D01*
X62292021Y-6307811D01*
X62321822Y-6344324D01*
X62332577Y-6350294D01*
X62308128Y-6297108D01*
X62279629Y-6246356D01*
X62254238Y-6219141D01*
X62242593Y-6221544D01*
X62179155Y-6221544D01*
X62148277Y-6167163D01*
X62203479Y-6167163D01*
X62220805Y-6184489D01*
X62238131Y-6167163D01*
X62220805Y-6149837D01*
X62203479Y-6167163D01*
X62148277Y-6167163D01*
X62128826Y-6132905D01*
X62082197Y-6051018D01*
X62055360Y-6003888D01*
X62041176Y-5978979D01*
X62103985Y-5978979D01*
X62107970Y-6003429D01*
X62153413Y-6065246D01*
X62183213Y-6101759D01*
X62193969Y-6107729D01*
X62169519Y-6054543D01*
X62141021Y-6003792D01*
X62115630Y-5976576D01*
X62103985Y-5978979D01*
X62041176Y-5978979D01*
X62010210Y-5924598D01*
X62064871Y-5924598D01*
X62082197Y-5941924D01*
X62099523Y-5924598D01*
X62082197Y-5907272D01*
X62064871Y-5924598D01*
X62010210Y-5924598D01*
X61972376Y-5858157D01*
X61943588Y-5807733D01*
X61916752Y-5760728D01*
X61902871Y-5736414D01*
X61965376Y-5736414D01*
X61969362Y-5760865D01*
X62014804Y-5822681D01*
X62044605Y-5859194D01*
X62055360Y-5865164D01*
X62030911Y-5811978D01*
X62002412Y-5761227D01*
X61977021Y-5734011D01*
X61965376Y-5736414D01*
X61902871Y-5736414D01*
X61871823Y-5682033D01*
X61926262Y-5682033D01*
X61943588Y-5699359D01*
X61960914Y-5682033D01*
X61943588Y-5664707D01*
X61926262Y-5682033D01*
X61871823Y-5682033D01*
X61804980Y-5564954D01*
X61781714Y-5524231D01*
X61778143Y-5517951D01*
X61764437Y-5493849D01*
X61826768Y-5493849D01*
X61830754Y-5518300D01*
X61876196Y-5580117D01*
X61905997Y-5616629D01*
X61916752Y-5622600D01*
X61892303Y-5569414D01*
X61863804Y-5518662D01*
X61838413Y-5491446D01*
X61826768Y-5493849D01*
X61764437Y-5493849D01*
X61733512Y-5439468D01*
X61787654Y-5439468D01*
X61804980Y-5456794D01*
X61822306Y-5439468D01*
X61804980Y-5422142D01*
X61787654Y-5439468D01*
X61733512Y-5439468D01*
X61666371Y-5321401D01*
X61639535Y-5274210D01*
X61626498Y-5251285D01*
X61688159Y-5251285D01*
X61692145Y-5275735D01*
X61737587Y-5337552D01*
X61767388Y-5374065D01*
X61778143Y-5380035D01*
X61753694Y-5326849D01*
X61725195Y-5276097D01*
X61699804Y-5248882D01*
X61688159Y-5251285D01*
X61626498Y-5251285D01*
X61615228Y-5231466D01*
X61595739Y-5196903D01*
X61649045Y-5196903D01*
X61666371Y-5214229D01*
X61683697Y-5196903D01*
X61666371Y-5179577D01*
X61649045Y-5196903D01*
X61595739Y-5196903D01*
X61527763Y-5076347D01*
X61500926Y-5028752D01*
X61489631Y-5008720D01*
X61549551Y-5008720D01*
X61553537Y-5033170D01*
X61598979Y-5094987D01*
X61628780Y-5131500D01*
X61639535Y-5137470D01*
X61615086Y-5084284D01*
X61586587Y-5033532D01*
X61561196Y-5006317D01*
X61549551Y-5008720D01*
X61489631Y-5008720D01*
X61460197Y-4956519D01*
X61458979Y-4954339D01*
X61510437Y-4954339D01*
X61527763Y-4971665D01*
X61545089Y-4954339D01*
X61527763Y-4937013D01*
X61510437Y-4954339D01*
X61458979Y-4954339D01*
X61389154Y-4829339D01*
X61362318Y-4781297D01*
X61353860Y-4766155D01*
X61410942Y-4766155D01*
X61414928Y-4790605D01*
X61460370Y-4852422D01*
X61490171Y-4888935D01*
X61500926Y-4894905D01*
X61476477Y-4841719D01*
X61447979Y-4790968D01*
X61422587Y-4763752D01*
X61410942Y-4766155D01*
X61353860Y-4766155D01*
X61323482Y-4711774D01*
X61371828Y-4711774D01*
X61389154Y-4729100D01*
X61406481Y-4711774D01*
X61389154Y-4694448D01*
X61371828Y-4711774D01*
X61323482Y-4711774D01*
X61319934Y-4705422D01*
X61250546Y-4579795D01*
X61223710Y-4531209D01*
X61219502Y-4523590D01*
X61272334Y-4523590D01*
X61276320Y-4548041D01*
X61321762Y-4609857D01*
X61351563Y-4646370D01*
X61362318Y-4652340D01*
X61337869Y-4599154D01*
X61309370Y-4548403D01*
X61283979Y-4521187D01*
X61272334Y-4523590D01*
X61219502Y-4523590D01*
X61197748Y-4484205D01*
X61189591Y-4469209D01*
X61233220Y-4469209D01*
X61250546Y-4486535D01*
X61267872Y-4469209D01*
X61250546Y-4451883D01*
X61233220Y-4469209D01*
X61189591Y-4469209D01*
X61111938Y-4326449D01*
X61096951Y-4298896D01*
X61087466Y-4281025D01*
X61133725Y-4281025D01*
X61137711Y-4305476D01*
X61183153Y-4367293D01*
X61212954Y-4403805D01*
X61223710Y-4409776D01*
X61199260Y-4356590D01*
X61170762Y-4305838D01*
X61145370Y-4278622D01*
X61133725Y-4281025D01*
X61087466Y-4281025D01*
X61084679Y-4275775D01*
X61058601Y-4226644D01*
X61094612Y-4226644D01*
X61111938Y-4243970D01*
X61129264Y-4226644D01*
X61111938Y-4209318D01*
X61094612Y-4226644D01*
X61058601Y-4226644D01*
X61020854Y-4155528D01*
X61013757Y-4141448D01*
X61005848Y-4125758D01*
X61028113Y-4125758D01*
X61065313Y-4160649D01*
X61084679Y-4169080D01*
X61080594Y-4145368D01*
X61069898Y-4129974D01*
X61040588Y-4105362D01*
X61035744Y-4105699D01*
X61028113Y-4125758D01*
X61005848Y-4125758D01*
X60972768Y-4060130D01*
X60963020Y-4036058D01*
X60990655Y-4036058D01*
X60993156Y-4054402D01*
X61013757Y-4059159D01*
X61017904Y-4054080D01*
X61013757Y-4012956D01*
X61005860Y-4008849D01*
X61060935Y-4008849D01*
X61078518Y-4046317D01*
X61126935Y-4135811D01*
X61202100Y-4270296D01*
X61299930Y-4442764D01*
X61416343Y-4646210D01*
X61547256Y-4873625D01*
X61688585Y-5118004D01*
X61836249Y-5372339D01*
X61986165Y-5629625D01*
X62134250Y-5882853D01*
X62276420Y-6125018D01*
X62408595Y-6349112D01*
X62526689Y-6548130D01*
X62626622Y-6715063D01*
X62704310Y-6842906D01*
X62755671Y-6924651D01*
X62776621Y-6953293D01*
X62788494Y-6944568D01*
X62813182Y-6912721D01*
X62852277Y-6853554D01*
X62908217Y-6762928D01*
X62983438Y-6636700D01*
X63080378Y-6470731D01*
X63201473Y-6260879D01*
X63349162Y-6003005D01*
X63525881Y-5692968D01*
X63734067Y-5326627D01*
X63837469Y-5144481D01*
X63653643Y-5152059D01*
X63284795Y-5167265D01*
X63186544Y-5171230D01*
X63002502Y-5177460D01*
X62913003Y-5178345D01*
X62869032Y-5178780D01*
X62773113Y-5174244D01*
X62701719Y-5162904D01*
X62641829Y-5143813D01*
X62580419Y-5116023D01*
X62479489Y-5052624D01*
X62337231Y-4900692D01*
X62226302Y-4694236D01*
X62149516Y-4439091D01*
X62109693Y-4141090D01*
X62105302Y-4016547D01*
X62114398Y-3874123D01*
X62148380Y-3874123D01*
X62151264Y-4172457D01*
X62206379Y-4464062D01*
X62311384Y-4733673D01*
X62463941Y-4966024D01*
X62513383Y-5016843D01*
X62612487Y-5079994D01*
X62741582Y-5116816D01*
X62913003Y-5130175D01*
X63139086Y-5122940D01*
X63468281Y-5101750D01*
X63344191Y-4972099D01*
X63300129Y-4920879D01*
X63196840Y-4743979D01*
X63189607Y-4731591D01*
X63169754Y-4672397D01*
X63156616Y-4633223D01*
X63212234Y-4633223D01*
X63224553Y-4669868D01*
X63265663Y-4755455D01*
X63319492Y-4840746D01*
X63421427Y-4953407D01*
X63536756Y-5045434D01*
X63642850Y-5096372D01*
X63653643Y-5098797D01*
X63782826Y-5090801D01*
X63919821Y-5021743D01*
X64054172Y-4896701D01*
X64066885Y-4881469D01*
X64178637Y-4705130D01*
X64256544Y-4500072D01*
X64302287Y-4275886D01*
X64317546Y-4042161D01*
X64317192Y-4036058D01*
X64354240Y-4036058D01*
X64354283Y-4066476D01*
X64355987Y-4171389D01*
X64362611Y-4218217D01*
X64377472Y-4216223D01*
X64403888Y-4174666D01*
X64430171Y-4120770D01*
X64451124Y-3991769D01*
X64404991Y-3878083D01*
X64402520Y-3874837D01*
X64376356Y-3847374D01*
X64361800Y-3858203D01*
X64355535Y-3917653D01*
X64354240Y-4036058D01*
X64317192Y-4036058D01*
X64304002Y-3808486D01*
X64263336Y-3584452D01*
X64197229Y-3379647D01*
X64107362Y-3203662D01*
X63995415Y-3066085D01*
X63863070Y-2976506D01*
X63712006Y-2944516D01*
X63679532Y-2945001D01*
X63588580Y-2957988D01*
X63511381Y-2998614D01*
X63419395Y-3080105D01*
X63374185Y-3128835D01*
X63311599Y-3209961D01*
X63259621Y-3290891D01*
X63225961Y-3357788D01*
X63218328Y-3396815D01*
X63244432Y-3394135D01*
X63253441Y-3387060D01*
X63278848Y-3332307D01*
X63281134Y-3325689D01*
X63331851Y-3325689D01*
X63434718Y-3334475D01*
X63497711Y-3339877D01*
X63666434Y-3355616D01*
X63783198Y-3371423D01*
X63861144Y-3391778D01*
X63913419Y-3421161D01*
X63953165Y-3464052D01*
X63993526Y-3524930D01*
X64083146Y-3666896D01*
X63996963Y-3842814D01*
X63910780Y-4018732D01*
X63996989Y-4194607D01*
X64083198Y-4370483D01*
X63991881Y-4515139D01*
X63900563Y-4659796D01*
X63894220Y-4659796D01*
X63623781Y-4659796D01*
X63584942Y-4660092D01*
X63550477Y-4661589D01*
X63463690Y-4665357D01*
X63427757Y-4669801D01*
X63378906Y-4675843D01*
X63346999Y-4689775D01*
X63362157Y-4734680D01*
X63419942Y-4810386D01*
X63501940Y-4884549D01*
X63587717Y-4936247D01*
X63629353Y-4950839D01*
X63769502Y-4957869D01*
X63900400Y-4896558D01*
X64021553Y-4767240D01*
X64132465Y-4570248D01*
X64147743Y-4535031D01*
X64215999Y-4300398D01*
X64242656Y-4044506D01*
X64228540Y-3787110D01*
X64174479Y-3547966D01*
X64081298Y-3346831D01*
X63995741Y-3224577D01*
X63909944Y-3138399D01*
X63819301Y-3095045D01*
X63707675Y-3083124D01*
X63702978Y-3083131D01*
X63596330Y-3091658D01*
X63520302Y-3126884D01*
X63440539Y-3204407D01*
X63331851Y-3325689D01*
X63281134Y-3325689D01*
X63294024Y-3288374D01*
X63339489Y-3220667D01*
X63347335Y-3211531D01*
X63490149Y-3089035D01*
X63641670Y-3031885D01*
X63794302Y-3038281D01*
X63940453Y-3106421D01*
X64072529Y-3234505D01*
X64182937Y-3420730D01*
X64219110Y-3509079D01*
X64243006Y-3595245D01*
X64257023Y-3696977D01*
X64263627Y-3832173D01*
X64265280Y-4018732D01*
X64263632Y-4205045D01*
X64257039Y-4340307D01*
X64243035Y-4442077D01*
X64219155Y-4528253D01*
X64182937Y-4616733D01*
X64134706Y-4711674D01*
X64013912Y-4873664D01*
X63873777Y-4972728D01*
X63769502Y-4995119D01*
X63717351Y-5006317D01*
X63635113Y-4999705D01*
X63478600Y-4940569D01*
X63339489Y-4816796D01*
X63300480Y-4760974D01*
X63278848Y-4705156D01*
X63277275Y-4693343D01*
X63243043Y-4642470D01*
X63226131Y-4632661D01*
X63212234Y-4633223D01*
X63156616Y-4633223D01*
X63147371Y-4605659D01*
X63130662Y-4555839D01*
X63173738Y-4555839D01*
X63176239Y-4574184D01*
X63196840Y-4578941D01*
X63200987Y-4573862D01*
X63196840Y-4532738D01*
X63186417Y-4527317D01*
X63173738Y-4555839D01*
X63130662Y-4555839D01*
X63118958Y-4520942D01*
X63112237Y-4500902D01*
X63101339Y-4437445D01*
X63141822Y-4437445D01*
X63147371Y-4471506D01*
X63162758Y-4458380D01*
X63168294Y-4438342D01*
X63167904Y-4436158D01*
X63216021Y-4436158D01*
X63253084Y-4521187D01*
X63259924Y-4532836D01*
X63309724Y-4582316D01*
X63373174Y-4618047D01*
X63427757Y-4630089D01*
X63433072Y-4625144D01*
X63550477Y-4625144D01*
X63691303Y-4625144D01*
X63776799Y-4622256D01*
X63820185Y-4603426D01*
X63815138Y-4553980D01*
X63768478Y-4459256D01*
X63707732Y-4345346D01*
X63629105Y-4485245D01*
X63550477Y-4625144D01*
X63433072Y-4625144D01*
X63450955Y-4608507D01*
X63438907Y-4557083D01*
X63393460Y-4477438D01*
X63332757Y-4410619D01*
X63282766Y-4385566D01*
X63276805Y-4382579D01*
X63264810Y-4382763D01*
X63219104Y-4394838D01*
X63216021Y-4436158D01*
X63167904Y-4436158D01*
X63160022Y-4391964D01*
X63148193Y-4392500D01*
X63147371Y-4398299D01*
X63141822Y-4437445D01*
X63101339Y-4437445D01*
X63068017Y-4243418D01*
X63057293Y-3982115D01*
X63095652Y-3982115D01*
X63097222Y-4106702D01*
X63105796Y-4209318D01*
X63109468Y-4232807D01*
X63118958Y-4270451D01*
X63125805Y-4250373D01*
X63130577Y-4168891D01*
X63173738Y-4168891D01*
X63174031Y-4198719D01*
X63184662Y-4292187D01*
X63217687Y-4336635D01*
X63282766Y-4347927D01*
X63305466Y-4339099D01*
X63360450Y-4286508D01*
X63419391Y-4206282D01*
X63466406Y-4121381D01*
X63485607Y-4054764D01*
X63478478Y-4049183D01*
X63422702Y-4039776D01*
X63329673Y-4036058D01*
X63173738Y-4036058D01*
X63173738Y-4168891D01*
X63130577Y-4168891D01*
X63130587Y-4168716D01*
X63133882Y-4021619D01*
X63134080Y-4001405D01*
X63169754Y-4001405D01*
X63327680Y-4001405D01*
X63376007Y-4000504D01*
X63454587Y-3993800D01*
X63485607Y-3982699D01*
X63482633Y-3971524D01*
X63457287Y-3912271D01*
X63414491Y-3824592D01*
X63376839Y-3758256D01*
X63325343Y-3704661D01*
X63276805Y-3697451D01*
X63267219Y-3696027D01*
X63222747Y-3710991D01*
X63196840Y-3752835D01*
X63193846Y-3757671D01*
X63180409Y-3854134D01*
X63169754Y-4001405D01*
X63134080Y-4001405D01*
X63134855Y-3922166D01*
X63134213Y-3799486D01*
X63131365Y-3718268D01*
X63126615Y-3692424D01*
X63124130Y-3696140D01*
X63109991Y-3754873D01*
X63100204Y-3857519D01*
X63095652Y-3982115D01*
X63057293Y-3982115D01*
X63056950Y-3973745D01*
X63079033Y-3706491D01*
X63085468Y-3677337D01*
X63408431Y-3677337D01*
X63427187Y-3742298D01*
X63475789Y-3842961D01*
X63562822Y-4014713D01*
X63476214Y-4191305D01*
X63429488Y-4290904D01*
X63409605Y-4358025D01*
X63416541Y-4412836D01*
X63447826Y-4480484D01*
X63506048Y-4593072D01*
X63584094Y-4454207D01*
X63607465Y-4414133D01*
X63658847Y-4335826D01*
X63693860Y-4295738D01*
X63713693Y-4301873D01*
X63758003Y-4353644D01*
X63809900Y-4441976D01*
X63894220Y-4607817D01*
X63956464Y-4477366D01*
X63988102Y-4406743D01*
X64000326Y-4346670D01*
X63984818Y-4282308D01*
X63939949Y-4184807D01*
X63861191Y-4022698D01*
X63939459Y-3855594D01*
X63980400Y-3764370D01*
X63998948Y-3696571D01*
X63990281Y-3637564D01*
X63955973Y-3559068D01*
X63894220Y-3429646D01*
X63809900Y-3595487D01*
X63773416Y-3660325D01*
X63725513Y-3724763D01*
X63714129Y-3730863D01*
X63693860Y-3741725D01*
X63681692Y-3730491D01*
X63637608Y-3670974D01*
X63584094Y-3583256D01*
X63506048Y-3444391D01*
X63447402Y-3557800D01*
X63416976Y-3622509D01*
X63408431Y-3677337D01*
X63085468Y-3677337D01*
X63101260Y-3605794D01*
X63141822Y-3605794D01*
X63147371Y-3639855D01*
X63153034Y-3635024D01*
X63212712Y-3635024D01*
X63228379Y-3653063D01*
X63276805Y-3654884D01*
X63337978Y-3629003D01*
X63398087Y-3552649D01*
X63424904Y-3499494D01*
X63446089Y-3440275D01*
X63438051Y-3429646D01*
X63555179Y-3429646D01*
X63634654Y-3560856D01*
X63714129Y-3692067D01*
X63774614Y-3565229D01*
X63787826Y-3536304D01*
X63815962Y-3460754D01*
X63819764Y-3423056D01*
X63816571Y-3421094D01*
X63765867Y-3415287D01*
X63679804Y-3418684D01*
X63555179Y-3429646D01*
X63438051Y-3429646D01*
X63428194Y-3416611D01*
X63367715Y-3412320D01*
X63354185Y-3412800D01*
X63290186Y-3440334D01*
X63246432Y-3521447D01*
X63225512Y-3581908D01*
X63212712Y-3635024D01*
X63153034Y-3635024D01*
X63162758Y-3626729D01*
X63168294Y-3606691D01*
X63160022Y-3560313D01*
X63148193Y-3560849D01*
X63141822Y-3605794D01*
X63101260Y-3605794D01*
X63128669Y-3481624D01*
X63173738Y-3481624D01*
X63176239Y-3499968D01*
X63196840Y-3504725D01*
X63200987Y-3499646D01*
X63196840Y-3458522D01*
X63186417Y-3453101D01*
X63173738Y-3481624D01*
X63128669Y-3481624D01*
X63134268Y-3456260D01*
X63222654Y-3237660D01*
X63344191Y-3065298D01*
X63468281Y-2935581D01*
X63114400Y-2913050D01*
X62967819Y-2905523D01*
X62824075Y-2905235D01*
X62720247Y-2916690D01*
X62640082Y-2940841D01*
X62566102Y-2983590D01*
X62444240Y-3102498D01*
X62331021Y-3270898D01*
X62235641Y-3476605D01*
X62200067Y-3584328D01*
X62148380Y-3874123D01*
X62114398Y-3874123D01*
X62123577Y-3730391D01*
X62179627Y-3469612D01*
X62269900Y-3244160D01*
X62390843Y-3063984D01*
X62538903Y-2939034D01*
X62695481Y-2847273D01*
X63263805Y-2869687D01*
X63400432Y-2874319D01*
X63572041Y-2877697D01*
X63708670Y-2877447D01*
X63798907Y-2873636D01*
X63831337Y-2866330D01*
X63830578Y-2862818D01*
X63806992Y-2812748D01*
X63754312Y-2715308D01*
X63677844Y-2579451D01*
X63582891Y-2414131D01*
X63474759Y-2228300D01*
X63358750Y-2030914D01*
X63240170Y-1830926D01*
X63124323Y-1637288D01*
X63016514Y-1458955D01*
X62922046Y-1304881D01*
X62846224Y-1184019D01*
X62794352Y-1105322D01*
X62771735Y-1077745D01*
X62755618Y-1098223D01*
X62707688Y-1173230D01*
X62667040Y-1240024D01*
X62636631Y-1289993D01*
X62632026Y-1297560D01*
X62532190Y-1465194D01*
X62530236Y-1468518D01*
X62498022Y-1523320D01*
X62411733Y-1670113D01*
X62391627Y-1704644D01*
X62359414Y-1759967D01*
X62274211Y-1906298D01*
X62253019Y-1942981D01*
X62220805Y-1998742D01*
X62123179Y-2167730D01*
X62114411Y-2183016D01*
X62082197Y-2239177D01*
X61975802Y-2424662D01*
X61962192Y-2448389D01*
X61943588Y-2480909D01*
X61837194Y-2666884D01*
X61836455Y-2668176D01*
X61804980Y-2723090D01*
X61698585Y-2908717D01*
X61680190Y-2940811D01*
X61666371Y-2964867D01*
X61559977Y-3150076D01*
X61535643Y-3192436D01*
X61527763Y-3206118D01*
X61421368Y-3390847D01*
X61406583Y-3416518D01*
X61389154Y-3446677D01*
X61296779Y-3606524D01*
X61282760Y-3630660D01*
X61250546Y-3686121D01*
X61210001Y-3755925D01*
X61150019Y-3858187D01*
X61144151Y-3867880D01*
X61120601Y-3906779D01*
X61117830Y-3911002D01*
X61111938Y-3920467D01*
X61077285Y-3976131D01*
X61077166Y-3976322D01*
X61060935Y-4008849D01*
X61005860Y-4008849D01*
X61003334Y-4007535D01*
X60990655Y-4036058D01*
X60963020Y-4036058D01*
X60956003Y-4018732D01*
X60956320Y-4016504D01*
X60977524Y-3967433D01*
X61021990Y-3880123D01*
X61059959Y-3880123D01*
X61077285Y-3897449D01*
X61094612Y-3880123D01*
X61077285Y-3862797D01*
X61059959Y-3880123D01*
X61021990Y-3880123D01*
X61029601Y-3865179D01*
X61058577Y-3810819D01*
X61094612Y-3810819D01*
X61111938Y-3828145D01*
X61129264Y-3810819D01*
X61111938Y-3793493D01*
X61094612Y-3810819D01*
X61058577Y-3810819D01*
X61086283Y-3758841D01*
X61144151Y-3758841D01*
X61162782Y-3743994D01*
X61198568Y-3689536D01*
X61218097Y-3645699D01*
X61218332Y-3620232D01*
X61199701Y-3635079D01*
X61163916Y-3689536D01*
X61144387Y-3733373D01*
X61144151Y-3758841D01*
X61086283Y-3758841D01*
X61109239Y-3715773D01*
X61189677Y-3568254D01*
X61233220Y-3568254D01*
X61250546Y-3585580D01*
X61267872Y-3568254D01*
X61250546Y-3550928D01*
X61233220Y-3568254D01*
X61189677Y-3568254D01*
X61213129Y-3525245D01*
X61218091Y-3516276D01*
X61282760Y-3516276D01*
X61301391Y-3501429D01*
X61337176Y-3446972D01*
X61356705Y-3403135D01*
X61356941Y-3377667D01*
X61338310Y-3392514D01*
X61302524Y-3446972D01*
X61282995Y-3490809D01*
X61282760Y-3516276D01*
X61218091Y-3516276D01*
X61323538Y-3325689D01*
X61371828Y-3325689D01*
X61389154Y-3343015D01*
X61406481Y-3325689D01*
X61389154Y-3308363D01*
X61371828Y-3325689D01*
X61323538Y-3325689D01*
X61337959Y-3299624D01*
X61352454Y-3273711D01*
X61421368Y-3273711D01*
X61439999Y-3258864D01*
X61475785Y-3204407D01*
X61495314Y-3160570D01*
X61495549Y-3135103D01*
X61476918Y-3149949D01*
X61441133Y-3204407D01*
X61421604Y-3248244D01*
X61421368Y-3273711D01*
X61352454Y-3273711D01*
X61459060Y-3083124D01*
X61510437Y-3083124D01*
X61527763Y-3100450D01*
X61545089Y-3083124D01*
X61527763Y-3065798D01*
X61510437Y-3083124D01*
X61459060Y-3083124D01*
X61480418Y-3044941D01*
X61488206Y-3031146D01*
X61559977Y-3031146D01*
X61578608Y-3016300D01*
X61614393Y-2961842D01*
X61633922Y-2918005D01*
X61634158Y-2892538D01*
X61615527Y-2907384D01*
X61579741Y-2961842D01*
X61560212Y-3005679D01*
X61559977Y-3031146D01*
X61488206Y-3031146D01*
X61595797Y-2840560D01*
X61649045Y-2840560D01*
X61666371Y-2857886D01*
X61683697Y-2840560D01*
X61666371Y-2823234D01*
X61649045Y-2840560D01*
X61595797Y-2840560D01*
X61625141Y-2788581D01*
X61698585Y-2788581D01*
X61717216Y-2773735D01*
X61753002Y-2719277D01*
X61772531Y-2675440D01*
X61772766Y-2649973D01*
X61754135Y-2664820D01*
X61718350Y-2719277D01*
X61698821Y-2763114D01*
X61698585Y-2788581D01*
X61625141Y-2788581D01*
X61637196Y-2767226D01*
X61733540Y-2597995D01*
X61787654Y-2597995D01*
X61804980Y-2615321D01*
X61822306Y-2597995D01*
X61804980Y-2580669D01*
X61787654Y-2597995D01*
X61733540Y-2597995D01*
X61763131Y-2546017D01*
X61837194Y-2546017D01*
X61855825Y-2531170D01*
X61891610Y-2476712D01*
X61911139Y-2432875D01*
X61911375Y-2407408D01*
X61892744Y-2422255D01*
X61856958Y-2476712D01*
X61837429Y-2520549D01*
X61837194Y-2546017D01*
X61763131Y-2546017D01*
X61804980Y-2472509D01*
X61830594Y-2427688D01*
X61871789Y-2355430D01*
X61926262Y-2355430D01*
X61943588Y-2372756D01*
X61960914Y-2355430D01*
X61943588Y-2338104D01*
X61926262Y-2355430D01*
X61871789Y-2355430D01*
X61901423Y-2303452D01*
X61975802Y-2303452D01*
X61994433Y-2288605D01*
X62030219Y-2234148D01*
X62049748Y-2190311D01*
X62049983Y-2164843D01*
X62031352Y-2179690D01*
X61995566Y-2234148D01*
X61976038Y-2277985D01*
X61975802Y-2303452D01*
X61901423Y-2303452D01*
X61996669Y-2136387D01*
X62010022Y-2112865D01*
X62064871Y-2112865D01*
X62082197Y-2130191D01*
X62099523Y-2112865D01*
X62082197Y-2095539D01*
X62064871Y-2112865D01*
X62010022Y-2112865D01*
X62039528Y-2060887D01*
X62114411Y-2060887D01*
X62133041Y-2046040D01*
X62168827Y-1991583D01*
X62188356Y-1947746D01*
X62188592Y-1922279D01*
X62169961Y-1937125D01*
X62134175Y-1991583D01*
X62114646Y-2035420D01*
X62114411Y-2060887D01*
X62039528Y-2060887D01*
X62147719Y-1870300D01*
X62203479Y-1870300D01*
X62220805Y-1887626D01*
X62238131Y-1870300D01*
X62220805Y-1852974D01*
X62203479Y-1870300D01*
X62147719Y-1870300D01*
X62151287Y-1864014D01*
X62177102Y-1818322D01*
X62253019Y-1818322D01*
X62271650Y-1803476D01*
X62307436Y-1749018D01*
X62326964Y-1705181D01*
X62327200Y-1679714D01*
X62308569Y-1694560D01*
X62272783Y-1749018D01*
X62253254Y-1792855D01*
X62253019Y-1818322D01*
X62177102Y-1818322D01*
X62284780Y-1627736D01*
X62342088Y-1627736D01*
X62359414Y-1645062D01*
X62376740Y-1627736D01*
X62359414Y-1610410D01*
X62342088Y-1627736D01*
X62284780Y-1627736D01*
X62291156Y-1616450D01*
X62314015Y-1575757D01*
X62391627Y-1575757D01*
X62410258Y-1560911D01*
X62446044Y-1506453D01*
X62465573Y-1462616D01*
X62465808Y-1437149D01*
X62447177Y-1451996D01*
X62411392Y-1506453D01*
X62391863Y-1550290D01*
X62391627Y-1575757D01*
X62314015Y-1575757D01*
X62412980Y-1399579D01*
X62421010Y-1385171D01*
X62480696Y-1385171D01*
X62498022Y-1402497D01*
X62515348Y-1385171D01*
X62498022Y-1367845D01*
X62480696Y-1385171D01*
X62421010Y-1385171D01*
X62449979Y-1333193D01*
X62530236Y-1333193D01*
X62548867Y-1318346D01*
X62584652Y-1263888D01*
X62604181Y-1220051D01*
X62604417Y-1194584D01*
X62585786Y-1209431D01*
X62550000Y-1263888D01*
X62530471Y-1307725D01*
X62530236Y-1333193D01*
X62449979Y-1333193D01*
X62513467Y-1219280D01*
X62555660Y-1142606D01*
X62619305Y-1142606D01*
X62636631Y-1159932D01*
X62653957Y-1142606D01*
X62636631Y-1125280D01*
X62619305Y-1142606D01*
X62555660Y-1142606D01*
X62589321Y-1081435D01*
X62593424Y-1073772D01*
X62656667Y-1073772D01*
X62667040Y-1090628D01*
X62684934Y-1077978D01*
X62727681Y-1029987D01*
X62747038Y-1004879D01*
X62755643Y-986935D01*
X62714598Y-1016904D01*
X62701182Y-1027706D01*
X62656667Y-1073772D01*
X62593424Y-1073772D01*
X62637249Y-991926D01*
X62653957Y-956635D01*
X62638067Y-937135D01*
X62573493Y-896335D01*
X62476178Y-849423D01*
X62440741Y-834440D01*
X62347298Y-800906D01*
X62291609Y-796652D01*
X62255347Y-819167D01*
X62254089Y-820671D01*
X62224695Y-865651D01*
X62164457Y-963903D01*
X62076916Y-1109463D01*
X61965613Y-1296365D01*
X61834090Y-1518645D01*
X61685887Y-1770339D01*
X61524546Y-2045480D01*
X61353608Y-2338104D01*
X61246251Y-2522372D01*
X61065072Y-2834376D01*
X60914840Y-3095023D01*
X60792673Y-3309754D01*
X60695687Y-3484006D01*
X60620999Y-3623219D01*
X60565726Y-3732833D01*
X60526985Y-3818287D01*
X60501892Y-3885020D01*
X60487565Y-3938471D01*
X60481120Y-3984079D01*
X60480872Y-3987087D01*
X60476516Y-4025324D01*
X60472537Y-4057071D01*
X60471569Y-4087445D01*
X60436703Y-4087445D01*
X60436585Y-4020391D01*
X60436221Y-3814137D01*
X61274304Y-2374415D01*
X61275401Y-2372531D01*
X61444585Y-2082039D01*
X61604357Y-1807989D01*
X61751083Y-1556591D01*
X61881132Y-1334054D01*
X61990872Y-1146589D01*
X62076671Y-1000406D01*
X62134897Y-901715D01*
X62161918Y-856726D01*
X62183694Y-820566D01*
X62191854Y-786115D01*
X62156836Y-778759D01*
X62107072Y-794468D01*
X62040232Y-845333D01*
X62016896Y-878756D01*
X61960977Y-968396D01*
X61877705Y-1106552D01*
X61770800Y-1286910D01*
X61643982Y-1503152D01*
X61500970Y-1748963D01*
X61345483Y-2018025D01*
X61181242Y-2304024D01*
X61043064Y-2545375D01*
X60885467Y-2820635D01*
X60739788Y-3075067D01*
X60609779Y-3302118D01*
X60499194Y-3495236D01*
X60411784Y-3647867D01*
X60351301Y-3753459D01*
X60321498Y-3805458D01*
X60302258Y-3844905D01*
X60272112Y-3996803D01*
X60293959Y-4158268D01*
X60365567Y-4304037D01*
X60380730Y-4324696D01*
X60419828Y-4388665D01*
X60419544Y-4437073D01*
X60382602Y-4501503D01*
X60340502Y-4554357D01*
X60297990Y-4574587D01*
X60280261Y-4583023D01*
X60182390Y-4583570D01*
X60178874Y-4583235D01*
X60138670Y-4579410D01*
X60067600Y-4559808D01*
X60016930Y-4511671D01*
X59963254Y-4417231D01*
X59907634Y-4259757D01*
X59881185Y-4050968D01*
X59888714Y-3930808D01*
X59919896Y-3930808D01*
X59931603Y-4155934D01*
X60006169Y-4375775D01*
X60011197Y-4385802D01*
X60070464Y-4489287D01*
X60122031Y-4541456D01*
X60178874Y-4555839D01*
X60261848Y-4555839D01*
X60184437Y-4408568D01*
X60149363Y-4321672D01*
X60114685Y-4155401D01*
X60108416Y-4040078D01*
X60126158Y-4040078D01*
X60129958Y-4075619D01*
X60152487Y-4169084D01*
X60188415Y-4277332D01*
X60229882Y-4379940D01*
X60269027Y-4456482D01*
X60297990Y-4486535D01*
X60341493Y-4465420D01*
X60343494Y-4398099D01*
X60298599Y-4289512D01*
X60245127Y-4142255D01*
X60230459Y-3972716D01*
X60262832Y-3821738D01*
X60264129Y-3818919D01*
X60292393Y-3765851D01*
X60351356Y-3659729D01*
X60437542Y-3506671D01*
X60547473Y-3312796D01*
X60677673Y-3084220D01*
X60824666Y-2827063D01*
X60984975Y-2547441D01*
X61155124Y-2251474D01*
X62012893Y-761433D01*
X62160164Y-750777D01*
X62231288Y-743358D01*
X62294017Y-722413D01*
X62294532Y-684292D01*
X62237082Y-621875D01*
X62210938Y-599195D01*
X62175679Y-575471D01*
X62140210Y-565842D01*
X62101417Y-574491D01*
X62056187Y-605606D01*
X62001409Y-663371D01*
X61933969Y-751972D01*
X61850754Y-875595D01*
X61748653Y-1038426D01*
X61624552Y-1244649D01*
X61475339Y-1498451D01*
X61297901Y-1804017D01*
X61089126Y-2165532D01*
X61043252Y-2245135D01*
X60871577Y-2544466D01*
X60710576Y-2827376D01*
X60563703Y-3087654D01*
X60434414Y-3319089D01*
X60326162Y-3515469D01*
X60242403Y-3670583D01*
X60186591Y-3778218D01*
X60162182Y-3832165D01*
X60159146Y-3842507D01*
X60135051Y-3950466D01*
X60126158Y-4040078D01*
X60108416Y-4040078D01*
X60104838Y-3974259D01*
X60120594Y-3804458D01*
X60162727Y-3672210D01*
X60181288Y-3638280D01*
X60235420Y-3542089D01*
X60315888Y-3400807D01*
X60418631Y-3221444D01*
X60539590Y-3011011D01*
X60674703Y-2776518D01*
X60819910Y-2524975D01*
X60971152Y-2263394D01*
X61124367Y-1998785D01*
X61275495Y-1738158D01*
X61420476Y-1488524D01*
X61555250Y-1256893D01*
X61675756Y-1050277D01*
X61777933Y-875685D01*
X61857722Y-740128D01*
X61911062Y-650616D01*
X61933892Y-614161D01*
X61951580Y-576635D01*
X61926502Y-565986D01*
X61872802Y-580348D01*
X61806812Y-615229D01*
X61744863Y-666139D01*
X61735883Y-677147D01*
X61689294Y-746108D01*
X61614409Y-865550D01*
X61515447Y-1028185D01*
X61396627Y-1226719D01*
X61262166Y-1453863D01*
X61116285Y-1702324D01*
X60963201Y-1964812D01*
X60807133Y-2234035D01*
X60652300Y-2502703D01*
X60502922Y-2763523D01*
X60363215Y-3009205D01*
X60237400Y-3232458D01*
X60129696Y-3425990D01*
X60044320Y-3582510D01*
X59985491Y-3694726D01*
X59957429Y-3755349D01*
X59919896Y-3930808D01*
X59888714Y-3930808D01*
X59894531Y-3837965D01*
X59948228Y-3649094D01*
X59966771Y-3611786D01*
X60020057Y-3512623D01*
X60101544Y-3365307D01*
X60207344Y-3176728D01*
X60333568Y-2953771D01*
X60476328Y-2703325D01*
X60631735Y-2432278D01*
X60795902Y-2147517D01*
X60862007Y-2033024D01*
X61053518Y-1699274D01*
X61210825Y-1421359D01*
X61335249Y-1196660D01*
X61428110Y-1022558D01*
X61490727Y-896431D01*
X61524420Y-815661D01*
X61530511Y-777627D01*
X61510318Y-779710D01*
X61465163Y-819289D01*
X61463920Y-820690D01*
X61434156Y-865299D01*
X61373553Y-963218D01*
X61285667Y-1108478D01*
X61174056Y-1295108D01*
X61042276Y-1517138D01*
X60893885Y-1768600D01*
X60732439Y-2043522D01*
X60561497Y-2335935D01*
X60379828Y-2647977D01*
X60208417Y-2944157D01*
X60067224Y-3190703D01*
X59953463Y-3392826D01*
X59864346Y-3555739D01*
X59797089Y-3684655D01*
X59748904Y-3784785D01*
X59717006Y-3861341D01*
X59698609Y-3919537D01*
X59690926Y-3964585D01*
X59688290Y-4006560D01*
X59687900Y-4113492D01*
X59658087Y-4113492D01*
X59656549Y-4018732D01*
X59656549Y-3776167D01*
X60483550Y-2362331D01*
X60647175Y-2081637D01*
X60801573Y-1814869D01*
X60940807Y-1572371D01*
X61061541Y-1360051D01*
X61160436Y-1183814D01*
X61234154Y-1049565D01*
X61279359Y-963210D01*
X61292711Y-930655D01*
X61286607Y-927752D01*
X61267948Y-936697D01*
X61238369Y-968591D01*
X61195322Y-1027605D01*
X61136257Y-1117907D01*
X61058628Y-1243667D01*
X60959885Y-1409054D01*
X60837481Y-1618237D01*
X60688868Y-1875384D01*
X60511497Y-2184667D01*
X60302819Y-2550253D01*
X60153575Y-2813299D01*
X60000782Y-3085170D01*
X59862209Y-3334419D01*
X59741250Y-3554807D01*
X59641301Y-3740094D01*
X59565755Y-3884043D01*
X59518008Y-3980414D01*
X59501455Y-4022968D01*
X59465272Y-4022968D01*
X59465962Y-4008336D01*
X59466325Y-3988320D01*
X59477166Y-3897600D01*
X59498385Y-3843738D01*
X59517269Y-3816905D01*
X59566863Y-3737027D01*
X59639280Y-3615708D01*
X59728228Y-3463521D01*
X59827413Y-3291037D01*
X60124018Y-2771255D01*
X59951092Y-2762744D01*
X59912375Y-2760838D01*
G37*
%TO.C,J1*%
X74960000Y-31320000D02*
X74960000Y-37320000D01*
X62960000Y-31320000D02*
X74960000Y-31320000D01*
X62960000Y-31320000D02*
X62960000Y-37320000D01*
X74960000Y-37320000D02*
X62960000Y-37320000D01*
D12*
%TO.C,U1*%
X51805000Y22760000D02*
X53135000Y22760000D01*
X51805000Y21430000D02*
X51805000Y22760000D01*
X51805000Y20160000D02*
X54465000Y20160000D01*
X51805000Y-28160000D02*
X51805000Y20160000D01*
X54465000Y20160000D02*
X54465000Y-28160000D01*
X54465000Y-28160000D02*
X51805000Y-28160000D01*
X67105000Y22700000D02*
X69645000Y22700000D01*
X67105000Y-28100000D02*
X67105000Y22700000D01*
X69645000Y22700000D02*
X69645000Y-28100000D01*
X69645000Y-28100000D02*
X67105000Y-28100000D01*
D10*
%TO.C,REF\u002A\u002A*%
X-9716135Y-5901956D02*
G75*
G03*
X-10750000Y-10052500I19286255J-7008074D01*
G01*
X-10750000Y-15767500D02*
G75*
G03*
X-9716135Y-19918046I20320000J2857500D01*
G01*
X6712500Y7410000D02*
G75*
G03*
X2561954Y6376135I2857500J-20320000D01*
G01*
X2561955Y-32196135D02*
G75*
G03*
X6712500Y-33230000I7008045J19286135D01*
G01*
X9570000Y-2115001D02*
G75*
G03*
X8441615Y-2174137I-6J-10794920D01*
G01*
X10698385Y-2174137D02*
G75*
G03*
X9570000Y-2115000I-1128385J-10735763D01*
G01*
X8441615Y-23645864D02*
G75*
G03*
X9570000Y-23705000I1128379J10735785D01*
G01*
X9570000Y-23705000D02*
G75*
G03*
X10698385Y-23645863I0J10794900D01*
G01*
X16578049Y6376133D02*
G75*
G03*
X12427500Y7410000I-7008049J-19286133D01*
G01*
X12427500Y-33230000D02*
G75*
G03*
X16578045Y-32196135I-2857506J20320019D01*
G01*
X29890000Y-10052500D02*
G75*
G03*
X28856134Y-5901952I-20320000J-2857500D01*
G01*
X28856134Y-19918048D02*
G75*
G03*
X29890000Y-15767500I-19286134J7008048D01*
G01*
%TD*%
D13*
X-48624915Y9581270D02*
X-48624891Y7740528D01*
X-48624931Y-15524363D02*
X-48624995Y-24525005D01*
X-11910000Y24806548D02*
G75*
G03*
X-10673448Y26043104I0J1236552D01*
G01*
X65685000Y3640000D02*
G75*
G03*
X66685000Y4640000I0J1000000D01*
G01*
X-47624995Y-24525005D02*
X-47624955Y-7526517D01*
X-46398448Y-46750000D02*
X-19400000Y-46750000D01*
X63630000Y-68110000D02*
X74635831Y-44865940D01*
X-47724893Y4374125D02*
X-47724893Y6840528D01*
X3789970Y-57090029D02*
G75*
G03*
X7610000Y-58539999I3440030J3305929D01*
G01*
X-48624976Y-34522846D02*
X-48625040Y-43523488D01*
X58485000Y11240000D02*
G75*
G03*
X57485000Y10240000I200J-1000200D01*
G01*
X57485000Y4640000D02*
X57485000Y10240000D01*
X29900001Y23770000D02*
G75*
G03*
X31110000Y22759999I1209999J219800D01*
G01*
X-47625000Y-26525000D02*
G75*
G03*
X-48125000Y-26025000I-500000J0D01*
G01*
X65685000Y3640000D02*
X58485000Y3640000D01*
X-48625000Y-26525000D02*
X-48624976Y-30256443D01*
X-48624955Y-7526517D02*
X-48624931Y-11257960D01*
X-46408363Y12807822D02*
X-30964374Y12807822D01*
X73670000Y22760000D02*
X31110000Y22760000D01*
X-48124931Y-15024369D02*
G75*
G03*
X-48624931Y-15524363I31J-500031D01*
G01*
X-48124976Y-34022922D02*
G75*
G03*
X-47724978Y-33622846I-24J400022D01*
G01*
X-10673448Y28570000D02*
X-10673448Y26043104D01*
X-9436896Y29806552D02*
X9530000Y29806552D01*
X-48125040Y-44023460D02*
G75*
G03*
X-47625040Y-43523488I40J499960D01*
G01*
X66677893Y10240000D02*
X66685000Y4640000D01*
X12003104Y24750000D02*
X28690000Y24750000D01*
X-48624891Y3474125D02*
X-48624955Y-5526517D01*
X-47624930Y9581270D02*
G75*
G03*
X-48124915Y10081270I-499970J30D01*
G01*
X-47724933Y-14624363D02*
X-47724933Y-12157960D01*
X74960028Y21510000D02*
G75*
G03*
X73670000Y22759999I-1241028J9900D01*
G01*
X-28480000Y24806552D02*
X-11910000Y24806552D01*
X74635824Y-44865936D02*
G75*
G03*
X74959999Y-43570000I-2650524J1351536D01*
G01*
X-48624917Y-5526517D02*
G75*
G03*
X-48124955Y-6026517I500017J17D01*
G01*
X-48625005Y-24525005D02*
G75*
G03*
X-48124995Y-25025005I500005J5D01*
G01*
X66677900Y10240000D02*
G75*
G03*
X65677893Y11240000I-1000000J0D01*
G01*
X-48125040Y-45023560D02*
G75*
G03*
X-48625040Y-45523488I-60J-499940D01*
G01*
X-47624939Y-45533448D02*
G75*
G03*
X-46398448Y-46749999I1216639J48D01*
G01*
X-48124931Y-15024367D02*
G75*
G03*
X-47724933Y-14624363I31J399967D01*
G01*
X-49841592Y-46750100D02*
G75*
G03*
X-48625040Y-45523488I-108J1216700D01*
G01*
X-48624933Y11591230D02*
G75*
G03*
X-48124915Y11081270I500033J-9830D01*
G01*
X-47625017Y-7526517D02*
G75*
G03*
X-48124955Y-7026517I-499983J17D01*
G01*
X-48624943Y-30256443D02*
G75*
G03*
X-48124976Y-30756443I499943J-57D01*
G01*
X-28480000Y24806527D02*
G75*
G03*
X-29730000Y23570000I-13400J-1236527D01*
G01*
X10766552Y28570000D02*
X10766552Y25980000D01*
X15940000Y-57820000D02*
X7610000Y-58540000D01*
X-47625040Y-43523488D02*
X-47625000Y-26525000D01*
X53910000Y-64960000D02*
X61613868Y-68641488D01*
X-67896540Y-45533448D02*
G75*
G03*
X-66670000Y-46750000I1216640J48D01*
G01*
X29900008Y23770002D02*
G75*
G03*
X28690000Y24750000I-1210008J-257002D01*
G01*
X-47724978Y-33622846D02*
X-47724978Y-31156443D01*
X-48124915Y10081315D02*
G75*
G03*
X-48624915Y9581270I15J-500015D01*
G01*
X-66660000Y12806552D02*
G75*
G03*
X-67896552Y11570000I0J-1236552D01*
G01*
X-30964374Y12807822D02*
G75*
G03*
X-29727822Y14044374I-26J1236578D01*
G01*
X58485000Y11240000D02*
X65677893Y11240000D01*
X-47724960Y-12157960D02*
G75*
G03*
X-48124931Y-11757960I-399940J60D01*
G01*
X-66660000Y12806552D02*
X-49851507Y12807782D01*
X10766583Y25980000D02*
G75*
G03*
X12003104Y24750000I1230017J0D01*
G01*
X-48124915Y11081215D02*
G75*
G03*
X-47624915Y11581270I15J499985D01*
G01*
X-47725043Y-31156443D02*
G75*
G03*
X-48124976Y-30756443I-399957J43D01*
G01*
X-48624872Y7740528D02*
G75*
G03*
X-48124891Y7240528I499972J-28D01*
G01*
X-48124955Y-6026445D02*
G75*
G03*
X-47624955Y-5526517I55J499945D01*
G01*
X-48624978Y11591230D02*
G75*
G03*
X-49851507Y12807782I-1216622J-30D01*
G01*
X-48124976Y-34022824D02*
G75*
G03*
X-48624976Y-34522846I-24J-499976D01*
G01*
X-47624983Y-45533448D02*
G75*
G03*
X-48125040Y-45023488I-500117J9748D01*
G01*
X-48124891Y3974093D02*
G75*
G03*
X-47724893Y4374125I-9J400007D01*
G01*
X-9436896Y29806548D02*
G75*
G03*
X-10673448Y28570000I-4J-1236548D01*
G01*
X-48624860Y-11257960D02*
G75*
G03*
X-48124931Y-11757960I499960J-40D01*
G01*
X-47724872Y6840528D02*
G75*
G03*
X-48124891Y7240528I-400028J-28D01*
G01*
X-48624988Y-43523488D02*
G75*
G03*
X-48125040Y-44023488I499988J-12D01*
G01*
X-46408363Y12807855D02*
G75*
G03*
X-47624914Y11581270I63J-1216655D01*
G01*
X57485001Y4640000D02*
G75*
G03*
X58485000Y3640001I1009999J10000D01*
G01*
X-48124891Y3974091D02*
G75*
G03*
X-48624891Y3474125I-9J-499991D01*
G01*
X-29730000Y23570000D02*
X-29727822Y14044374D01*
X3790002Y-57089998D02*
G75*
G03*
X-19400000Y-46750000I-22380702J-19019602D01*
G01*
X10766552Y28570000D02*
G75*
G03*
X9530000Y29806552I-1236552J0D01*
G01*
X-49841592Y-46750040D02*
X-66670000Y-46750000D01*
X-48124995Y-25025005D02*
G75*
G03*
X-47624995Y-24525005I-5J500005D01*
G01*
X-48124955Y-7026545D02*
G75*
G03*
X-48624955Y-7526517I-45J-499955D01*
G01*
X-48125000Y-26025000D02*
G75*
G03*
X-48625000Y-26525000I0J-500000D01*
G01*
X-47624955Y-5526517D02*
X-47624915Y9581270D01*
X74960000Y-43570000D02*
X74960000Y21510000D01*
X61613883Y-68641447D02*
G75*
G03*
X63629999Y-68109999I623117J1726047D01*
G01*
X-67896552Y-45533448D02*
X-67896552Y11570000D01*
X53910001Y-64959998D02*
G75*
G03*
X15940000Y-57820000I-31697901J-64036302D01*
G01*
M02*
