%TF.GenerationSoftware,KiCad,Pcbnew,7.0.5-0*%
%TF.CreationDate,2023-10-24T16:12:26-07:00*%
%TF.ProjectId,Cantor_MX,43616e74-6f72-45f4-9d58-2e6b69636164,rev1.6*%
%TF.SameCoordinates,PX78114e0PY44b6550*%
%TF.FileFunction,Copper,L1,Top*%
%TF.FilePolarity,Positive*%
%FSLAX46Y46*%
G04 Gerber Fmt 4.6, Leading zero omitted, Abs format (unit mm)*
G04 Created by KiCad (PCBNEW 7.0.5-0) date 2023-10-24 16:12:26*
%MOMM*%
%LPD*%
G01*
G04 APERTURE LIST*
G04 Aperture macros list*
%AMHorizOval*
0 Thick line with rounded ends*
0 $1 width*
0 $2 $3 position (X,Y) of the first rounded end (center of the circle)*
0 $4 $5 position (X,Y) of the second rounded end (center of the circle)*
0 Add line between two ends*
20,1,$1,$2,$3,$4,$5,0*
0 Add two circle primitives to create the rounded ends*
1,1,$1,$2,$3*
1,1,$1,$4,$5*%
%AMFreePoly0*
4,1,309,4.132405,1.353098,4.502265,1.304597,4.865813,1.221039,5.219734,1.103186,5.560800,0.952113,5.885902,0.769198,5.927076,0.740541,5.951493,0.729594,6.003962,0.692176,6.122451,0.641456,6.248994,0.616978,6.377851,0.619853,6.503176,0.649951,6.619286,0.705905,6.720912,0.785179,6.762098,0.834745,6.822802,0.883782,6.897651,0.905857,6.975250,0.897607,7.043785,0.860290,
7.092822,0.799586,7.114897,0.724737,7.106647,0.647138,7.069329,0.578604,6.936898,0.446943,6.782330,0.342153,6.610995,0.267877,6.538185,0.251415,6.736663,0.047431,6.970113,-0.243516,7.156676,-0.527859,7.253201,-0.620943,7.262268,-0.507735,7.334183,-0.012235,7.437742,0.477629,7.470755,0.548338,7.528313,0.601032,7.601655,0.627688,7.679616,0.624249,7.750325,0.591236,
7.803019,0.533678,7.829675,0.460336,7.826236,0.382375,7.765306,0.133813,7.678058,-0.370538,7.626694,-0.871648,7.677897,-0.871648,7.786709,-0.911252,7.807283,-0.928516,7.901564,-0.799382,8.099942,-0.584221,8.165535,-0.541945,8.242313,-0.527989,8.318588,-0.544477,8.382746,-0.588899,8.425022,-0.654492,8.438978,-0.731270,8.422490,-0.807545,8.378068,-0.871704,8.289161,-0.957714,
8.132111,-1.148879,7.997869,-1.356696,7.888182,-1.578456,7.804481,-1.811271,7.747856,-2.052108,7.719044,-2.297829,7.718421,-2.545232,7.742266,-2.757847,7.755133,-2.830853,7.773702,-2.911654,7.774327,-2.932811,7.893569,-3.412593,8.051049,-3.899607,8.241801,-4.374576,8.357499,-4.613453,8.375298,-4.639598,8.411350,-4.724637,8.425101,-4.753029,8.528187,-4.933421,8.659724,-5.111209,
8.811246,-5.272303,8.980653,-5.414471,9.165595,-5.535742,9.363510,-5.634434,9.467595,-5.671769,9.534483,-5.711965,9.580896,-5.774698,9.599770,-5.850417,9.588231,-5.927595,9.548035,-5.994483,9.485302,-6.040896,9.409583,-6.059770,9.332405,-6.048230,9.196094,-5.990008,9.200614,-6.054985,9.175825,-6.128979,9.124606,-6.187855,9.054756,-6.222648,8.976908,-6.228063,8.902914,-6.203274,
8.844039,-6.152055,8.613527,-5.833489,8.593650,-5.875184,8.499830,-6.000508,8.383218,-6.104958,8.312456,-6.137858,8.234491,-6.141174,8.161191,-6.114401,8.103716,-6.061616,8.070816,-5.990854,8.067500,-5.912889,8.094273,-5.839589,8.147057,-5.782113,8.191172,-5.749720,8.258490,-5.663407,8.299654,-5.561981,8.311528,-5.453166,8.293207,-5.345250,8.274984,-5.306861,8.135565,-5.050416,
8.126065,-5.035855,8.109670,-5.002787,8.044493,-4.882900,7.834061,-4.428577,7.653215,-3.961687,7.502700,-3.484155,7.384044,-3.001644,7.383865,-3.001242,7.383682,-3.000171,7.383136,-2.997949,7.295017,-2.505073,7.238704,-2.007559,7.235199,-1.935358,7.221794,-1.830615,7.152557,-1.526168,7.054467,-1.229755,6.928426,-0.944106,6.775594,-0.671849,6.686441,-0.543700,6.674998,-0.517454,
6.533226,-0.324221,6.298225,-0.063233,6.038324,0.172971,5.756125,0.382026,5.728133,0.398710,5.719783,0.403540,5.719463,0.403878,5.454451,0.561841,5.136322,0.710617,4.804920,0.826864,4.463562,0.909420,4.115665,0.957457,3.764708,0.970497,3.414205,0.948407,3.067662,0.891410,2.728548,0.800075,2.400256,0.675317,2.086071,0.518383,1.789136,0.330845,1.512425,0.114579,
1.258704,-0.128252,1.030514,-0.395216,0.998788,-0.440881,1.003767,-0.446047,1.032295,-0.518681,1.030856,-0.596704,0.999668,-0.668237,0.910513,-0.796385,0.757678,-1.068642,0.631635,-1.354291,0.533542,-1.650703,0.493317,-1.827573,0.485537,-1.987891,0.429226,-2.485406,0.341108,-2.978284,0.221543,-3.464491,0.071027,-3.942024,-0.109821,-4.408914,-0.320256,-4.863238,-0.559411,-5.303122,
-0.587247,-5.347307,-0.589480,-5.356095,-0.612949,-5.405538,-0.631271,-5.513455,-0.619397,-5.622271,-0.578234,-5.723697,-0.510915,-5.810010,-0.466800,-5.842404,-0.414015,-5.899879,-0.387243,-5.973179,-0.390559,-6.051145,-0.423459,-6.121907,-0.480934,-6.174692,-0.554234,-6.201464,-0.632200,-6.198148,-0.702962,-6.165248,-0.819574,-6.060798,-0.913394,-5.935473,-0.938787,-5.882208,-1.119819,-6.132387,
-1.178696,-6.183604,-1.252690,-6.208392,-1.330538,-6.202976,-1.400388,-6.168182,-1.451605,-6.109305,-1.476393,-6.035311,-1.472330,-5.976913,-1.621208,-6.040503,-1.698386,-6.052042,-1.774105,-6.033168,-1.836838,-5.986755,-1.877034,-5.919867,-1.888573,-5.842689,-1.869699,-5.766970,-1.823286,-5.704237,-1.756398,-5.664041,-1.652313,-5.626707,-1.454399,-5.528014,-1.269457,-5.406743,-1.100052,-5.264574,
-0.948531,-5.103480,-0.816995,-4.925692,-0.707268,-4.733675,-0.664107,-4.631868,-0.621123,-4.568727,-0.517561,-4.354911,-0.326806,-3.879943,-0.169325,-3.392929,-0.088526,-3.067828,-0.087593,-3.036190,-0.059885,-2.915631,-0.032312,-2.669768,-0.032935,-2.422365,-0.061747,-2.176645,-0.118373,-1.935808,-0.202074,-1.702993,-0.311760,-1.481233,-0.446003,-1.273416,-0.603052,-1.082251,-0.691959,-0.996240,
-0.736381,-0.932082,-0.752869,-0.855807,-0.738913,-0.779029,-0.696637,-0.713436,-0.632479,-0.669014,-0.556204,-0.652526,-0.479426,-0.666482,-0.413834,-0.708758,-0.215455,-0.923919,-0.121175,-1.053054,-0.100598,-1.035788,0.008213,-0.996184,0.102859,-0.996184,0.098364,-0.860044,0.087304,-0.752163,0.000000,-0.762000,-0.169561,-0.742895,-0.330619,-0.686538,-0.475099,-0.595756,-0.595756,-0.475099,
-0.686538,-0.330619,-0.742895,-0.169561,-0.762000,0.000000,-0.742895,0.169561,-0.686538,0.330619,-0.595756,0.475099,-0.475099,0.595756,-0.330619,0.686538,-0.169561,0.742895,0.000000,0.762000,0.169561,0.742895,0.330619,0.686538,0.475099,0.595756,0.595756,0.475099,0.686538,0.330619,0.742895,0.169561,0.762000,0.000000,0.748515,-0.119681,0.817557,-0.028936,1.070710,0.245040,
1.082768,0.255817,1.014719,0.271203,0.843384,0.345479,0.688816,0.450269,0.556384,0.581929,0.519067,0.650464,0.510817,0.728063,0.532892,0.802912,0.581929,0.863616,0.650464,0.900933,0.728063,0.909183,0.802912,0.887108,0.863617,0.838071,0.904802,0.788505,1.006428,0.709231,1.122538,0.653277,1.247863,0.623179,1.376720,0.620304,1.503263,0.644782,1.621752,0.695502,
1.674221,0.732920,1.698206,0.743674,1.969688,0.905781,2.306743,1.065603,2.657506,1.192548,3.018777,1.285457,3.387263,1.343484,3.759604,1.366100,4.132405,1.353098,4.132405,1.353098,$1*%
%AMFreePoly1*
4,1,28,-0.850000,0.400000,0.000000,1.250000,0.114750,1.242219,0.293119,1.197860,0.457783,1.116195,0.601041,1.001041,0.716195,0.857783,0.797860,0.693119,0.842219,0.514750,0.850000,0.400000,0.850000,-0.400000,0.842219,-0.514750,0.797860,-0.693119,0.716195,-0.857783,0.601041,-1.001041,0.457783,-1.116195,0.293119,-1.197860,0.114750,-1.242219,0.000000,-1.250000,-0.114750,-1.242219,
-0.293119,-1.197860,-0.457783,-1.116195,-0.601041,-1.001041,-0.716195,-0.857783,-0.797860,-0.693119,-0.842219,-0.514750,-0.850000,-0.400000,-0.850000,0.400000,-0.850000,0.400000,$1*%
%AMFreePoly2*
4,1,28,-0.850000,0.400000,-0.842219,0.514750,-0.797860,0.693119,-0.716195,0.857783,-0.601041,1.001041,-0.457783,1.116195,-0.293119,1.197860,-0.114750,1.242219,0.000000,1.250000,0.850000,0.400000,0.850000,-0.400000,0.842219,-0.514750,0.797860,-0.693119,0.716195,-0.857783,0.601041,-1.001041,0.457783,-1.116195,0.293119,-1.197860,0.114750,-1.242219,0.000000,-1.250000,-0.114750,-1.242219,
-0.293119,-1.197860,-0.457783,-1.116195,-0.601041,-1.001041,-0.716195,-0.857783,-0.797860,-0.693119,-0.842219,-0.514750,-0.850000,-0.400000,-0.850000,0.400000,-0.850000,0.400000,$1*%
%AMFreePoly3*
4,1,28,-0.850000,0.400000,-0.842219,0.514750,-0.797860,0.693119,-0.716195,0.857783,-0.601041,1.001041,-0.457783,1.116195,-0.293119,1.197860,-0.114750,1.242219,0.000000,1.250000,0.114750,1.242219,0.293119,1.197860,0.457783,1.116195,0.601041,1.001041,0.716195,0.857783,0.797860,0.693119,0.842219,0.514750,0.850000,0.400000,0.850000,-0.400000,0.000000,-1.250000,-0.114750,-1.242219,
-0.293119,-1.197860,-0.457783,-1.116195,-0.601041,-1.001041,-0.716195,-0.857783,-0.797860,-0.693119,-0.842219,-0.514750,-0.850000,-0.400000,-0.850000,0.400000,-0.850000,0.400000,$1*%
%AMFreePoly4*
4,1,28,-0.850000,0.400000,-0.842219,0.514750,-0.797860,0.693119,-0.716195,0.857783,-0.601041,1.001041,-0.457783,1.116195,-0.293119,1.197860,-0.114750,1.242219,0.000000,1.250000,0.114750,1.242219,0.293119,1.197860,0.457783,1.116195,0.601041,1.001041,0.716195,0.857783,0.797860,0.693119,0.842219,0.514750,0.850000,0.400000,0.850000,-0.400000,0.842219,-0.514750,0.797860,-0.693119,
0.716195,-0.857783,0.601041,-1.001041,0.457783,-1.116195,0.293119,-1.197860,0.114750,-1.242219,0.000000,-1.250000,-0.850000,-0.400000,-0.850000,0.400000,-0.850000,0.400000,$1*%
G04 Aperture macros list end*
%TA.AperFunction,ComponentPad*%
%ADD10O,2.200000X1.600000*%
%TD*%
%TA.AperFunction,SMDPad,CuDef*%
%ADD11FreePoly0,0.000000*%
%TD*%
%TA.AperFunction,ComponentPad*%
%ADD12C,2.400000*%
%TD*%
%TA.AperFunction,ComponentPad*%
%ADD13HorizOval,1.500000X1.449945X-0.012653X-1.449945X0.012653X0*%
%TD*%
%TA.AperFunction,ComponentPad*%
%ADD14O,2.200000X1.500000*%
%TD*%
%TA.AperFunction,ComponentPad*%
%ADD15HorizOval,1.500000X1.449945X0.012653X-1.449945X-0.012653X0*%
%TD*%
%TA.AperFunction,ComponentPad*%
%ADD16HorizOval,1.600000X0.298858X0.026147X-0.298858X-0.026147X0*%
%TD*%
%TA.AperFunction,SMDPad,CuDef*%
%ADD17FreePoly0,5.000000*%
%TD*%
%TA.AperFunction,ComponentPad*%
%ADD18HorizOval,1.500000X1.445530X0.113766X-1.445530X-0.113766X0*%
%TD*%
%TA.AperFunction,ComponentPad*%
%ADD19HorizOval,1.500000X0.348668X0.030505X-0.348668X-0.030505X0*%
%TD*%
%TA.AperFunction,ComponentPad*%
%ADD20HorizOval,1.500000X1.443324X0.138976X-1.443324X-0.138976X0*%
%TD*%
%TA.AperFunction,ComponentPad*%
%ADD21FreePoly1,270.000000*%
%TD*%
%TA.AperFunction,ComponentPad*%
%ADD22FreePoly2,270.000000*%
%TD*%
%TA.AperFunction,ComponentPad*%
%ADD23FreePoly3,270.000000*%
%TD*%
%TA.AperFunction,ComponentPad*%
%ADD24FreePoly4,270.000000*%
%TD*%
%TA.AperFunction,ComponentPad*%
%ADD25O,2.500000X1.700000*%
%TD*%
%TA.AperFunction,ComponentPad*%
%ADD26HorizOval,1.600000X0.271892X-0.126785X-0.271892X0.126785X0*%
%TD*%
%TA.AperFunction,SMDPad,CuDef*%
%ADD27FreePoly0,335.000000*%
%TD*%
%TA.AperFunction,ComponentPad*%
%ADD28HorizOval,1.500000X1.308749X-0.624241X-1.308749X0.624241X0*%
%TD*%
%TA.AperFunction,ComponentPad*%
%ADD29HorizOval,1.500000X0.317208X-0.147916X-0.317208X0.147916X0*%
%TD*%
%TA.AperFunction,ComponentPad*%
%ADD30HorizOval,1.500000X1.319444X-0.601305X-1.319444X0.601305X0*%
%TD*%
%TA.AperFunction,ComponentPad*%
%ADD31R,1.700000X1.700000*%
%TD*%
%TA.AperFunction,ComponentPad*%
%ADD32C,1.700000*%
%TD*%
%TA.AperFunction,ComponentPad*%
%ADD33C,4.400000*%
%TD*%
%TA.AperFunction,ComponentPad*%
%ADD34HorizOval,1.600000X0.295442X-0.052094X-0.295442X0.052094X0*%
%TD*%
%TA.AperFunction,SMDPad,CuDef*%
%ADD35FreePoly0,350.000000*%
%TD*%
%TA.AperFunction,ComponentPad*%
%ADD36HorizOval,1.500000X1.425720X-0.264242X-1.425720X0.264242X0*%
%TD*%
%TA.AperFunction,ComponentPad*%
%ADD37HorizOval,1.500000X0.344683X-0.060777X-0.344683X0.060777X0*%
%TD*%
%TA.AperFunction,ComponentPad*%
%ADD38HorizOval,1.500000X1.430114X-0.239319X-1.430114X0.239319X0*%
%TD*%
%TA.AperFunction,ViaPad*%
%ADD39C,0.500000*%
%TD*%
%TA.AperFunction,Conductor*%
%ADD40C,0.500000*%
%TD*%
%TA.AperFunction,Conductor*%
%ADD41C,0.250000*%
%TD*%
%TA.AperFunction,Profile*%
%ADD42C,0.100000*%
%TD*%
G04 APERTURE END LIST*
%TA.AperFunction,EtchedComponent*%
%TO.C,G\u002A\u002A\u002A*%
G36*
X-20486513Y-39535679D02*
G01*
X-20486513Y-40849472D01*
X-22191316Y-40849472D01*
X-23896119Y-40849472D01*
X-23896119Y-39535679D01*
X-23896119Y-38253167D01*
X-23864838Y-38253167D01*
X-23864838Y-39535679D01*
X-23864838Y-40818192D01*
X-22191316Y-40818192D01*
X-20517794Y-40818192D01*
X-20517794Y-39535679D01*
X-20517794Y-38253167D01*
X-22191316Y-38253167D01*
X-23864838Y-38253167D01*
X-23896119Y-38253167D01*
X-23896119Y-38221886D01*
X-22191316Y-38221886D01*
X-20486513Y-38221886D01*
X-20486513Y-39535679D01*
G37*
%TD.AperFunction*%
%TA.AperFunction,EtchedComponent*%
G36*
X-13448336Y-39566960D02*
G01*
X-13448336Y-40286418D01*
X-13745503Y-40286418D01*
X-14042671Y-40286418D01*
X-14042671Y-39566960D01*
X-14042671Y-38878783D01*
X-14011390Y-38878783D01*
X-14011390Y-39566960D01*
X-14011390Y-40255137D01*
X-13745503Y-40255137D01*
X-13479616Y-40255137D01*
X-13479616Y-39566960D01*
X-13479616Y-38878783D01*
X-13745503Y-38878783D01*
X-14011390Y-38878783D01*
X-14042671Y-38878783D01*
X-14042671Y-38847502D01*
X-13745503Y-38847502D01*
X-13448336Y-38847502D01*
X-13448336Y-39566960D01*
G37*
%TD.AperFunction*%
%TA.AperFunction,EtchedComponent*%
G36*
X-10789469Y-39566960D02*
G01*
X-10789469Y-40286418D01*
X-11086636Y-40286418D01*
X-11383804Y-40286418D01*
X-11383804Y-39566960D01*
X-11383804Y-38878783D01*
X-11352523Y-38878783D01*
X-11352523Y-39566960D01*
X-11352523Y-40255137D01*
X-11086636Y-40255137D01*
X-10820749Y-40255137D01*
X-10820749Y-39566960D01*
X-10820749Y-38878783D01*
X-11086636Y-38878783D01*
X-11352523Y-38878783D01*
X-11383804Y-38878783D01*
X-11383804Y-38847502D01*
X-11086636Y-38847502D01*
X-10789469Y-38847502D01*
X-10789469Y-39566960D01*
G37*
%TD.AperFunction*%
%TA.AperFunction,EtchedComponent*%
G36*
X-21925429Y-38910064D02*
G01*
X-21925429Y-39222871D01*
X-21581341Y-39222871D01*
X-21237252Y-39222871D01*
X-21237252Y-39535679D01*
X-21237252Y-39848487D01*
X-21581341Y-39848487D01*
X-21925429Y-39848487D01*
X-21925429Y-40161295D01*
X-21925429Y-40474103D01*
X-22191316Y-40474103D01*
X-22457203Y-40474103D01*
X-22457203Y-40161295D01*
X-22457203Y-39848487D01*
X-22801291Y-39848487D01*
X-23145380Y-39848487D01*
X-23145380Y-39817206D01*
X-23114099Y-39817206D01*
X-22770010Y-39817206D01*
X-22425922Y-39817206D01*
X-22425922Y-40130014D01*
X-22425922Y-40442822D01*
X-22191316Y-40442822D01*
X-21956710Y-40442822D01*
X-21956710Y-40130014D01*
X-21956710Y-39817206D01*
X-21612621Y-39817206D01*
X-21268533Y-39817206D01*
X-21268533Y-39535679D01*
X-21268533Y-39254152D01*
X-21612621Y-39254152D01*
X-21956710Y-39254152D01*
X-21956710Y-38941344D01*
X-21956710Y-38628537D01*
X-22191316Y-38628537D01*
X-22425922Y-38628537D01*
X-22425922Y-38941344D01*
X-22425922Y-39254152D01*
X-22770010Y-39254152D01*
X-23114099Y-39254152D01*
X-23114099Y-39535679D01*
X-23114099Y-39817206D01*
X-23145380Y-39817206D01*
X-23145380Y-39535679D01*
X-23145380Y-39222871D01*
X-22801291Y-39222871D01*
X-22457203Y-39222871D01*
X-22457203Y-38910064D01*
X-22457203Y-38597256D01*
X-22191316Y-38597256D01*
X-21925429Y-38597256D01*
X-21925429Y-38910064D01*
G37*
%TD.AperFunction*%
%TA.AperFunction,EtchedComponent*%
G36*
X-2500060Y-38910064D02*
G01*
X-2500060Y-39222871D01*
X-2187252Y-39222871D01*
X-1874444Y-39222871D01*
X-1874444Y-39551320D01*
X-1874444Y-39879768D01*
X-2187252Y-39879768D01*
X-2500060Y-39879768D01*
X-2500060Y-40192576D01*
X-2500060Y-40505384D01*
X-2812868Y-40505384D01*
X-3125676Y-40505384D01*
X-3125676Y-40192576D01*
X-3125676Y-39879768D01*
X-3454124Y-39879768D01*
X-3782572Y-39879768D01*
X-3782572Y-39817206D01*
X-3720010Y-39817206D01*
X-3407203Y-39817206D01*
X-3094395Y-39817206D01*
X-3094395Y-40130014D01*
X-3094395Y-40442822D01*
X-2828508Y-40442822D01*
X-2562621Y-40442822D01*
X-2562621Y-40130014D01*
X-2562621Y-39817206D01*
X-2249813Y-39817206D01*
X-1937006Y-39817206D01*
X-1937006Y-39551320D01*
X-1937006Y-39285433D01*
X-2249813Y-39285433D01*
X-2562621Y-39285433D01*
X-2562621Y-38972625D01*
X-2562621Y-38659817D01*
X-2828508Y-38659817D01*
X-3094395Y-38659817D01*
X-3094395Y-38972625D01*
X-3094395Y-39285433D01*
X-3407203Y-39285433D01*
X-3720010Y-39285433D01*
X-3720010Y-39551320D01*
X-3720010Y-39817206D01*
X-3782572Y-39817206D01*
X-3782572Y-39551320D01*
X-3782572Y-39222871D01*
X-3454124Y-39222871D01*
X-3125676Y-39222871D01*
X-3125676Y-38910064D01*
X-3125676Y-38597256D01*
X-2812868Y-38597256D01*
X-2500060Y-38597256D01*
X-2500060Y-38910064D01*
G37*
%TD.AperFunction*%
%TA.AperFunction,EtchedComponent*%
G36*
X-2669597Y-38024686D02*
G01*
X-2607603Y-38032258D01*
X-2301051Y-38105039D01*
X-2026607Y-38229260D01*
X-1788594Y-38400392D01*
X-1591337Y-38613904D01*
X-1439158Y-38865265D01*
X-1336380Y-39149946D01*
X-1291379Y-39411601D01*
X-1293002Y-39721450D01*
X-1354444Y-40019407D01*
X-1473165Y-40298419D01*
X-1646629Y-40551436D01*
X-1737314Y-40650382D01*
X-1973990Y-40845471D01*
X-2237455Y-40985454D01*
X-2522520Y-41068999D01*
X-2823996Y-41094770D01*
X-3136695Y-41061434D01*
X-3241808Y-41037145D01*
X-3524166Y-40932048D01*
X-3773753Y-40775256D01*
X-3986344Y-40570746D01*
X-4157715Y-40322491D01*
X-4272330Y-40067453D01*
X-4325677Y-39849609D01*
X-4347607Y-39602415D01*
X-4342048Y-39457991D01*
X-4279398Y-39457991D01*
X-4276606Y-39613881D01*
X-4269487Y-39765023D01*
X-4257097Y-39875733D01*
X-4234290Y-39968142D01*
X-4195922Y-40064379D01*
X-4149263Y-40161623D01*
X-3982293Y-40433771D01*
X-3775144Y-40657979D01*
X-3528049Y-40834068D01*
X-3241240Y-40961858D01*
X-3047474Y-41015883D01*
X-2907676Y-41031756D01*
X-2736899Y-41028285D01*
X-2564150Y-41006166D01*
X-2294704Y-40924550D01*
X-2045851Y-40790323D01*
X-1824285Y-40611534D01*
X-1636704Y-40396229D01*
X-1489800Y-40152455D01*
X-1390270Y-39888261D01*
X-1344808Y-39611692D01*
X-1342671Y-39537982D01*
X-1370251Y-39300065D01*
X-1448282Y-39053228D01*
X-1569698Y-38813168D01*
X-1727434Y-38595580D01*
X-1803660Y-38513833D01*
X-2003192Y-38344121D01*
X-2217938Y-38220526D01*
X-2465376Y-38133948D01*
X-2588053Y-38105451D01*
X-2713765Y-38082108D01*
X-2810123Y-38073186D01*
X-2903850Y-38079011D01*
X-3021670Y-38099909D01*
X-3076141Y-38111403D01*
X-3214051Y-38145621D01*
X-3345346Y-38185930D01*
X-3444262Y-38224313D01*
X-3453628Y-38228859D01*
X-3685842Y-38378245D01*
X-3895736Y-38576043D01*
X-4071912Y-38809061D01*
X-4202970Y-39064109D01*
X-4224123Y-39120455D01*
X-4255638Y-39225441D01*
X-4273318Y-39330942D01*
X-4279398Y-39457991D01*
X-4342048Y-39457991D01*
X-4337919Y-39350740D01*
X-4296407Y-39119452D01*
X-4280515Y-39066145D01*
X-4157791Y-38787338D01*
X-3988190Y-38545029D01*
X-3778355Y-38343324D01*
X-3534932Y-38186330D01*
X-3264568Y-38078154D01*
X-2973908Y-38022904D01*
X-2669597Y-38024686D01*
G37*
%TD.AperFunction*%
%TA.AperFunction,EtchedComponent*%
G36*
X-2663803Y-38241861D02*
G01*
X-2527943Y-38253868D01*
X-2418879Y-38277063D01*
X-2359296Y-38297100D01*
X-2097641Y-38429063D01*
X-1874501Y-38609621D01*
X-1693676Y-38835323D01*
X-1616407Y-38971841D01*
X-1573226Y-39061967D01*
X-1544436Y-39136686D01*
X-1527120Y-39212638D01*
X-1518363Y-39306463D01*
X-1515250Y-39434799D01*
X-1514869Y-39551320D01*
X-1515664Y-39712934D01*
X-1520162Y-39828779D01*
X-1531297Y-39915644D01*
X-1552006Y-39990316D01*
X-1585224Y-40069585D01*
X-1617092Y-40135985D01*
X-1715541Y-40300834D01*
X-1843064Y-40462183D01*
X-1984056Y-40602959D01*
X-2122909Y-40706087D01*
X-2153817Y-40723153D01*
X-2380311Y-40811380D01*
X-2632488Y-40864096D01*
X-2889630Y-40879235D01*
X-3131016Y-40854734D01*
X-3228864Y-40830262D01*
X-3484823Y-40720056D01*
X-3708023Y-40560249D01*
X-3892378Y-40357831D01*
X-4031801Y-40119793D01*
X-4120205Y-39853124D01*
X-4131878Y-39793212D01*
X-4148177Y-39551320D01*
X-4076720Y-39551320D01*
X-4074423Y-39695078D01*
X-4064144Y-39800437D01*
X-4040806Y-39891492D01*
X-3999331Y-39992338D01*
X-3971242Y-40051812D01*
X-3816372Y-40303106D01*
X-3614880Y-40514397D01*
X-3371322Y-40681666D01*
X-3141316Y-40783897D01*
X-3066518Y-40798219D01*
X-2950902Y-40807062D01*
X-2816081Y-40808988D01*
X-2777619Y-40808085D01*
X-2628265Y-40799632D01*
X-2515399Y-40781799D01*
X-2413043Y-40748645D01*
X-2308408Y-40700781D01*
X-2063194Y-40548785D01*
X-1865055Y-40362779D01*
X-1715196Y-40149921D01*
X-1614826Y-39917373D01*
X-1565150Y-39672294D01*
X-1567377Y-39421844D01*
X-1622713Y-39173184D01*
X-1732365Y-38933473D01*
X-1897541Y-38709871D01*
X-1961607Y-38643584D01*
X-2176133Y-38474649D01*
X-2409062Y-38361240D01*
X-2653101Y-38301841D01*
X-2900953Y-38294937D01*
X-3145325Y-38339014D01*
X-3378923Y-38432557D01*
X-3594452Y-38574050D01*
X-3784618Y-38761979D01*
X-3942127Y-38994828D01*
X-3976603Y-39062070D01*
X-4026267Y-39171851D01*
X-4056220Y-39263309D01*
X-4071314Y-39360153D01*
X-4076401Y-39486092D01*
X-4076720Y-39551320D01*
X-4148177Y-39551320D01*
X-4151321Y-39504668D01*
X-4112084Y-39227201D01*
X-4017873Y-38968008D01*
X-3872394Y-38734291D01*
X-3679351Y-38533248D01*
X-3442451Y-38372080D01*
X-3385534Y-38343036D01*
X-3283774Y-38296166D01*
X-3199774Y-38266118D01*
X-3113817Y-38249099D01*
X-3006187Y-38241317D01*
X-2857165Y-38238980D01*
X-2844148Y-38238920D01*
X-2663803Y-38241861D01*
G37*
%TD.AperFunction*%
%TA.AperFunction,EtchedComponent*%
G36*
X-22199595Y-37189737D02*
G01*
X-21788655Y-37189807D01*
X-21435613Y-37190055D01*
X-21135806Y-37190619D01*
X-20884571Y-37191632D01*
X-20677245Y-37193232D01*
X-20509164Y-37195553D01*
X-20375664Y-37198730D01*
X-20272084Y-37202901D01*
X-20193759Y-37208199D01*
X-20136026Y-37214760D01*
X-20094223Y-37222720D01*
X-20063685Y-37232215D01*
X-20039750Y-37243380D01*
X-20023239Y-37252984D01*
X-19985668Y-37275990D01*
X-19953300Y-37298913D01*
X-19925747Y-37326321D01*
X-19902621Y-37362784D01*
X-19883535Y-37412868D01*
X-19868101Y-37481144D01*
X-19855932Y-37572180D01*
X-19846640Y-37690544D01*
X-19839838Y-37840804D01*
X-19835138Y-38027531D01*
X-19832153Y-38255291D01*
X-19830496Y-38528655D01*
X-19829777Y-38852189D01*
X-19829612Y-39230464D01*
X-19829616Y-39535679D01*
X-19829625Y-39955714D01*
X-19829911Y-40317756D01*
X-19830860Y-40626373D01*
X-19832860Y-40886135D01*
X-19836299Y-41101609D01*
X-19841564Y-41277366D01*
X-19849044Y-41417972D01*
X-19859124Y-41527997D01*
X-19872194Y-41612010D01*
X-19888640Y-41674578D01*
X-19908850Y-41720272D01*
X-19933211Y-41753658D01*
X-19962111Y-41779306D01*
X-19995938Y-41801785D01*
X-20023239Y-41818375D01*
X-20045280Y-41830888D01*
X-20070407Y-41841630D01*
X-20103285Y-41850734D01*
X-20148575Y-41858338D01*
X-20210942Y-41864576D01*
X-20295049Y-41869584D01*
X-20405559Y-41873497D01*
X-20547135Y-41876451D01*
X-20724441Y-41878582D01*
X-20942139Y-41880025D01*
X-21204894Y-41880915D01*
X-21517367Y-41881389D01*
X-21884223Y-41881581D01*
X-22199595Y-41881622D01*
X-24272407Y-41881738D01*
X-24389251Y-41774659D01*
X-24506094Y-41667580D01*
X-24506094Y-39946842D01*
X-24490395Y-39946842D01*
X-24490249Y-40306301D01*
X-24489500Y-40612379D01*
X-24487747Y-40869668D01*
X-24484591Y-41082757D01*
X-24479631Y-41256237D01*
X-24472468Y-41394699D01*
X-24462702Y-41502733D01*
X-24449932Y-41584930D01*
X-24433759Y-41645879D01*
X-24413783Y-41690173D01*
X-24389603Y-41722400D01*
X-24360819Y-41747152D01*
X-24327032Y-41769019D01*
X-24293430Y-41789162D01*
X-24271396Y-41801412D01*
X-24245355Y-41811905D01*
X-24210590Y-41820779D01*
X-24162385Y-41828168D01*
X-24096022Y-41834210D01*
X-24006784Y-41839039D01*
X-23889954Y-41842793D01*
X-23740816Y-41845606D01*
X-23554651Y-41847614D01*
X-23326744Y-41848954D01*
X-23052376Y-41849762D01*
X-22726831Y-41850173D01*
X-22345391Y-41850323D01*
X-22170255Y-41850341D01*
X-20147224Y-41850458D01*
X-20046729Y-41765896D01*
X-20009954Y-41734950D01*
X-19978379Y-41705427D01*
X-19951608Y-41672575D01*
X-19929245Y-41631638D01*
X-19910893Y-41577864D01*
X-19896157Y-41506498D01*
X-19884640Y-41412787D01*
X-19875946Y-41291976D01*
X-19869680Y-41139312D01*
X-19865444Y-40950041D01*
X-19862843Y-40719410D01*
X-19861481Y-40442663D01*
X-19860962Y-40115048D01*
X-19860890Y-39731811D01*
X-19860897Y-39535679D01*
X-19860897Y-39125279D01*
X-19861162Y-38772686D01*
X-19862087Y-38473148D01*
X-19864069Y-38221909D01*
X-19867504Y-38014216D01*
X-19872788Y-37845315D01*
X-19880317Y-37710453D01*
X-19890487Y-37604875D01*
X-19903694Y-37523828D01*
X-19920335Y-37462557D01*
X-19940805Y-37416310D01*
X-19965501Y-37380332D01*
X-19994818Y-37349869D01*
X-20029153Y-37320168D01*
X-20046729Y-37305463D01*
X-20147224Y-37220901D01*
X-22163989Y-37220901D01*
X-22581986Y-37220867D01*
X-22942006Y-37221032D01*
X-23248633Y-37221793D01*
X-23506451Y-37223551D01*
X-23720043Y-37226702D01*
X-23893994Y-37231647D01*
X-24032887Y-37238784D01*
X-24141307Y-37248511D01*
X-24223837Y-37261227D01*
X-24285062Y-37277332D01*
X-24329565Y-37297223D01*
X-24361931Y-37321299D01*
X-24386743Y-37349960D01*
X-24408585Y-37383603D01*
X-24429159Y-37417925D01*
X-24441441Y-37440021D01*
X-24451958Y-37466133D01*
X-24460846Y-37500992D01*
X-24468243Y-37549330D01*
X-24474285Y-37615880D01*
X-24479110Y-37705372D01*
X-24482855Y-37822541D01*
X-24485658Y-37972117D01*
X-24487654Y-38158832D01*
X-24488981Y-38387420D01*
X-24489777Y-38662611D01*
X-24490178Y-38989138D01*
X-24490322Y-39371734D01*
X-24490337Y-39529413D01*
X-24490395Y-39946842D01*
X-24506094Y-39946842D01*
X-24506094Y-39535679D01*
X-24506094Y-37403779D01*
X-24389251Y-37296699D01*
X-24272407Y-37189620D01*
X-22199595Y-37189737D01*
G37*
%TD.AperFunction*%
%TA.AperFunction,EtchedComponent*%
G36*
X-2655884Y-36653940D02*
G01*
X-2290874Y-36654890D01*
X-1933803Y-36656497D01*
X-1590086Y-36658754D01*
X-1265135Y-36661658D01*
X-964367Y-36665203D01*
X-693195Y-36669385D01*
X-457034Y-36674199D01*
X-261298Y-36679640D01*
X-111400Y-36685705D01*
X-12757Y-36692387D01*
X29219Y-36699682D01*
X30020Y-36700353D01*
X36510Y-36727190D01*
X42135Y-36792578D01*
X46918Y-36898885D01*
X50880Y-37048475D01*
X54045Y-37243717D01*
X56434Y-37486977D01*
X58070Y-37780622D01*
X58975Y-38127018D01*
X59172Y-38528532D01*
X58682Y-38987531D01*
X57530Y-39506382D01*
X57311Y-39586006D01*
X49324Y-42429152D01*
X-2798628Y-42437136D01*
X-3311491Y-42438387D01*
X-3764800Y-42439073D01*
X-4161561Y-42439161D01*
X-4504779Y-42438622D01*
X-4797459Y-42437424D01*
X-5042607Y-42435537D01*
X-5243227Y-42432929D01*
X-5402327Y-42429569D01*
X-5522910Y-42425427D01*
X-5607982Y-42420471D01*
X-5660549Y-42414671D01*
X-5683616Y-42407995D01*
X-5684281Y-42407419D01*
X-5691069Y-42369948D01*
X-5697245Y-42275343D01*
X-5702806Y-42129026D01*
X-5707754Y-41936423D01*
X-5712088Y-41702956D01*
X-5715807Y-41434049D01*
X-5718913Y-41135127D01*
X-5721404Y-40811612D01*
X-5723280Y-40468929D01*
X-5724541Y-40112502D01*
X-5725188Y-39747754D01*
X-5725219Y-39380109D01*
X-5725218Y-39379744D01*
X-5693901Y-39379744D01*
X-5693882Y-39745378D01*
X-5693242Y-40108117D01*
X-5691982Y-40462507D01*
X-5690102Y-40803093D01*
X-5687601Y-41124420D01*
X-5684480Y-41421034D01*
X-5680738Y-41687480D01*
X-5676376Y-41918305D01*
X-5671394Y-42108053D01*
X-5665791Y-42251270D01*
X-5659568Y-42342502D01*
X-5653163Y-42375975D01*
X-5631600Y-42382841D01*
X-5579502Y-42388895D01*
X-5493901Y-42394177D01*
X-5371830Y-42398727D01*
X-5210319Y-42402583D01*
X-5006402Y-42405786D01*
X-4757110Y-42408376D01*
X-4459476Y-42410391D01*
X-4110530Y-42411872D01*
X-3707306Y-42412858D01*
X-3246836Y-42413389D01*
X-2840451Y-42413512D01*
X-2428388Y-42413302D01*
X-2033716Y-42412693D01*
X-1660987Y-42411716D01*
X-1314754Y-42410400D01*
X-999568Y-42408778D01*
X-719983Y-42406878D01*
X-480551Y-42404733D01*
X-285825Y-42402372D01*
X-140356Y-42399826D01*
X-48699Y-42397125D01*
X-15795Y-42394525D01*
X-7229Y-42386778D01*
X299Y-42368019D01*
X6854Y-42334483D01*
X12503Y-42282407D01*
X17312Y-42208025D01*
X21346Y-42107574D01*
X24672Y-41977290D01*
X27354Y-41813408D01*
X29460Y-41612165D01*
X31056Y-41369797D01*
X32206Y-41082539D01*
X32978Y-40746627D01*
X33436Y-40358297D01*
X33648Y-39913785D01*
X33684Y-39569870D01*
X33488Y-39059179D01*
X32873Y-38608095D01*
X31800Y-38213664D01*
X30231Y-37872935D01*
X28126Y-37582952D01*
X25446Y-37340763D01*
X22153Y-37143415D01*
X18207Y-36987954D01*
X13570Y-36871427D01*
X8202Y-36790880D01*
X2064Y-36743361D01*
X-3853Y-36726665D01*
X-41339Y-36719859D01*
X-135929Y-36713674D01*
X-282168Y-36708109D01*
X-474603Y-36703165D01*
X-707778Y-36698841D01*
X-976239Y-36695138D01*
X-1274532Y-36692055D01*
X-1597203Y-36689592D01*
X-1938796Y-36687750D01*
X-2293857Y-36686528D01*
X-2656932Y-36685927D01*
X-3022566Y-36685946D01*
X-3385306Y-36686586D01*
X-3739695Y-36687845D01*
X-4080281Y-36689726D01*
X-4401608Y-36692227D01*
X-4698222Y-36695348D01*
X-4964669Y-36699089D01*
X-5195493Y-36703451D01*
X-5385241Y-36708434D01*
X-5528459Y-36714037D01*
X-5619690Y-36720260D01*
X-5653163Y-36726665D01*
X-5659969Y-36764150D01*
X-5666154Y-36858740D01*
X-5671719Y-37004980D01*
X-5676663Y-37197415D01*
X-5680987Y-37430590D01*
X-5684690Y-37699051D01*
X-5687773Y-37997344D01*
X-5690236Y-38320014D01*
X-5692078Y-38661607D01*
X-5693300Y-39016669D01*
X-5693901Y-39379744D01*
X-5725218Y-39379744D01*
X-5724636Y-39014991D01*
X-5723437Y-38657823D01*
X-5721622Y-38314030D01*
X-5719192Y-37989034D01*
X-5716145Y-37688261D01*
X-5712483Y-37417134D01*
X-5708205Y-37181076D01*
X-5703310Y-36985511D01*
X-5697799Y-36835863D01*
X-5691671Y-36737556D01*
X-5684927Y-36696013D01*
X-5684444Y-36695384D01*
X-5646481Y-36688100D01*
X-5551486Y-36681528D01*
X-5404872Y-36675663D01*
X-5212054Y-36670501D01*
X-4978447Y-36666037D01*
X-4709464Y-36662267D01*
X-4410520Y-36659185D01*
X-4087029Y-36656787D01*
X-3744406Y-36655068D01*
X-3388064Y-36654024D01*
X-3023419Y-36653649D01*
X-2655884Y-36653940D01*
G37*
%TD.AperFunction*%
%TA.AperFunction,EtchedComponent*%
G36*
X-2338677Y-36564029D02*
G01*
X-1909818Y-36564156D01*
X-1535798Y-36564469D01*
X-1212758Y-36565051D01*
X-936836Y-36565983D01*
X-704172Y-36567350D01*
X-510904Y-36569233D01*
X-353173Y-36571715D01*
X-227117Y-36574879D01*
X-128876Y-36578807D01*
X-54588Y-36583583D01*
X-394Y-36589288D01*
X37569Y-36596005D01*
X63160Y-36603817D01*
X80240Y-36612807D01*
X92671Y-36623058D01*
X96246Y-36626566D01*
X106888Y-36638304D01*
X116249Y-36653467D01*
X124412Y-36675906D01*
X131459Y-36709473D01*
X137471Y-36758019D01*
X142530Y-36825396D01*
X146719Y-36915455D01*
X150121Y-37032049D01*
X152816Y-37179029D01*
X154887Y-37360246D01*
X156416Y-37579552D01*
X157485Y-37840799D01*
X158177Y-38147838D01*
X158572Y-38504521D01*
X158755Y-38914700D01*
X158805Y-39382225D01*
X158807Y-39562112D01*
X158764Y-40051517D01*
X158584Y-40482189D01*
X158193Y-40857957D01*
X157515Y-41182647D01*
X156476Y-41460089D01*
X155001Y-41694111D01*
X153015Y-41888542D01*
X150443Y-42047209D01*
X147210Y-42173941D01*
X143242Y-42272567D01*
X138463Y-42346913D01*
X132799Y-42400810D01*
X126174Y-42438085D01*
X118515Y-42462567D01*
X109745Y-42478083D01*
X101603Y-42486866D01*
X87990Y-42495726D01*
X65423Y-42503522D01*
X30099Y-42510321D01*
X-21784Y-42516191D01*
X-94030Y-42521197D01*
X-190441Y-42525409D01*
X-314820Y-42528892D01*
X-470970Y-42531715D01*
X-662695Y-42533945D01*
X-893796Y-42535649D01*
X-1168076Y-42536894D01*
X-1489340Y-42537748D01*
X-1861389Y-42538278D01*
X-2288026Y-42538551D01*
X-2773054Y-42538634D01*
X-2823151Y-42538635D01*
X-3311400Y-42538611D01*
X-3740943Y-42538484D01*
X-4115636Y-42538173D01*
X-4439333Y-42537593D01*
X-4715890Y-42536664D01*
X-4949163Y-42535303D01*
X-5143006Y-42533428D01*
X-5301276Y-42530956D01*
X-5427828Y-42527805D01*
X-5526517Y-42523893D01*
X-5601199Y-42519137D01*
X-5655729Y-42513455D01*
X-5693962Y-42506765D01*
X-5719754Y-42498984D01*
X-5736960Y-42490030D01*
X-5749436Y-42479821D01*
X-5753262Y-42476073D01*
X-5763958Y-42464273D01*
X-5773360Y-42449030D01*
X-5781551Y-42426473D01*
X-5788615Y-42392727D01*
X-5794635Y-42343920D01*
X-5799695Y-42276178D01*
X-5803878Y-42185628D01*
X-5807267Y-42068396D01*
X-5809946Y-41920611D01*
X-5811998Y-41738397D01*
X-5813507Y-41517883D01*
X-5814556Y-41255195D01*
X-5815229Y-40946459D01*
X-5815609Y-40587803D01*
X-5815779Y-40175352D01*
X-5815822Y-39705235D01*
X-5815823Y-39571179D01*
X-5815822Y-39551320D01*
X-5784543Y-39551320D01*
X-5784524Y-40032536D01*
X-5784409Y-40455128D01*
X-5784108Y-40823034D01*
X-5783533Y-41140190D01*
X-5782595Y-41410534D01*
X-5781204Y-41638004D01*
X-5779274Y-41826537D01*
X-5776713Y-41980071D01*
X-5773434Y-42102542D01*
X-5769348Y-42197889D01*
X-5764366Y-42270049D01*
X-5758398Y-42322959D01*
X-5751357Y-42360556D01*
X-5743154Y-42386779D01*
X-5733699Y-42405564D01*
X-5722903Y-42420849D01*
X-5719711Y-42424934D01*
X-5654879Y-42507354D01*
X-2826238Y-42507354D01*
X-2341512Y-42507330D01*
X-1915465Y-42507200D01*
X-1544214Y-42506882D01*
X-1223875Y-42506290D01*
X-950566Y-42505341D01*
X-720403Y-42503951D01*
X-529504Y-42502036D01*
X-373985Y-42499511D01*
X-249964Y-42496294D01*
X-153558Y-42492299D01*
X-80883Y-42487443D01*
X-28056Y-42481642D01*
X8804Y-42474811D01*
X33583Y-42466867D01*
X50162Y-42457726D01*
X62424Y-42447303D01*
X64965Y-42444793D01*
X75681Y-42432969D01*
X85098Y-42417696D01*
X93300Y-42395094D01*
X100371Y-42361281D01*
X106394Y-42312375D01*
X111454Y-42244495D01*
X115634Y-42153760D01*
X119019Y-42036289D01*
X121692Y-41888199D01*
X123737Y-41705610D01*
X125238Y-41484641D01*
X126280Y-41221409D01*
X126946Y-40912034D01*
X127319Y-40552634D01*
X127485Y-40139327D01*
X127526Y-39668233D01*
X127526Y-39551320D01*
X127502Y-39066388D01*
X127373Y-38640136D01*
X127054Y-38268684D01*
X126463Y-37948148D01*
X125516Y-37674649D01*
X124127Y-37444304D01*
X122215Y-37253233D01*
X119693Y-37097554D01*
X116480Y-36973385D01*
X112490Y-36876845D01*
X107640Y-36804054D01*
X101845Y-36751128D01*
X95023Y-36714188D01*
X87089Y-36689351D01*
X77959Y-36672737D01*
X67549Y-36660463D01*
X64965Y-36657847D01*
X53136Y-36647127D01*
X37858Y-36637707D01*
X15247Y-36629503D01*
X-18580Y-36622431D01*
X-67506Y-36616407D01*
X-135413Y-36611347D01*
X-226185Y-36607167D01*
X-343704Y-36603783D01*
X-491854Y-36601112D01*
X-674518Y-36599068D01*
X-895578Y-36597568D01*
X-1158919Y-36596528D01*
X-1468421Y-36595863D01*
X-1827970Y-36595491D01*
X-2241447Y-36595327D01*
X-2712736Y-36595286D01*
X-2826238Y-36595285D01*
X-5654879Y-36595285D01*
X-5719711Y-36677706D01*
X-5730887Y-36692720D01*
X-5740700Y-36710158D01*
X-5749236Y-36733959D01*
X-5756586Y-36768060D01*
X-5762838Y-36816397D01*
X-5768080Y-36882909D01*
X-5772402Y-36971533D01*
X-5775893Y-37086206D01*
X-5778641Y-37230866D01*
X-5780735Y-37409451D01*
X-5782264Y-37625897D01*
X-5783316Y-37884142D01*
X-5783982Y-38188123D01*
X-5784349Y-38541779D01*
X-5784506Y-38949046D01*
X-5784542Y-39413862D01*
X-5784543Y-39551320D01*
X-5815822Y-39551320D01*
X-5815805Y-39085305D01*
X-5815694Y-38658093D01*
X-5815402Y-38285643D01*
X-5814844Y-37964055D01*
X-5813932Y-37689430D01*
X-5812582Y-37457867D01*
X-5810705Y-37265467D01*
X-5808216Y-37108330D01*
X-5805029Y-36982557D01*
X-5801056Y-36884246D01*
X-5796212Y-36809500D01*
X-5790409Y-36754417D01*
X-5783562Y-36715098D01*
X-5775584Y-36687644D01*
X-5766388Y-36668154D01*
X-5755889Y-36652729D01*
X-5750991Y-36646425D01*
X-5686159Y-36564004D01*
X-2826238Y-36564004D01*
X-2338677Y-36564029D01*
G37*
%TD.AperFunction*%
%TA.AperFunction,EtchedComponent*%
G36*
X-11062549Y-36032276D02*
G01*
X-10718519Y-36033093D01*
X-10421641Y-36034802D01*
X-10168061Y-36037695D01*
X-9953928Y-36042066D01*
X-9775389Y-36048209D01*
X-9628592Y-36056417D01*
X-9548741Y-36063513D01*
X-12383110Y-36063686D01*
X-12944384Y-36064086D01*
X-13449144Y-36065208D01*
X-13896685Y-36067045D01*
X-14286300Y-36069589D01*
X-14617281Y-36072832D01*
X-14888922Y-36076767D01*
X-15100516Y-36081385D01*
X-15251356Y-36086680D01*
X-15340736Y-36092643D01*
X-15363494Y-36096219D01*
X-15547203Y-36178317D01*
X-15699015Y-36310163D01*
X-15814070Y-36485088D01*
X-15887505Y-36696421D01*
X-15910306Y-36846382D01*
X-15928592Y-37064497D01*
X-15798932Y-37064497D01*
X-15669272Y-37064497D01*
X-15669272Y-36891448D01*
X-15654946Y-36764945D01*
X-15637991Y-36764945D01*
X-15637304Y-39565768D01*
X-15637131Y-40049513D01*
X-15636813Y-40474678D01*
X-15636272Y-40845242D01*
X-15635428Y-41165189D01*
X-15634204Y-41438498D01*
X-15632521Y-41669150D01*
X-15630301Y-41861126D01*
X-15627465Y-42018408D01*
X-15623936Y-42144977D01*
X-15619634Y-42244813D01*
X-15614481Y-42321897D01*
X-15608400Y-42380210D01*
X-15601311Y-42423734D01*
X-15593136Y-42456450D01*
X-15583797Y-42482338D01*
X-15579700Y-42491714D01*
X-15532400Y-42579885D01*
X-15483847Y-42647169D01*
X-15471200Y-42659522D01*
X-15444507Y-42680964D01*
X-15416852Y-42699849D01*
X-15384318Y-42716328D01*
X-15342989Y-42730553D01*
X-15288948Y-42742678D01*
X-15218277Y-42752854D01*
X-15127060Y-42761233D01*
X-15011381Y-42767967D01*
X-14867322Y-42773209D01*
X-14690967Y-42777111D01*
X-14478399Y-42779824D01*
X-14225700Y-42781502D01*
X-13928955Y-42782295D01*
X-13584246Y-42782357D01*
X-13187657Y-42781840D01*
X-12735271Y-42780895D01*
X-12369148Y-42780026D01*
X-11883304Y-42778790D01*
X-11456104Y-42777518D01*
X-11083633Y-42776126D01*
X-10761973Y-42774533D01*
X-10487208Y-42772658D01*
X-10255422Y-42770417D01*
X-10062698Y-42767729D01*
X-9905118Y-42764512D01*
X-9778767Y-42760684D01*
X-9679728Y-42756162D01*
X-9604085Y-42750866D01*
X-9547920Y-42744711D01*
X-9507317Y-42737618D01*
X-9478359Y-42729503D01*
X-9457130Y-42720284D01*
X-9454681Y-42718972D01*
X-9368225Y-42655146D01*
X-9289353Y-42571663D01*
X-9282637Y-42562568D01*
X-9209789Y-42460433D01*
X-9209789Y-39561434D01*
X-9209805Y-39070468D01*
X-9209908Y-38638197D01*
X-9210184Y-38260754D01*
X-9210718Y-37934272D01*
X-9211593Y-37654886D01*
X-9212896Y-37418728D01*
X-9214709Y-37221931D01*
X-9217119Y-37060630D01*
X-9220209Y-36930956D01*
X-9224065Y-36829045D01*
X-9228771Y-36751028D01*
X-9234412Y-36693039D01*
X-9241073Y-36651213D01*
X-9248838Y-36621681D01*
X-9257792Y-36600577D01*
X-9268019Y-36584035D01*
X-9275227Y-36574119D01*
X-9347398Y-36495252D01*
X-9435697Y-36421260D01*
X-9444077Y-36415421D01*
X-9547489Y-36345039D01*
X-12416070Y-36345039D01*
X-15284650Y-36345039D01*
X-15390939Y-36415673D01*
X-15470897Y-36488335D01*
X-15545757Y-36587149D01*
X-15567609Y-36625626D01*
X-15637991Y-36764945D01*
X-15654946Y-36764945D01*
X-15646517Y-36690508D01*
X-15580221Y-36526477D01*
X-15473332Y-36404636D01*
X-15362248Y-36341733D01*
X-15320541Y-36337526D01*
X-15220497Y-36333533D01*
X-15066340Y-36329792D01*
X-14862293Y-36326344D01*
X-14612581Y-36323228D01*
X-14321427Y-36320485D01*
X-13993055Y-36318155D01*
X-13631690Y-36316277D01*
X-13241555Y-36314892D01*
X-12826874Y-36314039D01*
X-12405725Y-36313758D01*
X-11914704Y-36313807D01*
X-11482348Y-36314005D01*
X-11104759Y-36314425D01*
X-10778041Y-36315141D01*
X-10498297Y-36316229D01*
X-10261629Y-36317762D01*
X-10064141Y-36319814D01*
X-9901935Y-36322461D01*
X-9771116Y-36325775D01*
X-9667785Y-36329832D01*
X-9588045Y-36334706D01*
X-9528001Y-36340471D01*
X-9483754Y-36347201D01*
X-9451408Y-36354970D01*
X-9427066Y-36363854D01*
X-9412626Y-36370814D01*
X-9298348Y-36464434D01*
X-9215578Y-36603351D01*
X-9170011Y-36775874D01*
X-9162868Y-36883440D01*
X-9162868Y-37064497D01*
X-9037744Y-37064497D01*
X-8912621Y-37064497D01*
X-8912621Y-36913771D01*
X-8938830Y-36673666D01*
X-9016404Y-36466903D01*
X-9143768Y-36296206D01*
X-9319346Y-36164300D01*
X-9358088Y-36143817D01*
X-9512833Y-36066705D01*
X-9509683Y-36066985D01*
X-9414812Y-36080205D01*
X-9340125Y-36096371D01*
X-9281770Y-36115778D01*
X-9235895Y-36138718D01*
X-9198646Y-36165485D01*
X-9166173Y-36196374D01*
X-9134621Y-36231677D01*
X-9100140Y-36271688D01*
X-9087485Y-36285949D01*
X-8985749Y-36423626D01*
X-8921001Y-36575975D01*
X-8888137Y-36758830D01*
X-8881341Y-36925273D01*
X-8881341Y-37095778D01*
X-9022104Y-37095778D01*
X-9162868Y-37095778D01*
X-9162868Y-39566960D01*
X-9162868Y-42038142D01*
X-9017695Y-42038142D01*
X-8872522Y-42038142D01*
X-8888968Y-42301744D01*
X-8905366Y-42468359D01*
X-8933376Y-42592991D01*
X-8977591Y-42695823D01*
X-8979399Y-42699114D01*
X-9097997Y-42854291D01*
X-9257521Y-42978830D01*
X-9438459Y-43058252D01*
X-9475870Y-43067528D01*
X-9538732Y-43074191D01*
X-9658060Y-43080126D01*
X-9828318Y-43085341D01*
X-10043969Y-43089848D01*
X-10299477Y-43093654D01*
X-10589303Y-43096771D01*
X-10907912Y-43099208D01*
X-11249766Y-43100974D01*
X-11609330Y-43102078D01*
X-11981065Y-43102532D01*
X-12359436Y-43102344D01*
X-12738904Y-43101524D01*
X-13113935Y-43100081D01*
X-13478990Y-43098026D01*
X-13828533Y-43095367D01*
X-14157027Y-43092116D01*
X-14458935Y-43088280D01*
X-14728720Y-43083871D01*
X-14960847Y-43078897D01*
X-15149776Y-43073368D01*
X-15289973Y-43067294D01*
X-15375900Y-43060685D01*
X-15396707Y-43057202D01*
X-15590451Y-42975979D01*
X-15742905Y-42848096D01*
X-15853433Y-42674443D01*
X-15921403Y-42455912D01*
X-15942391Y-42291230D01*
X-15957594Y-42069423D01*
X-15919518Y-42069423D01*
X-15919518Y-42204509D01*
X-15892372Y-42430286D01*
X-15814930Y-42634129D01*
X-15693184Y-42806981D01*
X-15533125Y-42939784D01*
X-15387194Y-43009171D01*
X-15355166Y-43019422D01*
X-15319550Y-43028422D01*
X-15276277Y-43036253D01*
X-15221279Y-43042999D01*
X-15150485Y-43048742D01*
X-15059827Y-43053565D01*
X-14945234Y-43057552D01*
X-14802638Y-43060786D01*
X-14627969Y-43063348D01*
X-14417158Y-43065323D01*
X-14166136Y-43066794D01*
X-13870833Y-43067842D01*
X-13527180Y-43068552D01*
X-13131107Y-43069006D01*
X-12678545Y-43069287D01*
X-12433762Y-43069387D01*
X-11947423Y-43069475D01*
X-11519613Y-43069313D01*
X-11146302Y-43068833D01*
X-10823458Y-43067967D01*
X-10547049Y-43066647D01*
X-10313044Y-43064803D01*
X-10117411Y-43062368D01*
X-9956119Y-43059274D01*
X-9825137Y-43055451D01*
X-9720432Y-43050833D01*
X-9637974Y-43045349D01*
X-9573731Y-43038933D01*
X-9523671Y-43031515D01*
X-9483763Y-43023027D01*
X-9469062Y-43019128D01*
X-9355775Y-42980174D01*
X-9265931Y-42927440D01*
X-9175144Y-42845045D01*
X-9133422Y-42800574D01*
X-9015259Y-42642645D01*
X-8944426Y-42472199D01*
X-8914569Y-42271745D01*
X-8912621Y-42193007D01*
X-8915829Y-42113565D01*
X-8937304Y-42078514D01*
X-8994825Y-42069684D01*
X-9033541Y-42069423D01*
X-9154461Y-42069423D01*
X-9170333Y-42291249D01*
X-9191891Y-42453303D01*
X-9235903Y-42573526D01*
X-9312037Y-42671327D01*
X-9393868Y-42740027D01*
X-9409488Y-42751003D01*
X-9427704Y-42760671D01*
X-9452400Y-42769127D01*
X-9487461Y-42776466D01*
X-9536772Y-42782784D01*
X-9604216Y-42788177D01*
X-9693679Y-42792742D01*
X-9809046Y-42796573D01*
X-9954200Y-42799767D01*
X-10133028Y-42802419D01*
X-10349413Y-42804625D01*
X-10607240Y-42806481D01*
X-10910395Y-42808083D01*
X-11262760Y-42809527D01*
X-11668222Y-42810908D01*
X-12130665Y-42812323D01*
X-12351392Y-42812975D01*
X-12864356Y-42814312D01*
X-13318086Y-42815098D01*
X-13715906Y-42815297D01*
X-14061140Y-42814877D01*
X-14357113Y-42813800D01*
X-14607149Y-42812033D01*
X-14814574Y-42809542D01*
X-14982712Y-42806290D01*
X-15114888Y-42802244D01*
X-15214425Y-42797369D01*
X-15284650Y-42791629D01*
X-15328886Y-42784990D01*
X-15341216Y-42781694D01*
X-15442334Y-42727561D01*
X-15537871Y-42644080D01*
X-15552990Y-42626410D01*
X-15605955Y-42550500D01*
X-15637557Y-42471417D01*
X-15655377Y-42365748D01*
X-15661885Y-42290142D01*
X-15677678Y-42069423D01*
X-15798598Y-42069423D01*
X-15919518Y-42069423D01*
X-15957594Y-42069423D01*
X-15959738Y-42038142D01*
X-15814505Y-42038142D01*
X-15669272Y-42038142D01*
X-15669272Y-39566960D01*
X-15669272Y-37095778D01*
X-15810035Y-37095778D01*
X-15950799Y-37095778D01*
X-15950799Y-36913771D01*
X-15925698Y-36663648D01*
X-15851414Y-36446881D01*
X-15729476Y-36267908D01*
X-15727883Y-36266174D01*
X-15693414Y-36227771D01*
X-15662498Y-36193807D01*
X-15631285Y-36164011D01*
X-15595927Y-36138109D01*
X-15552574Y-36115831D01*
X-15497378Y-36096905D01*
X-15426488Y-36081057D01*
X-15336057Y-36068018D01*
X-15222234Y-36057514D01*
X-15081171Y-36049275D01*
X-14909018Y-36043027D01*
X-14701927Y-36038499D01*
X-14456048Y-36035419D01*
X-14167532Y-36033516D01*
X-13832531Y-36032517D01*
X-13447194Y-36032151D01*
X-13007674Y-36032145D01*
X-12510120Y-36032228D01*
X-12416070Y-36032231D01*
X-11907472Y-36032138D01*
X-11457582Y-36032055D01*
X-11062549Y-36032276D01*
G37*
%TD.AperFunction*%
%TA.AperFunction,EtchedComponent*%
G36*
X-1324127Y-36036698D02*
G01*
X-920467Y-36037846D01*
X-576861Y-36039862D01*
X-293746Y-36042740D01*
X-71558Y-36046479D01*
X89267Y-36051075D01*
X188292Y-36056524D01*
X221369Y-36061058D01*
X359774Y-36126918D01*
X492878Y-36233421D01*
X598394Y-36361001D01*
X631372Y-36421028D01*
X665713Y-36524813D01*
X684411Y-36658056D01*
X689894Y-36822071D01*
X690581Y-37095778D01*
X587354Y-37095778D01*
X504465Y-37106529D01*
X447454Y-37132477D01*
X446590Y-37133315D01*
X433216Y-37168115D01*
X423019Y-37245473D01*
X415772Y-37369940D01*
X411247Y-37546070D01*
X409218Y-37778414D01*
X409054Y-37884054D01*
X409054Y-38597256D01*
X487256Y-38597256D01*
X565457Y-38597256D01*
X565457Y-39551320D01*
X565457Y-40505384D01*
X486689Y-40505384D01*
X407921Y-40505384D01*
X416308Y-41248303D01*
X424694Y-41991221D01*
X557637Y-42000840D01*
X690581Y-42010459D01*
X690581Y-42293774D01*
X688205Y-42438857D01*
X678499Y-42541866D01*
X657597Y-42623196D01*
X621633Y-42703240D01*
X608145Y-42728552D01*
X527546Y-42844151D01*
X427504Y-42944506D01*
X396999Y-42967391D01*
X268290Y-43054768D01*
X-2781587Y-43061607D01*
X-3292915Y-43062663D01*
X-3745365Y-43063369D01*
X-4142617Y-43063677D01*
X-4488355Y-43063540D01*
X-4786261Y-43062909D01*
X-5040016Y-43061739D01*
X-5253303Y-43059981D01*
X-5429803Y-43057587D01*
X-5573200Y-43054510D01*
X-5687174Y-43050702D01*
X-5775408Y-43046117D01*
X-5841584Y-43040706D01*
X-5889384Y-43034421D01*
X-5922490Y-43027217D01*
X-5940723Y-43020822D01*
X-6108528Y-42916389D01*
X-6231780Y-42768603D01*
X-6310684Y-42577089D01*
X-6345441Y-42341472D01*
X-6347291Y-42266727D01*
X-6347564Y-42038142D01*
X-6324161Y-42038142D01*
X-6310566Y-42296209D01*
X-6298528Y-42444694D01*
X-6277207Y-42553640D01*
X-6240996Y-42645964D01*
X-6211925Y-42699282D01*
X-6120417Y-42819623D01*
X-6002889Y-42925194D01*
X-5880285Y-42998624D01*
X-5829478Y-43016441D01*
X-5790056Y-43018701D01*
X-5692505Y-43020936D01*
X-5541256Y-43023119D01*
X-5340741Y-43025223D01*
X-5095392Y-43027218D01*
X-4809641Y-43029078D01*
X-4487920Y-43030773D01*
X-4134661Y-43032277D01*
X-3754295Y-43033560D01*
X-3351256Y-43034594D01*
X-2929974Y-43035353D01*
X-2819683Y-43035499D01*
X-2307937Y-43035990D01*
X-1855262Y-43036098D01*
X-1458170Y-43035780D01*
X-1113172Y-43034992D01*
X-816779Y-43033689D01*
X-565503Y-43031826D01*
X-355854Y-43029361D01*
X-184344Y-43026249D01*
X-47483Y-43022446D01*
X58217Y-43017908D01*
X136245Y-43012590D01*
X190090Y-43006449D01*
X223241Y-42999441D01*
X230194Y-42996947D01*
X408105Y-42893266D01*
X538096Y-42750778D01*
X620918Y-42568211D01*
X657319Y-42344296D01*
X659300Y-42270155D01*
X659300Y-42038142D01*
X534177Y-42038142D01*
X409054Y-42038142D01*
X408937Y-42264928D01*
X402850Y-42411827D01*
X382358Y-42516452D01*
X347758Y-42591858D01*
X328901Y-42624508D01*
X312040Y-42653375D01*
X293424Y-42678679D01*
X269301Y-42700643D01*
X235916Y-42719490D01*
X189518Y-42735441D01*
X126355Y-42748718D01*
X42673Y-42759544D01*
X-65279Y-42768140D01*
X-201255Y-42774730D01*
X-369007Y-42779534D01*
X-572288Y-42782775D01*
X-814850Y-42784675D01*
X-1100445Y-42785457D01*
X-1432827Y-42785342D01*
X-1815748Y-42784553D01*
X-2252961Y-42783311D01*
X-2748217Y-42781839D01*
X-2856630Y-42781530D01*
X-5810797Y-42773241D01*
X-5895544Y-42695039D01*
X-5993040Y-42572890D01*
X-6048542Y-42420244D01*
X-6066070Y-42226832D01*
X-6066070Y-42038142D01*
X-6195115Y-42038142D01*
X-6324161Y-42038142D01*
X-6347564Y-42038142D01*
X-6347597Y-42010459D01*
X-6214653Y-42000840D01*
X-6081710Y-41991221D01*
X-6073324Y-41248303D01*
X-6064937Y-40505384D01*
X-6143705Y-40505384D01*
X-6222474Y-40505384D01*
X-6222474Y-39551320D01*
X-6191193Y-39551320D01*
X-6191067Y-39815497D01*
X-6190391Y-40023758D01*
X-6188714Y-40182746D01*
X-6185584Y-40299108D01*
X-6180553Y-40379486D01*
X-6173168Y-40430527D01*
X-6162980Y-40458874D01*
X-6149539Y-40471173D01*
X-6132393Y-40474068D01*
X-6128631Y-40474103D01*
X-6110721Y-40472255D01*
X-6096601Y-40462282D01*
X-6085823Y-40437538D01*
X-6077934Y-40391380D01*
X-6072484Y-40317162D01*
X-6069024Y-40208240D01*
X-6067102Y-40057969D01*
X-6066268Y-39859704D01*
X-6066072Y-39606801D01*
X-6066070Y-39551320D01*
X-6066195Y-39287142D01*
X-6066871Y-39078882D01*
X-6068549Y-38919893D01*
X-6071678Y-38803532D01*
X-6076710Y-38723153D01*
X-6081020Y-38693361D01*
X-6034876Y-38693361D01*
X-6034834Y-39143569D01*
X-6034789Y-39556535D01*
X-6034742Y-40043547D01*
X-6034551Y-40471928D01*
X-6034137Y-40845608D01*
X-6033425Y-41168518D01*
X-6032337Y-41444589D01*
X-6030795Y-41677750D01*
X-6028723Y-41871933D01*
X-6026043Y-42031068D01*
X-6022679Y-42159086D01*
X-6018552Y-42259916D01*
X-6013587Y-42337490D01*
X-6007706Y-42395738D01*
X-6000831Y-42438591D01*
X-5992886Y-42469979D01*
X-5983794Y-42493832D01*
X-5976869Y-42507842D01*
X-5909640Y-42600953D01*
X-5823408Y-42681836D01*
X-5815140Y-42687690D01*
X-5711331Y-42758543D01*
X-2792417Y-42750251D01*
X126497Y-42741960D01*
X244315Y-42624136D01*
X362132Y-42506312D01*
X362132Y-39552852D01*
X362132Y-39551320D01*
X409054Y-39551320D01*
X409179Y-39815497D01*
X409855Y-40023758D01*
X411532Y-40182746D01*
X414662Y-40299108D01*
X419694Y-40379486D01*
X427078Y-40430527D01*
X437266Y-40458874D01*
X450708Y-40471173D01*
X467854Y-40474068D01*
X471615Y-40474103D01*
X489525Y-40472255D01*
X503645Y-40462282D01*
X514424Y-40437538D01*
X522313Y-40391380D01*
X527762Y-40317162D01*
X531222Y-40208240D01*
X533144Y-40057969D01*
X533978Y-39859704D01*
X534174Y-39606801D01*
X534177Y-39551320D01*
X534051Y-39287142D01*
X533375Y-39078882D01*
X531698Y-38919893D01*
X528568Y-38803532D01*
X523537Y-38723153D01*
X516152Y-38672113D01*
X505964Y-38643765D01*
X492523Y-38631467D01*
X475377Y-38628572D01*
X471615Y-38628537D01*
X453705Y-38630384D01*
X439585Y-38640358D01*
X428807Y-38665101D01*
X420918Y-38711259D01*
X415468Y-38785477D01*
X412008Y-38894399D01*
X410086Y-39044670D01*
X409252Y-39242935D01*
X409056Y-39495838D01*
X409054Y-39551320D01*
X362132Y-39551320D01*
X362132Y-36599393D01*
X272435Y-36505770D01*
X193282Y-36435953D01*
X113289Y-36384009D01*
X100391Y-36378075D01*
X61009Y-36371656D01*
X-25080Y-36366115D01*
X-159551Y-36361438D01*
X-344078Y-36357608D01*
X-580335Y-36354613D01*
X-869997Y-36352438D01*
X-1214739Y-36351067D01*
X-1616233Y-36350487D01*
X-2076156Y-36350682D01*
X-2596180Y-36351639D01*
X-2859789Y-36352342D01*
X-5737621Y-36360679D01*
X-5835427Y-36430445D01*
X-5868743Y-36453313D01*
X-5898134Y-36474036D01*
X-5923845Y-36496462D01*
X-5946121Y-36524437D01*
X-5965209Y-36561809D01*
X-5981353Y-36612425D01*
X-5994800Y-36680131D01*
X-6005793Y-36768776D01*
X-6014578Y-36882207D01*
X-6021402Y-37024269D01*
X-6026509Y-37198811D01*
X-6030144Y-37409679D01*
X-6032553Y-37660721D01*
X-6033981Y-37955784D01*
X-6034674Y-38298715D01*
X-6034876Y-38693361D01*
X-6081020Y-38693361D01*
X-6084094Y-38672113D01*
X-6094282Y-38643765D01*
X-6107724Y-38631467D01*
X-6124870Y-38628572D01*
X-6128631Y-38628537D01*
X-6146542Y-38630384D01*
X-6160661Y-38640358D01*
X-6171440Y-38665101D01*
X-6179329Y-38711259D01*
X-6184778Y-38785477D01*
X-6188238Y-38894399D01*
X-6190160Y-39044670D01*
X-6190994Y-39242935D01*
X-6191190Y-39495838D01*
X-6191193Y-39551320D01*
X-6222474Y-39551320D01*
X-6222474Y-38597256D01*
X-6143705Y-38597256D01*
X-6064937Y-38597256D01*
X-6073324Y-37854337D01*
X-6081710Y-37111418D01*
X-6218298Y-37101621D01*
X-6354886Y-37091825D01*
X-6353691Y-37064497D01*
X-6324161Y-37064497D01*
X-6195115Y-37064497D01*
X-6066070Y-37064497D01*
X-6066021Y-36868992D01*
X-6046443Y-36674298D01*
X-5985823Y-36522559D01*
X-5881165Y-36407069D01*
X-5849606Y-36384297D01*
X-5742626Y-36312825D01*
X-2799729Y-36321112D01*
X-2304613Y-36322532D01*
X-1868228Y-36323892D01*
X-1486744Y-36325281D01*
X-1156330Y-36326788D01*
X-873155Y-36328504D01*
X-633390Y-36330518D01*
X-433204Y-36332920D01*
X-268766Y-36335799D01*
X-136246Y-36339245D01*
X-31814Y-36343348D01*
X48361Y-36348198D01*
X108109Y-36353883D01*
X151260Y-36360495D01*
X181646Y-36368122D01*
X203096Y-36376854D01*
X219440Y-36386781D01*
X226549Y-36391960D01*
X317640Y-36476481D01*
X374093Y-36574961D01*
X402362Y-36703641D01*
X409054Y-36851185D01*
X409054Y-37081791D01*
X534177Y-37069858D01*
X659300Y-37057926D01*
X659300Y-36828077D01*
X636274Y-36595704D01*
X566834Y-36404937D01*
X450437Y-36254840D01*
X286541Y-36144478D01*
X254226Y-36129734D01*
X98117Y-36062578D01*
X-2871809Y-36070865D01*
X-5841735Y-36079152D01*
X-5976990Y-36174220D01*
X-6079418Y-36261550D01*
X-6176188Y-36368097D01*
X-6204547Y-36406723D01*
X-6252834Y-36487089D01*
X-6282778Y-36565684D01*
X-6300081Y-36663898D01*
X-6310442Y-36803119D01*
X-6310506Y-36804328D01*
X-6324161Y-37064497D01*
X-6353691Y-37064497D01*
X-6342250Y-36802907D01*
X-6333034Y-36653663D01*
X-6317847Y-36546902D01*
X-6292130Y-36462564D01*
X-6251323Y-36380586D01*
X-6243035Y-36366254D01*
X-6165359Y-36261224D01*
X-6068469Y-36165508D01*
X-6025241Y-36133195D01*
X-5894025Y-36047871D01*
X-2891070Y-36038482D01*
X-2309865Y-36037012D01*
X-1787405Y-36036418D01*
X-1324127Y-36036698D01*
G37*
%TD.AperFunction*%
%TA.AperFunction,EtchedComponent*%
G36*
X-21831587Y-36016591D02*
G01*
X-21831587Y-36251197D01*
X-21440577Y-36251197D01*
X-21049567Y-36251197D01*
X-21049567Y-36063512D01*
X-21049567Y-35907108D01*
X-21018286Y-35907108D01*
X-21018286Y-36079152D01*
X-21018286Y-36251197D01*
X-20100129Y-36251197D01*
X-19836337Y-36251321D01*
X-19627651Y-36252041D01*
X-19466614Y-36253876D01*
X-19345770Y-36257347D01*
X-19257663Y-36262973D01*
X-19194838Y-36271276D01*
X-19149838Y-36282775D01*
X-19115207Y-36297989D01*
X-19083489Y-36317440D01*
X-19075683Y-36322662D01*
X-18978732Y-36418042D01*
X-18919154Y-36552118D01*
X-18894092Y-36731965D01*
X-18892958Y-36775150D01*
X-18891193Y-36939374D01*
X-18719148Y-36939374D01*
X-18547104Y-36939374D01*
X-18547104Y-36784143D01*
X-18577295Y-36556744D01*
X-18666177Y-36347794D01*
X-18811210Y-36162899D01*
X-18841593Y-36133964D01*
X-18944877Y-36050580D01*
X-19051632Y-35981772D01*
X-19132939Y-35944631D01*
X-19211592Y-35931154D01*
X-19348139Y-35920706D01*
X-19543714Y-35913245D01*
X-19799448Y-35908728D01*
X-20116475Y-35907113D01*
X-20138233Y-35907108D01*
X-21018286Y-35907108D01*
X-21049567Y-35907108D01*
X-21049567Y-35875827D01*
X-20122593Y-35875827D01*
X-19800833Y-35877062D01*
X-19539212Y-35880824D01*
X-19335355Y-35887197D01*
X-19186886Y-35896269D01*
X-19091430Y-35908124D01*
X-19066866Y-35913868D01*
X-18949074Y-35971169D01*
X-18817278Y-36073737D01*
X-18776475Y-36112568D01*
X-18643226Y-36276006D01*
X-18559502Y-36457552D01*
X-18520298Y-36670190D01*
X-18515823Y-36788648D01*
X-18515823Y-36970655D01*
X-18703508Y-36970655D01*
X-18891193Y-36970655D01*
X-18891193Y-39535679D01*
X-18891193Y-42100704D01*
X-18703508Y-42100704D01*
X-18515823Y-42100704D01*
X-18515823Y-42282711D01*
X-18535198Y-42515150D01*
X-18596659Y-42710185D01*
X-18705213Y-42880801D01*
X-18776475Y-42958791D01*
X-18909574Y-43073162D01*
X-19033231Y-43145387D01*
X-19066866Y-43157491D01*
X-19141067Y-43170523D01*
X-19267297Y-43180737D01*
X-19447932Y-43188218D01*
X-19685348Y-43193051D01*
X-19981918Y-43195321D01*
X-20122593Y-43195532D01*
X-21049567Y-43195532D01*
X-21049567Y-43164251D01*
X-21018286Y-43164251D01*
X-20138233Y-43164251D01*
X-19817358Y-43162815D01*
X-19557847Y-43158480D01*
X-19358566Y-43151203D01*
X-19218382Y-43140942D01*
X-19136162Y-43127654D01*
X-19132939Y-43126727D01*
X-19044806Y-43085719D01*
X-18937522Y-43015431D01*
X-18841593Y-42937394D01*
X-18687168Y-42757195D01*
X-18588460Y-42551979D01*
X-18548005Y-42327351D01*
X-18547104Y-42287215D01*
X-18547104Y-42131985D01*
X-18719148Y-42131985D01*
X-18891193Y-42131985D01*
X-18892958Y-42296209D01*
X-18911294Y-42486318D01*
X-18963559Y-42629204D01*
X-19052613Y-42731944D01*
X-19075683Y-42748697D01*
X-19107796Y-42769215D01*
X-19141077Y-42785375D01*
X-19182981Y-42797697D01*
X-19240966Y-42806701D01*
X-19322486Y-42812907D01*
X-19434998Y-42816836D01*
X-19585958Y-42819008D01*
X-19782822Y-42819942D01*
X-20033046Y-42820159D01*
X-20100129Y-42820162D01*
X-21018286Y-42820162D01*
X-21018286Y-42992206D01*
X-21018286Y-43164251D01*
X-21049567Y-43164251D01*
X-21049567Y-43007847D01*
X-21049567Y-42820162D01*
X-21440577Y-42820162D01*
X-21831587Y-42820162D01*
X-21831587Y-43054768D01*
X-21831587Y-43289374D01*
X-22191316Y-43289374D01*
X-22551045Y-43289374D01*
X-22551045Y-43054768D01*
X-22551045Y-42820162D01*
X-22519764Y-42820162D01*
X-22519764Y-43039128D01*
X-22519764Y-43258093D01*
X-22191316Y-43258093D01*
X-21862868Y-43258093D01*
X-21862868Y-43039128D01*
X-21862868Y-42820162D01*
X-22191316Y-42820162D01*
X-22519764Y-42820162D01*
X-22551045Y-42820162D01*
X-22942055Y-42820162D01*
X-23333065Y-42820162D01*
X-23333065Y-43007847D01*
X-23333065Y-43195532D01*
X-24267668Y-43195532D01*
X-24553774Y-43195267D01*
X-24785012Y-43193543D01*
X-24969074Y-43188970D01*
X-25113654Y-43180154D01*
X-25226444Y-43165704D01*
X-25315138Y-43144227D01*
X-25387428Y-43114331D01*
X-25451008Y-43074625D01*
X-25513571Y-43023715D01*
X-25582809Y-42960211D01*
X-25586339Y-42956909D01*
X-25709629Y-42815906D01*
X-25788275Y-42659102D01*
X-25827934Y-42471904D01*
X-25835528Y-42314097D01*
X-25835528Y-42131985D01*
X-25804247Y-42131985D01*
X-25803560Y-42327490D01*
X-25773349Y-42552271D01*
X-25688171Y-42755631D01*
X-25553754Y-42928534D01*
X-25375826Y-43061946D01*
X-25319622Y-43090700D01*
X-25272176Y-43111869D01*
X-25226002Y-43128493D01*
X-25173142Y-43141123D01*
X-25105640Y-43150311D01*
X-25015537Y-43156609D01*
X-24894876Y-43160569D01*
X-24735699Y-43162744D01*
X-24530048Y-43163684D01*
X-24269966Y-43163943D01*
X-24263668Y-43163945D01*
X-23364345Y-43164251D01*
X-23364345Y-42992206D01*
X-23364345Y-42820162D01*
X-24266862Y-42820162D01*
X-24528191Y-42820031D01*
X-24734491Y-42819283D01*
X-24893294Y-42817385D01*
X-25012132Y-42813805D01*
X-25098538Y-42808009D01*
X-25160044Y-42799465D01*
X-25204182Y-42787641D01*
X-25238485Y-42772002D01*
X-25270485Y-42752018D01*
X-25275212Y-42748841D01*
X-25369748Y-42668846D01*
X-25427095Y-42573579D01*
X-25454479Y-42446539D01*
X-25459697Y-42327490D01*
X-25460158Y-42131985D01*
X-25632203Y-42131985D01*
X-25804247Y-42131985D01*
X-25835528Y-42131985D01*
X-25835528Y-42100704D01*
X-25647843Y-42100704D01*
X-25460158Y-42100704D01*
X-25460158Y-40489888D01*
X-25428983Y-40489888D01*
X-25428767Y-40882551D01*
X-25428062Y-41223934D01*
X-25426636Y-41517796D01*
X-25424256Y-41767898D01*
X-25420692Y-41978000D01*
X-25415711Y-42151863D01*
X-25409080Y-42293245D01*
X-25400568Y-42405909D01*
X-25389942Y-42493614D01*
X-25376970Y-42560120D01*
X-25361421Y-42609187D01*
X-25343062Y-42644576D01*
X-25321661Y-42670046D01*
X-25296986Y-42689359D01*
X-25268805Y-42706274D01*
X-25236885Y-42724552D01*
X-25231854Y-42727586D01*
X-25213490Y-42737862D01*
X-25191623Y-42746915D01*
X-25162401Y-42754825D01*
X-25121974Y-42761668D01*
X-25066491Y-42767522D01*
X-24992100Y-42772464D01*
X-24894950Y-42776571D01*
X-24771190Y-42779921D01*
X-24616969Y-42782591D01*
X-24428436Y-42784659D01*
X-24201740Y-42786203D01*
X-23933029Y-42787299D01*
X-23618452Y-42788024D01*
X-23254158Y-42788457D01*
X-22836297Y-42788675D01*
X-22361016Y-42788755D01*
X-22188122Y-42788764D01*
X-19244533Y-42788881D01*
X-19138245Y-42717876D01*
X-19102496Y-42695118D01*
X-19070919Y-42674970D01*
X-19043256Y-42653629D01*
X-19019249Y-42627288D01*
X-18998639Y-42592141D01*
X-18981169Y-42544384D01*
X-18966582Y-42480211D01*
X-18954618Y-42395816D01*
X-18945021Y-42287394D01*
X-18937532Y-42151140D01*
X-18931894Y-41983247D01*
X-18927847Y-41779911D01*
X-18925136Y-41537326D01*
X-18923501Y-41251687D01*
X-18922685Y-40919188D01*
X-18922429Y-40536023D01*
X-18922477Y-40098388D01*
X-18922569Y-39602477D01*
X-18922571Y-39535679D01*
X-18922491Y-39032157D01*
X-18922424Y-38587390D01*
X-18922627Y-38197573D01*
X-18923358Y-37858900D01*
X-18924876Y-37567567D01*
X-18927438Y-37319768D01*
X-18931302Y-37111697D01*
X-18936725Y-36939549D01*
X-18943967Y-36799519D01*
X-18953284Y-36687800D01*
X-18964936Y-36600588D01*
X-18979178Y-36534076D01*
X-18996271Y-36484461D01*
X-19016471Y-36447935D01*
X-19040036Y-36420694D01*
X-19067224Y-36398932D01*
X-19098294Y-36378844D01*
X-19133503Y-36356624D01*
X-19138245Y-36353483D01*
X-19244533Y-36282477D01*
X-22188122Y-36282594D01*
X-22683518Y-36282645D01*
X-23120204Y-36282808D01*
X-23502030Y-36283161D01*
X-23832848Y-36283779D01*
X-24116510Y-36284743D01*
X-24356865Y-36286127D01*
X-24557766Y-36288011D01*
X-24723063Y-36290470D01*
X-24856608Y-36293584D01*
X-24962251Y-36297429D01*
X-25043845Y-36302082D01*
X-25105239Y-36307621D01*
X-25150285Y-36314124D01*
X-25182835Y-36321667D01*
X-25206739Y-36330329D01*
X-25225848Y-36340186D01*
X-25231854Y-36343773D01*
X-25264344Y-36362568D01*
X-25293061Y-36379448D01*
X-25318238Y-36398172D01*
X-25340107Y-36422499D01*
X-25358899Y-36456191D01*
X-25374848Y-36503008D01*
X-25388184Y-36566709D01*
X-25399141Y-36651055D01*
X-25407950Y-36759807D01*
X-25414843Y-36896724D01*
X-25420053Y-37065566D01*
X-25423811Y-37270095D01*
X-25426351Y-37514069D01*
X-25427902Y-37801250D01*
X-25428699Y-38135398D01*
X-25428973Y-38520272D01*
X-25428956Y-38959633D01*
X-25428880Y-39457242D01*
X-25428877Y-39535679D01*
X-25428943Y-40042184D01*
X-25428983Y-40489888D01*
X-25460158Y-40489888D01*
X-25460158Y-39535679D01*
X-25460158Y-36970655D01*
X-25647843Y-36970655D01*
X-25835528Y-36970655D01*
X-25835528Y-36939374D01*
X-25804247Y-36939374D01*
X-25632203Y-36939374D01*
X-25460158Y-36939374D01*
X-25459697Y-36743869D01*
X-25449258Y-36584110D01*
X-25414006Y-36467886D01*
X-25346716Y-36378696D01*
X-25275212Y-36322517D01*
X-25242933Y-36301881D01*
X-25209407Y-36285666D01*
X-25167099Y-36273340D01*
X-25108480Y-36264368D01*
X-25026015Y-36258220D01*
X-24912172Y-36254361D01*
X-24759420Y-36252260D01*
X-24560226Y-36251383D01*
X-24307058Y-36251198D01*
X-24266862Y-36251197D01*
X-23364345Y-36251197D01*
X-23364345Y-36079152D01*
X-23364345Y-35907108D01*
X-24263668Y-35907414D01*
X-24525018Y-35907663D01*
X-24731764Y-35908583D01*
X-24891864Y-35910725D01*
X-25013275Y-35914641D01*
X-25103956Y-35920883D01*
X-25171864Y-35930002D01*
X-25224956Y-35942552D01*
X-25271191Y-35959083D01*
X-25318525Y-35980148D01*
X-25319622Y-35980659D01*
X-25508588Y-36101536D01*
X-25655629Y-36264406D01*
X-25755018Y-36460236D01*
X-25801026Y-36679989D01*
X-25803560Y-36743869D01*
X-25804247Y-36939374D01*
X-25835528Y-36939374D01*
X-25835528Y-36757262D01*
X-25819909Y-36539936D01*
X-25769284Y-36363268D01*
X-25677995Y-36212668D01*
X-25586339Y-36114450D01*
X-25516600Y-36050322D01*
X-25453897Y-35998855D01*
X-25390536Y-35958655D01*
X-25318825Y-35928332D01*
X-25231070Y-35906492D01*
X-25119578Y-35891744D01*
X-24976657Y-35882696D01*
X-24794613Y-35877955D01*
X-24565753Y-35876129D01*
X-24282385Y-35875827D01*
X-24267668Y-35875827D01*
X-23333065Y-35875827D01*
X-23333065Y-36063512D01*
X-23333065Y-36251197D01*
X-22942055Y-36251197D01*
X-22551045Y-36251197D01*
X-22551045Y-36016591D01*
X-22551045Y-35813266D01*
X-22519764Y-35813266D01*
X-22519764Y-36032231D01*
X-22519764Y-36251197D01*
X-22191316Y-36251197D01*
X-21862868Y-36251197D01*
X-21862868Y-36032231D01*
X-21862868Y-35813266D01*
X-22191316Y-35813266D01*
X-22519764Y-35813266D01*
X-22551045Y-35813266D01*
X-22551045Y-35781985D01*
X-22191316Y-35781985D01*
X-21831587Y-35781985D01*
X-21831587Y-36016591D01*
G37*
%TD.AperFunction*%
%TA.AperFunction,EtchedComponent*%
G36*
X-9472912Y-36622211D02*
G01*
X-9462735Y-36636464D01*
X-9453782Y-36655085D01*
X-9445976Y-36681937D01*
X-9439236Y-36720885D01*
X-9433486Y-36775791D01*
X-9428647Y-36850520D01*
X-9424641Y-36948933D01*
X-9421388Y-37074896D01*
X-9418812Y-37232270D01*
X-9416832Y-37424920D01*
X-9415372Y-37656709D01*
X-9414353Y-37931501D01*
X-9413695Y-38253158D01*
X-9413322Y-38625544D01*
X-9413154Y-39052523D01*
X-9413114Y-39537958D01*
X-9413114Y-39570426D01*
X-9413138Y-40059290D01*
X-9413264Y-40489443D01*
X-9413575Y-40864736D01*
X-9414152Y-41189020D01*
X-9415077Y-41466144D01*
X-9416433Y-41699960D01*
X-9418302Y-41894319D01*
X-9420765Y-42053070D01*
X-9423904Y-42180065D01*
X-9427803Y-42279154D01*
X-9432541Y-42354188D01*
X-9438203Y-42409018D01*
X-9444869Y-42447494D01*
X-9452622Y-42473467D01*
X-9461543Y-42490787D01*
X-9471715Y-42503305D01*
X-9475676Y-42507354D01*
X-9487404Y-42517988D01*
X-9502554Y-42527343D01*
X-9524975Y-42535502D01*
X-9558513Y-42542545D01*
X-9607018Y-42548556D01*
X-9674338Y-42553615D01*
X-9764321Y-42557806D01*
X-9880815Y-42561209D01*
X-10027668Y-42563906D01*
X-10208729Y-42565980D01*
X-10427846Y-42567512D01*
X-10688867Y-42568585D01*
X-10995641Y-42569279D01*
X-11352014Y-42569678D01*
X-11761837Y-42569862D01*
X-12228957Y-42569914D01*
X-12416070Y-42569916D01*
X-12905246Y-42569892D01*
X-13335709Y-42569766D01*
X-13711308Y-42569456D01*
X-14035889Y-42568880D01*
X-14313301Y-42567956D01*
X-14547394Y-42566603D01*
X-14742014Y-42564738D01*
X-14901009Y-42562279D01*
X-15028230Y-42559145D01*
X-15127522Y-42555254D01*
X-15202736Y-42550524D01*
X-15257718Y-42544873D01*
X-15296318Y-42538219D01*
X-15322383Y-42530481D01*
X-15339761Y-42521576D01*
X-15352302Y-42511422D01*
X-15356464Y-42507354D01*
X-15367103Y-42495619D01*
X-15376463Y-42480460D01*
X-15384625Y-42458026D01*
X-15391670Y-42424467D01*
X-15397682Y-42375933D01*
X-15402741Y-42308572D01*
X-15406931Y-42218534D01*
X-15410333Y-42101969D01*
X-15413029Y-41955025D01*
X-15415100Y-41773853D01*
X-15416489Y-41574735D01*
X-15387744Y-41574735D01*
X-15387576Y-41822418D01*
X-15386677Y-42015241D01*
X-15384462Y-42160907D01*
X-15380342Y-42267117D01*
X-15373730Y-42341572D01*
X-15364038Y-42391976D01*
X-15350678Y-42426028D01*
X-15333064Y-42451432D01*
X-15319730Y-42466237D01*
X-15251716Y-42538635D01*
X-12420453Y-42538635D01*
X-9589190Y-42538635D01*
X-9516793Y-42470621D01*
X-9494997Y-42448850D01*
X-9478083Y-42424382D01*
X-9465433Y-42389592D01*
X-9456428Y-42336856D01*
X-9450448Y-42258549D01*
X-9446874Y-42147045D01*
X-9445086Y-41994722D01*
X-9444466Y-41793953D01*
X-9444395Y-41579118D01*
X-9444395Y-40755630D01*
X-9508205Y-40819441D01*
X-9586048Y-40879484D01*
X-9651005Y-40913283D01*
X-9695653Y-40918477D01*
X-9797263Y-40923184D01*
X-9950239Y-40927405D01*
X-10148983Y-40931140D01*
X-10387899Y-40934388D01*
X-10661389Y-40937149D01*
X-10963857Y-40939425D01*
X-11289705Y-40941213D01*
X-11633336Y-40942516D01*
X-11989154Y-40943332D01*
X-12351561Y-40943661D01*
X-12714960Y-40943504D01*
X-13073754Y-40942861D01*
X-13422346Y-40941731D01*
X-13755140Y-40940115D01*
X-14066537Y-40938012D01*
X-14350942Y-40935423D01*
X-14602757Y-40932347D01*
X-14816384Y-40928785D01*
X-14986227Y-40924737D01*
X-15106689Y-40920202D01*
X-15172173Y-40915180D01*
X-15181134Y-40913283D01*
X-15265143Y-40866964D01*
X-15323934Y-40819441D01*
X-15387744Y-40755630D01*
X-15387744Y-41574735D01*
X-15416489Y-41574735D01*
X-15416630Y-41554601D01*
X-15417701Y-41293418D01*
X-15418393Y-40986455D01*
X-15418789Y-40629861D01*
X-15418972Y-40219784D01*
X-15419011Y-39859434D01*
X-15386832Y-39859434D01*
X-15386514Y-40092384D01*
X-15385304Y-40276049D01*
X-15382824Y-40417068D01*
X-15378694Y-40522080D01*
X-15372538Y-40597724D01*
X-15363976Y-40650637D01*
X-15352630Y-40687458D01*
X-15338122Y-40714827D01*
X-15320073Y-40739381D01*
X-15320016Y-40739454D01*
X-15297174Y-40768904D01*
X-15275267Y-40794747D01*
X-15250281Y-40817218D01*
X-15218201Y-40836557D01*
X-15175014Y-40852999D01*
X-15116704Y-40866783D01*
X-15039259Y-40878146D01*
X-14938663Y-40887326D01*
X-14810903Y-40894559D01*
X-14651964Y-40900084D01*
X-14457833Y-40904137D01*
X-14224495Y-40906956D01*
X-13947935Y-40908779D01*
X-13624141Y-40909843D01*
X-13249097Y-40910386D01*
X-12818790Y-40910644D01*
X-12422885Y-40910810D01*
X-11941620Y-40910882D01*
X-11519159Y-40910587D01*
X-11151742Y-40909865D01*
X-10835613Y-40908660D01*
X-10567012Y-40906915D01*
X-10342184Y-40904571D01*
X-10157368Y-40901571D01*
X-10008809Y-40897858D01*
X-9892747Y-40893374D01*
X-9805425Y-40888062D01*
X-9743086Y-40881865D01*
X-9701970Y-40874724D01*
X-9683248Y-40868903D01*
X-9589752Y-40812609D01*
X-9512208Y-40739562D01*
X-9494127Y-40714991D01*
X-9479591Y-40687657D01*
X-9468222Y-40650919D01*
X-9459642Y-40598140D01*
X-9453471Y-40522680D01*
X-9449331Y-40417899D01*
X-9446843Y-40277161D01*
X-9445628Y-40093824D01*
X-9445307Y-39861250D01*
X-9445501Y-39572801D01*
X-9445503Y-39570562D01*
X-9445970Y-39268720D01*
X-9447271Y-39022974D01*
X-9450275Y-38826857D01*
X-9455850Y-38673904D01*
X-9464866Y-38557648D01*
X-9478190Y-38471624D01*
X-9496693Y-38409365D01*
X-9521243Y-38364405D01*
X-9552709Y-38330279D01*
X-9591959Y-38300520D01*
X-9618548Y-38282769D01*
X-9654485Y-38262331D01*
X-9697763Y-38247054D01*
X-9757470Y-38236195D01*
X-9842694Y-38229013D01*
X-9962522Y-38224765D01*
X-10126042Y-38222708D01*
X-10342341Y-38222100D01*
X-10361204Y-38222092D01*
X-10604351Y-38223467D01*
X-10789905Y-38227720D01*
X-10916541Y-38234786D01*
X-10982933Y-38244600D01*
X-10992794Y-38253167D01*
X-10955110Y-38264051D01*
X-10860274Y-38272867D01*
X-10713669Y-38279368D01*
X-10520679Y-38283304D01*
X-10316989Y-38284448D01*
X-10098571Y-38284608D01*
X-9933906Y-38285704D01*
X-9814183Y-38288659D01*
X-9730593Y-38294393D01*
X-9674327Y-38303831D01*
X-9636575Y-38317895D01*
X-9608528Y-38337506D01*
X-9583736Y-38361228D01*
X-9506956Y-38438008D01*
X-9506956Y-39548154D01*
X-9506956Y-40658299D01*
X-9582450Y-40746066D01*
X-9657943Y-40833832D01*
X-12416070Y-40833832D01*
X-15174196Y-40833832D01*
X-15249689Y-40746066D01*
X-15325183Y-40658299D01*
X-15325183Y-39577112D01*
X-15293902Y-39577112D01*
X-15293664Y-39874517D01*
X-15292364Y-40115703D01*
X-15289124Y-40307014D01*
X-15283065Y-40454792D01*
X-15273310Y-40565381D01*
X-15258981Y-40645124D01*
X-15239198Y-40700362D01*
X-15213085Y-40737441D01*
X-15179762Y-40762701D01*
X-15138352Y-40782487D01*
X-15126331Y-40787445D01*
X-15085526Y-40791495D01*
X-14986831Y-40795225D01*
X-14834919Y-40798597D01*
X-14634462Y-40801576D01*
X-14390131Y-40804125D01*
X-14106599Y-40806209D01*
X-13788536Y-40807791D01*
X-13440615Y-40808836D01*
X-13067508Y-40809308D01*
X-12673887Y-40809170D01*
X-12374253Y-40808659D01*
X-9689211Y-40802551D01*
X-9613724Y-40714785D01*
X-9538237Y-40627018D01*
X-9538237Y-39578800D01*
X-9538550Y-39282168D01*
X-9539923Y-39041570D01*
X-9543010Y-38850476D01*
X-9548464Y-38702359D01*
X-9556939Y-38590692D01*
X-9569088Y-38508947D01*
X-9585565Y-38450596D01*
X-9607022Y-38409111D01*
X-9634114Y-38377965D01*
X-9660650Y-38355824D01*
X-9703528Y-38341184D01*
X-9791954Y-38330200D01*
X-9930285Y-38322623D01*
X-10122879Y-38318204D01*
X-10343717Y-38316723D01*
X-10977153Y-38315729D01*
X-10977153Y-38440852D01*
X-10977153Y-38565975D01*
X-10382818Y-38565975D01*
X-9788483Y-38565975D01*
X-9788483Y-39566960D01*
X-9788483Y-40567945D01*
X-12416070Y-40567945D01*
X-15043656Y-40567945D01*
X-15043656Y-40536665D01*
X-15012375Y-40536665D01*
X-12416070Y-40536665D01*
X-9819764Y-40536665D01*
X-9819764Y-39566960D01*
X-9819764Y-38597256D01*
X-10664345Y-38597256D01*
X-11508927Y-38597256D01*
X-11508927Y-38347009D01*
X-11508927Y-38096763D01*
X-12416070Y-38096763D01*
X-13323212Y-38096763D01*
X-13323212Y-38347009D01*
X-13323212Y-38597256D01*
X-14167794Y-38597256D01*
X-15012375Y-38597256D01*
X-15012375Y-39566960D01*
X-15012375Y-40536665D01*
X-15043656Y-40536665D01*
X-15043656Y-39566960D01*
X-15043656Y-38565975D01*
X-14449321Y-38565975D01*
X-13854986Y-38565975D01*
X-13854986Y-38442698D01*
X-13823705Y-38442698D01*
X-13816670Y-38520366D01*
X-13799126Y-38563107D01*
X-13792424Y-38565975D01*
X-13773871Y-38537994D01*
X-13762658Y-38467105D01*
X-13761143Y-38423365D01*
X-13767093Y-38336423D01*
X-13783429Y-38299091D01*
X-13792424Y-38300088D01*
X-13812419Y-38341102D01*
X-13823134Y-38418899D01*
X-13823705Y-38442698D01*
X-13854986Y-38442698D01*
X-13854986Y-38440852D01*
X-13854986Y-38315729D01*
X-14463489Y-38315729D01*
X-14698975Y-38316888D01*
X-14880007Y-38321354D01*
X-15014667Y-38330605D01*
X-15111035Y-38346121D01*
X-15177194Y-38369382D01*
X-15221225Y-38401867D01*
X-15251208Y-38445056D01*
X-15259172Y-38461413D01*
X-15270512Y-38519391D01*
X-15279610Y-38638773D01*
X-15286471Y-38819802D01*
X-15291104Y-39062723D01*
X-15293517Y-39367778D01*
X-15293902Y-39577112D01*
X-15325183Y-39577112D01*
X-15325183Y-39548154D01*
X-15325183Y-38438008D01*
X-15248403Y-38361228D01*
X-15221505Y-38335701D01*
X-15193002Y-38316570D01*
X-15154086Y-38302913D01*
X-15095947Y-38293807D01*
X-15009775Y-38288330D01*
X-14886761Y-38285560D01*
X-14718096Y-38284573D01*
X-14515150Y-38284448D01*
X-14285831Y-38282973D01*
X-14098165Y-38278713D01*
X-13957536Y-38271919D01*
X-13869326Y-38262839D01*
X-13839345Y-38253167D01*
X-13862314Y-38241449D01*
X-13946463Y-38232432D01*
X-14090469Y-38226182D01*
X-14293005Y-38222764D01*
X-14470935Y-38222092D01*
X-14691620Y-38222620D01*
X-14858833Y-38224541D01*
X-14981664Y-38228596D01*
X-15069200Y-38235529D01*
X-15130528Y-38246082D01*
X-15174736Y-38260997D01*
X-15210912Y-38281017D01*
X-15213591Y-38282769D01*
X-15257739Y-38312953D01*
X-15293600Y-38343766D01*
X-15322043Y-38381673D01*
X-15343937Y-38433140D01*
X-15360150Y-38504634D01*
X-15371551Y-38602620D01*
X-15379010Y-38733565D01*
X-15383394Y-38903934D01*
X-15385574Y-39120194D01*
X-15386417Y-39388811D01*
X-15386636Y-39570562D01*
X-15386832Y-39859434D01*
X-15419011Y-39859434D01*
X-15419023Y-39752374D01*
X-15419025Y-39570426D01*
X-15418990Y-39081197D01*
X-15418833Y-38650667D01*
X-15418554Y-38357915D01*
X-15387744Y-38357915D01*
X-15307085Y-38282080D01*
X-15280292Y-38258244D01*
X-15251602Y-38239904D01*
X-15212826Y-38226220D01*
X-15155776Y-38216348D01*
X-15072261Y-38209447D01*
X-14954093Y-38204676D01*
X-14793083Y-38201190D01*
X-14581040Y-38198150D01*
X-14478144Y-38196846D01*
X-13729863Y-38187445D01*
X-13729863Y-38376710D01*
X-13729863Y-38565975D01*
X-13542178Y-38565975D01*
X-13354493Y-38565975D01*
X-13354493Y-38315729D01*
X-13354493Y-38065482D01*
X-12416070Y-38065482D01*
X-11477646Y-38065482D01*
X-11477646Y-38315729D01*
X-11477646Y-38565975D01*
X-11289961Y-38565975D01*
X-11102277Y-38565975D01*
X-11102277Y-38423365D01*
X-11070996Y-38423365D01*
X-11064858Y-38507951D01*
X-11049309Y-38559072D01*
X-11039715Y-38565975D01*
X-11020007Y-38538251D01*
X-11009162Y-38469111D01*
X-11008434Y-38442698D01*
X-11015706Y-38359406D01*
X-11033766Y-38306017D01*
X-11039715Y-38300088D01*
X-11059592Y-38314926D01*
X-11069995Y-38382972D01*
X-11070996Y-38423365D01*
X-11102277Y-38423365D01*
X-11102277Y-38378290D01*
X-11102277Y-38190605D01*
X-10369578Y-38190605D01*
X-9636880Y-38190605D01*
X-9540637Y-38271588D01*
X-9444395Y-38352571D01*
X-9444395Y-37554688D01*
X-9445133Y-37335280D01*
X-9447210Y-37134954D01*
X-9450421Y-36962718D01*
X-9454557Y-36827580D01*
X-9459414Y-36738548D01*
X-9463826Y-36706169D01*
X-9473451Y-36682005D01*
X-9485176Y-36660746D01*
X-9502837Y-36642207D01*
X-9530273Y-36626202D01*
X-9571320Y-36612545D01*
X-9629815Y-36601048D01*
X-9709595Y-36591527D01*
X-9814498Y-36583796D01*
X-9948360Y-36577667D01*
X-10115020Y-36572955D01*
X-10318313Y-36569473D01*
X-10562077Y-36567036D01*
X-10850149Y-36565458D01*
X-11186366Y-36564551D01*
X-11574566Y-36564131D01*
X-12018585Y-36564010D01*
X-12394208Y-36564004D01*
X-12931184Y-36564311D01*
X-13407272Y-36565245D01*
X-13824144Y-36566827D01*
X-14183473Y-36569076D01*
X-14486928Y-36572013D01*
X-14736181Y-36575660D01*
X-14932904Y-36580035D01*
X-15078769Y-36585160D01*
X-15175446Y-36591055D01*
X-15224607Y-36597740D01*
X-15227333Y-36598576D01*
X-15305530Y-36639208D01*
X-15356509Y-36689240D01*
X-15357124Y-36690361D01*
X-15366052Y-36737967D01*
X-15373804Y-36840428D01*
X-15380106Y-36990046D01*
X-15384684Y-37179120D01*
X-15387266Y-37399953D01*
X-15387744Y-37552746D01*
X-15387744Y-38357915D01*
X-15418554Y-38357915D01*
X-15418475Y-38274972D01*
X-15417838Y-37950248D01*
X-15416843Y-37672632D01*
X-15415413Y-37438261D01*
X-15413468Y-37243271D01*
X-15410931Y-37083798D01*
X-15407724Y-36955980D01*
X-15403767Y-36855953D01*
X-15398982Y-36779854D01*
X-15393292Y-36723818D01*
X-15386617Y-36683983D01*
X-15378879Y-36656486D01*
X-15370001Y-36637463D01*
X-15359903Y-36623050D01*
X-15359227Y-36622211D01*
X-15299430Y-36548364D01*
X-12416070Y-36548364D01*
X-9532710Y-36548364D01*
X-9472912Y-36622211D01*
G37*
%TD.AperFunction*%
%TD*%
D10*
%TO.P,K25,1*%
%TO.N,/k25*%
X33000000Y-29950000D03*
D11*
X34290000Y-23510000D03*
D12*
X34290000Y-23510000D03*
X41910000Y-23510000D03*
D10*
X43200000Y-29950000D03*
D13*
%TO.P,K25,2*%
%TO.N,GND*%
X34199958Y-20509599D03*
D12*
X35560000Y-20970000D03*
D14*
X38100000Y-31950000D03*
X38100000Y-31950000D03*
D12*
X40640000Y-20970000D03*
D15*
X42000042Y-20509599D03*
%TD*%
D10*
%TO.P,K24,1*%
%TO.N,/k24*%
X13950000Y-27950000D03*
D11*
X15240000Y-21510000D03*
D12*
X15240000Y-21510000D03*
X22860000Y-21510000D03*
D10*
X24150000Y-27950000D03*
D13*
%TO.P,K24,2*%
%TO.N,GND*%
X15149958Y-18509599D03*
D12*
X16510000Y-18970000D03*
D14*
X19050000Y-29950000D03*
X19050000Y-29950000D03*
D12*
X21590000Y-18970000D03*
D15*
X22950042Y-18509599D03*
%TD*%
D10*
%TO.P,K21,1*%
%TO.N,/k21*%
X-43200000Y-39950000D03*
D11*
X-41910000Y-33510000D03*
D12*
X-41910000Y-33510000D03*
X-34290000Y-33510000D03*
D10*
X-33000000Y-39950000D03*
D13*
%TO.P,K21,2*%
%TO.N,GND*%
X-42000042Y-30509599D03*
D12*
X-40640000Y-30970000D03*
D14*
X-38100000Y-41950000D03*
X-38100000Y-41950000D03*
D12*
X-35560000Y-30970000D03*
D15*
X-34199958Y-30509599D03*
%TD*%
D10*
%TO.P,K02,1*%
%TO.N,/k02*%
X-24150000Y10150000D03*
D11*
X-22860000Y16590000D03*
D12*
X-22860000Y16590000D03*
X-15240000Y16590000D03*
D10*
X-13950000Y10150000D03*
D13*
%TO.P,K02,2*%
%TO.N,GND*%
X-22950042Y19590401D03*
D12*
X-21590000Y19130000D03*
D14*
X-19050000Y8150000D03*
X-19050000Y8150000D03*
D12*
X-16510000Y19130000D03*
D15*
X-15149958Y19590401D03*
%TD*%
D10*
%TO.P,K10,1*%
%TO.N,/k10*%
X-62250000Y-20900000D03*
D11*
X-60960000Y-14460000D03*
D12*
X-60960000Y-14460000D03*
X-53340000Y-14460000D03*
D10*
X-52050000Y-20900000D03*
D13*
%TO.P,K10,2*%
%TO.N,GND*%
X-61050042Y-11459599D03*
D12*
X-59690000Y-11920000D03*
D14*
X-57150000Y-22900000D03*
X-57150000Y-22900000D03*
D12*
X-54610000Y-11920000D03*
D15*
X-53249958Y-11459599D03*
%TD*%
D10*
%TO.P,K04,1*%
%TO.N,/k04*%
X13950000Y10150000D03*
D11*
X15240000Y16590000D03*
D12*
X15240000Y16590000D03*
X22860000Y16590000D03*
D10*
X24150000Y10150000D03*
D13*
%TO.P,K04,2*%
%TO.N,GND*%
X15149958Y19590401D03*
D12*
X16510000Y19130000D03*
D14*
X19050000Y8150000D03*
X19050000Y8150000D03*
D12*
X21590000Y19130000D03*
D15*
X22950042Y19590401D03*
%TD*%
D10*
%TO.P,K12,1*%
%TO.N,/k12*%
X-24150000Y-8900000D03*
D11*
X-22860000Y-2460000D03*
D12*
X-22860000Y-2460000D03*
X-15240000Y-2460000D03*
D10*
X-13950000Y-8900000D03*
D13*
%TO.P,K12,2*%
%TO.N,GND*%
X-22950042Y540401D03*
D12*
X-21590000Y80000D03*
D14*
X-19050000Y-10900000D03*
X-19050000Y-10900000D03*
D12*
X-16510000Y80000D03*
D15*
X-15149958Y540401D03*
%TD*%
D16*
%TO.P,K30,1*%
%TO.N,/k30*%
X10159314Y-51479654D03*
D17*
X10883123Y-44951729D03*
D12*
X10883123Y-44951729D03*
X18474126Y-44287602D03*
D16*
X20320500Y-50590665D03*
D18*
%TO.P,K30,2*%
%TO.N,GND*%
X10531921Y-41970593D03*
D12*
X11926914Y-42310707D03*
D19*
X15414219Y-53027549D03*
X15414219Y-53027549D03*
D12*
X16987583Y-41867955D03*
D20*
X18302323Y-41290771D03*
%TD*%
D10*
%TO.P,K01,1*%
%TO.N,/k01*%
X-43200000Y-1850000D03*
D11*
X-41910000Y4590000D03*
D12*
X-41910000Y4590000D03*
X-34290000Y4590000D03*
D10*
X-33000000Y-1850000D03*
D13*
%TO.P,K01,2*%
%TO.N,GND*%
X-42000042Y7590401D03*
D12*
X-40640000Y7130000D03*
D14*
X-38100000Y-3850000D03*
X-38100000Y-3850000D03*
D12*
X-35560000Y7130000D03*
D15*
X-34199958Y7590401D03*
%TD*%
D10*
%TO.P,K14,1*%
%TO.N,/k14*%
X13950000Y-8900000D03*
D11*
X15240000Y-2460000D03*
D12*
X15240000Y-2460000D03*
X22860000Y-2460000D03*
D10*
X24150000Y-8900000D03*
D13*
%TO.P,K14,2*%
%TO.N,GND*%
X15149958Y540401D03*
D12*
X16510000Y80000D03*
D14*
X19050000Y-10900000D03*
X19050000Y-10900000D03*
D12*
X21590000Y80000D03*
D15*
X22950042Y540401D03*
%TD*%
D10*
%TO.P,K23,1*%
%TO.N,/k23*%
X-5100000Y-22950000D03*
D11*
X-3810000Y-16510000D03*
D12*
X-3810000Y-16510000D03*
X3810000Y-16510000D03*
D10*
X5100000Y-22950000D03*
D13*
%TO.P,K23,2*%
%TO.N,GND*%
X-3900042Y-13509599D03*
D12*
X-2540000Y-13970000D03*
D14*
X0Y-24950000D03*
X0Y-24950000D03*
D12*
X2540000Y-13970000D03*
D15*
X3900042Y-13509599D03*
%TD*%
D10*
%TO.P,K03,1*%
%TO.N,/k03*%
X-5100000Y15150000D03*
D11*
X-3810000Y21590000D03*
D12*
X-3810000Y21590000D03*
X3810000Y21590000D03*
D10*
X5100000Y15150000D03*
D13*
%TO.P,K03,2*%
%TO.N,GND*%
X-3900042Y24590401D03*
D12*
X-2540000Y24130000D03*
D14*
X0Y13150000D03*
X0Y13150000D03*
D12*
X2540000Y24130000D03*
D15*
X3900042Y24590401D03*
%TD*%
D10*
%TO.P,K22,1*%
%TO.N,/k22*%
X-24150000Y-27950000D03*
D11*
X-22860000Y-21510000D03*
D12*
X-22860000Y-21510000D03*
X-15240000Y-21510000D03*
D10*
X-13950000Y-27950000D03*
D13*
%TO.P,K22,2*%
%TO.N,GND*%
X-22950042Y-18509599D03*
D12*
X-21590000Y-18970000D03*
D14*
X-19050000Y-29950000D03*
X-19050000Y-29950000D03*
D12*
X-16510000Y-18970000D03*
D15*
X-15149958Y-18509599D03*
%TD*%
D21*
%TO.P,J1,1,SLEEVE*%
%TO.N,+3V3*%
X63160000Y-33970000D03*
D22*
X63160000Y-36420000D03*
D23*
%TO.P,J1,2,TIP*%
%TO.N,GND*%
X64660000Y-32220000D03*
D24*
X64660000Y-38170000D03*
D25*
%TO.P,J1,3,RING1*%
%TO.N,/RX*%
X68660000Y-32220000D03*
X71660000Y-38170000D03*
%TO.P,J1,4,RING2*%
%TO.N,/TX*%
X71660000Y-32220000D03*
X68660000Y-38170000D03*
%TD*%
D10*
%TO.P,K15,1*%
%TO.N,/k15*%
X33000000Y-10900000D03*
D11*
X34290000Y-4460000D03*
D12*
X34290000Y-4460000D03*
X41910000Y-4460000D03*
D10*
X43200000Y-10900000D03*
D13*
%TO.P,K15,2*%
%TO.N,GND*%
X34199958Y-1459599D03*
D12*
X35560000Y-1920000D03*
D14*
X38100000Y-12900000D03*
X38100000Y-12900000D03*
D12*
X40640000Y-1920000D03*
D15*
X42000042Y-1459599D03*
%TD*%
D26*
%TO.P,K32,1*%
%TO.N,/k32*%
X51629619Y-56529247D03*
D27*
X55520418Y-51237803D03*
D12*
X55520418Y-51237803D03*
X62426483Y-54458154D03*
D26*
X60873958Y-60839954D03*
D28*
%TO.P,K32,2*%
%TO.N,GND*%
X56706836Y-48480462D03*
D12*
X57744879Y-49472506D03*
D29*
X55406552Y-60497216D03*
X55406552Y-60497216D03*
D12*
X62348923Y-51619407D03*
D30*
X63776113Y-51776920D03*
%TD*%
D10*
%TO.P,K11,1*%
%TO.N,/k11*%
X-43200000Y-20900000D03*
D11*
X-41910000Y-14460000D03*
D12*
X-41910000Y-14460000D03*
X-34290000Y-14460000D03*
D10*
X-33000000Y-20900000D03*
D13*
%TO.P,K11,2*%
%TO.N,GND*%
X-42000042Y-11459599D03*
D12*
X-40640000Y-11920000D03*
D14*
X-38100000Y-22900000D03*
X-38100000Y-22900000D03*
D12*
X-35560000Y-11920000D03*
D15*
X-34199958Y-11459599D03*
%TD*%
D31*
%TO.P,U1,1,PB12*%
%TO.N,unconnected-(U1-PB12-Pad1)*%
X53135000Y21430000D03*
X71035000Y21450000D03*
D32*
%TO.P,U1,2,PB13*%
%TO.N,/k05*%
X53135000Y18890000D03*
X71035000Y18910000D03*
%TO.P,U1,3,PB14*%
%TO.N,/k04*%
X53135000Y16350000D03*
X71035000Y16370000D03*
%TO.P,U1,4,PB15*%
%TO.N,/k03*%
X53135000Y13810000D03*
X71035000Y13830000D03*
%TO.P,U1,5,PA8*%
%TO.N,/k02*%
X53135000Y11270000D03*
X71035000Y11290000D03*
%TO.P,U1,6,PA9*%
%TO.N,unconnected-(U1-PA9-Pad6)*%
X53135000Y8730000D03*
X71035000Y8750000D03*
%TO.P,U1,7,PA10*%
%TO.N,unconnected-(U1-PA10-Pad7)*%
X53135000Y6190000D03*
X71035000Y6210000D03*
%TO.P,U1,8,PA11*%
%TO.N,unconnected-(U1-PA11-Pad8)*%
X53135000Y3650000D03*
X71035000Y3670000D03*
%TO.P,U1,9,PA12*%
%TO.N,unconnected-(U1-PA12-Pad9)*%
X53135000Y1110000D03*
X71035000Y1130000D03*
%TO.P,U1,10,PA15*%
%TO.N,/k15*%
X53135000Y-1430000D03*
X71035000Y-1410000D03*
%TO.P,U1,11,PB3*%
%TO.N,/k14*%
X53135000Y-3970000D03*
X71035000Y-3950000D03*
%TO.P,U1,12,PB4*%
%TO.N,/k13*%
X53135000Y-6510000D03*
X71035000Y-6490000D03*
%TO.P,U1,13,PB5*%
%TO.N,/k12*%
X53135000Y-9050000D03*
X71035000Y-9030000D03*
%TO.P,U1,14,PB6*%
%TO.N,/TX*%
X53135000Y-11590000D03*
X71035000Y-11570000D03*
%TO.P,U1,15,PB7*%
%TO.N,/RX*%
X53135000Y-14130000D03*
X71035000Y-14110000D03*
%TO.P,U1,16,PB8*%
%TO.N,/k11*%
X53135000Y-16670000D03*
X71035000Y-16650000D03*
%TO.P,U1,17,PB9*%
%TO.N,/k10*%
X53135000Y-19210000D03*
X71035000Y-19190000D03*
%TO.P,U1,18,5V*%
%TO.N,unconnected-(U1-5V-Pad18)*%
X53135000Y-21750000D03*
X71035000Y-21730000D03*
%TO.P,U1,19,GND*%
%TO.N,GND*%
X53135000Y-24290000D03*
X71035000Y-24270000D03*
%TO.P,U1,20,3V3*%
%TO.N,+3V3*%
X53135000Y-26830000D03*
X71035000Y-26810000D03*
%TO.P,U1,21,VBat*%
%TO.N,unconnected-(U1-VBat-Pad21)*%
X55795000Y-26810000D03*
X68375000Y-26830000D03*
%TO.P,U1,22,PC13*%
%TO.N,unconnected-(U1-PC13-Pad22)*%
X55795000Y-24270000D03*
X68375000Y-24290000D03*
%TO.P,U1,23,PC14*%
%TO.N,unconnected-(U1-PC14-Pad23)*%
X55795000Y-21730000D03*
X68375000Y-21750000D03*
%TO.P,U1,24,PC15*%
%TO.N,unconnected-(U1-PC15-Pad24)*%
X55795000Y-19190000D03*
X68375000Y-19210000D03*
%TO.P,U1,25,RES*%
%TO.N,unconnected-(U1-RES-Pad25)*%
X55795000Y-16650000D03*
X68375000Y-16670000D03*
%TO.P,U1,26,PA0*%
%TO.N,/k32*%
X55795000Y-14110000D03*
X68375000Y-14130000D03*
%TO.P,U1,27,PA1*%
%TO.N,/k31*%
X55795000Y-11570000D03*
X68375000Y-11590000D03*
%TO.P,U1,28,PA2*%
%TO.N,/k30*%
X55795000Y-9030000D03*
X68375000Y-9050000D03*
%TO.P,U1,29,PA3*%
%TO.N,/k20*%
X55795000Y-6490000D03*
X68375000Y-6510000D03*
%TO.P,U1,30,PA4*%
%TO.N,/k21*%
X55795000Y-3950000D03*
X68375000Y-3970000D03*
%TO.P,U1,31,PA5*%
%TO.N,/k22*%
X55795000Y-1410000D03*
X68375000Y-1430000D03*
%TO.P,U1,32,PA6*%
%TO.N,/k23*%
X55795000Y1130000D03*
X68375000Y1110000D03*
%TO.P,U1,33,PA7*%
%TO.N,/k24*%
X55795000Y3670000D03*
X68375000Y3650000D03*
%TO.P,U1,34,PB0*%
%TO.N,/k25*%
X55795000Y6210000D03*
X68375000Y6190000D03*
%TO.P,U1,35,PB1*%
%TO.N,/k00*%
X55795000Y8750000D03*
X68375000Y8730000D03*
%TO.P,U1,36,PB2*%
%TO.N,unconnected-(U1-PB2-Pad36)*%
X55795000Y11290000D03*
X68375000Y11270000D03*
%TO.P,U1,37,PB10*%
%TO.N,/k01*%
X55795000Y13830000D03*
X68375000Y13810000D03*
%TO.P,U1,38,3V3*%
%TO.N,+3V3*%
X55795000Y16370000D03*
X68375000Y16350000D03*
%TO.P,U1,39,GND*%
%TO.N,GND*%
X55795000Y18910000D03*
X68375000Y18890000D03*
%TO.P,U1,40,5V*%
%TO.N,unconnected-(U1-5V-Pad40)*%
X55795000Y21450000D03*
X68375000Y21430000D03*
%TD*%
D10*
%TO.P,K05,1*%
%TO.N,/k05*%
X33000000Y8150000D03*
D11*
X34290000Y14590000D03*
D12*
X34290000Y14590000D03*
X41910000Y14590000D03*
D10*
X43200000Y8150000D03*
D13*
%TO.P,K05,2*%
%TO.N,GND*%
X34199958Y17590401D03*
D12*
X35560000Y17130000D03*
D14*
X38100000Y6150000D03*
X38100000Y6150000D03*
D12*
X40640000Y17130000D03*
D15*
X42000042Y17590401D03*
%TD*%
D10*
%TO.P,K20,1*%
%TO.N,/k20*%
X-62250000Y-39950000D03*
D11*
X-60960000Y-33510000D03*
D12*
X-60960000Y-33510000D03*
X-53340000Y-33510000D03*
D10*
X-52050000Y-39950000D03*
D13*
%TO.P,K20,2*%
%TO.N,GND*%
X-61050042Y-30509599D03*
D12*
X-59690000Y-30970000D03*
D14*
X-57150000Y-41950000D03*
X-57150000Y-41950000D03*
D12*
X-54610000Y-30970000D03*
D15*
X-53249958Y-30509599D03*
%TD*%
D10*
%TO.P,K13,1*%
%TO.N,/k13*%
X-5100000Y-3900000D03*
D11*
X-3810000Y2540000D03*
D12*
X-3810000Y2540000D03*
X3810000Y2540000D03*
D10*
X5100000Y-3900000D03*
D13*
%TO.P,K13,2*%
%TO.N,GND*%
X-3900042Y5540401D03*
D12*
X-2540000Y5080000D03*
D14*
X0Y-5900000D03*
X0Y-5900000D03*
D12*
X2540000Y5080000D03*
D15*
X3900042Y5540401D03*
%TD*%
D10*
%TO.P,K00,1*%
%TO.N,/k00*%
X-62250000Y-1850000D03*
D11*
X-60960000Y4590000D03*
D12*
X-60960000Y4590000D03*
X-53340000Y4590000D03*
D10*
X-52050000Y-1850000D03*
D13*
%TO.P,K00,2*%
%TO.N,GND*%
X-61050042Y7590401D03*
D12*
X-59690000Y7130000D03*
D14*
X-57150000Y-3850000D03*
X-57150000Y-3850000D03*
D12*
X-54610000Y7130000D03*
D15*
X-53249958Y7590401D03*
%TD*%
D33*
%TO.P,REF\u002A\u002A,1*%
%TO.N,N/C*%
X-9480000Y-12910000D03*
X9570000Y6140000D03*
X9570000Y-31960000D03*
X28620000Y-12910000D03*
%TD*%
D34*
%TO.P,K31,1*%
%TO.N,/k31*%
X31200253Y-51105145D03*
D35*
X33588949Y-44986989D03*
D12*
X33588949Y-44986989D03*
X41093184Y-46310188D03*
D34*
X41245292Y-52876356D03*
D36*
%TO.P,K31,2*%
%TO.N,GND*%
X34021289Y-42016535D03*
D12*
X35280721Y-42706110D03*
D37*
X35875476Y-53960366D03*
X35875476Y-53960366D03*
D12*
X40283544Y-43588243D03*
D38*
X41702872Y-43371006D03*
%TD*%
D39*
%TO.N,/k25*%
X65570000Y3034550D03*
%TD*%
D40*
%TO.N,+3V3*%
X65906981Y-28800000D02*
X67918018Y-28800000D01*
X62649432Y-31845000D02*
X62649432Y-32398405D01*
X63160000Y-33270000D02*
X63160000Y-36420000D01*
X63983103Y-29596896D02*
X63296032Y-30283966D01*
X63160000Y-33270000D02*
X62904716Y-33014716D01*
X69841896Y-28003103D02*
X71035000Y-26810000D01*
X65906981Y-28799994D02*
G75*
G03*
X63983103Y-29596896I19J-2720806D01*
G01*
X67918018Y-28800004D02*
G75*
G03*
X69841895Y-28003102I-18J2720804D01*
G01*
X63296026Y-30283960D02*
G75*
G03*
X62649432Y-31845000I1561074J-1561040D01*
G01*
X62649421Y-32398405D02*
G75*
G03*
X62904717Y-33014715I871579J5D01*
G01*
D41*
%TO.N,/TX*%
X72040000Y-28440000D02*
X72420000Y-28060000D01*
X73080000Y-14741981D02*
X73080000Y-26466619D01*
X71660000Y-32220000D02*
X71660000Y-29357401D01*
X72283103Y-12818103D02*
X71035000Y-11570000D01*
X70863103Y-35966896D02*
X68660000Y-38170000D01*
X71660000Y-34043018D02*
X71660000Y-32220000D01*
X72419994Y-28059994D02*
G75*
G03*
X73080000Y-26466619I-1593394J1593394D01*
G01*
X70863100Y-35966893D02*
G75*
G03*
X71660000Y-34043018I-1923900J1923893D01*
G01*
X73080005Y-14741981D02*
G75*
G03*
X72283103Y-12818103I-2720805J-19D01*
G01*
X72040000Y-28440000D02*
G75*
G03*
X71660000Y-29357401I917400J-917400D01*
G01*
%TO.N,/RX*%
X69131231Y-30698768D02*
X71833592Y-27996407D01*
X71833592Y-14908592D02*
X71035000Y-14110000D01*
X72630489Y-26072529D02*
X72630489Y-16832470D01*
X72630505Y-16832470D02*
G75*
G03*
X71833592Y-14908592I-2720805J-30D01*
G01*
X69131224Y-30698761D02*
G75*
G03*
X68760000Y-31595000I896276J-896239D01*
G01*
X71833581Y-27996396D02*
G75*
G03*
X72630489Y-26072529I-1923881J1923896D01*
G01*
%TO.N,/k00*%
X-49576897Y-6683103D02*
X-51253104Y-5006896D01*
X55140000Y8095000D02*
X55795000Y8750000D01*
X14803103Y4916897D02*
X11146896Y8573104D01*
X-47653019Y-7480000D02*
X-35296982Y-7480000D01*
X48693103Y6643104D02*
X44848892Y2798893D01*
X-52050000Y-3083018D02*
X-52050000Y-1850000D01*
X-30720000Y-1486981D02*
X-30720000Y-2903018D01*
X29021107Y2798893D02*
X28496896Y3323104D01*
X-24962520Y4270499D02*
X-15060793Y4270499D01*
X53558690Y7440000D02*
X50616981Y7440000D01*
X-33373104Y-6683103D02*
X-31516897Y-4826896D01*
X-9631207Y8573104D02*
X-13136915Y5067396D01*
X16726981Y4120000D02*
X26573018Y4120000D01*
X42925014Y2001996D02*
X30944985Y2001996D01*
X-29923104Y436897D02*
X-26886398Y3473603D01*
X9223018Y9370000D02*
X-7707329Y9370000D01*
X-7707329Y9370013D02*
G75*
G03*
X-9631207Y8573104I29J-2720813D01*
G01*
X-52050005Y-3083018D02*
G75*
G03*
X-51253104Y-5006896I2720805J18D01*
G01*
X28496892Y3323100D02*
G75*
G03*
X26573018Y4120000I-1923892J-1923900D01*
G01*
X42925014Y2001996D02*
G75*
G03*
X44848891Y2798894I-14J2720804D01*
G01*
X11146892Y8573100D02*
G75*
G03*
X9223018Y9370000I-1923892J-1923900D01*
G01*
X-31516900Y-4826893D02*
G75*
G03*
X-30720000Y-2903018I-1923900J1923893D01*
G01*
X-35296982Y-7480004D02*
G75*
G03*
X-33373105Y-6683102I-18J2720804D01*
G01*
X14803107Y4916901D02*
G75*
G03*
X16726981Y4120000I1923893J1923899D01*
G01*
X-49576893Y-6683099D02*
G75*
G03*
X-47653019Y-7480000I1923893J1923899D01*
G01*
X-29923100Y436893D02*
G75*
G03*
X-30720000Y-1486981I1923900J-1923893D01*
G01*
X50616981Y7440006D02*
G75*
G03*
X48693103Y6643104I19J-2720806D01*
G01*
X29021108Y2798894D02*
G75*
G03*
X30944985Y2001996I1923892J1923906D01*
G01*
X-24962520Y4270506D02*
G75*
G03*
X-26886398Y3473603I20J-2720806D01*
G01*
X-15060793Y4270503D02*
G75*
G03*
X-13136915Y5067396I-7J2720797D01*
G01*
X53558690Y7440005D02*
G75*
G03*
X55139999Y8095001I10J2236295D01*
G01*
%TO.N,/k01*%
X52506981Y9990000D02*
X53075533Y9990000D01*
X55197500Y13232500D02*
X55795000Y13830000D01*
X50583103Y9193104D02*
X44638393Y3248394D01*
X42714515Y2451497D02*
X31131174Y2451497D01*
X14989292Y5366398D02*
X11333085Y9022605D01*
X-7893518Y9819501D02*
X9409207Y9819501D01*
X-27126897Y3923104D02*
X-32800000Y-1750000D01*
X29207296Y3248394D02*
X28683085Y3772605D01*
X-25203019Y4720000D02*
X-15246982Y4720000D01*
X16913170Y4569501D02*
X26759207Y4569501D01*
X54600000Y11514467D02*
X54600000Y11790008D01*
X-9817396Y9022605D02*
X-13323104Y5516897D01*
X42714515Y2451496D02*
G75*
G03*
X44638392Y3248395I-15J2720804D01*
G01*
X11333087Y9022607D02*
G75*
G03*
X9409207Y9819501I-1923887J-1923907D01*
G01*
X55197502Y13232498D02*
G75*
G03*
X54600000Y11790008I1442498J-1442498D01*
G01*
X-7893518Y9819506D02*
G75*
G03*
X-9817396Y9022605I18J-2720806D01*
G01*
X29207303Y3248401D02*
G75*
G03*
X31131174Y2451497I1923897J1923899D01*
G01*
X14989302Y5366408D02*
G75*
G03*
X16913170Y4569501I1923898J1923892D01*
G01*
X53075533Y9989987D02*
G75*
G03*
X54153493Y10436507I-33J1524513D01*
G01*
X54153484Y10436516D02*
G75*
G03*
X54600000Y11514467I-1077984J1077984D01*
G01*
X-15246982Y4719996D02*
G75*
G03*
X-13323105Y5516898I-18J2720804D01*
G01*
X52506981Y9990006D02*
G75*
G03*
X50583103Y9193104I19J-2720806D01*
G01*
X-25203019Y4720006D02*
G75*
G03*
X-27126897Y3923104I19J-2720806D01*
G01*
X28683087Y3772607D02*
G75*
G03*
X26759207Y4569501I-1923887J-1923907D01*
G01*
%TO.N,/k02*%
X11519274Y9472106D02*
X15175481Y5815899D01*
X29393485Y3697895D02*
X28869274Y4222106D01*
X17099359Y5019002D02*
X26945396Y5019002D01*
X51598716Y10868717D02*
X44427894Y3697895D01*
X9595396Y10269002D02*
X-14069002Y10269002D01*
X42504016Y2900998D02*
X31317363Y2900998D01*
X29393497Y3697907D02*
G75*
G03*
X31317363Y2900998I1923903J1923893D01*
G01*
X28869282Y4222114D02*
G75*
G03*
X26945396Y5019002I-1923882J-1923914D01*
G01*
X11519282Y9472114D02*
G75*
G03*
X9595396Y10269002I-1923882J-1923914D01*
G01*
X42504016Y2900996D02*
G75*
G03*
X44427893Y3697896I-16J2720804D01*
G01*
X52567500Y11269990D02*
G75*
G03*
X51598717Y10868716I0J-1370090D01*
G01*
X15175496Y5815914D02*
G75*
G03*
X17099359Y5019002I1923904J1923886D01*
G01*
%TO.N,/k03*%
X52113334Y12788335D02*
X53135000Y13810000D01*
X15361670Y6265400D02*
X6963937Y14663133D01*
X27131585Y5468503D02*
X17285548Y5468503D01*
X44241705Y4147396D02*
X51388476Y11294168D01*
X29579674Y4147396D02*
X29055463Y4671607D01*
X31503552Y3350499D02*
X42317827Y3350499D01*
X51396099Y11302720D02*
X51570042Y11476662D01*
X51393213Y11301524D02*
X51391523Y11301524D01*
X51393213Y11301514D02*
G75*
G03*
X51396099Y11302720I-13J4086D01*
G01*
X6963926Y14663122D02*
G75*
G03*
X5788535Y15150000I-1175426J-1175422D01*
G01*
X51570036Y11476668D02*
G75*
G03*
X51841690Y12132500I-655836J655832D01*
G01*
X42317827Y3350518D02*
G75*
G03*
X44241705Y4147396I-27J2720882D01*
G01*
X15361641Y6265371D02*
G75*
G03*
X17285548Y5468503I1923859J1923929D01*
G01*
X52113357Y12788312D02*
G75*
G03*
X51841690Y12132500I655743J-655812D01*
G01*
X29579692Y4147414D02*
G75*
G03*
X31503552Y3350499I1923908J1923886D01*
G01*
X51391496Y11301550D02*
G75*
G03*
X51390000Y11297846I3704J-3650D01*
G01*
X29055476Y4671620D02*
G75*
G03*
X27131585Y5468503I-1923876J-1923920D01*
G01*
X51388449Y11294195D02*
G75*
G03*
X51390000Y11297846I-3649J3705D01*
G01*
%TO.N,/k04*%
X31926981Y3800000D02*
X42129414Y3800000D01*
X51400000Y13842793D02*
X51400000Y13070586D01*
X53036782Y16251783D02*
X51946032Y15161033D01*
X30003103Y4596897D02*
X24556066Y10043934D01*
X44053292Y4596897D02*
X50603103Y11146708D01*
X42129414Y3799999D02*
G75*
G03*
X44053291Y4596898I-14J2720801D01*
G01*
X50603102Y11146709D02*
G75*
G03*
X51400000Y13070586I-1923902J1923891D01*
G01*
X30003107Y4596901D02*
G75*
G03*
X31926981Y3800000I1923893J1923899D01*
G01*
X51946023Y15161042D02*
G75*
G03*
X51400000Y13842793I1318277J-1318242D01*
G01*
%TO.N,/k05*%
X47766896Y8946897D02*
X50153103Y11333104D01*
X50950000Y15578019D02*
X50950000Y13256982D01*
X45843018Y8150000D02*
X43200000Y8150000D01*
X51746896Y17501897D02*
X53135000Y18890000D01*
X50153100Y11333107D02*
G75*
G03*
X50950000Y13256982I-1923900J1923893D01*
G01*
X45843018Y8149996D02*
G75*
G03*
X47766895Y8946898I-18J2720804D01*
G01*
X51746900Y17501893D02*
G75*
G03*
X50950000Y15578019I1923900J-1923893D01*
G01*
%TO.N,/k10*%
X-52050000Y-20900000D02*
X-52050000Y-22093018D01*
X51882963Y-18882963D02*
X51276896Y-18276896D01*
X5098828Y-10735898D02*
X8746033Y-14383103D01*
X27054221Y-17480000D02*
X49353018Y-17480000D01*
X-9972021Y-9939002D02*
X3174950Y-9939002D01*
X-35486982Y-26470000D02*
X-47673019Y-26470000D01*
X-27106398Y-15706397D02*
X-29903104Y-18503103D01*
X-52050000Y-20900000D02*
X-52050000Y-22100000D01*
X-51253104Y-24016896D02*
X-49596897Y-25673103D01*
X22500258Y-15180000D02*
X10669911Y-15180000D01*
X-11895899Y-10735898D02*
X-15272605Y-14112604D01*
X25130343Y-16683103D02*
X24424136Y-15976896D01*
X-30700000Y-21683018D02*
X-30700000Y-20426981D01*
X-31496897Y-23606896D02*
X-33563104Y-25673103D01*
X-17196483Y-14909501D02*
X-25182520Y-14909501D01*
X-17196483Y-14909504D02*
G75*
G03*
X-15272606Y-14112603I-17J2720804D01*
G01*
X-35486982Y-26470004D02*
G75*
G03*
X-33563105Y-25673102I-18J2720804D01*
G01*
X-52050005Y-22093018D02*
G75*
G03*
X-51253104Y-24016896I2720805J18D01*
G01*
X51882958Y-18882968D02*
G75*
G03*
X52672500Y-19210000I789542J789568D01*
G01*
X24424162Y-15976870D02*
G75*
G03*
X22500258Y-15180000I-1923862J-1923930D01*
G01*
X8746022Y-14383114D02*
G75*
G03*
X10669911Y-15180000I1923878J1923914D01*
G01*
X-25182520Y-14909494D02*
G75*
G03*
X-27106398Y-15706397I20J-2720806D01*
G01*
X51276892Y-18276900D02*
G75*
G03*
X49353018Y-17480000I-1923892J-1923900D01*
G01*
X-9972021Y-9938994D02*
G75*
G03*
X-11895899Y-10735898I21J-2720806D01*
G01*
X-31496900Y-23606893D02*
G75*
G03*
X-30700000Y-21683018I-1923900J1923893D01*
G01*
X-49596893Y-25673099D02*
G75*
G03*
X-47673019Y-26470000I1923893J1923899D01*
G01*
X5098858Y-10735868D02*
G75*
G03*
X3174950Y-9939002I-1923858J-1923932D01*
G01*
X-29903100Y-18503107D02*
G75*
G03*
X-30700000Y-20426981I1923900J-1923893D01*
G01*
X25130327Y-16683119D02*
G75*
G03*
X27054221Y-17480000I1923873J1923919D01*
G01*
%TO.N,/k11*%
X24610325Y-15527395D02*
X25316532Y-16233602D01*
X-27356897Y-15256896D02*
X-33000000Y-20900000D01*
X8932222Y-13933602D02*
X5285017Y-10286397D01*
X-12096398Y-10286397D02*
X-15473104Y-13663103D01*
X22686447Y-14730499D02*
X10856100Y-14730499D01*
X-33100000Y-20800000D02*
X-33100000Y-19950000D01*
X52055329Y-17030499D02*
X27240410Y-17030499D01*
X-17396982Y-14460000D02*
X-25433019Y-14460000D01*
X-10172520Y-9489501D02*
X3361139Y-9489501D01*
X-25433019Y-14459994D02*
G75*
G03*
X-27356897Y-15256896I19J-2720806D01*
G01*
X5285002Y-10286412D02*
G75*
G03*
X3361139Y-9489501I-1923902J-1923888D01*
G01*
X8932217Y-13933607D02*
G75*
G03*
X10856100Y-14730499I1923883J1923907D01*
G01*
X-17396982Y-14460004D02*
G75*
G03*
X-15473105Y-13663102I-18J2720804D01*
G01*
X25316522Y-16233612D02*
G75*
G03*
X27240410Y-17030499I1923878J1923912D01*
G01*
X-10172520Y-9489494D02*
G75*
G03*
X-12096398Y-10286397I20J-2720806D01*
G01*
X24610307Y-15527413D02*
G75*
G03*
X22686447Y-14730499I-1923907J-1923887D01*
G01*
X52055329Y-17030512D02*
G75*
G03*
X52697505Y-16764501I-29J908212D01*
G01*
%TO.N,/k12*%
X27426599Y-16580998D02*
X44477020Y-16580998D01*
X22872636Y-14280998D02*
X11042289Y-14280998D01*
X5331206Y-9696896D02*
X9118411Y-13484101D01*
X3407328Y-8900000D02*
X-13879290Y-8900000D01*
X46400898Y-15784101D02*
X53135000Y-9050000D01*
X24796514Y-15077894D02*
X25502721Y-15784101D01*
X25502716Y-15784106D02*
G75*
G03*
X27426599Y-16580998I1923884J1923906D01*
G01*
X44477020Y-16581004D02*
G75*
G03*
X46400897Y-15784100I-20J2720804D01*
G01*
X9118411Y-13484101D02*
G75*
G03*
X11042289Y-14280998I1923889J1923901D01*
G01*
X5331197Y-9696905D02*
G75*
G03*
X3407328Y-8900000I-1923897J-1923895D01*
G01*
X24796502Y-15077906D02*
G75*
G03*
X22872636Y-14280998I-1923902J-1923894D01*
G01*
%TO.N,/k13*%
X5776896Y-9506896D02*
X9304600Y-13034600D01*
X23058825Y-13831497D02*
X11228478Y-13831497D01*
X27612788Y-16131497D02*
X44290125Y-16131497D01*
X46214003Y-15334600D02*
X50726974Y-10821629D01*
X4980000Y-4805060D02*
X4980000Y-7583018D01*
X52073025Y-7571974D02*
X53135000Y-6510000D01*
X24982703Y-14628393D02*
X25688910Y-15334600D01*
X52073036Y-7571985D02*
G75*
G03*
X51400000Y-9196802I1624764J-1624815D01*
G01*
X24982696Y-14628400D02*
G75*
G03*
X23058825Y-13831497I-1923896J-1923900D01*
G01*
X50726983Y-10821638D02*
G75*
G03*
X51400000Y-9196802I-1624883J1624838D01*
G01*
X9304606Y-13034594D02*
G75*
G03*
X11228478Y-13831497I1923894J1923894D01*
G01*
X44290125Y-16131507D02*
G75*
G03*
X46214003Y-15334600I-25J2720807D01*
G01*
X4980016Y-4805060D02*
G75*
G03*
X4835000Y-4455000I-495116J-40D01*
G01*
X25688911Y-15334599D02*
G75*
G03*
X27612788Y-16131497I1923889J1923899D01*
G01*
X4979995Y-7583018D02*
G75*
G03*
X5776896Y-9506896I2720805J18D01*
G01*
%TO.N,/k14*%
X24370000Y-12253018D02*
X24370000Y-8900000D01*
X25875099Y-14885099D02*
X25166896Y-14176896D01*
X46027108Y-14885099D02*
X50153103Y-10759104D01*
X51746896Y-5203103D02*
X52980000Y-3970000D01*
X44103230Y-15681996D02*
X27798977Y-15681996D01*
X50950000Y-8835226D02*
X50950000Y-7126981D01*
X25875106Y-14885092D02*
G75*
G03*
X27798977Y-15681996I1923894J1923892D01*
G01*
X24369995Y-12253018D02*
G75*
G03*
X25166896Y-14176896I2720805J18D01*
G01*
X44103230Y-15682010D02*
G75*
G03*
X46027108Y-14885099I-30J2720810D01*
G01*
X51746900Y-5203107D02*
G75*
G03*
X50950000Y-7126981I1923900J-1923893D01*
G01*
X50153096Y-10759097D02*
G75*
G03*
X50950000Y-8835226I-1923896J1923897D01*
G01*
%TO.N,/k15*%
X50901896Y-3663103D02*
X53135000Y-1430000D01*
X48978018Y-4460000D02*
X41910000Y-4460000D01*
X48978018Y-4460004D02*
G75*
G03*
X50901895Y-3663102I-18J2720804D01*
G01*
%TO.N,/k20*%
X-31483105Y-43273103D02*
X-31476897Y-43266896D01*
X-33406982Y-44070000D02*
X-48973019Y-44070000D01*
X66800000Y-9321099D02*
X66800000Y-9017500D01*
X-7847329Y-28680000D02*
X-624052Y-28680000D01*
X67459377Y-7425622D02*
X68375000Y-6510000D01*
X64251440Y-17299944D02*
X64251440Y-23845888D01*
X9550410Y-36600499D02*
X51496826Y-36600499D01*
X-50896897Y-43273103D02*
X-51282790Y-42887210D01*
X-52050000Y-41035000D02*
X-52050000Y-39950000D01*
X7626532Y-35803602D02*
X1299826Y-29476896D01*
X65048336Y-15376066D02*
X65113704Y-15310697D01*
X65910601Y-13386820D02*
X65910601Y-11468299D01*
X-14650793Y-33229501D02*
X-24376830Y-33229501D01*
X-9771207Y-29476896D02*
X-12726915Y-32432604D01*
X-30680000Y-39532671D02*
X-30680000Y-41343018D01*
X63454543Y-25769766D02*
X53420704Y-35803602D01*
X-26300708Y-34026397D02*
X-29883104Y-37608793D01*
X-50896893Y-43273099D02*
G75*
G03*
X-48973019Y-44070000I1923893J1923899D01*
G01*
X1299857Y-29476865D02*
G75*
G03*
X-624052Y-28680000I-1923857J-1923935D01*
G01*
X-7847329Y-28679987D02*
G75*
G03*
X-9771207Y-29476896I29J-2720813D01*
G01*
X65048317Y-15376047D02*
G75*
G03*
X64251440Y-17299944I1923883J-1923853D01*
G01*
X63454542Y-25769765D02*
G75*
G03*
X64251440Y-23845888I-1923842J1923865D01*
G01*
X-52050006Y-41035000D02*
G75*
G03*
X-51282790Y-42887210I2619406J0D01*
G01*
X67459368Y-7425613D02*
G75*
G03*
X66800000Y-9017500I1591932J-1591887D01*
G01*
X65113700Y-15310693D02*
G75*
G03*
X65910601Y-13386820I-1923900J1923893D01*
G01*
X-33406982Y-44070004D02*
G75*
G03*
X-31483105Y-43273103I-18J2720804D01*
G01*
X-29883095Y-37608802D02*
G75*
G03*
X-30680000Y-39532671I1923895J-1923898D01*
G01*
X51496826Y-36600509D02*
G75*
G03*
X53420703Y-35803601I-26J2720809D01*
G01*
X7626522Y-35803612D02*
G75*
G03*
X9550410Y-36600499I1923878J1923912D01*
G01*
X-14650793Y-33229497D02*
G75*
G03*
X-12726915Y-32432604I-7J2720797D01*
G01*
X66355301Y-10394700D02*
G75*
G03*
X65910601Y-11468299I1073599J-1073600D01*
G01*
X-31476900Y-43266893D02*
G75*
G03*
X-30680000Y-41343018I-1923900J1923893D01*
G01*
X-24376830Y-33229487D02*
G75*
G03*
X-26300708Y-34026397I30J-2720813D01*
G01*
X66355301Y-10394700D02*
G75*
G03*
X66800000Y-9321099I-1073601J1073600D01*
G01*
%TO.N,/k21*%
X-26486897Y-33576896D02*
X-32810503Y-39900502D01*
X-24563019Y-32780000D02*
X-14836982Y-32780000D01*
X-12913104Y-31983103D02*
X-9957396Y-29027395D01*
X66350480Y-9134901D02*
X66350480Y-7121501D01*
X65461081Y-11282102D02*
X65461081Y-13200622D01*
X64664184Y-15124499D02*
X64598816Y-15189868D01*
X9736599Y-36150998D02*
X51257708Y-36150998D01*
X67147376Y-5197623D02*
X68375000Y-3970000D01*
X7812721Y-35354101D02*
X1486015Y-29027395D01*
X-437863Y-28230499D02*
X-8033518Y-28230499D01*
X53181586Y-35354101D02*
X63005023Y-25530666D01*
X63801920Y-17113746D02*
X63801920Y-23606788D01*
X51257708Y-36150996D02*
G75*
G03*
X53181586Y-35354101I-8J2720796D01*
G01*
X63005039Y-25530682D02*
G75*
G03*
X63801920Y-23606788I-1923939J1923882D01*
G01*
X-14836982Y-32780004D02*
G75*
G03*
X-12913105Y-31983102I-18J2720804D01*
G01*
X-8033518Y-28230494D02*
G75*
G03*
X-9957396Y-29027395I18J-2720806D01*
G01*
X7812716Y-35354106D02*
G75*
G03*
X9736599Y-36150998I1923884J1923906D01*
G01*
X64598792Y-15189844D02*
G75*
G03*
X63801920Y-17113746I1923908J-1923856D01*
G01*
X65905775Y-10208497D02*
G75*
G03*
X65461081Y-11282102I1073625J-1073603D01*
G01*
X1486002Y-29027408D02*
G75*
G03*
X-437863Y-28230499I-1923902J-1923892D01*
G01*
X65905775Y-10208497D02*
G75*
G03*
X66350480Y-9134901I-1073575J1073597D01*
G01*
X67147366Y-5197613D02*
G75*
G03*
X66350480Y-7121501I1923934J-1923887D01*
G01*
X64664175Y-15124490D02*
G75*
G03*
X65461081Y-13200622I-1923875J1923890D01*
G01*
X-24563019Y-32779994D02*
G75*
G03*
X-26486897Y-33576896I19J-2720806D01*
G01*
%TO.N,/k22*%
X51300066Y-35690905D02*
X51375918Y-35682358D01*
X65913928Y-6321893D02*
X65924566Y-6254741D01*
X65303259Y-10204724D02*
X65338322Y-10156463D01*
X8227686Y-35106312D02*
X8168006Y-35058718D01*
X65001071Y-13242979D02*
X64992523Y-13318835D01*
X63360585Y-16701398D02*
X63369131Y-16625544D01*
X62499117Y-25400881D02*
X53049381Y-34850614D01*
X65880289Y-9185905D02*
X65889622Y-9126981D01*
X66233331Y-5509365D02*
X66281432Y-5443162D01*
X1503100Y-28423782D02*
X1443420Y-28376189D01*
X63350000Y-17006295D02*
X63350000Y-23346670D01*
X-328021Y-27780998D02*
X-13980998Y-27780998D01*
X63945156Y-15234823D02*
X63992748Y-15175141D01*
X9999135Y-35701497D02*
X50995170Y-35701497D01*
X67594356Y-2210643D02*
X68375000Y-1430000D01*
X63339412Y-23651566D02*
X63330865Y-23727419D01*
X65497736Y-9979403D02*
X65414828Y-10065246D01*
X64368847Y-14769260D02*
X64416443Y-14709577D01*
X66426838Y-5283122D02*
X66654694Y-5055267D01*
X7944924Y-34850614D02*
X1726189Y-28631879D01*
X65032373Y-10858722D02*
X65023042Y-10917640D01*
X65900960Y-6593071D02*
X65900960Y-8889029D01*
X65609363Y-9839953D02*
X65574296Y-9888218D01*
X-23128Y-27791589D02*
X52726Y-27800137D01*
X9694239Y-35690907D02*
X9618386Y-35682360D01*
X52766616Y-35106308D02*
X52826296Y-35058715D01*
X62707221Y-25177799D02*
X62754814Y-25118119D01*
X64093622Y-15060759D02*
X64113458Y-15040396D01*
X64267953Y-14883626D02*
X64248110Y-14903985D01*
X66920851Y-3836629D02*
X66920851Y-4412707D01*
X65011561Y-12938074D02*
X65011561Y-11155573D01*
X64857043Y-13912393D02*
G75*
G03*
X64941449Y-13619418I-2566643J898093D01*
G01*
X66350899Y-5360378D02*
G75*
G03*
X66281432Y-5443162I556501J-537522D01*
G01*
X65824735Y-9417261D02*
G75*
G03*
X65880289Y-9185905I-1442235J468661D01*
G01*
X9694239Y-35690906D02*
G75*
G03*
X9846447Y-35700476I172861J1534206D01*
G01*
X63279794Y-24027992D02*
G75*
G03*
X63330864Y-23727419I-2650594J604992D01*
G01*
X63504596Y-16031999D02*
G75*
G03*
X63420196Y-16324967I2566104J-897901D01*
G01*
X65010590Y-13090767D02*
G75*
G03*
X65011561Y-12938074I-12017490J152767D01*
G01*
X64592879Y-14460923D02*
G75*
G03*
X64740362Y-14194075I-2302479J1446723D01*
G01*
X65987877Y-5991079D02*
G75*
G03*
X65924567Y-6254741I1643323J-534021D01*
G01*
X8476336Y-35282736D02*
G75*
G03*
X8743174Y-35430213I1446364J2301836D01*
G01*
X50995170Y-35701497D02*
G75*
G03*
X51147858Y-35700475I-170J11428797D01*
G01*
X63348980Y-23499358D02*
G75*
G03*
X63350000Y-23346670I-11472780J152958D01*
G01*
X51147858Y-35700471D02*
G75*
G03*
X51300066Y-35690904I-20658J1544271D01*
G01*
X-175334Y-27782018D02*
G75*
G03*
X-328021Y-27780998I-152566J-11405182D01*
G01*
X63351019Y-16853607D02*
G75*
G03*
X63350000Y-17006295I11405181J-152493D01*
G01*
X65497739Y-9979406D02*
G75*
G03*
X65574295Y-9888218I-611139J590806D01*
G01*
X52517967Y-35282733D02*
G75*
G03*
X52766616Y-35106307I-1446467J2302033D01*
G01*
X8743174Y-35430214D02*
G75*
G03*
X9024847Y-35546887I1179626J2449514D01*
G01*
X1726189Y-28631879D02*
G75*
G03*
X1617496Y-28524640I-8028189J-8028221D01*
G01*
X63339407Y-23651565D02*
G75*
G03*
X63348980Y-23499358I-1533807J172865D01*
G01*
X62606362Y-25292194D02*
G75*
G03*
X62707220Y-25177798I-1106462J1077194D01*
G01*
X65733686Y-9637084D02*
G75*
G03*
X65824742Y-9417263I-1350986J688384D01*
G01*
X9846447Y-35700475D02*
G75*
G03*
X9999135Y-35701497I152953J11449975D01*
G01*
X8227688Y-35106310D02*
G75*
G03*
X8476335Y-35282736I1694912J2125310D01*
G01*
X62754815Y-25118119D02*
G75*
G03*
X62931241Y-24869470I-2125615J1695119D01*
G01*
X66654697Y-5055270D02*
G75*
G03*
X66920851Y-4412707I-642597J642570D01*
G01*
X-23128Y-27791592D02*
G75*
G03*
X-175334Y-27782019I-172872J-1533808D01*
G01*
X65023037Y-10917639D02*
G75*
G03*
X65012635Y-11036240I846063J-133961D01*
G01*
X66233334Y-5509367D02*
G75*
G03*
X66091646Y-5740561I1397766J-1015633D01*
G01*
X66426838Y-5283122D02*
G75*
G03*
X66350904Y-5360383I4425062J-4424978D01*
G01*
X65902125Y-6457064D02*
G75*
G03*
X65900960Y-6593071I7945075J-136036D01*
G01*
X65913924Y-6321892D02*
G75*
G03*
X65902125Y-6457064I957776J-151708D01*
G01*
X63945158Y-15234825D02*
G75*
G03*
X63768734Y-15483477I2125042J-1694675D01*
G01*
X1617495Y-28524641D02*
G75*
G03*
X1503100Y-28423782I-1077895J-1107259D01*
G01*
X52251127Y-35430207D02*
G75*
G03*
X52517966Y-35282732I-1179827J2449907D01*
G01*
X63078715Y-24602630D02*
G75*
G03*
X63195391Y-24320957I-2449715J1179730D01*
G01*
X65087908Y-10627382D02*
G75*
G03*
X65032374Y-10858722I1442092J-468518D01*
G01*
X1443423Y-28376185D02*
G75*
G03*
X1194773Y-28199764I-1694923J-2125415D01*
G01*
X63621264Y-15750321D02*
G75*
G03*
X63504593Y-16031998I2449236J-1179479D01*
G01*
X51969456Y-35546884D02*
G75*
G03*
X52251129Y-35430210I-897956J2566184D01*
G01*
X8053610Y-34957861D02*
G75*
G03*
X8168006Y-35058718I1076990J1106261D01*
G01*
X63195390Y-24320957D02*
G75*
G03*
X63279794Y-24027992I-2566490J898057D01*
G01*
X64180780Y-14972187D02*
G75*
G03*
X64113459Y-15040397I5136620J-5137013D01*
G01*
X65178952Y-10407579D02*
G75*
G03*
X65087912Y-10627383I1350748J-688221D01*
G01*
X51676491Y-35631288D02*
G75*
G03*
X51969456Y-35546883I-605091J2650888D01*
G01*
X64740364Y-14194076D02*
G75*
G03*
X64857042Y-13912393I-2449864J1179776D01*
G01*
X63360585Y-16701398D02*
G75*
G03*
X63351019Y-16853607I1533815J-172802D01*
G01*
X67594351Y-2210638D02*
G75*
G03*
X66920851Y-3836629I1625949J-1625962D01*
G01*
X63768735Y-15483477D02*
G75*
G03*
X63621261Y-15750320I2301865J-1446323D01*
G01*
X64416442Y-14709576D02*
G75*
G03*
X64592878Y-14460922I-2125742J1695276D01*
G01*
X9317814Y-35631285D02*
G75*
G03*
X9618386Y-35682359I605086J2650985D01*
G01*
X65889621Y-9126981D02*
G75*
G03*
X65899958Y-9008372I-839021J132881D01*
G01*
X65899958Y-9008372D02*
G75*
G03*
X65900960Y-8889029I-7135158J119572D01*
G01*
X65414828Y-10065246D02*
G75*
G03*
X65338323Y-10156463I615772J-594154D01*
G01*
X62931245Y-24869472D02*
G75*
G03*
X63078716Y-24602631I-2302345J1446572D01*
G01*
X65609367Y-9839956D02*
G75*
G03*
X65733687Y-9637085I-1226867J891356D01*
G01*
X65012634Y-11036240D02*
G75*
G03*
X65011561Y-11155573I6628866J-119260D01*
G01*
X353299Y-27851209D02*
G75*
G03*
X52726Y-27800137I-604999J-2650591D01*
G01*
X64941447Y-13619417D02*
G75*
G03*
X64992522Y-13318835I-2650547J605017D01*
G01*
X64180779Y-14972186D02*
G75*
G03*
X64248110Y-14903985I-5290779J5290586D01*
G01*
X63420200Y-16324968D02*
G75*
G03*
X63369132Y-16625544I2650400J-604932D01*
G01*
X9024849Y-35546882D02*
G75*
G03*
X9317813Y-35631289I898051J2566382D01*
G01*
X66091645Y-5740560D02*
G75*
G03*
X65987873Y-5991077I1539455J-784440D01*
G01*
X65001072Y-13242979D02*
G75*
G03*
X65010589Y-13090767I-1523772J171679D01*
G01*
X52826297Y-35058716D02*
G75*
G03*
X52940690Y-34957856I-962997J1207516D01*
G01*
X646262Y-27935615D02*
G75*
G03*
X353299Y-27851209I-897962J-2566085D01*
G01*
X62499117Y-25400881D02*
G75*
G03*
X62606361Y-25292193I-8095417J8095081D01*
G01*
X64267951Y-14883624D02*
G75*
G03*
X64368846Y-14769259I-1099651J1071824D01*
G01*
X51375918Y-35682355D02*
G75*
G03*
X51676491Y-35631286I-304418J2701755D01*
G01*
X64093619Y-15060756D02*
G75*
G03*
X63992748Y-15175141I1102881J-1074244D01*
G01*
X7944924Y-34850614D02*
G75*
G03*
X8053613Y-34957858I8084076J8084314D01*
G01*
X927934Y-28052286D02*
G75*
G03*
X646263Y-27935612I-1179634J-2449514D01*
G01*
X65303256Y-10204722D02*
G75*
G03*
X65178955Y-10407580I1226544J-891078D01*
G01*
X52940690Y-34957856D02*
G75*
G03*
X53049380Y-34850613I-7975090J8191456D01*
G01*
X1194773Y-28199764D02*
G75*
G03*
X927934Y-28052285I-1446373J-2301836D01*
G01*
%TO.N,/k23*%
X62850000Y-16794230D02*
X62850000Y-23287300D01*
X63646896Y-14870352D02*
X63765145Y-14752103D01*
X50885301Y-35251996D02*
X10108977Y-35251996D01*
X65451440Y-8762507D02*
X65451440Y-6296480D01*
X66470851Y-4219058D02*
X66470851Y-1750000D01*
X65928280Y-5145285D02*
X66199565Y-4873999D01*
X8185099Y-34455099D02*
X5926896Y-32196896D01*
X64562042Y-12828225D02*
X64562042Y-10909705D01*
X5130000Y-30273018D02*
X5130000Y-23001213D01*
X67261979Y-3020D02*
X68375000Y1110000D01*
X62053103Y-25211178D02*
X52809179Y-34455099D01*
X63646876Y-14870332D02*
G75*
G03*
X62850000Y-16794230I1923924J-1923868D01*
G01*
X5129995Y-30273018D02*
G75*
G03*
X5926896Y-32196896I2720805J18D01*
G01*
X50885301Y-35251989D02*
G75*
G03*
X52809178Y-34455098I-1J2720789D01*
G01*
X62053109Y-25211184D02*
G75*
G03*
X62850000Y-23287300I-1923909J1923884D01*
G01*
X65928285Y-5145290D02*
G75*
G03*
X65451440Y-6296480I1151215J-1151210D01*
G01*
X65006746Y-9836111D02*
G75*
G03*
X65451440Y-8762507I-1073646J1073611D01*
G01*
X63765126Y-14752084D02*
G75*
G03*
X64562042Y-12828225I-1923826J1923884D01*
G01*
X67261971Y-3012D02*
G75*
G03*
X66465083Y-1926898I1923929J-1923888D01*
G01*
X65006747Y-9836112D02*
G75*
G03*
X64562042Y-10909705I1073553J-1073588D01*
G01*
X66199591Y-4874025D02*
G75*
G03*
X66470851Y-4219058I-654991J654925D01*
G01*
X8185106Y-34455092D02*
G75*
G03*
X10108977Y-35251996I1923894J1923892D01*
G01*
%TO.N,/k24*%
X62400480Y-23101102D02*
X62400480Y-16608033D01*
X65479409Y-4958916D02*
X65747410Y-4690914D01*
X52622962Y-34005598D02*
X61603583Y-25024980D01*
X66812478Y2087479D02*
X68375000Y3650000D01*
X63315625Y-14565905D02*
X63197376Y-14684155D01*
X30205598Y-34005598D02*
X24150000Y-27950000D01*
X65001920Y-8576311D02*
X65001920Y-6110280D01*
X64112522Y-12642027D02*
X64112522Y-10723505D01*
X50699084Y-34802495D02*
X32129476Y-34802495D01*
X66015582Y-4043492D02*
X66015582Y163601D01*
X65478760Y-4959086D02*
X65479000Y-4959086D01*
X65747412Y-4690916D02*
G75*
G03*
X66015582Y-4043492I-647412J647416D01*
G01*
X65478761Y-4959087D02*
G75*
G03*
X65001920Y-6110280I1151239J-1151213D01*
G01*
X63197350Y-14684129D02*
G75*
G03*
X62400480Y-16608033I1923950J-1923871D01*
G01*
X64557221Y-9649908D02*
G75*
G03*
X65001920Y-8576311I-1073621J1073608D01*
G01*
X50699084Y-34802477D02*
G75*
G03*
X52622962Y-34005598I16J2720777D01*
G01*
X65479000Y-4959083D02*
G75*
G03*
X65479409Y-4958916I0J583D01*
G01*
X30205605Y-34005591D02*
G75*
G03*
X32129476Y-34802495I1923895J1923891D01*
G01*
X64557222Y-9649909D02*
G75*
G03*
X64112522Y-10723505I1073578J-1073591D01*
G01*
X61603583Y-25024980D02*
G75*
G03*
X62400480Y-23101102I-1923883J1923880D01*
G01*
X66812470Y2087487D02*
G75*
G03*
X66015582Y163601I1923930J-1923887D01*
G01*
X63315622Y-14565902D02*
G75*
G03*
X64112522Y-12642027I-1923922J1923902D01*
G01*
%TO.N,/k25*%
X54923018Y-29850000D02*
X43100000Y-29850000D01*
X65570000Y3034550D02*
X65568040Y3032591D01*
X64552401Y-5966510D02*
X64552401Y-8390111D01*
X62747855Y-14497958D02*
X62866105Y-14379707D01*
X61950960Y-16421836D02*
X61950960Y-22822058D01*
X63663002Y-10537309D02*
X63663002Y-12455829D01*
X61154063Y-24745936D02*
X56846896Y-29053103D01*
X65566081Y-3519269D02*
X65566081Y3027860D01*
X62747845Y-14497948D02*
G75*
G03*
X61950960Y-16421836I1923855J-1923852D01*
G01*
X54923018Y-29850004D02*
G75*
G03*
X56846895Y-29053102I-18J2720804D01*
G01*
X62866097Y-14379699D02*
G75*
G03*
X63663002Y-12455829I-1923897J1923899D01*
G01*
X65568014Y3032616D02*
G75*
G03*
X65566081Y3027860I4786J-4716D01*
G01*
X61154081Y-24745954D02*
G75*
G03*
X61950960Y-22822058I-1923881J1923854D01*
G01*
X64107697Y-9463705D02*
G75*
G03*
X64552401Y-8390111I-1073597J1073605D01*
G01*
X64107697Y-9463705D02*
G75*
G03*
X63663002Y-10537309I1073603J-1073595D01*
G01*
X65059260Y-4742909D02*
G75*
G03*
X65566081Y-3519269I-1223660J1223609D01*
G01*
X65059228Y-4742877D02*
G75*
G03*
X64552401Y-5966510I1223672J-1223623D01*
G01*
%TO.N,/k30*%
X67157017Y-10267982D02*
X68375000Y-9050000D01*
X19326180Y-50125556D02*
X20586370Y-50125556D01*
X66360121Y-12191860D02*
X66360121Y-13573018D01*
X64700960Y-17486142D02*
X64700960Y-24050678D01*
X51691635Y-37060000D02*
X28066981Y-37060000D01*
X63904063Y-25974556D02*
X53615513Y-36263103D01*
X20150193Y-43849806D02*
X26143103Y-37856896D01*
X65497855Y-15562264D02*
X65563224Y-15496896D01*
X51691635Y-37060016D02*
G75*
G03*
X53615512Y-36263102I-35J2720816D01*
G01*
X67157036Y-10268001D02*
G75*
G03*
X66360121Y-12191860I1923864J-1923899D01*
G01*
X19093262Y-44287581D02*
G75*
G03*
X20150193Y-43849806I38J1494681D01*
G01*
X63904071Y-25974564D02*
G75*
G03*
X64700960Y-24050678I-1923871J1923864D01*
G01*
X65563225Y-15496897D02*
G75*
G03*
X66360121Y-13573018I-1923925J1923897D01*
G01*
X28066981Y-37059994D02*
G75*
G03*
X26143103Y-37856896I19J-2720806D01*
G01*
X65497842Y-15562251D02*
G75*
G03*
X64700960Y-17486142I1923858J-1923849D01*
G01*
%TO.N,/k31*%
X65966397Y-15902884D02*
X66136375Y-15732905D01*
X45001018Y-45513291D02*
X64372604Y-26141705D01*
X65169501Y-17826762D02*
X65169501Y-24217827D01*
X67482906Y-12482093D02*
X68375000Y-11590000D01*
X43077140Y-46310188D02*
X41093184Y-46310188D01*
X43077140Y-46310211D02*
G75*
G03*
X45001017Y-45513290I-40J2720811D01*
G01*
X66136370Y-15732900D02*
G75*
G03*
X66809641Y-14107500I-1625370J1625400D01*
G01*
X64372596Y-26141697D02*
G75*
G03*
X65169501Y-24217827I-1923896J1923897D01*
G01*
X65966411Y-15902898D02*
G75*
G03*
X65169501Y-17826762I1923889J-1923902D01*
G01*
X67482909Y-12482096D02*
G75*
G03*
X66809641Y-14107500I1625391J-1625404D01*
G01*
%TO.N,/k32*%
X53280000Y-38996981D02*
X53280000Y-47870403D01*
X66415898Y-16089101D02*
X68375000Y-14130000D01*
X54076896Y-49794281D02*
X55520418Y-51237803D01*
X65619002Y-18012979D02*
X65619002Y-24404016D01*
X54076896Y-37073103D02*
X64822105Y-26327894D01*
X53280006Y-47870403D02*
G75*
G03*
X54076897Y-49794280I2720794J3D01*
G01*
X54076900Y-37073107D02*
G75*
G03*
X53280000Y-38996981I1923900J-1923893D01*
G01*
X64822103Y-26327892D02*
G75*
G03*
X65619002Y-24404016I-1923903J1923892D01*
G01*
X66415904Y-16089107D02*
G75*
G03*
X65619002Y-18012979I1923896J-1923893D01*
G01*
%TO.N,unconnected-(U1-PB12-Pad1)*%
X55303025Y20160000D02*
X68832832Y20160000D01*
X53769992Y20794992D02*
G75*
G03*
X55303025Y20160000I1533008J1533008D01*
G01*
X68832832Y20159987D02*
G75*
G03*
X70390000Y20805000I-32J2202213D01*
G01*
%TD*%
%TA.AperFunction,Conductor*%
%TO.N,/k15*%
G36*
X52361178Y-1109458D02*
G01*
X53131215Y-1427438D01*
X53137552Y-1433761D01*
X53319947Y-1875459D01*
X53455532Y-2203797D01*
X53455523Y-2212752D01*
X53449184Y-2219077D01*
X53448511Y-2219331D01*
X53022337Y-2365383D01*
X53021760Y-2365548D01*
X52689571Y-2442527D01*
X52689538Y-2442535D01*
X52537554Y-2483873D01*
X52408226Y-2519050D01*
X52408224Y-2519050D01*
X52408224Y-2519051D01*
X52408220Y-2519052D01*
X52123526Y-2667632D01*
X52123525Y-2667633D01*
X51789115Y-2953846D01*
X51780601Y-2956622D01*
X51773234Y-2953230D01*
X51611769Y-2791764D01*
X51608342Y-2783491D01*
X51611151Y-2775885D01*
X51897364Y-2441475D01*
X52045949Y-2156772D01*
X52122467Y-1875447D01*
X52199452Y-1543227D01*
X52199609Y-1542678D01*
X52345669Y-1116486D01*
X52351592Y-1109773D01*
X52360529Y-1109213D01*
X52361178Y-1109458D01*
G37*
%TD.AperFunction*%
%TD*%
%TA.AperFunction,Conductor*%
%TO.N,/k20*%
G36*
X67600648Y-6189238D02*
G01*
X68370890Y-6507222D01*
X68377229Y-6513547D01*
X68377238Y-6513569D01*
X68695336Y-7283331D01*
X68695329Y-7292285D01*
X68688991Y-7298612D01*
X68687877Y-7299008D01*
X68263229Y-7426054D01*
X68261599Y-7426417D01*
X67902104Y-7479978D01*
X67902091Y-7479981D01*
X67605210Y-7545487D01*
X67357663Y-7711949D01*
X67150549Y-8059807D01*
X67143372Y-8065162D01*
X67136019Y-8064630D01*
X66925069Y-7977254D01*
X66918737Y-7970922D01*
X66918678Y-7962112D01*
X67089959Y-7532582D01*
X67204768Y-7216273D01*
X67299328Y-6941278D01*
X67414119Y-6625026D01*
X67414160Y-6624917D01*
X67585315Y-6195718D01*
X67591563Y-6189304D01*
X67600517Y-6189185D01*
X67600648Y-6189238D01*
G37*
%TD.AperFunction*%
%TD*%
%TA.AperFunction,Conductor*%
%TO.N,/k22*%
G36*
X67600844Y-1109319D02*
G01*
X67617013Y-1115994D01*
X68370890Y-1427222D01*
X68377229Y-1433547D01*
X68377238Y-1433569D01*
X68695269Y-2203170D01*
X68695262Y-2212124D01*
X68688924Y-2218451D01*
X68687660Y-2218891D01*
X68302852Y-2328470D01*
X68300930Y-2328847D01*
X67970319Y-2365304D01*
X67970303Y-2365306D01*
X67695012Y-2410237D01*
X67465428Y-2548792D01*
X67276262Y-2857698D01*
X67269019Y-2862964D01*
X67261807Y-2862397D01*
X67050552Y-2774895D01*
X67044220Y-2768564D01*
X67044086Y-2759946D01*
X67193898Y-2363935D01*
X67281873Y-2067493D01*
X67347879Y-1807851D01*
X67347932Y-1807662D01*
X67435826Y-1511497D01*
X67435934Y-1511177D01*
X67585436Y-1115993D01*
X67591568Y-1109469D01*
X67600519Y-1109191D01*
X67600844Y-1109319D01*
G37*
%TD.AperFunction*%
%TD*%
%TA.AperFunction,Conductor*%
%TO.N,+3V3*%
G36*
X63167456Y-33975166D02*
G01*
X64000469Y-34664081D01*
X64004661Y-34671994D01*
X64002029Y-34680553D01*
X64001602Y-34681042D01*
X63890002Y-34801697D01*
X63769993Y-34966382D01*
X63769991Y-34966384D01*
X63650005Y-35165970D01*
X63649997Y-35165984D01*
X63530001Y-35400518D01*
X63413090Y-35663060D01*
X63406594Y-35669223D01*
X63402402Y-35670000D01*
X62917598Y-35670000D01*
X62909325Y-35666573D01*
X62906910Y-35663060D01*
X62789998Y-35400518D01*
X62780764Y-35382470D01*
X62670000Y-35165979D01*
X62618571Y-35080433D01*
X62550008Y-34966384D01*
X62550006Y-34966382D01*
X62550000Y-34966372D01*
X62430000Y-34801700D01*
X62318396Y-34681040D01*
X62315295Y-34672641D01*
X62319041Y-34664508D01*
X62319518Y-34664091D01*
X63152544Y-33975165D01*
X63161103Y-33972534D01*
X63167456Y-33975166D01*
G37*
%TD.AperFunction*%
%TD*%
%TA.AperFunction,Conductor*%
%TO.N,/k02*%
G36*
X-13334965Y10882806D02*
G01*
X-13089817Y10709084D01*
X-13089809Y10709080D01*
X-13089808Y10709079D01*
X-12835789Y10569568D01*
X-12835787Y10569567D01*
X-12835781Y10569564D01*
X-12677584Y10507901D01*
X-12581750Y10470545D01*
X-12581747Y10470544D01*
X-12581744Y10470543D01*
X-12581742Y10470543D01*
X-12581740Y10470542D01*
X-12327724Y10412026D01*
X-12327719Y10412026D01*
X-12327708Y10412023D01*
X-12084543Y10394774D01*
X-12076534Y10390770D01*
X-12073672Y10383103D01*
X-12073671Y10153064D01*
X-12077098Y10144791D01*
X-12082445Y10141736D01*
X-12327703Y10078384D01*
X-12581737Y9972264D01*
X-12581750Y9972257D01*
X-12835785Y9825637D01*
X-13089817Y9638518D01*
X-13334757Y9419047D01*
X-13343206Y9416079D01*
X-13351279Y9419953D01*
X-13351606Y9420334D01*
X-13944899Y10142573D01*
X-13947502Y10151141D01*
X-13944899Y10157427D01*
X-13350768Y10880687D01*
X-13342869Y10884903D01*
X-13334965Y10882806D01*
G37*
%TD.AperFunction*%
%TD*%
%TA.AperFunction,Conductor*%
%TO.N,/k01*%
G36*
X55790640Y13832845D02*
G01*
X55796978Y13826522D01*
X55796986Y13826503D01*
X56115421Y13056453D01*
X56115416Y13047498D01*
X56109080Y13041170D01*
X56108167Y13040836D01*
X55701482Y12911025D01*
X55700986Y12910890D01*
X55348149Y12831572D01*
X55348139Y12831569D01*
X55068486Y12730826D01*
X54869788Y12532974D01*
X54762394Y12171832D01*
X54756751Y12164879D01*
X54749652Y12163567D01*
X54523279Y12193370D01*
X54515524Y12197848D01*
X54513205Y12206486D01*
X54577018Y12694106D01*
X54632521Y13048810D01*
X54632604Y13049226D01*
X54705162Y13350096D01*
X54705310Y13350604D01*
X54821931Y13688772D01*
X54822005Y13688972D01*
X55005294Y14144332D01*
X55011562Y14150726D01*
X55020516Y14150816D01*
X55790640Y13832845D01*
G37*
%TD.AperFunction*%
%TD*%
%TA.AperFunction,Conductor*%
%TO.N,/TX*%
G36*
X71667456Y-32225166D02*
G01*
X72499347Y-32913153D01*
X72503539Y-32921066D01*
X72500907Y-32929625D01*
X72499551Y-32931013D01*
X72365001Y-33047554D01*
X72364999Y-33047556D01*
X72220009Y-33210143D01*
X72219992Y-33210164D01*
X72075004Y-33409756D01*
X72075000Y-33409762D01*
X71929994Y-33646387D01*
X71929986Y-33646402D01*
X71788297Y-33913778D01*
X71781395Y-33919484D01*
X71777959Y-33920000D01*
X71542041Y-33920000D01*
X71533768Y-33916573D01*
X71531703Y-33913778D01*
X71390012Y-33646402D01*
X71390004Y-33646387D01*
X71390002Y-33646384D01*
X71389999Y-33646378D01*
X71244999Y-33409764D01*
X71244998Y-33409762D01*
X71244994Y-33409756D01*
X71100006Y-33210164D01*
X71099989Y-33210143D01*
X71046023Y-33149627D01*
X70955000Y-33047556D01*
X70820447Y-32931012D01*
X70816438Y-32923006D01*
X70819264Y-32914509D01*
X70820647Y-32913157D01*
X71652544Y-32225165D01*
X71661103Y-32222534D01*
X71667456Y-32225166D01*
G37*
%TD.AperFunction*%
%TD*%
%TA.AperFunction,Conductor*%
%TO.N,/k10*%
G36*
X51468269Y-18289333D02*
G01*
X51570024Y-18363936D01*
X51781501Y-18518984D01*
X52064358Y-18566434D01*
X52064358Y-18566433D01*
X52064359Y-18566434D01*
X52064359Y-18566433D01*
X52354036Y-18503750D01*
X52694922Y-18409186D01*
X52696743Y-18408835D01*
X53122016Y-18361446D01*
X53130616Y-18363936D01*
X53134938Y-18371778D01*
X53135010Y-18373064D01*
X53135702Y-19205846D01*
X53132282Y-19214122D01*
X53132265Y-19214139D01*
X52542366Y-19802653D01*
X52534089Y-19806070D01*
X52525820Y-19802633D01*
X52525697Y-19802508D01*
X52216538Y-19483191D01*
X52216386Y-19483028D01*
X52000084Y-19241863D01*
X52000004Y-19241772D01*
X51920325Y-19149148D01*
X51817316Y-19029401D01*
X51600898Y-18788107D01*
X51291406Y-18468446D01*
X51288114Y-18460119D01*
X51291538Y-18452036D01*
X51453079Y-18290495D01*
X51461351Y-18287069D01*
X51468269Y-18289333D01*
G37*
%TD.AperFunction*%
%TD*%
%TA.AperFunction,Conductor*%
%TO.N,/k14*%
G36*
X24157585Y-8903663D02*
G01*
X25020993Y-9434444D01*
X25026247Y-9441696D01*
X25024833Y-9450538D01*
X25024162Y-9451516D01*
X24924617Y-9581755D01*
X24817216Y-9757889D01*
X24817211Y-9757897D01*
X24709818Y-9969625D01*
X24602410Y-10217001D01*
X24497865Y-10492452D01*
X24491725Y-10498970D01*
X24486926Y-10500000D01*
X24251505Y-10500000D01*
X24243232Y-10496573D01*
X24241567Y-10494474D01*
X24082827Y-10238940D01*
X24082814Y-10238920D01*
X23920642Y-10014973D01*
X23920639Y-10014969D01*
X23758462Y-9828127D01*
X23596282Y-9678392D01*
X23446027Y-9574051D01*
X23441187Y-9566517D01*
X23443091Y-9557767D01*
X23444719Y-9555888D01*
X24143485Y-8905067D01*
X24151873Y-8901937D01*
X24157585Y-8903663D01*
G37*
%TD.AperFunction*%
%TD*%
%TA.AperFunction,Conductor*%
%TO.N,/k10*%
G36*
X-52043007Y-20904417D02*
G01*
X-51262535Y-21498791D01*
X-51258030Y-21506530D01*
X-51260316Y-21515188D01*
X-51263376Y-21517991D01*
X-51384063Y-21594222D01*
X-51518967Y-21709089D01*
X-51518979Y-21709101D01*
X-51653906Y-21853647D01*
X-51788822Y-22027840D01*
X-51788833Y-22027855D01*
X-51920729Y-22227144D01*
X-51928153Y-22232152D01*
X-51929176Y-22232313D01*
X-52164951Y-22258880D01*
X-52173556Y-22256401D01*
X-52176100Y-22253585D01*
X-52307563Y-22049186D01*
X-52442956Y-21868977D01*
X-52578349Y-21719069D01*
X-52589646Y-21709089D01*
X-52713735Y-21599465D01*
X-52713741Y-21599461D01*
X-52713742Y-21599460D01*
X-52835398Y-21519213D01*
X-52840417Y-21511797D01*
X-52838723Y-21503004D01*
X-52836069Y-21500158D01*
X-52057204Y-20904431D01*
X-52048551Y-20902127D01*
X-52043007Y-20904417D01*
G37*
%TD.AperFunction*%
%TD*%
%TA.AperFunction,Conductor*%
%TO.N,/k25*%
G36*
X65790217Y2943380D02*
G01*
X65796526Y2937024D01*
X65796510Y2928111D01*
X65756605Y2831741D01*
X65751760Y2820037D01*
X65751668Y2819816D01*
X65719684Y2732992D01*
X65719684Y2732990D01*
X65701358Y2655337D01*
X65693042Y2563809D01*
X65691257Y2446851D01*
X65687704Y2438632D01*
X65679558Y2435330D01*
X65452675Y2435330D01*
X65444402Y2438757D01*
X65440975Y2446923D01*
X65440659Y2481288D01*
X65439905Y2563562D01*
X65439904Y2563575D01*
X65439904Y2563588D01*
X65433471Y2655204D01*
X65433471Y2655205D01*
X65429304Y2675422D01*
X65417421Y2733086D01*
X65417420Y2733089D01*
X65417420Y2733091D01*
X65396356Y2794081D01*
X65387393Y2820035D01*
X65343396Y2928151D01*
X65343452Y2937103D01*
X65349715Y2943352D01*
X65565484Y3033661D01*
X65574437Y3033693D01*
X65790217Y2943380D01*
G37*
%TD.AperFunction*%
%TD*%
%TA.AperFunction,Conductor*%
%TO.N,/k12*%
G36*
X52361178Y-8729458D02*
G01*
X53131215Y-9047438D01*
X53137552Y-9053761D01*
X53319947Y-9495459D01*
X53455532Y-9823797D01*
X53455523Y-9832752D01*
X53449184Y-9839077D01*
X53448511Y-9839331D01*
X53022337Y-9985383D01*
X53021760Y-9985548D01*
X52689571Y-10062527D01*
X52689538Y-10062535D01*
X52537553Y-10103874D01*
X52408227Y-10139050D01*
X52408225Y-10139050D01*
X52408225Y-10139051D01*
X52408221Y-10139052D01*
X52123526Y-10287632D01*
X52123525Y-10287633D01*
X51789116Y-10573846D01*
X51780602Y-10576622D01*
X51773235Y-10573230D01*
X51611769Y-10411764D01*
X51608342Y-10403491D01*
X51611151Y-10395885D01*
X51897364Y-10061475D01*
X52045949Y-9776772D01*
X52122467Y-9495447D01*
X52199452Y-9163227D01*
X52199609Y-9162678D01*
X52345669Y-8736486D01*
X52351592Y-8729773D01*
X52360529Y-8729213D01*
X52361178Y-8729458D01*
G37*
%TD.AperFunction*%
%TD*%
%TA.AperFunction,Conductor*%
%TO.N,/TX*%
G36*
X71786232Y-30523427D02*
G01*
X71788297Y-30526222D01*
X71929986Y-30793596D01*
X71929994Y-30793611D01*
X72075000Y-31030236D01*
X72075004Y-31030242D01*
X72219992Y-31229833D01*
X72220009Y-31229854D01*
X72283826Y-31301417D01*
X72364999Y-31392442D01*
X72499551Y-31508985D01*
X72503561Y-31516992D01*
X72500735Y-31525489D01*
X72499347Y-31526845D01*
X71667456Y-32214833D01*
X71658897Y-32217465D01*
X71652544Y-32214833D01*
X70820652Y-31526845D01*
X70816460Y-31518932D01*
X70819092Y-31510373D01*
X70820439Y-31508993D01*
X70955000Y-31392442D01*
X71100000Y-31229842D01*
X71244999Y-31030235D01*
X71389999Y-30793621D01*
X71531702Y-30526222D01*
X71538605Y-30520516D01*
X71542041Y-30520000D01*
X71777959Y-30520000D01*
X71786232Y-30523427D01*
G37*
%TD.AperFunction*%
%TD*%
%TA.AperFunction,Conductor*%
%TO.N,/k00*%
G36*
X-52043008Y-1854417D02*
G01*
X-51262111Y-2449154D01*
X-51257606Y-2456892D01*
X-51259892Y-2465550D01*
X-51262636Y-2468146D01*
X-51384074Y-2550454D01*
X-51384086Y-2550463D01*
X-51518994Y-2672447D01*
X-51518999Y-2672452D01*
X-51653908Y-2824982D01*
X-51788824Y-3008066D01*
X-51788844Y-3008096D01*
X-51920745Y-3216951D01*
X-51928060Y-3222117D01*
X-51929327Y-3222330D01*
X-52164784Y-3248861D01*
X-52173389Y-3246382D01*
X-52176062Y-3243361D01*
X-52192293Y-3216951D01*
X-52307569Y-3029378D01*
X-52322828Y-3008066D01*
X-52442972Y-2840258D01*
X-52526314Y-2743060D01*
X-52578366Y-2682353D01*
X-52713765Y-2555642D01*
X-52721107Y-2550463D01*
X-52836150Y-2469313D01*
X-52840935Y-2461744D01*
X-52838967Y-2453008D01*
X-52836518Y-2450462D01*
X-52057204Y-1854431D01*
X-52048551Y-1852128D01*
X-52043008Y-1854417D01*
G37*
%TD.AperFunction*%
%TD*%
%TA.AperFunction,Conductor*%
%TO.N,/k13*%
G36*
X52360819Y-6189308D02*
G01*
X53131007Y-6507279D01*
X53137346Y-6513604D01*
X53137356Y-6513627D01*
X53455323Y-7283297D01*
X53455314Y-7292251D01*
X53448976Y-7298578D01*
X53447830Y-7298983D01*
X53035842Y-7420937D01*
X53033990Y-7421325D01*
X52690521Y-7464797D01*
X52690504Y-7464800D01*
X52402020Y-7514030D01*
X52144580Y-7656840D01*
X51899504Y-7973103D01*
X51891728Y-7977543D01*
X51884406Y-7976068D01*
X51686543Y-7861829D01*
X51681092Y-7854725D01*
X51682069Y-7846191D01*
X51886615Y-7462643D01*
X51904077Y-7420937D01*
X52008932Y-7170489D01*
X52008931Y-7170489D01*
X52008935Y-7170482D01*
X52093616Y-6907940D01*
X52190530Y-6603386D01*
X52190608Y-6603161D01*
X52345425Y-6195966D01*
X52351567Y-6189453D01*
X52360518Y-6189190D01*
X52360819Y-6189308D01*
G37*
%TD.AperFunction*%
%TD*%
%TA.AperFunction,Conductor*%
%TO.N,/k30*%
G36*
X20862188Y-42975176D02*
G01*
X21023539Y-43136527D01*
X21026966Y-43144800D01*
X21023539Y-43153073D01*
X21023457Y-43153154D01*
X20969343Y-43206211D01*
X20599870Y-43568469D01*
X20506509Y-43659422D01*
X20269949Y-43889881D01*
X20269894Y-43889937D01*
X20001213Y-44175236D01*
X20001211Y-44175239D01*
X19752912Y-44490481D01*
X19490350Y-44892237D01*
X19482955Y-44897287D01*
X19474486Y-44895838D01*
X18479796Y-44292179D01*
X18474501Y-44284957D01*
X18474236Y-44280898D01*
X18602412Y-43118511D01*
X18606725Y-43110665D01*
X18615324Y-43108165D01*
X18616321Y-43108319D01*
X19108344Y-43206120D01*
X19108696Y-43206204D01*
X19425091Y-43293457D01*
X19557123Y-43329869D01*
X19557126Y-43329869D01*
X19557132Y-43329871D01*
X19858949Y-43372689D01*
X19978509Y-43389651D01*
X19978509Y-43389650D01*
X19978511Y-43389651D01*
X20401545Y-43298170D01*
X20847031Y-42973988D01*
X20855737Y-42971892D01*
X20862188Y-42975176D01*
G37*
%TD.AperFunction*%
%TD*%
%TA.AperFunction,Conductor*%
%TO.N,/k04*%
G36*
X25212897Y10324671D02*
G01*
X25217358Y10318328D01*
X25305558Y10005934D01*
X25305571Y10005890D01*
X25396599Y9722574D01*
X25396609Y9722544D01*
X25396617Y9722520D01*
X25396619Y9722517D01*
X25487660Y9478259D01*
X25578704Y9273097D01*
X25578708Y9273087D01*
X25665539Y9114712D01*
X25666512Y9105810D01*
X25663553Y9100814D01*
X25498989Y8936250D01*
X25490716Y8932823D01*
X25485410Y8934095D01*
X25168828Y9095190D01*
X25168823Y9095192D01*
X25168819Y9095194D01*
X24844657Y9219646D01*
X24844651Y9219648D01*
X24844650Y9219648D01*
X24520492Y9303598D01*
X24520482Y9303600D01*
X24196340Y9347049D01*
X24196346Y9347049D01*
X23888442Y9349852D01*
X23880201Y9353355D01*
X23876849Y9361659D01*
X23877491Y9365376D01*
X24147019Y10144139D01*
X24152964Y10150835D01*
X24156145Y10151851D01*
X25204174Y10326690D01*
X25212897Y10324671D01*
G37*
%TD.AperFunction*%
%TD*%
%TA.AperFunction,Conductor*%
%TO.N,/k24*%
G36*
X67601178Y3970542D02*
G01*
X68371215Y3652562D01*
X68377552Y3646239D01*
X68559947Y3204541D01*
X68695532Y2876203D01*
X68695523Y2867248D01*
X68689184Y2860923D01*
X68688511Y2860669D01*
X68262337Y2714617D01*
X68261760Y2714452D01*
X67929571Y2637473D01*
X67929538Y2637465D01*
X67777554Y2596127D01*
X67648226Y2560950D01*
X67648224Y2560950D01*
X67648224Y2560949D01*
X67648220Y2560948D01*
X67363526Y2412368D01*
X67363525Y2412367D01*
X67029115Y2126154D01*
X67020601Y2123378D01*
X67013234Y2126770D01*
X66851769Y2288236D01*
X66848342Y2296509D01*
X66851151Y2304115D01*
X67137364Y2638525D01*
X67285949Y2923228D01*
X67362467Y3204553D01*
X67439452Y3536773D01*
X67439609Y3537322D01*
X67585669Y3963514D01*
X67591592Y3970227D01*
X67600529Y3970787D01*
X67601178Y3970542D01*
G37*
%TD.AperFunction*%
%TD*%
%TA.AperFunction,Conductor*%
%TO.N,/RX*%
G36*
X71818070Y-13789346D02*
G01*
X71824395Y-13795685D01*
X71824532Y-13796036D01*
X71974578Y-14197042D01*
X71974707Y-14197431D01*
X72062127Y-14498683D01*
X72062168Y-14498831D01*
X72130999Y-14761653D01*
X72229409Y-15058300D01*
X72229417Y-15058320D01*
X72401064Y-15450723D01*
X72401240Y-15459676D01*
X72395422Y-15465953D01*
X72189464Y-15565139D01*
X72180523Y-15565641D01*
X72174687Y-15561140D01*
X72110496Y-15465953D01*
X71964370Y-15249268D01*
X71964367Y-15249266D01*
X71964366Y-15249265D01*
X71726298Y-15106512D01*
X71726296Y-15106511D01*
X71726295Y-15106511D01*
X71449146Y-15056461D01*
X71296419Y-15037146D01*
X71116869Y-15014438D01*
X71115047Y-15014058D01*
X70722214Y-14898959D01*
X70715238Y-14893344D01*
X70714276Y-14884441D01*
X70714686Y-14883274D01*
X71032711Y-14113590D01*
X71039036Y-14107255D01*
X71039035Y-14107255D01*
X71809116Y-13789335D01*
X71818070Y-13789346D01*
G37*
%TD.AperFunction*%
%TD*%
%TA.AperFunction,Conductor*%
%TO.N,/RX*%
G36*
X69138421Y-30531425D02*
G01*
X69139220Y-30532153D01*
X69304887Y-30697820D01*
X69307780Y-30702600D01*
X69391853Y-30971342D01*
X69476778Y-31209534D01*
X69476780Y-31209539D01*
X69476786Y-31209553D01*
X69561719Y-31414489D01*
X69562999Y-31417076D01*
X69646649Y-31586145D01*
X69724703Y-31713322D01*
X69726110Y-31722166D01*
X69720851Y-31729414D01*
X69719644Y-31730060D01*
X68667787Y-32216776D01*
X68658840Y-32217141D01*
X68653594Y-32213284D01*
X68049007Y-31425725D01*
X68046689Y-31417076D01*
X68051164Y-31409320D01*
X68053663Y-31407855D01*
X68257905Y-31320120D01*
X68475965Y-31184214D01*
X68694025Y-31006071D01*
X68912085Y-30785692D01*
X69121946Y-30532951D01*
X69129867Y-30528776D01*
X69138421Y-30531425D01*
G37*
%TD.AperFunction*%
%TD*%
%TA.AperFunction,Conductor*%
%TO.N,/k31*%
G36*
X41720799Y-45293074D02*
G01*
X41721593Y-45293600D01*
X42123460Y-45584088D01*
X42123760Y-45584322D01*
X42252045Y-45691097D01*
X42474331Y-45876111D01*
X42826729Y-46099187D01*
X43244085Y-46190724D01*
X43779793Y-46089874D01*
X43788556Y-46091711D01*
X43792999Y-46097508D01*
X43868373Y-46312908D01*
X43867871Y-46321848D01*
X43861194Y-46327815D01*
X43861164Y-46327826D01*
X43307915Y-46519698D01*
X42880933Y-46674617D01*
X42880898Y-46674630D01*
X42525743Y-46827854D01*
X42177070Y-47018421D01*
X42177049Y-47018433D01*
X41779001Y-47279161D01*
X41770202Y-47280828D01*
X41762981Y-47276049D01*
X41096570Y-46316749D01*
X41094664Y-46308000D01*
X41096164Y-46304025D01*
X41704735Y-45297034D01*
X41711946Y-45291727D01*
X41720799Y-45293074D01*
G37*
%TD.AperFunction*%
%TD*%
%TA.AperFunction,Conductor*%
%TO.N,/k21*%
G36*
X-31746606Y-38672479D02*
G01*
X-31581677Y-38837408D01*
X-31578250Y-38845681D01*
X-31579136Y-38850147D01*
X-31645228Y-39010183D01*
X-31645246Y-39010232D01*
X-31714314Y-39215374D01*
X-31714316Y-39215382D01*
X-31783387Y-39458432D01*
X-31783398Y-39458474D01*
X-31852480Y-39739477D01*
X-31852481Y-39739480D01*
X-31919346Y-40048159D01*
X-31924447Y-40055519D01*
X-31931942Y-40057324D01*
X-32993528Y-39951423D01*
X-33001421Y-39947192D01*
X-33003291Y-39943972D01*
X-33301549Y-39166498D01*
X-33301312Y-39157546D01*
X-33294816Y-39151383D01*
X-33291234Y-39150623D01*
X-32996443Y-39135394D01*
X-32685565Y-39078834D01*
X-32374687Y-38981774D01*
X-32063809Y-38844214D01*
X-31760691Y-38670598D01*
X-31751812Y-38669461D01*
X-31746606Y-38672479D01*
G37*
%TD.AperFunction*%
%TD*%
%TA.AperFunction,Conductor*%
%TO.N,unconnected-(U1-PB12-Pad1)*%
G36*
X70196486Y21863771D02*
G01*
X71031609Y21452404D01*
X71037515Y21445675D01*
X71037521Y21445657D01*
X71318366Y20615194D01*
X71317770Y20606259D01*
X71311031Y20600363D01*
X71307468Y20599747D01*
X70960569Y20594269D01*
X70597644Y20545038D01*
X70234718Y20452309D01*
X69871782Y20316075D01*
X69521655Y20142683D01*
X69512721Y20142083D01*
X69505978Y20147976D01*
X69505162Y20150140D01*
X69445565Y20372550D01*
X69446733Y20381428D01*
X69447277Y20382282D01*
X69592321Y20589145D01*
X69740491Y20843966D01*
X69888660Y21142287D01*
X70036830Y21484108D01*
X70180402Y21857473D01*
X70186568Y21863963D01*
X70195520Y21864192D01*
X70196486Y21863771D01*
G37*
%TD.AperFunction*%
%TD*%
%TA.AperFunction,Conductor*%
%TO.N,/k30*%
G36*
X67601108Y-8729428D02*
G01*
X68371129Y-9047363D01*
X68377468Y-9053687D01*
X68377478Y-9053711D01*
X68695367Y-9823401D01*
X68695358Y-9832356D01*
X68689019Y-9838681D01*
X68687970Y-9839057D01*
X68293325Y-9959583D01*
X68291481Y-9959987D01*
X67970462Y-10003538D01*
X67970454Y-10003539D01*
X67697287Y-10046930D01*
X67697285Y-10046931D01*
X67435597Y-10170659D01*
X67435596Y-10170660D01*
X67155618Y-10448000D01*
X67147329Y-10451388D01*
X67140089Y-10448835D01*
X66961328Y-10306275D01*
X66956997Y-10298438D01*
X66959011Y-10290458D01*
X67191157Y-9956020D01*
X67312130Y-9684272D01*
X67377602Y-9426765D01*
X67449421Y-9126338D01*
X67449580Y-9125795D01*
X67585623Y-8736392D01*
X67591586Y-8729713D01*
X67600527Y-8729207D01*
X67601108Y-8729428D01*
G37*
%TD.AperFunction*%
%TD*%
%TA.AperFunction,Conductor*%
%TO.N,/k32*%
G36*
X53735820Y-49141677D02*
G01*
X54052570Y-49607547D01*
X54052573Y-49607550D01*
X54335982Y-49793070D01*
X54422350Y-49849607D01*
X54839665Y-49950063D01*
X55202923Y-49988652D01*
X55304511Y-49999445D01*
X55304882Y-49999496D01*
X55805114Y-50086194D01*
X55812680Y-50090983D01*
X55814644Y-50099720D01*
X55814445Y-50100645D01*
X55522709Y-51231499D01*
X55517324Y-51238654D01*
X55513539Y-51240075D01*
X54370183Y-51454722D01*
X54361419Y-51452881D01*
X54356597Y-51445738D01*
X54251935Y-50970056D01*
X54130531Y-50581185D01*
X54130526Y-50581173D01*
X53977262Y-50214186D01*
X53774592Y-49793103D01*
X53683821Y-49607547D01*
X53510081Y-49252383D01*
X53509525Y-49243448D01*
X53515449Y-49236735D01*
X53721071Y-49137713D01*
X53730009Y-49137212D01*
X53735820Y-49141677D01*
G37*
%TD.AperFunction*%
%TD*%
%TA.AperFunction,Conductor*%
%TO.N,/k32*%
G36*
X67601178Y-13809458D02*
G01*
X68371215Y-14127438D01*
X68377552Y-14133761D01*
X68559947Y-14575459D01*
X68695532Y-14903797D01*
X68695523Y-14912752D01*
X68689184Y-14919077D01*
X68688511Y-14919331D01*
X68262337Y-15065383D01*
X68261760Y-15065548D01*
X67929571Y-15142527D01*
X67929538Y-15142535D01*
X67777554Y-15183873D01*
X67648226Y-15219050D01*
X67648224Y-15219050D01*
X67648224Y-15219051D01*
X67648220Y-15219052D01*
X67363526Y-15367632D01*
X67363525Y-15367633D01*
X67029115Y-15653846D01*
X67020601Y-15656622D01*
X67013234Y-15653230D01*
X66851769Y-15491764D01*
X66848342Y-15483491D01*
X66851151Y-15475885D01*
X67137364Y-15141475D01*
X67285949Y-14856772D01*
X67362467Y-14575447D01*
X67439452Y-14243227D01*
X67439609Y-14242678D01*
X67585669Y-13816486D01*
X67591592Y-13809773D01*
X67600529Y-13809213D01*
X67601178Y-13809458D01*
G37*
%TD.AperFunction*%
%TD*%
%TA.AperFunction,Conductor*%
%TO.N,/k21*%
G36*
X67601099Y-3649425D02*
G01*
X68371129Y-3967363D01*
X68377468Y-3973687D01*
X68377478Y-3973711D01*
X68695374Y-4743417D01*
X68695365Y-4752372D01*
X68689026Y-4758697D01*
X68687992Y-4759068D01*
X68290457Y-4881038D01*
X68288644Y-4881440D01*
X67965768Y-4926541D01*
X67691054Y-4971748D01*
X67691050Y-4971749D01*
X67427907Y-5097636D01*
X67427906Y-5097638D01*
X67427904Y-5097639D01*
X67427903Y-5097640D01*
X67330136Y-5194734D01*
X67145981Y-5377621D01*
X67137696Y-5381019D01*
X67130442Y-5378467D01*
X66952289Y-5236397D01*
X66947960Y-5228562D01*
X66950438Y-5219957D01*
X66951296Y-5218996D01*
X66953549Y-5216744D01*
X67067735Y-5059576D01*
X67085643Y-5024427D01*
X67086024Y-5023790D01*
X67183789Y-4883327D01*
X67306878Y-4610066D01*
X67374295Y-4351249D01*
X67447874Y-4049075D01*
X67448024Y-4048570D01*
X67585613Y-3656371D01*
X67591585Y-3649701D01*
X67600526Y-3649206D01*
X67601099Y-3649425D01*
G37*
%TD.AperFunction*%
%TD*%
%TA.AperFunction,Conductor*%
%TO.N,/k22*%
G36*
X-13335036Y-27216815D02*
G01*
X-13097288Y-27376426D01*
X-13091809Y-27380105D01*
X-13091801Y-27380110D01*
X-12839761Y-27509223D01*
X-12839758Y-27509225D01*
X-12654689Y-27574588D01*
X-12587711Y-27598244D01*
X-12335664Y-27647169D01*
X-12094905Y-27655602D01*
X-12086758Y-27659317D01*
X-12083616Y-27667295D01*
X-12083616Y-27897293D01*
X-12087043Y-27905566D01*
X-12091954Y-27908499D01*
X-12335651Y-27981614D01*
X-12335668Y-27981620D01*
X-12587708Y-28097738D01*
X-12587714Y-28097741D01*
X-12839763Y-28254363D01*
X-13091809Y-28451484D01*
X-13334738Y-28680510D01*
X-13343109Y-28683692D01*
X-13351277Y-28680023D01*
X-13351805Y-28679424D01*
X-13944899Y-27957427D01*
X-13947502Y-27948859D01*
X-13944899Y-27942573D01*
X-13350594Y-27219101D01*
X-13342696Y-27214886D01*
X-13335036Y-27216815D01*
G37*
%TD.AperFunction*%
%TD*%
%TA.AperFunction,Conductor*%
%TO.N,/k23*%
G36*
X5107166Y-22954325D02*
G01*
X5860479Y-23514067D01*
X5900417Y-23543742D01*
X5905014Y-23551427D01*
X5902830Y-23560111D01*
X5901605Y-23561512D01*
X5780147Y-23679872D01*
X5780145Y-23679874D01*
X5648869Y-23843634D01*
X5648855Y-23843653D01*
X5517586Y-24043240D01*
X5517571Y-24043264D01*
X5386287Y-24278710D01*
X5386286Y-24278711D01*
X5258195Y-24543397D01*
X5251506Y-24549351D01*
X5247663Y-24550000D01*
X5012128Y-24550000D01*
X5003855Y-24546573D01*
X5001731Y-24543667D01*
X5001592Y-24543397D01*
X4866288Y-24281272D01*
X4727577Y-24048631D01*
X4588865Y-23852075D01*
X4581569Y-23843634D01*
X4450152Y-23691602D01*
X4321828Y-23576533D01*
X4317956Y-23568458D01*
X4320928Y-23560011D01*
X4322412Y-23558621D01*
X5092973Y-22954508D01*
X5101597Y-22952102D01*
X5107166Y-22954325D01*
G37*
%TD.AperFunction*%
%TD*%
%TA.AperFunction,Conductor*%
%TO.N,unconnected-(U1-PB12-Pad1)*%
G36*
X53989199Y21841230D02*
G01*
X53989627Y21840257D01*
X54133550Y21468639D01*
X54133554Y21468629D01*
X54282128Y21128506D01*
X54430690Y20831910D01*
X54579255Y20578809D01*
X54579257Y20578805D01*
X54724636Y20373701D01*
X54726625Y20364970D01*
X54726392Y20363907D01*
X54666789Y20141460D01*
X54661338Y20134356D01*
X54652460Y20133187D01*
X54650348Y20133978D01*
X54509288Y20202968D01*
X54300284Y20305188D01*
X53937457Y20439142D01*
X53574629Y20529594D01*
X53574624Y20529595D01*
X53574619Y20529596D01*
X53211801Y20576548D01*
X52865074Y20579847D01*
X52856833Y20583352D01*
X52853486Y20591657D01*
X52854091Y20595261D01*
X53132491Y21425656D01*
X53138367Y21432407D01*
X53973520Y21846515D01*
X53982454Y21847119D01*
X53989199Y21841230D01*
G37*
%TD.AperFunction*%
%TD*%
%TA.AperFunction,Conductor*%
%TO.N,/k04*%
G36*
X52361167Y16670548D02*
G01*
X53131114Y16352649D01*
X53137453Y16346325D01*
X53137463Y16346301D01*
X53455316Y15576724D01*
X53455307Y15567770D01*
X53448968Y15561444D01*
X53447803Y15561033D01*
X53067660Y15449228D01*
X53065593Y15448818D01*
X52752761Y15415631D01*
X52485748Y15383487D01*
X52232542Y15271154D01*
X52232541Y15271153D01*
X51967459Y15004601D01*
X51959195Y15001151D01*
X51952041Y15003569D01*
X51770527Y15142847D01*
X51766049Y15150602D01*
X51767896Y15158591D01*
X51984078Y15484733D01*
X52093680Y15749240D01*
X52150960Y15998707D01*
X52216133Y16288509D01*
X52216310Y16289131D01*
X52236067Y16346325D01*
X52345650Y16663553D01*
X52351590Y16670252D01*
X52360528Y16670790D01*
X52361167Y16670548D01*
G37*
%TD.AperFunction*%
%TD*%
%TA.AperFunction,Conductor*%
%TO.N,/k11*%
G36*
X-32972018Y-19952034D02*
G01*
X-32931384Y-19979748D01*
X-32858771Y-20029272D01*
X-32803270Y-20058270D01*
X-32742543Y-20089998D01*
X-32676340Y-20114022D01*
X-32626312Y-20132177D01*
X-32626307Y-20132178D01*
X-32510094Y-20155808D01*
X-32510091Y-20155808D01*
X-32510083Y-20155810D01*
X-32417202Y-20159874D01*
X-32409086Y-20163659D01*
X-32406024Y-20172074D01*
X-32408661Y-20178976D01*
X-32990948Y-20889947D01*
X-32998842Y-20894177D01*
X-33007413Y-20891586D01*
X-33009052Y-20889947D01*
X-33593947Y-20175792D01*
X-33596538Y-20167221D01*
X-33592308Y-20159327D01*
X-33587307Y-20156930D01*
X-33529918Y-20144852D01*
X-33453689Y-20115741D01*
X-33453685Y-20115738D01*
X-33453683Y-20115738D01*
X-33407164Y-20089998D01*
X-33377459Y-20073562D01*
X-33301230Y-20018315D01*
X-33228334Y-19952987D01*
X-33220525Y-19950000D01*
X-32978610Y-19950000D01*
X-32972018Y-19952034D01*
G37*
%TD.AperFunction*%
%TD*%
%TA.AperFunction,Conductor*%
%TO.N,+3V3*%
G36*
X70261295Y-26489507D02*
G01*
X71031288Y-26807521D01*
X71037625Y-26813844D01*
X71037634Y-26813866D01*
X71037636Y-26813870D01*
X71355686Y-27584171D01*
X71355676Y-27593126D01*
X71349337Y-27599450D01*
X71349027Y-27599573D01*
X70978782Y-27740240D01*
X70978561Y-27740319D01*
X70700082Y-27833520D01*
X70700052Y-27833531D01*
X70465079Y-27925263D01*
X70214329Y-28065726D01*
X69897490Y-28298494D01*
X69888794Y-28300630D01*
X69881417Y-28296360D01*
X69583329Y-27922568D01*
X69580850Y-27913963D01*
X69584360Y-27906846D01*
X69854834Y-27646490D01*
X69993344Y-27408462D01*
X70060080Y-27161356D01*
X70122846Y-26866670D01*
X70123005Y-26866087D01*
X70245742Y-26496637D01*
X70251602Y-26489867D01*
X70260534Y-26489224D01*
X70261295Y-26489507D01*
G37*
%TD.AperFunction*%
%TD*%
%TA.AperFunction,Conductor*%
%TO.N,/k12*%
G36*
X-13334849Y-8167989D02*
G01*
X-13085087Y-8364713D01*
X-13085083Y-8364716D01*
X-12826312Y-8528037D01*
X-12567542Y-8650858D01*
X-12567537Y-8650859D01*
X-12567534Y-8650861D01*
X-12308786Y-8733175D01*
X-12308777Y-8733177D01*
X-12308771Y-8733179D01*
X-12059832Y-8773411D01*
X-12052213Y-8778113D01*
X-12050000Y-8784960D01*
X-12050000Y-9015039D01*
X-12053427Y-9023312D01*
X-12059833Y-9026589D01*
X-12308769Y-9066819D01*
X-12308786Y-9066823D01*
X-12567534Y-9149137D01*
X-12826312Y-9271962D01*
X-12826314Y-9271963D01*
X-13085087Y-9435285D01*
X-13334849Y-9632010D01*
X-13343468Y-9634437D01*
X-13351129Y-9630246D01*
X-13944899Y-8907427D01*
X-13947502Y-8898859D01*
X-13944899Y-8892573D01*
X-13351129Y-8169753D01*
X-13343229Y-8165536D01*
X-13334849Y-8167989D01*
G37*
%TD.AperFunction*%
%TD*%
%TA.AperFunction,Conductor*%
%TO.N,/k05*%
G36*
X43815151Y8882011D02*
G01*
X44064913Y8685287D01*
X44064917Y8685284D01*
X44323688Y8521963D01*
X44582458Y8399142D01*
X44582463Y8399141D01*
X44582466Y8399139D01*
X44841214Y8316825D01*
X44841223Y8316823D01*
X44841229Y8316821D01*
X45090168Y8276589D01*
X45097787Y8271887D01*
X45100000Y8265040D01*
X45100000Y8034961D01*
X45096573Y8026688D01*
X45090167Y8023411D01*
X44841231Y7983181D01*
X44841214Y7983177D01*
X44582466Y7900863D01*
X44323688Y7778038D01*
X44323686Y7778037D01*
X44064913Y7614715D01*
X43815151Y7417990D01*
X43806532Y7415563D01*
X43798871Y7419754D01*
X43205101Y8142573D01*
X43202498Y8151141D01*
X43205101Y8157427D01*
X43798871Y8880247D01*
X43806771Y8884464D01*
X43815151Y8882011D01*
G37*
%TD.AperFunction*%
%TD*%
%TA.AperFunction,Conductor*%
%TO.N,/k02*%
G36*
X52542083Y11862936D02*
G01*
X53132265Y11274140D01*
X53135702Y11265871D01*
X53135702Y11265847D01*
X53135011Y10433485D01*
X53131577Y10425215D01*
X53123301Y10421795D01*
X53121651Y10421913D01*
X52678105Y10485475D01*
X52675657Y10486102D01*
X52320170Y10619387D01*
X52017807Y10726348D01*
X51722591Y10711698D01*
X51643782Y10657366D01*
X51395387Y10486121D01*
X51386630Y10484247D01*
X51380473Y10487481D01*
X51219566Y10648388D01*
X51216139Y10656661D01*
X51219564Y10664931D01*
X51250285Y10695652D01*
X51530985Y10966359D01*
X51531151Y10966511D01*
X51544992Y10978762D01*
X51767832Y11175999D01*
X51976712Y11352409D01*
X52213489Y11561981D01*
X52525699Y11863076D01*
X52534032Y11866351D01*
X52542083Y11862936D01*
G37*
%TD.AperFunction*%
%TD*%
%TA.AperFunction,Conductor*%
%TO.N,/k01*%
G36*
X-31770500Y-556542D02*
G01*
X-31605485Y-721557D01*
X-31602058Y-729830D01*
X-31602820Y-733984D01*
X-31663665Y-894204D01*
X-31727193Y-1099092D01*
X-31727194Y-1099099D01*
X-31790723Y-1341590D01*
X-31790735Y-1341640D01*
X-31854253Y-1621694D01*
X-31915746Y-1929212D01*
X-31920729Y-1936653D01*
X-31928174Y-1938579D01*
X-32993461Y-1851300D01*
X-33001427Y-1847209D01*
X-33003384Y-1843946D01*
X-33310525Y-1068230D01*
X-33310385Y-1059277D01*
X-33303954Y-1053045D01*
X-33300394Y-1052247D01*
X-33008541Y-1033643D01*
X-32700633Y-973515D01*
X-32457956Y-894206D01*
X-32392736Y-872892D01*
X-32392733Y-872890D01*
X-32392725Y-872888D01*
X-32084817Y-731760D01*
X-31784716Y-554737D01*
X-31775851Y-553486D01*
X-31770500Y-556542D01*
G37*
%TD.AperFunction*%
%TD*%
%TA.AperFunction,Conductor*%
%TO.N,+3V3*%
G36*
X63410675Y-34723427D02*
G01*
X63413090Y-34726940D01*
X63530001Y-34989480D01*
X63649997Y-35224013D01*
X63650005Y-35224027D01*
X63769991Y-35423613D01*
X63769993Y-35423615D01*
X63770000Y-35423626D01*
X63890000Y-35588298D01*
X63890002Y-35588300D01*
X64001602Y-35708956D01*
X64004704Y-35717357D01*
X64000958Y-35725490D01*
X64000469Y-35725917D01*
X63167455Y-36414833D01*
X63158896Y-36417465D01*
X63152543Y-36414833D01*
X62319530Y-35725917D01*
X62315338Y-35718004D01*
X62317970Y-35709445D01*
X62318372Y-35708984D01*
X62430000Y-35588298D01*
X62550000Y-35423626D01*
X62670000Y-35224019D01*
X62790000Y-34989477D01*
X62906909Y-34726940D01*
X62913406Y-34720777D01*
X62917598Y-34720000D01*
X63402402Y-34720000D01*
X63410675Y-34723427D01*
G37*
%TD.AperFunction*%
%TD*%
%TA.AperFunction,Conductor*%
%TO.N,/k11*%
G36*
X52814153Y-15895669D02*
G01*
X52814879Y-15897122D01*
X53135102Y-16667839D01*
X53135997Y-16672342D01*
X53135014Y-17507380D01*
X53131577Y-17515649D01*
X53123300Y-17519066D01*
X53122417Y-17519032D01*
X52643095Y-17482171D01*
X52641019Y-17481821D01*
X52363153Y-17408806D01*
X52298293Y-17391763D01*
X52297769Y-17391598D01*
X52003671Y-17283802D01*
X51659663Y-17193407D01*
X51659666Y-17193407D01*
X51177510Y-17156329D01*
X51169524Y-17152277D01*
X51166707Y-17144663D01*
X51166707Y-16915527D01*
X51170134Y-16907254D01*
X51176616Y-16903965D01*
X51623186Y-16834866D01*
X51905518Y-16652770D01*
X52123831Y-16404001D01*
X52124021Y-16403798D01*
X52387491Y-16134097D01*
X52389911Y-16132199D01*
X52798134Y-15891531D01*
X52806999Y-15890283D01*
X52814153Y-15895669D01*
G37*
%TD.AperFunction*%
%TD*%
%TA.AperFunction,Conductor*%
%TO.N,/k05*%
G36*
X52361228Y19210522D02*
G01*
X53131205Y18892571D01*
X53137542Y18886247D01*
X53137552Y18886224D01*
X53455489Y18116305D01*
X53455480Y18107350D01*
X53449141Y18101025D01*
X53448370Y18100738D01*
X53037844Y17964097D01*
X53037164Y17963915D01*
X52713899Y17898034D01*
X52713800Y17898012D01*
X52439171Y17833413D01*
X52439167Y17833412D01*
X52439166Y17833411D01*
X52163403Y17696768D01*
X52048238Y17597410D01*
X51844578Y17421705D01*
X51836075Y17418896D01*
X51828773Y17422181D01*
X51665065Y17581568D01*
X51661528Y17589795D01*
X51664212Y17597408D01*
X51933599Y17922983D01*
X52069965Y18199912D01*
X52137436Y18472515D01*
X52206948Y18793128D01*
X52207111Y18793719D01*
X52345700Y19203451D01*
X52351596Y19210188D01*
X52360531Y19210783D01*
X52361228Y19210522D01*
G37*
%TD.AperFunction*%
%TD*%
%TA.AperFunction,Conductor*%
%TO.N,/k24*%
G36*
X25240244Y-27914338D02*
G01*
X25243824Y-27921074D01*
X25291742Y-28224895D01*
X25291747Y-28224928D01*
X25291752Y-28224954D01*
X25341294Y-28502242D01*
X25341299Y-28502269D01*
X25390836Y-28742699D01*
X25390842Y-28742726D01*
X25440368Y-28946296D01*
X25440374Y-28946320D01*
X25440379Y-28946337D01*
X25441271Y-28949339D01*
X25487938Y-29106468D01*
X25487008Y-29115374D01*
X25484995Y-29118072D01*
X25319772Y-29283295D01*
X25311499Y-29286722D01*
X25305233Y-29284903D01*
X25012684Y-29099379D01*
X25012680Y-29099377D01*
X24712229Y-28949339D01*
X24624997Y-28917536D01*
X24411761Y-28839794D01*
X24411757Y-28839793D01*
X24111305Y-28770753D01*
X24111303Y-28770752D01*
X24111300Y-28770752D01*
X23930188Y-28753547D01*
X23826780Y-28743724D01*
X23818868Y-28739530D01*
X23816238Y-28730970D01*
X23817125Y-28727483D01*
X23913257Y-28502269D01*
X24146375Y-27956128D01*
X24152773Y-27949867D01*
X24156719Y-27949031D01*
X25231856Y-27911204D01*
X25240244Y-27914338D01*
G37*
%TD.AperFunction*%
%TD*%
%TA.AperFunction,Conductor*%
%TO.N,/k13*%
G36*
X5106814Y-3904796D02*
G01*
X5793323Y-4488793D01*
X5843030Y-4531077D01*
X5847111Y-4539048D01*
X5844361Y-4547570D01*
X5842673Y-4549193D01*
X5704145Y-4657923D01*
X5554361Y-4811805D01*
X5404568Y-5002011D01*
X5254783Y-5228520D01*
X5108366Y-5485437D01*
X5101292Y-5490928D01*
X5098201Y-5491344D01*
X4862634Y-5491344D01*
X4854361Y-5487917D01*
X4851925Y-5484356D01*
X4848706Y-5477043D01*
X4734806Y-5218203D01*
X4734797Y-5218185D01*
X4614618Y-4980395D01*
X4614610Y-4980380D01*
X4568134Y-4902080D01*
X4494419Y-4777887D01*
X4374225Y-4610712D01*
X4263087Y-4488793D01*
X4260046Y-4480370D01*
X4263852Y-4472264D01*
X4265114Y-4471263D01*
X5092621Y-3904057D01*
X5101381Y-3902208D01*
X5106814Y-3904796D01*
G37*
%TD.AperFunction*%
%TD*%
%TA.AperFunction,Conductor*%
%TO.N,/k25*%
G36*
X43815058Y-29217325D02*
G01*
X44060937Y-29394715D01*
X44060941Y-29394717D01*
X44315725Y-29538034D01*
X44315731Y-29538037D01*
X44570524Y-29640858D01*
X44825316Y-29703179D01*
X44825318Y-29703179D01*
X44825322Y-29703180D01*
X44950927Y-29713936D01*
X45069408Y-29724083D01*
X45077358Y-29728203D01*
X45080109Y-29735740D01*
X45080109Y-29965799D01*
X45076682Y-29974072D01*
X45071168Y-29977169D01*
X44825316Y-30036819D01*
X44825313Y-30036820D01*
X44570526Y-30139139D01*
X44570521Y-30139141D01*
X44315732Y-30281960D01*
X44060940Y-30465281D01*
X43815233Y-30681122D01*
X43806755Y-30684008D01*
X43798721Y-30680054D01*
X43798470Y-30679759D01*
X43205101Y-29957426D01*
X43202498Y-29948858D01*
X43205100Y-29942574D01*
X43799173Y-29219385D01*
X43807072Y-29215169D01*
X43815058Y-29217325D01*
G37*
%TD.AperFunction*%
%TD*%
%TA.AperFunction,Conductor*%
%TO.N,/TX*%
G36*
X71817866Y-11249430D02*
G01*
X71824190Y-11255769D01*
X71824406Y-11256331D01*
X71965265Y-11654438D01*
X71965422Y-11654956D01*
X72042710Y-11960755D01*
X72114261Y-12222384D01*
X72241841Y-12498842D01*
X72241846Y-12498850D01*
X72481045Y-12840569D01*
X72482982Y-12849311D01*
X72478755Y-12856425D01*
X72300059Y-12998931D01*
X72291454Y-13001410D01*
X72284499Y-12998064D01*
X71998432Y-12712477D01*
X71732169Y-12581985D01*
X71732168Y-12581984D01*
X71454445Y-12532966D01*
X71454395Y-12532958D01*
X71127384Y-12484533D01*
X71125636Y-12484135D01*
X70721964Y-12359091D01*
X70715075Y-12353370D01*
X70714250Y-12344453D01*
X70714606Y-12343463D01*
X71032522Y-11573709D01*
X71038842Y-11567375D01*
X71808912Y-11249420D01*
X71817866Y-11249430D01*
G37*
%TD.AperFunction*%
%TD*%
%TA.AperFunction,Conductor*%
%TO.N,/k14*%
G36*
X52360676Y-3649250D02*
G01*
X53131129Y-3967363D01*
X53137468Y-3973687D01*
X53137478Y-3973711D01*
X53455313Y-4743271D01*
X53455304Y-4752226D01*
X53448965Y-4758551D01*
X53447795Y-4758963D01*
X53011540Y-4887032D01*
X53009434Y-4887445D01*
X52652628Y-4923934D01*
X52652629Y-4923935D01*
X52347313Y-4958040D01*
X52055546Y-5082566D01*
X51745497Y-5383277D01*
X51737172Y-5386577D01*
X51730056Y-5384025D01*
X51551513Y-5241642D01*
X51547183Y-5233806D01*
X51549438Y-5225492D01*
X51807269Y-4880651D01*
X51968596Y-4611047D01*
X52078318Y-4359419D01*
X52188124Y-4059423D01*
X52345369Y-3655838D01*
X52351565Y-3649376D01*
X52360518Y-3649186D01*
X52360676Y-3649250D01*
G37*
%TD.AperFunction*%
%TD*%
%TA.AperFunction,Conductor*%
%TO.N,/k03*%
G36*
X5972300Y15707250D02*
G01*
X6172410Y15452081D01*
X6379136Y15228976D01*
X6585861Y15046371D01*
X6792587Y14904266D01*
X6792589Y14904265D01*
X6792592Y14904263D01*
X6984918Y14809736D01*
X6990831Y14803012D01*
X6990257Y14794075D01*
X6988180Y14791115D01*
X6829697Y14626737D01*
X6821488Y14623160D01*
X6820193Y14623208D01*
X6540635Y14649151D01*
X6255476Y14635114D01*
X5970314Y14580576D01*
X5970312Y14580575D01*
X5685162Y14485540D01*
X5685160Y14485539D01*
X5411499Y14355466D01*
X5402555Y14355009D01*
X5395909Y14361010D01*
X5395527Y14361908D01*
X5102581Y15141908D01*
X5102880Y15150857D01*
X5107143Y15155821D01*
X5219325Y15228976D01*
X5956705Y15709830D01*
X5965505Y15711478D01*
X5972300Y15707250D01*
G37*
%TD.AperFunction*%
%TD*%
%TA.AperFunction,Conductor*%
%TO.N,/k23*%
G36*
X67600817Y1430692D02*
G01*
X68371039Y1112701D01*
X68377378Y1106376D01*
X68377388Y1106353D01*
X68695378Y336569D01*
X68695369Y327614D01*
X68689031Y321288D01*
X68688009Y320921D01*
X68259749Y188959D01*
X68258109Y188580D01*
X67906604Y133699D01*
X67906594Y133697D01*
X67612006Y72449D01*
X67612005Y72449D01*
X67343867Y-82266D01*
X67077450Y-409642D01*
X67069570Y-413896D01*
X67062150Y-412164D01*
X66868809Y-290681D01*
X66863627Y-283378D01*
X66864919Y-274893D01*
X67091759Y115129D01*
X67228125Y413916D01*
X67321276Y684800D01*
X67424118Y1000776D01*
X67424207Y1001025D01*
X67466767Y1112701D01*
X67585419Y1424046D01*
X67591567Y1430554D01*
X67600519Y1430810D01*
X67600817Y1430692D01*
G37*
%TD.AperFunction*%
%TD*%
%TA.AperFunction,Conductor*%
%TO.N,/k31*%
G36*
X67600630Y-11269230D02*
G01*
X68370890Y-11587222D01*
X68377229Y-11593547D01*
X68377238Y-11593569D01*
X68695332Y-12363322D01*
X68695325Y-12372276D01*
X68688987Y-12378603D01*
X68687864Y-12379002D01*
X68267561Y-12504387D01*
X68265914Y-12504751D01*
X67909744Y-12556986D01*
X67909732Y-12556988D01*
X67615423Y-12620899D01*
X67370027Y-12784881D01*
X67164926Y-13128771D01*
X67157745Y-13134121D01*
X67150400Y-13133587D01*
X66939421Y-13046196D01*
X66933090Y-13039865D01*
X66933022Y-13031079D01*
X67101995Y-12604732D01*
X67213664Y-12290139D01*
X67304816Y-12016367D01*
X67416465Y-11701826D01*
X67416522Y-11701677D01*
X67585330Y-11275749D01*
X67591563Y-11269323D01*
X67600517Y-11269185D01*
X67600630Y-11269230D01*
G37*
%TD.AperFunction*%
%TD*%
%TA.AperFunction,Conductor*%
%TO.N,/TX*%
G36*
X69940549Y-36725951D02*
G01*
X70106038Y-36891440D01*
X70109465Y-36899713D01*
X70109134Y-36902476D01*
X70068961Y-37067776D01*
X70027233Y-37277022D01*
X70027229Y-37277044D01*
X69985504Y-37523818D01*
X69943776Y-37808151D01*
X69903327Y-38120166D01*
X69898865Y-38127930D01*
X69892107Y-38130356D01*
X68667395Y-38170441D01*
X68659014Y-38167286D01*
X68656198Y-38163214D01*
X68642626Y-38130356D01*
X68313913Y-37334514D01*
X68313923Y-37325559D01*
X68320261Y-37319233D01*
X68323535Y-37318408D01*
X68633117Y-37286862D01*
X68958315Y-37210224D01*
X69283513Y-37090087D01*
X69327852Y-37067776D01*
X69608700Y-36926455D01*
X69608705Y-36926452D01*
X69608704Y-36926452D01*
X69608711Y-36926449D01*
X69925991Y-36724355D01*
X69934809Y-36722802D01*
X69940549Y-36725951D01*
G37*
%TD.AperFunction*%
%TD*%
%TA.AperFunction,Conductor*%
%TO.N,/k15*%
G36*
X42566419Y-3466598D02*
G01*
X42566614Y-3466727D01*
X42986248Y-3753025D01*
X42986257Y-3753031D01*
X43348869Y-3995272D01*
X43348874Y-3995274D01*
X43348879Y-3995278D01*
X43720087Y-4178517D01*
X43720087Y-4178518D01*
X44175308Y-4294505D01*
X44175309Y-4294505D01*
X44175313Y-4294506D01*
X44779071Y-4334280D01*
X44787099Y-4338243D01*
X44790000Y-4345954D01*
X44790000Y-4574045D01*
X44786573Y-4582318D01*
X44779069Y-4585720D01*
X44175308Y-4625493D01*
X43720087Y-4741479D01*
X43348884Y-4924718D01*
X43348869Y-4924726D01*
X42986257Y-5166967D01*
X42566652Y-5453246D01*
X42557887Y-5455078D01*
X42550393Y-5450175D01*
X42550238Y-5449942D01*
X42411129Y-5235186D01*
X41913119Y-4466360D01*
X41911499Y-4457554D01*
X41913120Y-4453639D01*
X42550238Y-3470056D01*
X42557612Y-3464977D01*
X42566419Y-3466598D01*
G37*
%TD.AperFunction*%
%TD*%
%TA.AperFunction,Conductor*%
%TO.N,/k00*%
G36*
X55021607Y9070360D02*
G01*
X55791474Y8752115D01*
X55797810Y8745787D01*
X55797819Y8745767D01*
X56115730Y7975724D01*
X56115719Y7966769D01*
X56109380Y7960444D01*
X56109174Y7960362D01*
X55679926Y7792603D01*
X55679588Y7792483D01*
X55360303Y7689750D01*
X55359923Y7689642D01*
X55077659Y7619431D01*
X55077537Y7619402D01*
X54748328Y7544935D01*
X54299711Y7432301D01*
X54290852Y7433610D01*
X54285561Y7440621D01*
X54226434Y7661291D01*
X54227603Y7670169D01*
X54233011Y7675024D01*
X54574454Y7825629D01*
X54747534Y8041165D01*
X54823893Y8319806D01*
X54884285Y8663437D01*
X54884443Y8664099D01*
X55005947Y9062956D01*
X55011636Y9069871D01*
X55020548Y9070738D01*
X55021607Y9070360D01*
G37*
%TD.AperFunction*%
%TD*%
%TA.AperFunction,Conductor*%
%TO.N,/k10*%
G36*
X-52043007Y-20904417D02*
G01*
X-51262535Y-21498791D01*
X-51258030Y-21506530D01*
X-51260316Y-21515188D01*
X-51263376Y-21517991D01*
X-51384063Y-21594222D01*
X-51518967Y-21709089D01*
X-51518979Y-21709101D01*
X-51653906Y-21853647D01*
X-51788822Y-22027840D01*
X-51788833Y-22027855D01*
X-51920729Y-22227144D01*
X-51928153Y-22232152D01*
X-51929176Y-22232313D01*
X-52164951Y-22258880D01*
X-52173556Y-22256401D01*
X-52176100Y-22253585D01*
X-52307563Y-22049186D01*
X-52442956Y-21868977D01*
X-52578349Y-21719069D01*
X-52589646Y-21709089D01*
X-52713735Y-21599465D01*
X-52713741Y-21599461D01*
X-52713742Y-21599460D01*
X-52835398Y-21519213D01*
X-52840417Y-21511797D01*
X-52838723Y-21503004D01*
X-52836069Y-21500158D01*
X-52057204Y-20904431D01*
X-52048551Y-20902127D01*
X-52043007Y-20904417D01*
G37*
%TD.AperFunction*%
%TD*%
%TA.AperFunction,Conductor*%
%TO.N,/k20*%
G36*
X-52043039Y-39954332D02*
G01*
X-51248029Y-40541619D01*
X-51243411Y-40549291D01*
X-51245570Y-40557982D01*
X-51247372Y-40559917D01*
X-51367625Y-40662876D01*
X-51367633Y-40662884D01*
X-51499052Y-40808737D01*
X-51630491Y-40987949D01*
X-51761912Y-41200471D01*
X-51761916Y-41200478D01*
X-51890821Y-41441624D01*
X-51897743Y-41447304D01*
X-51898535Y-41447515D01*
X-52128427Y-41499987D01*
X-52137256Y-41498487D01*
X-52141305Y-41494178D01*
X-52276896Y-41245360D01*
X-52276896Y-41245359D01*
X-52416717Y-41023757D01*
X-52416716Y-41023757D01*
X-52556548Y-40837118D01*
X-52696372Y-40685469D01*
X-52696374Y-40685467D01*
X-52825130Y-40578033D01*
X-52829285Y-40570104D01*
X-52826616Y-40561556D01*
X-52824881Y-40559868D01*
X-52057235Y-39954555D01*
X-52048617Y-39952124D01*
X-52043039Y-39954332D01*
G37*
%TD.AperFunction*%
%TD*%
%TA.AperFunction,Conductor*%
%TO.N,/k11*%
G36*
X-31830228Y-19566704D02*
G01*
X-31665005Y-19731927D01*
X-31661578Y-19740200D01*
X-31662062Y-19743531D01*
X-31709620Y-19903659D01*
X-31709632Y-19903701D01*
X-31759158Y-20107272D01*
X-31759164Y-20107299D01*
X-31808691Y-20347681D01*
X-31808701Y-20347727D01*
X-31808706Y-20347757D01*
X-31858248Y-20625044D01*
X-31858253Y-20625069D01*
X-31858258Y-20625103D01*
X-31906176Y-20928924D01*
X-31910850Y-20936562D01*
X-31918144Y-20938794D01*
X-32993277Y-20900968D01*
X-33001425Y-20897252D01*
X-33003625Y-20893871D01*
X-33332877Y-20122513D01*
X-33332972Y-20113561D01*
X-33326708Y-20107161D01*
X-33323226Y-20106275D01*
X-33038700Y-20079246D01*
X-32738239Y-20010204D01*
X-32437777Y-19900662D01*
X-32137316Y-19750620D01*
X-31844767Y-19565095D01*
X-31835945Y-19563560D01*
X-31830228Y-19566704D01*
G37*
%TD.AperFunction*%
%TD*%
%TA.AperFunction,Conductor*%
%TO.N,/k03*%
G36*
X52360361Y14130880D02*
G01*
X53130704Y13812834D01*
X53137043Y13806509D01*
X53137051Y13806489D01*
X53455151Y13037110D01*
X53455145Y13028156D01*
X53448809Y13021828D01*
X53447289Y13021318D01*
X53041554Y12915618D01*
X53039391Y12915267D01*
X52673274Y12890573D01*
X52673251Y12890571D01*
X52673244Y12890570D01*
X52588439Y12880852D01*
X52370023Y12855823D01*
X52370022Y12855823D01*
X52142313Y12716536D01*
X52142311Y12716534D01*
X52005280Y12386994D01*
X51998940Y12380670D01*
X51992194Y12380011D01*
X51768110Y12424586D01*
X51760665Y12429561D01*
X51758918Y12438344D01*
X51758966Y12438571D01*
X51852591Y12864755D01*
X51852681Y12865110D01*
X51941725Y13170539D01*
X51941890Y13171023D01*
X52042147Y13428373D01*
X52042213Y13428531D01*
X52172057Y13721956D01*
X52208398Y13806509D01*
X52226782Y13849285D01*
X52345148Y14124687D01*
X52351562Y14130933D01*
X52360361Y14130880D01*
G37*
%TD.AperFunction*%
%TD*%
D42*
X-48624955Y-8974517D02*
X-48625000Y-25025000D01*
X-11910000Y24806548D02*
G75*
G03*
X-10673448Y26043104I0J1236552D01*
G01*
X65685000Y3640000D02*
G75*
G03*
X66685000Y4640000I0J1000000D01*
G01*
X-47625000Y-25025000D02*
X-47624955Y-8974517D01*
X-46398448Y-46750000D02*
X-19400000Y-46750000D01*
X63630000Y-68110000D02*
X74248728Y-45663239D01*
X3789970Y-57090029D02*
G75*
G03*
X7610000Y-58539999I3440030J3305929D01*
G01*
X-48625000Y-28025000D02*
X-48625040Y-42523488D01*
X58485000Y11240000D02*
G75*
G03*
X57485000Y10240000I200J-1000200D01*
G01*
X57485000Y4640000D02*
X57485000Y10240000D01*
X29900001Y23770000D02*
G75*
G03*
X31110000Y22759999I1209999J219800D01*
G01*
X-47625000Y-28025000D02*
G75*
G03*
X-48125000Y-27525000I-500000J0D01*
G01*
X65685000Y3640000D02*
X58485000Y3640000D01*
X-46408363Y12807822D02*
X-30964374Y12807822D01*
X73670000Y22760000D02*
X31110000Y22760000D01*
X-10673448Y28570000D02*
X-10673448Y26043104D01*
X-9436896Y29806552D02*
X9530000Y29806552D01*
X-48125040Y-43023460D02*
G75*
G03*
X-47625040Y-42523488I40J499960D01*
G01*
X66677893Y10240000D02*
X66685000Y4640000D01*
X12003104Y24750000D02*
X28690000Y24750000D01*
X-48624915Y8581270D02*
X-48624955Y-5974517D01*
X-47624930Y8581270D02*
G75*
G03*
X-48124915Y9081270I-499970J30D01*
G01*
X74960028Y21510000D02*
G75*
G03*
X73670000Y22759999I-1241028J9900D01*
G01*
X-28480000Y24806552D02*
X-11910000Y24806552D01*
X74248732Y-45663241D02*
G75*
G03*
X74960000Y-42840000I-5725032J2943541D01*
G01*
X-48625017Y-5974517D02*
G75*
G03*
X-48124955Y-6474517I500117J117D01*
G01*
X-48625000Y-25025000D02*
G75*
G03*
X-48125000Y-25525000I500000J0D01*
G01*
X66677900Y10240000D02*
G75*
G03*
X65677893Y11240000I-1000000J0D01*
G01*
X-48125040Y-45023560D02*
G75*
G03*
X-48625040Y-45523488I-60J-499940D01*
G01*
X-47624939Y-45533448D02*
G75*
G03*
X-46398448Y-46749999I1216639J48D01*
G01*
X-49841592Y-46750100D02*
G75*
G03*
X-48625040Y-45523488I-108J1216700D01*
G01*
X-48624933Y11591230D02*
G75*
G03*
X-48124915Y11081270I500033J-9830D01*
G01*
X-47624917Y-8974517D02*
G75*
G03*
X-48124955Y-8474517I-500083J-83D01*
G01*
X-28480000Y24806527D02*
G75*
G03*
X-29730000Y23570000I-13400J-1236527D01*
G01*
X10766552Y28570000D02*
X10766552Y25980000D01*
X15940000Y-57820000D02*
X7610000Y-58540000D01*
X-47625040Y-42523488D02*
X-47625000Y-28025000D01*
X53910000Y-64960000D02*
X61613868Y-68641488D01*
X-67896540Y-45533448D02*
G75*
G03*
X-66670000Y-46750000I1216640J48D01*
G01*
X29900008Y23770002D02*
G75*
G03*
X28690000Y24750000I-1210008J-257002D01*
G01*
X-48124915Y9081215D02*
G75*
G03*
X-48624915Y8581270I-85J-499915D01*
G01*
X-66660000Y12806552D02*
G75*
G03*
X-67896552Y11570000I0J-1236552D01*
G01*
X-30964374Y12807822D02*
G75*
G03*
X-29727822Y14044374I-26J1236578D01*
G01*
X58485000Y11240000D02*
X65677893Y11240000D01*
X-66660000Y12806552D02*
X-49851507Y12807782D01*
X10766583Y25980000D02*
G75*
G03*
X12003104Y24750000I1230017J0D01*
G01*
X-48124915Y11081215D02*
G75*
G03*
X-47624915Y11581270I15J499985D01*
G01*
X-48124955Y-6474445D02*
G75*
G03*
X-47624955Y-5974517I-45J500045D01*
G01*
X-48624978Y11591230D02*
G75*
G03*
X-49851507Y12807782I-1216622J-30D01*
G01*
X-47624983Y-45533448D02*
G75*
G03*
X-48125040Y-45023488I-500117J9748D01*
G01*
X-9436896Y29806548D02*
G75*
G03*
X-10673448Y28570000I-4J-1236548D01*
G01*
X-48625088Y-42523488D02*
G75*
G03*
X-48125040Y-43023488I500088J88D01*
G01*
X-46408363Y12807855D02*
G75*
G03*
X-47624914Y11581270I63J-1216655D01*
G01*
X57485001Y4640000D02*
G75*
G03*
X58485000Y3640001I1009999J10000D01*
G01*
X-29730000Y23570000D02*
X-29727822Y14044374D01*
X3790002Y-57089998D02*
G75*
G03*
X-19400000Y-46750000I-22380702J-19019602D01*
G01*
X10766552Y28570000D02*
G75*
G03*
X9530000Y29806552I-1236552J0D01*
G01*
X-49841592Y-46750040D02*
X-66670000Y-46750000D01*
X-48125000Y-25525000D02*
G75*
G03*
X-47625000Y-25025000I0J500000D01*
G01*
X-48124955Y-8474545D02*
G75*
G03*
X-48624955Y-8974517I-45J-499955D01*
G01*
X-48125000Y-27525000D02*
G75*
G03*
X-48625000Y-28025000I0J-500000D01*
G01*
X-47624955Y-5974517D02*
X-47624915Y8581270D01*
X74960000Y-42840000D02*
X74960000Y21510000D01*
X61613883Y-68641447D02*
G75*
G03*
X63629999Y-68109999I623117J1726047D01*
G01*
X-67896552Y-45533448D02*
X-67896552Y11570000D01*
X53910001Y-64959998D02*
G75*
G03*
X15940000Y-57820000I-31697901J-64036302D01*
G01*
M02*
