%TF.GenerationSoftware,KiCad,Pcbnew,7.0.5-0*%
%TF.CreationDate,2023-10-24T16:12:26-07:00*%
%TF.ProjectId,Cantor_MX,43616e74-6f72-45f4-9d58-2e6b69636164,rev1.6*%
%TF.SameCoordinates,PX78114e0PY44b6550*%
%TF.FileFunction,Soldermask,Top*%
%TF.FilePolarity,Negative*%
%FSLAX46Y46*%
G04 Gerber Fmt 4.6, Leading zero omitted, Abs format (unit mm)*
G04 Created by KiCad (PCBNEW 7.0.5-0) date 2023-10-24 16:12:26*
%MOMM*%
%LPD*%
G01*
G04 APERTURE LIST*
G04 Aperture macros list*
%AMHorizOval*
0 Thick line with rounded ends*
0 $1 width*
0 $2 $3 position (X,Y) of the first rounded end (center of the circle)*
0 $4 $5 position (X,Y) of the second rounded end (center of the circle)*
0 Add line between two ends*
20,1,$1,$2,$3,$4,$5,0*
0 Add two circle primitives to create the rounded ends*
1,1,$1,$2,$3*
1,1,$1,$4,$5*%
%AMFreePoly0*
4,1,28,-0.850000,0.400000,-0.842219,0.514750,-0.797860,0.693119,-0.716195,0.857783,-0.601041,1.001041,-0.457783,1.116195,-0.293119,1.197860,-0.114750,1.242219,0.000000,1.250000,0.850000,0.400000,0.850000,-0.400000,0.842219,-0.514750,0.797860,-0.693119,0.716195,-0.857783,0.601041,-1.001041,0.457783,-1.116195,0.293119,-1.197860,0.114750,-1.242219,0.000000,-1.250000,-0.114750,-1.242219,
-0.293119,-1.197860,-0.457783,-1.116195,-0.601041,-1.001041,-0.716195,-0.857783,-0.797860,-0.693119,-0.842219,-0.514750,-0.850000,-0.400000,-0.850000,0.400000,-0.850000,0.400000,$1*%
%AMFreePoly1*
4,1,28,-0.850000,0.400000,-0.842219,0.514750,-0.797860,0.693119,-0.716195,0.857783,-0.601041,1.001041,-0.457783,1.116195,-0.293119,1.197860,-0.114750,1.242219,0.000000,1.250000,0.114750,1.242219,0.293119,1.197860,0.457783,1.116195,0.601041,1.001041,0.716195,0.857783,0.797860,0.693119,0.842219,0.514750,0.850000,0.400000,0.850000,-0.400000,0.000000,-1.250000,-0.114750,-1.242219,
-0.293119,-1.197860,-0.457783,-1.116195,-0.601041,-1.001041,-0.716195,-0.857783,-0.797860,-0.693119,-0.842219,-0.514750,-0.850000,-0.400000,-0.850000,0.400000,-0.850000,0.400000,$1*%
G04 Aperture macros list end*
%ADD10C,0.120000*%
%ADD11C,1.800000*%
%ADD12C,1.700000*%
%ADD13C,4.900000*%
%ADD14C,2.400000*%
%ADD15O,2.200000X1.600000*%
%ADD16HorizOval,1.500000X1.449945X-0.012653X-1.449945X0.012653X0*%
%ADD17O,2.200000X1.500000*%
%ADD18HorizOval,1.600000X0.298858X0.026147X-0.298858X-0.026147X0*%
%ADD19HorizOval,1.500000X1.445530X0.113766X-1.445530X-0.113766X0*%
%ADD20HorizOval,1.500000X0.348668X0.030505X-0.348668X-0.030505X0*%
%ADD21C,1.200000*%
%ADD22FreePoly0,270.000000*%
%ADD23FreePoly1,270.000000*%
%ADD24O,2.500000X1.700000*%
%ADD25HorizOval,1.600000X0.271892X-0.126785X-0.271892X0.126785X0*%
%ADD26HorizOval,1.500000X1.308749X-0.624241X-1.308749X0.624241X0*%
%ADD27HorizOval,1.500000X0.317208X-0.147916X-0.317208X0.147916X0*%
%ADD28R,1.700000X1.700000*%
%ADD29C,4.400000*%
%ADD30HorizOval,1.600000X0.295442X-0.052094X-0.295442X0.052094X0*%
%ADD31HorizOval,1.500000X1.425720X-0.264242X-1.425720X0.264242X0*%
%ADD32HorizOval,1.500000X0.344683X-0.060777X-0.344683X0.060777X0*%
%TA.AperFunction,Profile*%
%ADD33C,0.100000*%
%TD*%
G04 APERTURE END LIST*
D10*
%TO.C,U1*%
X54525000Y-28080000D02*
X57065000Y-28080000D01*
%TD*%
D11*
%TO.C,K25*%
X32600000Y-26050000D03*
X32600000Y-26050000D03*
D12*
X33020000Y-26050000D03*
X33020000Y-26050000D03*
D13*
X38100000Y-26050000D03*
X38100000Y-26050000D03*
D12*
X43180000Y-26050000D03*
X43180000Y-26050000D03*
D11*
X43600000Y-26050000D03*
X43600000Y-26050000D03*
D14*
X41910000Y-23510000D03*
D15*
X43200000Y-29950000D03*
D16*
X34199958Y-20509599D03*
D14*
X35560000Y-20970000D03*
D17*
X38100000Y-31950000D03*
%TD*%
D11*
%TO.C,K24*%
X13550000Y-24050000D03*
X13550000Y-24050000D03*
D12*
X13970000Y-24050000D03*
X13970000Y-24050000D03*
D13*
X19050000Y-24050000D03*
X19050000Y-24050000D03*
D12*
X24130000Y-24050000D03*
X24130000Y-24050000D03*
D11*
X24550000Y-24050000D03*
X24550000Y-24050000D03*
D14*
X22860000Y-21510000D03*
D15*
X24150000Y-27950000D03*
D16*
X15149958Y-18509599D03*
D14*
X16510000Y-18970000D03*
D17*
X19050000Y-29950000D03*
%TD*%
D11*
%TO.C,K21*%
X-43600000Y-36050000D03*
X-43600000Y-36050000D03*
D12*
X-43180000Y-36050000D03*
X-43180000Y-36050000D03*
D13*
X-38100000Y-36050000D03*
X-38100000Y-36050000D03*
D12*
X-33020000Y-36050000D03*
X-33020000Y-36050000D03*
D11*
X-32600000Y-36050000D03*
X-32600000Y-36050000D03*
D14*
X-34290000Y-33510000D03*
D15*
X-33000000Y-39950000D03*
D16*
X-42000042Y-30509599D03*
D14*
X-40640000Y-30970000D03*
D17*
X-38100000Y-41950000D03*
%TD*%
D11*
%TO.C,K02*%
X-24550000Y14050000D03*
X-24550000Y14050000D03*
D12*
X-24130000Y14050000D03*
X-24130000Y14050000D03*
D13*
X-19050000Y14050000D03*
X-19050000Y14050000D03*
D12*
X-13970000Y14050000D03*
X-13970000Y14050000D03*
D11*
X-13550000Y14050000D03*
X-13550000Y14050000D03*
D14*
X-15240000Y16590000D03*
D15*
X-13950000Y10150000D03*
D16*
X-22950042Y19590401D03*
D14*
X-21590000Y19130000D03*
D17*
X-19050000Y8150000D03*
%TD*%
D11*
%TO.C,K10*%
X-62650000Y-17000000D03*
X-62650000Y-17000000D03*
D12*
X-62230000Y-17000000D03*
X-62230000Y-17000000D03*
D13*
X-57150000Y-17000000D03*
X-57150000Y-17000000D03*
D12*
X-52070000Y-17000000D03*
X-52070000Y-17000000D03*
D11*
X-51650000Y-17000000D03*
X-51650000Y-17000000D03*
D14*
X-53340000Y-14460000D03*
D15*
X-52050000Y-20900000D03*
D16*
X-61050042Y-11459599D03*
D14*
X-59690000Y-11920000D03*
D17*
X-57150000Y-22900000D03*
%TD*%
D11*
%TO.C,K04*%
X13550000Y14050000D03*
X13550000Y14050000D03*
D12*
X13970000Y14050000D03*
X13970000Y14050000D03*
D13*
X19050000Y14050000D03*
X19050000Y14050000D03*
D12*
X24130000Y14050000D03*
X24130000Y14050000D03*
D11*
X24550000Y14050000D03*
X24550000Y14050000D03*
D14*
X22860000Y16590000D03*
D15*
X24150000Y10150000D03*
D16*
X15149958Y19590401D03*
D14*
X16510000Y19130000D03*
D17*
X19050000Y8150000D03*
%TD*%
D11*
%TO.C,K12*%
X-24550000Y-5000000D03*
X-24550000Y-5000000D03*
D12*
X-24130000Y-5000000D03*
X-24130000Y-5000000D03*
D13*
X-19050000Y-5000000D03*
X-19050000Y-5000000D03*
D12*
X-13970000Y-5000000D03*
X-13970000Y-5000000D03*
D11*
X-13550000Y-5000000D03*
X-13550000Y-5000000D03*
D14*
X-15240000Y-2460000D03*
D15*
X-13950000Y-8900000D03*
D16*
X-22950042Y540401D03*
D14*
X-21590000Y80000D03*
D17*
X-19050000Y-10900000D03*
%TD*%
D11*
%TO.C,K30*%
X9420929Y-47629357D03*
X9420929Y-47629357D03*
D12*
X9839331Y-47592751D03*
X9839331Y-47592751D03*
D13*
X14900000Y-47150000D03*
X14900000Y-47150000D03*
D12*
X19960669Y-46707249D03*
X19960669Y-46707249D03*
D11*
X20379071Y-46670643D03*
X20379071Y-46670643D03*
D14*
X18474126Y-44287602D03*
D18*
X20320500Y-50590665D03*
D19*
X10531921Y-41970593D03*
D14*
X11926914Y-42310707D03*
D20*
X15414219Y-53027549D03*
%TD*%
D11*
%TO.C,K01*%
X-43600000Y2050000D03*
X-43600000Y2050000D03*
D12*
X-43180000Y2050000D03*
X-43180000Y2050000D03*
D13*
X-38100000Y2050000D03*
X-38100000Y2050000D03*
D12*
X-33020000Y2050000D03*
X-33020000Y2050000D03*
D11*
X-32600000Y2050000D03*
X-32600000Y2050000D03*
D14*
X-34290000Y4590000D03*
D15*
X-33000000Y-1850000D03*
D16*
X-42000042Y7590401D03*
D14*
X-40640000Y7130000D03*
D17*
X-38100000Y-3850000D03*
%TD*%
D11*
%TO.C,K14*%
X13550000Y-5000000D03*
X13550000Y-5000000D03*
D12*
X13970000Y-5000000D03*
X13970000Y-5000000D03*
D13*
X19050000Y-5000000D03*
X19050000Y-5000000D03*
D12*
X24130000Y-5000000D03*
X24130000Y-5000000D03*
D11*
X24550000Y-5000000D03*
X24550000Y-5000000D03*
D14*
X22860000Y-2460000D03*
D15*
X24150000Y-8900000D03*
D16*
X15149958Y540401D03*
D14*
X16510000Y80000D03*
D17*
X19050000Y-10900000D03*
%TD*%
D11*
%TO.C,K23*%
X-5500000Y-19050000D03*
X-5500000Y-19050000D03*
D12*
X-5080000Y-19050000D03*
X-5080000Y-19050000D03*
D13*
X0Y-19050000D03*
X0Y-19050000D03*
D12*
X5080000Y-19050000D03*
X5080000Y-19050000D03*
D11*
X5500000Y-19050000D03*
X5500000Y-19050000D03*
D14*
X3810000Y-16510000D03*
D15*
X5100000Y-22950000D03*
D16*
X-3900042Y-13509599D03*
D14*
X-2540000Y-13970000D03*
D17*
X0Y-24950000D03*
%TD*%
D11*
%TO.C,K03*%
X-5500000Y19050000D03*
X-5500000Y19050000D03*
D12*
X-5080000Y19050000D03*
X-5080000Y19050000D03*
D13*
X0Y19050000D03*
X0Y19050000D03*
D12*
X5080000Y19050000D03*
X5080000Y19050000D03*
D11*
X5500000Y19050000D03*
X5500000Y19050000D03*
D14*
X3810000Y21590000D03*
D15*
X5100000Y15150000D03*
D16*
X-3900042Y24590401D03*
D14*
X-2540000Y24130000D03*
D17*
X0Y13150000D03*
%TD*%
D11*
%TO.C,K22*%
X-24550000Y-24050000D03*
X-24550000Y-24050000D03*
D12*
X-24130000Y-24050000D03*
X-24130000Y-24050000D03*
D13*
X-19050000Y-24050000D03*
X-19050000Y-24050000D03*
D12*
X-13970000Y-24050000D03*
X-13970000Y-24050000D03*
D11*
X-13550000Y-24050000D03*
X-13550000Y-24050000D03*
D14*
X-15240000Y-21510000D03*
D15*
X-13950000Y-27950000D03*
D16*
X-22950042Y-18509599D03*
D14*
X-21590000Y-18970000D03*
D17*
X-19050000Y-29950000D03*
%TD*%
D21*
%TO.C,J1*%
X73460000Y-34320000D03*
X66460000Y-34320000D03*
X73460000Y-36070000D03*
X66460000Y-36070000D03*
D22*
X63160000Y-36420000D03*
D23*
X64660000Y-32220000D03*
D24*
X68660000Y-32220000D03*
X71660000Y-32220000D03*
%TD*%
D11*
%TO.C,K15*%
X32600000Y-7000000D03*
X32600000Y-7000000D03*
D12*
X33020000Y-7000000D03*
X33020000Y-7000000D03*
D13*
X38100000Y-7000000D03*
X38100000Y-7000000D03*
D12*
X43180000Y-7000000D03*
X43180000Y-7000000D03*
D11*
X43600000Y-7000000D03*
X43600000Y-7000000D03*
D14*
X41910000Y-4460000D03*
D15*
X43200000Y-10900000D03*
D16*
X34199958Y-1459599D03*
D14*
X35560000Y-1920000D03*
D17*
X38100000Y-12900000D03*
%TD*%
D11*
%TO.C,K32*%
X52915307Y-52825600D03*
X52915307Y-52825600D03*
D12*
X53295956Y-53003099D03*
X53295956Y-53003099D03*
D13*
X57900000Y-55150000D03*
X57900000Y-55150000D03*
D12*
X62504044Y-57296901D03*
X62504044Y-57296901D03*
D11*
X62884693Y-57474400D03*
X62884693Y-57474400D03*
D14*
X62426483Y-54458154D03*
D25*
X60873958Y-60839954D03*
D26*
X56706836Y-48480462D03*
D14*
X57744879Y-49472506D03*
D27*
X55406552Y-60497216D03*
%TD*%
D11*
%TO.C,K11*%
X-43600000Y-17000000D03*
X-43600000Y-17000000D03*
D12*
X-43180000Y-17000000D03*
X-43180000Y-17000000D03*
D13*
X-38100000Y-17000000D03*
X-38100000Y-17000000D03*
D12*
X-33020000Y-17000000D03*
X-33020000Y-17000000D03*
D11*
X-32600000Y-17000000D03*
X-32600000Y-17000000D03*
D14*
X-34290000Y-14460000D03*
D15*
X-33000000Y-20900000D03*
D16*
X-42000042Y-11459599D03*
D14*
X-40640000Y-11920000D03*
D17*
X-38100000Y-22900000D03*
%TD*%
D28*
%TO.C,U1*%
X53135000Y21430000D03*
D12*
X53135000Y18890000D03*
X53135000Y16350000D03*
X53135000Y13810000D03*
X53135000Y11270000D03*
X53135000Y8730000D03*
X53135000Y6190000D03*
X53135000Y3650000D03*
X53135000Y1110000D03*
X53135000Y-1430000D03*
X53135000Y-3970000D03*
X53135000Y-6510000D03*
X53135000Y-9050000D03*
X53135000Y-11590000D03*
X53135000Y-14130000D03*
X53135000Y-16670000D03*
X53135000Y-19210000D03*
X53135000Y-21750000D03*
X53135000Y-24290000D03*
X53135000Y-26830000D03*
X68375000Y-26830000D03*
X68375000Y-24290000D03*
X68375000Y-21750000D03*
X68375000Y-19210000D03*
X68375000Y-16670000D03*
X68375000Y-14130000D03*
X68375000Y-11590000D03*
X68375000Y-9050000D03*
X68375000Y-6510000D03*
X68375000Y-3970000D03*
X68375000Y-1430000D03*
X68375000Y1110000D03*
X68375000Y3650000D03*
X68375000Y6190000D03*
X68375000Y8730000D03*
X68375000Y11270000D03*
X68375000Y13810000D03*
X68375000Y16350000D03*
X68375000Y18890000D03*
X68375000Y21430000D03*
%TD*%
D11*
%TO.C,K05*%
X32600000Y12050000D03*
X32600000Y12050000D03*
D12*
X33020000Y12050000D03*
X33020000Y12050000D03*
D13*
X38100000Y12050000D03*
X38100000Y12050000D03*
D12*
X43180000Y12050000D03*
X43180000Y12050000D03*
D11*
X43600000Y12050000D03*
X43600000Y12050000D03*
D14*
X41910000Y14590000D03*
D15*
X43200000Y8150000D03*
D16*
X34199958Y17590401D03*
D14*
X35560000Y17130000D03*
D17*
X38100000Y6150000D03*
%TD*%
D11*
%TO.C,K20*%
X-62650000Y-36050000D03*
X-62650000Y-36050000D03*
D12*
X-62230000Y-36050000D03*
X-62230000Y-36050000D03*
D13*
X-57150000Y-36050000D03*
X-57150000Y-36050000D03*
D12*
X-52070000Y-36050000D03*
X-52070000Y-36050000D03*
D11*
X-51650000Y-36050000D03*
X-51650000Y-36050000D03*
D14*
X-53340000Y-33510000D03*
D15*
X-52050000Y-39950000D03*
D16*
X-61050042Y-30509599D03*
D14*
X-59690000Y-30970000D03*
D17*
X-57150000Y-41950000D03*
%TD*%
D11*
%TO.C,K13*%
X-5500000Y0D03*
X-5500000Y0D03*
D12*
X-5080000Y0D03*
X-5080000Y0D03*
D13*
X0Y0D03*
X0Y0D03*
D12*
X5080000Y0D03*
X5080000Y0D03*
D11*
X5500000Y0D03*
X5500000Y0D03*
D14*
X3810000Y2540000D03*
D15*
X5100000Y-3900000D03*
D16*
X-3900042Y5540401D03*
D14*
X-2540000Y5080000D03*
D17*
X0Y-5900000D03*
%TD*%
D11*
%TO.C,K00*%
X-62650000Y2050000D03*
X-62650000Y2050000D03*
D12*
X-62230000Y2050000D03*
X-62230000Y2050000D03*
D13*
X-57150000Y2050000D03*
X-57150000Y2050000D03*
D12*
X-52070000Y2050000D03*
X-52070000Y2050000D03*
D11*
X-51650000Y2050000D03*
X-51650000Y2050000D03*
D14*
X-53340000Y4590000D03*
D15*
X-52050000Y-1850000D03*
D16*
X-61050042Y7590401D03*
D14*
X-59690000Y7130000D03*
D17*
X-57150000Y-3850000D03*
%TD*%
D29*
%TO.C,REF\u002A\u002A*%
X-9480000Y-12910000D03*
X9570000Y6140000D03*
X9570000Y-31960000D03*
X28620000Y-12910000D03*
%TD*%
D11*
%TO.C,K31*%
X31483557Y-47194935D03*
X31483557Y-47194935D03*
D12*
X31897177Y-47267867D03*
X31897177Y-47267867D03*
D13*
X36900000Y-48150000D03*
X36900000Y-48150000D03*
D12*
X41902823Y-49032133D03*
X41902823Y-49032133D03*
D11*
X42316443Y-49105065D03*
X42316443Y-49105065D03*
D14*
X41093184Y-46310188D03*
D30*
X41245292Y-52876356D03*
D31*
X34021289Y-42016535D03*
D14*
X35280721Y-42706110D03*
D32*
X35875476Y-53960366D03*
%TD*%
D33*
X-48624955Y-8974517D02*
X-48625000Y-25025000D01*
X-11910000Y24806548D02*
G75*
G03*
X-10673448Y26043104I0J1236552D01*
G01*
X65685000Y3640000D02*
G75*
G03*
X66685000Y4640000I0J1000000D01*
G01*
X-47625000Y-25025000D02*
X-47624955Y-8974517D01*
X-46398448Y-46750000D02*
X-19400000Y-46750000D01*
X63630000Y-68110000D02*
X74248728Y-45663239D01*
X3789970Y-57090029D02*
G75*
G03*
X7610000Y-58539999I3440030J3305929D01*
G01*
X-48625000Y-28025000D02*
X-48625040Y-42523488D01*
X58485000Y11240000D02*
G75*
G03*
X57485000Y10240000I200J-1000200D01*
G01*
X57485000Y4640000D02*
X57485000Y10240000D01*
X29900001Y23770000D02*
G75*
G03*
X31110000Y22759999I1209999J219800D01*
G01*
X-47625000Y-28025000D02*
G75*
G03*
X-48125000Y-27525000I-500000J0D01*
G01*
X65685000Y3640000D02*
X58485000Y3640000D01*
X-46408363Y12807822D02*
X-30964374Y12807822D01*
X73670000Y22760000D02*
X31110000Y22760000D01*
X-10673448Y28570000D02*
X-10673448Y26043104D01*
X-9436896Y29806552D02*
X9530000Y29806552D01*
X-48125040Y-43023460D02*
G75*
G03*
X-47625040Y-42523488I40J499960D01*
G01*
X66677893Y10240000D02*
X66685000Y4640000D01*
X12003104Y24750000D02*
X28690000Y24750000D01*
X-48624915Y8581270D02*
X-48624955Y-5974517D01*
X-47624930Y8581270D02*
G75*
G03*
X-48124915Y9081270I-499970J30D01*
G01*
X74960028Y21510000D02*
G75*
G03*
X73670000Y22759999I-1241028J9900D01*
G01*
X-28480000Y24806552D02*
X-11910000Y24806552D01*
X74248732Y-45663241D02*
G75*
G03*
X74960000Y-42840000I-5725032J2943541D01*
G01*
X-48625017Y-5974517D02*
G75*
G03*
X-48124955Y-6474517I500117J117D01*
G01*
X-48625000Y-25025000D02*
G75*
G03*
X-48125000Y-25525000I500000J0D01*
G01*
X66677900Y10240000D02*
G75*
G03*
X65677893Y11240000I-1000000J0D01*
G01*
X-48125040Y-45023560D02*
G75*
G03*
X-48625040Y-45523488I-60J-499940D01*
G01*
X-47624939Y-45533448D02*
G75*
G03*
X-46398448Y-46749999I1216639J48D01*
G01*
X-49841592Y-46750100D02*
G75*
G03*
X-48625040Y-45523488I-108J1216700D01*
G01*
X-48624933Y11591230D02*
G75*
G03*
X-48124915Y11081270I500033J-9830D01*
G01*
X-47624917Y-8974517D02*
G75*
G03*
X-48124955Y-8474517I-500083J-83D01*
G01*
X-28480000Y24806527D02*
G75*
G03*
X-29730000Y23570000I-13400J-1236527D01*
G01*
X10766552Y28570000D02*
X10766552Y25980000D01*
X15940000Y-57820000D02*
X7610000Y-58540000D01*
X-47625040Y-42523488D02*
X-47625000Y-28025000D01*
X53910000Y-64960000D02*
X61613868Y-68641488D01*
X-67896540Y-45533448D02*
G75*
G03*
X-66670000Y-46750000I1216640J48D01*
G01*
X29900008Y23770002D02*
G75*
G03*
X28690000Y24750000I-1210008J-257002D01*
G01*
X-48124915Y9081215D02*
G75*
G03*
X-48624915Y8581270I-85J-499915D01*
G01*
X-66660000Y12806552D02*
G75*
G03*
X-67896552Y11570000I0J-1236552D01*
G01*
X-30964374Y12807822D02*
G75*
G03*
X-29727822Y14044374I-26J1236578D01*
G01*
X58485000Y11240000D02*
X65677893Y11240000D01*
X-66660000Y12806552D02*
X-49851507Y12807782D01*
X10766583Y25980000D02*
G75*
G03*
X12003104Y24750000I1230017J0D01*
G01*
X-48124915Y11081215D02*
G75*
G03*
X-47624915Y11581270I15J499985D01*
G01*
X-48124955Y-6474445D02*
G75*
G03*
X-47624955Y-5974517I-45J500045D01*
G01*
X-48624978Y11591230D02*
G75*
G03*
X-49851507Y12807782I-1216622J-30D01*
G01*
X-47624983Y-45533448D02*
G75*
G03*
X-48125040Y-45023488I-500117J9748D01*
G01*
X-9436896Y29806548D02*
G75*
G03*
X-10673448Y28570000I-4J-1236548D01*
G01*
X-48625088Y-42523488D02*
G75*
G03*
X-48125040Y-43023488I500088J88D01*
G01*
X-46408363Y12807855D02*
G75*
G03*
X-47624914Y11581270I63J-1216655D01*
G01*
X57485001Y4640000D02*
G75*
G03*
X58485000Y3640001I1009999J10000D01*
G01*
X-29730000Y23570000D02*
X-29727822Y14044374D01*
X3790002Y-57089998D02*
G75*
G03*
X-19400000Y-46750000I-22380702J-19019602D01*
G01*
X10766552Y28570000D02*
G75*
G03*
X9530000Y29806552I-1236552J0D01*
G01*
X-49841592Y-46750040D02*
X-66670000Y-46750000D01*
X-48125000Y-25525000D02*
G75*
G03*
X-47625000Y-25025000I0J500000D01*
G01*
X-48124955Y-8474545D02*
G75*
G03*
X-48624955Y-8974517I-45J-499955D01*
G01*
X-48125000Y-27525000D02*
G75*
G03*
X-48625000Y-28025000I0J-500000D01*
G01*
X-47624955Y-5974517D02*
X-47624915Y8581270D01*
X74960000Y-42840000D02*
X74960000Y21510000D01*
X61613883Y-68641447D02*
G75*
G03*
X63629999Y-68109999I623117J1726047D01*
G01*
X-67896552Y-45533448D02*
X-67896552Y11570000D01*
X53910001Y-64959998D02*
G75*
G03*
X15940000Y-57820000I-31697901J-64036302D01*
G01*
M02*
