%TF.GenerationSoftware,KiCad,Pcbnew,(7.0.0-0)*%
%TF.CreationDate,2023-05-19T02:46:10-07:00*%
%TF.ProjectId,Cantor_MX,43616e74-6f72-45f4-9d58-2e6b69636164,rev1.0*%
%TF.SameCoordinates,PX78114e0PY44b6550*%
%TF.FileFunction,Paste,Bot*%
%TF.FilePolarity,Positive*%
%FSLAX46Y46*%
G04 Gerber Fmt 4.6, Leading zero omitted, Abs format (unit mm)*
G04 Created by KiCad (PCBNEW (7.0.0-0)) date 2023-05-19 02:46:10*
%MOMM*%
%LPD*%
G01*
G04 APERTURE LIST*
%TA.AperFunction,Profile*%
%ADD10C,0.100000*%
%TD*%
G04 APERTURE END LIST*
D10*
X-48624915Y9581270D02*
X-48624891Y7740528D01*
X-48624931Y-15524363D02*
X-48624995Y-24525005D01*
X-11910000Y24806548D02*
G75*
G03*
X-10673448Y26043104I0J1236552D01*
G01*
X65685000Y3640000D02*
G75*
G03*
X66685000Y4640000I0J1000000D01*
G01*
X-47624995Y-24525005D02*
X-47624955Y-7526517D01*
X-46398448Y-46750000D02*
X-19400000Y-46750000D01*
X63630000Y-68110000D02*
X74635831Y-44865940D01*
X-47724893Y4374125D02*
X-47724893Y6840528D01*
X3789970Y-57090029D02*
G75*
G03*
X7610000Y-58539999I3440030J3305929D01*
G01*
X-48624976Y-34522846D02*
X-48625040Y-43523488D01*
X58485000Y11240000D02*
G75*
G03*
X57485000Y10240000I200J-1000200D01*
G01*
X57485000Y4640000D02*
X57485000Y10240000D01*
X29900001Y23770000D02*
G75*
G03*
X31110000Y22759999I1209999J219800D01*
G01*
X-47625000Y-26525000D02*
G75*
G03*
X-48125000Y-26025000I-500000J0D01*
G01*
X65685000Y3640000D02*
X58485000Y3640000D01*
X-48625000Y-26525000D02*
X-48624976Y-30256443D01*
X-48624955Y-7526517D02*
X-48624931Y-11257960D01*
X-46408363Y12807822D02*
X-30964374Y12807822D01*
X73670000Y22760000D02*
X31110000Y22760000D01*
X-48124931Y-15024369D02*
G75*
G03*
X-48624931Y-15524363I31J-500031D01*
G01*
X-48124976Y-34022922D02*
G75*
G03*
X-47724978Y-33622846I-24J400022D01*
G01*
X-10673448Y28570000D02*
X-10673448Y26043104D01*
X-9436896Y29806552D02*
X9530000Y29806552D01*
X-48125040Y-44023460D02*
G75*
G03*
X-47625040Y-43523488I40J499960D01*
G01*
X66677893Y10240000D02*
X66685000Y4640000D01*
X12003104Y24750000D02*
X28690000Y24750000D01*
X-48624891Y3474125D02*
X-48624955Y-5526517D01*
X-47624930Y9581270D02*
G75*
G03*
X-48124915Y10081270I-499970J30D01*
G01*
X-47724933Y-14624363D02*
X-47724933Y-12157960D01*
X74960028Y21510000D02*
G75*
G03*
X73670000Y22759999I-1241028J9900D01*
G01*
X-28480000Y24806552D02*
X-11910000Y24806552D01*
X74635824Y-44865936D02*
G75*
G03*
X74959999Y-43570000I-2650524J1351536D01*
G01*
X-48624917Y-5526517D02*
G75*
G03*
X-48124955Y-6026517I500017J17D01*
G01*
X-48625005Y-24525005D02*
G75*
G03*
X-48124995Y-25025005I500005J5D01*
G01*
X66677900Y10240000D02*
G75*
G03*
X65677893Y11240000I-1000000J0D01*
G01*
X-48125040Y-45023560D02*
G75*
G03*
X-48625040Y-45523488I-60J-499940D01*
G01*
X-47624939Y-45533448D02*
G75*
G03*
X-46398448Y-46749999I1216639J48D01*
G01*
X-48124931Y-15024367D02*
G75*
G03*
X-47724933Y-14624363I31J399967D01*
G01*
X-49841592Y-46750100D02*
G75*
G03*
X-48625040Y-45523488I-108J1216700D01*
G01*
X-48624933Y11591230D02*
G75*
G03*
X-48124915Y11081270I500033J-9830D01*
G01*
X-47625017Y-7526517D02*
G75*
G03*
X-48124955Y-7026517I-499983J17D01*
G01*
X-48624943Y-30256443D02*
G75*
G03*
X-48124976Y-30756443I499943J-57D01*
G01*
X-28480000Y24806527D02*
G75*
G03*
X-29730000Y23570000I-13400J-1236527D01*
G01*
X10766552Y28570000D02*
X10766552Y25980000D01*
X15940000Y-57820000D02*
X7610000Y-58540000D01*
X-47625040Y-43523488D02*
X-47625000Y-26525000D01*
X53910000Y-64960000D02*
X61613868Y-68641488D01*
X-67896540Y-45533448D02*
G75*
G03*
X-66670000Y-46750000I1216640J48D01*
G01*
X29900008Y23770002D02*
G75*
G03*
X28690000Y24750000I-1210008J-257002D01*
G01*
X-47724978Y-33622846D02*
X-47724978Y-31156443D01*
X-48124915Y10081315D02*
G75*
G03*
X-48624915Y9581270I15J-500015D01*
G01*
X-66660000Y12806552D02*
G75*
G03*
X-67896552Y11570000I0J-1236552D01*
G01*
X-30964374Y12807822D02*
G75*
G03*
X-29727822Y14044374I-26J1236578D01*
G01*
X58485000Y11240000D02*
X65677893Y11240000D01*
X-47724960Y-12157960D02*
G75*
G03*
X-48124931Y-11757960I-399940J60D01*
G01*
X-66660000Y12806552D02*
X-49851507Y12807782D01*
X10766583Y25980000D02*
G75*
G03*
X12003104Y24750000I1230017J0D01*
G01*
X-48124915Y11081215D02*
G75*
G03*
X-47624915Y11581270I15J499985D01*
G01*
X-47725043Y-31156443D02*
G75*
G03*
X-48124976Y-30756443I-399957J43D01*
G01*
X-48624872Y7740528D02*
G75*
G03*
X-48124891Y7240528I499972J-28D01*
G01*
X-48124955Y-6026445D02*
G75*
G03*
X-47624955Y-5526517I55J499945D01*
G01*
X-48624978Y11591230D02*
G75*
G03*
X-49851507Y12807782I-1216622J-30D01*
G01*
X-48124976Y-34022824D02*
G75*
G03*
X-48624976Y-34522846I-24J-499976D01*
G01*
X-47624983Y-45533448D02*
G75*
G03*
X-48125040Y-45023488I-500117J9748D01*
G01*
X-48124891Y3974093D02*
G75*
G03*
X-47724893Y4374125I-9J400007D01*
G01*
X-9436896Y29806548D02*
G75*
G03*
X-10673448Y28570000I-4J-1236548D01*
G01*
X-48624860Y-11257960D02*
G75*
G03*
X-48124931Y-11757960I499960J-40D01*
G01*
X-47724872Y6840528D02*
G75*
G03*
X-48124891Y7240528I-400028J-28D01*
G01*
X-48624988Y-43523488D02*
G75*
G03*
X-48125040Y-44023488I499988J-12D01*
G01*
X-46408363Y12807855D02*
G75*
G03*
X-47624914Y11581270I63J-1216655D01*
G01*
X57485001Y4640000D02*
G75*
G03*
X58485000Y3640001I1009999J10000D01*
G01*
X-48124891Y3974091D02*
G75*
G03*
X-48624891Y3474125I-9J-499991D01*
G01*
X-29730000Y23570000D02*
X-29727822Y14044374D01*
X3790002Y-57089998D02*
G75*
G03*
X-19400000Y-46750000I-22380702J-19019602D01*
G01*
X10766552Y28570000D02*
G75*
G03*
X9530000Y29806552I-1236552J0D01*
G01*
X-49841592Y-46750040D02*
X-66670000Y-46750000D01*
X-48124995Y-25025005D02*
G75*
G03*
X-47624995Y-24525005I-5J500005D01*
G01*
X-48124955Y-7026545D02*
G75*
G03*
X-48624955Y-7526517I-45J-499955D01*
G01*
X-48125000Y-26025000D02*
G75*
G03*
X-48625000Y-26525000I0J-500000D01*
G01*
X-47624955Y-5526517D02*
X-47624915Y9581270D01*
X74960000Y-43570000D02*
X74960000Y21510000D01*
X61613883Y-68641447D02*
G75*
G03*
X63629999Y-68109999I623117J1726047D01*
G01*
X-67896552Y-45533448D02*
X-67896552Y11570000D01*
X53910001Y-64959998D02*
G75*
G03*
X15940000Y-57820000I-31697901J-64036302D01*
G01*
M02*
