<?xml version="1.0" encoding="UTF-8" standalone="no"?>
<svg
   version="1.1"
   width="138.8872mm"
   height="89.9922mm"
   viewBox="0.0000 0.0000 138.8872 89.9922"
   id="svg26630"
   sodipodi:docname="Cantor_Classic.svg"
   inkscape:version="1.2.1 (9c6d41e, 2022-07-14)"
   xmlns:inkscape="http://www.inkscape.org/namespaces/inkscape"
   xmlns:sodipodi="http://sodipodi.sourceforge.net/DTD/sodipodi-0.dtd"
   xmlns="http://www.w3.org/2000/svg"
   xmlns:svg="http://www.w3.org/2000/svg">
  <defs
     id="defs26634" />
  <sodipodi:namedview
     id="namedview26632"
     pagecolor="#ffffff"
     bordercolor="#000000"
     borderopacity="0.25"
     inkscape:showpageshadow="2"
     inkscape:pageopacity="0.0"
     inkscape:pagecheckerboard="0"
     inkscape:deskcolor="#d1d1d1"
     inkscape:document-units="mm"
     showgrid="false"
     inkscape:zoom="2.3736587"
     inkscape:cx="200.11301"
     inkscape:cy="170.41203"
     inkscape:window-width="2560"
     inkscape:window-height="1387"
     inkscape:window-x="1728"
     inkscape:window-y="332"
     inkscape:window-maximized="0"
     inkscape:current-layer="svg26630" />
  <title
     id="title26274">SVG Image created as keyboard_pcb-brd.svg date 2023/05/19 01:31:31 </title>
  <desc
     id="desc26276">Image generated by PCBNEW </desc>
  <g
     style="fill:#000000;fill-opacity:1;stroke:#ff0000;stroke-opacity:1;stroke-linecap:round;stroke-linejoin:round"
     transform="translate(0 0) scale(1 1)"
     id="g26278" />
  <g
     style="fill:#000000;fill-opacity:0;stroke:#ff0000;stroke-width:0;stroke-opacity:1;stroke-linecap:round;stroke-linejoin:round"
     id="g26280" />
  <g
     style="fill:#000000;fill-opacity:0;stroke:#ff0000;stroke-width:0.1524;stroke-opacity:1;stroke-linecap:round;stroke-linejoin:round"
     id="g26498">
    <path
       d="M91.0500 42.1500 L109.0500 42.1500 "
       id="path26282"
       style="stroke:#ff0000;stroke-opacity:1" />
    <path
       d="M91.0500 59.1500 L91.0500 42.1500 "
       id="path26284"
       style="stroke:#ff0000;stroke-opacity:1" />
    <path
       d="M109.0500 42.1500 L109.0500 59.1500 "
       id="path26286"
       style="stroke:#ff0000;stroke-opacity:1" />
    <path
       d="M109.0500 59.1500 L91.0500 59.1500 "
       id="path26288"
       style="stroke:#ff0000;stroke-opacity:1" />
    <path
       d="M73.0500 40.1500 L91.0500 40.1500 "
       id="path26290"
       style="stroke:#ff0000;stroke-opacity:1" />
    <path
       d="M73.0500 57.1500 L73.0500 40.1500 "
       id="path26292"
       style="stroke:#ff0000;stroke-opacity:1" />
    <path
       d="M91.0500 40.1500 L91.0500 57.1500 "
       id="path26294"
       style="stroke:#ff0000;stroke-opacity:1" />
    <path
       d="M91.0500 57.1500 L73.0500 57.1500 "
       id="path26296"
       style="stroke:#ff0000;stroke-opacity:1" />
    <path
       d="M19.0500 52.1500 L37.0500 52.1500 "
       id="path26298"
       style="stroke:#ff0000;stroke-opacity:1" />
    <path
       d="M19.0500 69.1500 L19.0500 52.1500 "
       id="path26300"
       style="stroke:#ff0000;stroke-opacity:1" />
    <path
       d="M37.0500 52.1500 L37.0500 69.1500 "
       id="path26302"
       style="stroke:#ff0000;stroke-opacity:1" />
    <path
       d="M37.0500 69.1500 L19.0500 69.1500 "
       id="path26304"
       style="stroke:#ff0000;stroke-opacity:1" />
    <path
       d="M37.0500 6.1500 L55.0500 6.1500 "
       id="path26306"
       style="stroke:#ff0000;stroke-opacity:1" />
    <path
       d="M37.0500 23.1500 L37.0500 6.1500 "
       id="path26308"
       style="stroke:#ff0000;stroke-opacity:1" />
    <path
       d="M55.0500 6.1500 L55.0500 23.1500 "
       id="path26310"
       style="stroke:#ff0000;stroke-opacity:1" />
    <path
       d="M55.0500 23.1500 L37.0500 23.1500 "
       id="path26312"
       style="stroke:#ff0000;stroke-opacity:1" />
    <path
       d="M1.0500 35.1500 L19.0500 35.1500 "
       id="path26314"
       style="stroke:#ff0000;stroke-opacity:1" />
    <path
       d="M1.0500 52.1500 L1.0500 35.1500 "
       id="path26316"
       style="stroke:#ff0000;stroke-opacity:1" />
    <path
       d="M19.0500 35.1500 L19.0500 52.1500 "
       id="path26318"
       style="stroke:#ff0000;stroke-opacity:1" />
    <path
       d="M19.0500 52.1500 L1.0500 52.1500 "
       id="path26320"
       style="stroke:#ff0000;stroke-opacity:1" />
    <path
       d="M73.0500 6.1500 L91.0500 6.1500 "
       id="path26322"
       style="stroke:#ff0000;stroke-opacity:1" />
    <path
       d="M73.0500 23.1500 L73.0500 6.1500 "
       id="path26324"
       style="stroke:#ff0000;stroke-opacity:1" />
    <path
       d="M91.0500 6.1500 L91.0500 23.1500 "
       id="path26326"
       style="stroke:#ff0000;stroke-opacity:1" />
    <path
       d="M91.0500 23.1500 L73.0500 23.1500 "
       id="path26328"
       style="stroke:#ff0000;stroke-opacity:1" />
    <path
       d="M37.0500 23.1500 L55.0500 23.1500 "
       id="path26330"
       style="stroke:#ff0000;stroke-opacity:1" />
    <path
       d="M37.0500 40.1500 L37.0500 23.1500 "
       id="path26332"
       style="stroke:#ff0000;stroke-opacity:1" />
    <path
       d="M55.0500 23.1500 L55.0500 40.1500 "
       id="path26334"
       style="stroke:#ff0000;stroke-opacity:1" />
    <path
       d="M55.0500 40.1500 L37.0500 40.1500 "
       id="path26336"
       style="stroke:#ff0000;stroke-opacity:1" />
    <path
       d="M67.3434 61.9667 L85.2749 60.3979 "
       id="path26338"
       style="stroke:#ff0000;stroke-opacity:1" />
    <path
       d="M68.8251 78.9021 L67.3434 61.9667 "
       id="path26340"
       style="stroke:#ff0000;stroke-opacity:1" />
    <path
       d="M85.2749 60.3979 L86.7566 77.3333 "
       id="path26342"
       style="stroke:#ff0000;stroke-opacity:1" />
    <path
       d="M86.7566 77.3333 L68.8251 78.9021 "
       id="path26344"
       style="stroke:#ff0000;stroke-opacity:1" />
    <path
       d="M19.0500 18.1500 L37.0500 18.1500 "
       id="path26346"
       style="stroke:#ff0000;stroke-opacity:1" />
    <path
       d="M19.0500 35.1500 L19.0500 18.1500 "
       id="path26348"
       style="stroke:#ff0000;stroke-opacity:1" />
    <path
       d="M37.0500 18.1500 L37.0500 35.1500 "
       id="path26350"
       style="stroke:#ff0000;stroke-opacity:1" />
    <path
       d="M37.0500 35.1500 L19.0500 35.1500 "
       id="path26352"
       style="stroke:#ff0000;stroke-opacity:1" />
    <path
       d="M73.0500 23.1500 L91.0500 23.1500 "
       id="path26354"
       style="stroke:#ff0000;stroke-opacity:1" />
    <path
       d="M73.0500 40.1500 L73.0500 23.1500 "
       id="path26356"
       style="stroke:#ff0000;stroke-opacity:1" />
    <path
       d="M91.0500 23.1500 L91.0500 40.1500 "
       id="path26358"
       style="stroke:#ff0000;stroke-opacity:1" />
    <path
       d="M91.0500 40.1500 L73.0500 40.1500 "
       id="path26360"
       style="stroke:#ff0000;stroke-opacity:1" />
    <path
       d="M55.0500 35.1500 L73.0500 35.1500 "
       id="path26362"
       style="stroke:#ff0000;stroke-opacity:1" />
    <path
       d="M55.0500 52.1500 L55.0500 35.1500 "
       id="path26364"
       style="stroke:#ff0000;stroke-opacity:1" />
    <path
       d="M73.0500 35.1500 L73.0500 52.1500 "
       id="path26366"
       style="stroke:#ff0000;stroke-opacity:1" />
    <path
       d="M73.0500 52.1500 L55.0500 52.1500 "
       id="path26368"
       style="stroke:#ff0000;stroke-opacity:1" />
    <path
       d="M55.0500 1.1500 L73.0500 1.1500 "
       id="path26370"
       style="stroke:#ff0000;stroke-opacity:1" />
    <path
       d="M55.0500 18.1500 L55.0500 1.1500 "
       id="path26372"
       style="stroke:#ff0000;stroke-opacity:1" />
    <path
       d="M73.0500 1.1500 L73.0500 18.1500 "
       id="path26374"
       style="stroke:#ff0000;stroke-opacity:1" />
    <path
       d="M73.0500 18.1500 L55.0500 18.1500 "
       id="path26376"
       style="stroke:#ff0000;stroke-opacity:1" />
    <path
       d="M37.0500 40.1500 L55.0500 40.1500 "
       id="path26378"
       style="stroke:#ff0000;stroke-opacity:1" />
    <path
       d="M37.0500 57.1500 L37.0500 40.1500 "
       id="path26380"
       style="stroke:#ff0000;stroke-opacity:1" />
    <path
       d="M55.0500 40.1500 L55.0500 57.1500 "
       id="path26382"
       style="stroke:#ff0000;stroke-opacity:1" />
    <path
       d="M55.0500 57.1500 L37.0500 57.1500 "
       id="path26384"
       style="stroke:#ff0000;stroke-opacity:1" />
    <path
       d="M91.0500 25.1500 L109.0500 25.1500 "
       id="path26386"
       style="stroke:#ff0000;stroke-opacity:1" />
    <path
       d="M91.0500 42.1500 L91.0500 25.1500 "
       id="path26388"
       style="stroke:#ff0000;stroke-opacity:1" />
    <path
       d="M109.0500 25.1500 L109.0500 42.1500 "
       id="path26390"
       style="stroke:#ff0000;stroke-opacity:1" />
    <path
       d="M109.0500 42.1500 L91.0500 42.1500 "
       id="path26392"
       style="stroke:#ff0000;stroke-opacity:1" />
    <path
       d="M115.4855 66.1428 L131.7990 73.7499 "
       id="path26394"
       style="stroke:#ff0000;stroke-opacity:1" />
    <path
       d="M108.3010 81.5501 L115.4855 66.1428 "
       id="path26396"
       style="stroke:#ff0000;stroke-opacity:1" />
    <path
       d="M131.7990 73.7499 L124.6145 89.1572 "
       id="path26398"
       style="stroke:#ff0000;stroke-opacity:1" />
    <path
       d="M124.6145 89.1572 L108.3010 81.5501 "
       id="path26400"
       style="stroke:#ff0000;stroke-opacity:1" />
    <path
       d="M19.0500 35.1500 L37.0500 35.1500 "
       id="path26402"
       style="stroke:#ff0000;stroke-opacity:1" />
    <path
       d="M19.0500 52.1500 L19.0500 35.1500 "
       id="path26404"
       style="stroke:#ff0000;stroke-opacity:1" />
    <path
       d="M37.0500 35.1500 L37.0500 52.1500 "
       id="path26406"
       style="stroke:#ff0000;stroke-opacity:1" />
    <path
       d="M37.0500 52.1500 L19.0500 52.1500 "
       id="path26408"
       style="stroke:#ff0000;stroke-opacity:1" />
    <path
       d="M91.0500 8.1500 L109.0500 8.1500 "
       id="path26410"
       style="stroke:#ff0000;stroke-opacity:1" />
    <path
       d="M91.0500 25.1500 L91.0500 8.1500 "
       id="path26412"
       style="stroke:#ff0000;stroke-opacity:1" />
    <path
       d="M109.0500 8.1500 L109.0500 25.1500 "
       id="path26414"
       style="stroke:#ff0000;stroke-opacity:1" />
    <path
       d="M109.0500 25.1500 L91.0500 25.1500 "
       id="path26416"
       style="stroke:#ff0000;stroke-opacity:1" />
    <path
       d="M1.0500 52.1500 L19.0500 52.1500 "
       id="path26418"
       style="stroke:#ff0000;stroke-opacity:1" />
    <path
       d="M1.0500 69.1500 L1.0500 52.1500 "
       id="path26420"
       style="stroke:#ff0000;stroke-opacity:1" />
    <path
       d="M19.0500 52.1500 L19.0500 69.1500 "
       id="path26422"
       style="stroke:#ff0000;stroke-opacity:1" />
    <path
       d="M19.0500 69.1500 L1.0500 69.1500 "
       id="path26424"
       style="stroke:#ff0000;stroke-opacity:1" />
    <path
       d="M55.0500 18.1500 L73.0500 18.1500 "
       id="path26426"
       style="stroke:#ff0000;stroke-opacity:1" />
    <path
       d="M55.0500 35.1500 L55.0500 18.1500 "
       id="path26428"
       style="stroke:#ff0000;stroke-opacity:1" />
    <path
       d="M73.0500 18.1500 L73.0500 35.1500 "
       id="path26430"
       style="stroke:#ff0000;stroke-opacity:1" />
    <path
       d="M73.0500 35.1500 L55.0500 35.1500 "
       id="path26432"
       style="stroke:#ff0000;stroke-opacity:1" />
    <path
       d="M1.0500 18.1500 L19.0500 18.1500 "
       id="path26434"
       style="stroke:#ff0000;stroke-opacity:1" />
    <path
       d="M1.0500 35.1500 L1.0500 18.1500 "
       id="path26436"
       style="stroke:#ff0000;stroke-opacity:1" />
    <path
       d="M19.0500 18.1500 L19.0500 35.1500 "
       id="path26438"
       style="stroke:#ff0000;stroke-opacity:1" />
    <path
       d="M19.0500 35.1500 L1.0500 35.1500 "
       id="path26440"
       style="stroke:#ff0000;stroke-opacity:1" />
    <path
       d="M91.6627 60.7163 L109.3893 63.8420 "
       id="path26442"
       style="stroke:#ff0000;stroke-opacity:1" />
    <path
       d="M88.7107 77.4580 L91.6627 60.7163 "
       id="path26444"
       style="stroke:#ff0000;stroke-opacity:1" />
    <path
       d="M109.3893 63.8420 L106.4373 80.5837 "
       id="path26446"
       style="stroke:#ff0000;stroke-opacity:1" />
    <path
       d="M106.4373 80.5837 L88.7107 77.4580 "
       id="path26448"
       style="stroke:#ff0000;stroke-opacity:1" />
    <g
       id="g26450"
       style="stroke:#ff0000;stroke-opacity:1" />
    <g
       id="g26452"
       style="stroke:#ff0000;stroke-opacity:1" />
    <g
       id="g26454"
       style="stroke:#ff0000;stroke-opacity:1" />
    <g
       id="g26456"
       style="stroke:#ff0000;stroke-opacity:1" />
    <g
       id="g26458"
       style="stroke:#ff0000;stroke-opacity:1" />
    <g
       id="g26460"
       style="stroke:#ff0000;stroke-opacity:1" />
    <g
       id="g26462"
       style="stroke:#ff0000;stroke-opacity:1" />
    <g
       id="g26464"
       style="stroke:#ff0000;stroke-opacity:1" />
    <g
       id="g26466"
       style="stroke:#ff0000;stroke-opacity:1" />
    <g
       id="g26468"
       style="stroke:#ff0000;stroke-opacity:1" />
    <g
       id="g26470"
       style="stroke:#ff0000;stroke-opacity:1" />
    <g
       id="g26472"
       style="stroke:#ff0000;stroke-opacity:1" />
    <g
       id="g26474"
       style="stroke:#ff0000;stroke-opacity:1" />
    <g
       id="g26476"
       style="stroke:#ff0000;stroke-opacity:1" />
    <g
       id="g26478"
       style="stroke:#ff0000;stroke-opacity:1" />
    <g
       id="g26480"
       style="stroke:#ff0000;stroke-opacity:1" />
    <g
       id="g26482"
       style="stroke:#ff0000;stroke-opacity:1" />
    <g
       id="g26484"
       style="stroke:#ff0000;stroke-opacity:1" />
    <g
       id="g26486"
       style="stroke:#ff0000;stroke-opacity:1" />
    <g
       id="g26488"
       style="stroke:#ff0000;stroke-opacity:1" />
    <g
       id="g26490"
       style="stroke:#ff0000;stroke-opacity:1" />
    <g
       id="g26492"
       style="stroke:#ff0000;stroke-opacity:1" />
    <g
       id="g26494"
       style="stroke:#ff0000;stroke-opacity:1" />
    <g
       id="g26496"
       style="stroke:#ff0000;stroke-opacity:1" />
  </g>
  <g
     style="fill:#000000;fill-opacity:0;stroke:#ff0000;stroke-width:0.1524;stroke-opacity:1;stroke-linecap:round;stroke-linejoin:round"
     id="g26500" />
  <g
     style="fill:#000000;fill-opacity:0;stroke:#ff0000;stroke-width:0.1;stroke-opacity:1;stroke-linecap:round;stroke-linejoin:round"
     id="g26628">
    <path
       d="M118.9500 26.5500 L118.9500 20.9500 "
       id="path26502"
       style="stroke:#ff0000;stroke-opacity:1" />
    <path
       d="M138.8500 8.8500 A1.8000 1.8000 0.0 0 0 137.0500 7.0500"
       id="path26504"
       style="stroke:#ff0000;stroke-opacity:1" />
    <path
       d="M38.0500 5.0500 A2.0000 2.0000 0.0 0 0 36.0500 7.0500"
       id="path26506"
       style="stroke:#ff0000;stroke-opacity:1" />
    <path
       d="M2.0500 70.2500 L42.5500 70.2500 "
       id="path26508"
       style="stroke:#ff0000;stroke-opacity:1" />
    <path
       d="M126.0000 89.1000 L138.4840 72.1379 "
       id="path26510"
       style="stroke:#ff0000;stroke-opacity:1" />
    <path
       d="M63.8000 77.7750 A9.6503 9.6503 0.0 0 0 70.5500 79.8250"
       id="path26512"
       style="stroke:#ff0000;stroke-opacity:1" />
    <path
       d="M56.0500 0.0500 A2.0000 2.0000 0.0 0 0 54.0500 2.0500"
       id="path26514"
       style="stroke:#ff0000;stroke-opacity:1" />
    <path
       d="M128.1500 27.5500 L119.9500 27.5500 "
       id="path26516"
       style="stroke:#ff0000;stroke-opacity:1" />
    <path
       d="M137.0500 7.0500 L93.8000 7.0500 "
       id="path26518"
       style="stroke:#ff0000;stroke-opacity:1" />
    <path
       d="M119.9500 19.9500 A1.0000 1.0000 0.0 0 0 118.9500 20.9500"
       id="path26520"
       style="stroke:#ff0000;stroke-opacity:1" />
    <path
       d="M54.0500 2.0500 L54.0500 3.0500 "
       id="path26522"
       style="stroke:#ff0000;stroke-opacity:1" />
    <path
       d="M74.0500 3.0500 L74.0500 2.0500 "
       id="path26524"
       style="stroke:#ff0000;stroke-opacity:1" />
    <path
       d="M128.1500 27.5500 A1.0000 1.0000 0.0 0 0 129.1500 26.5500"
       id="path26526"
       style="stroke:#ff0000;stroke-opacity:1" />
    <path
       d="M129.1429 20.9500 L129.1500 26.5500 "
       id="path26528"
       style="stroke:#ff0000;stroke-opacity:1" />
    <path
       d="M138.4840 72.1379 A1.8000 1.8000 0.0 0 0 138.8500 71.0500"
       id="path26530"
       style="stroke:#ff0000;stroke-opacity:1" />
    <path
       d="M36.0500 7.0500 L36.0500 15.0500 "
       id="path26532"
       style="stroke:#ff0000;stroke-opacity:1" />
    <path
       d="M34.0500 17.0500 L2.0500 17.0500 "
       id="path26534"
       style="stroke:#ff0000;stroke-opacity:1" />
    <path
       d="M74.0500 2.0500 A2.0000 2.0000 0.0 0 0 72.0500 0.0500"
       id="path26536"
       style="stroke:#ff0000;stroke-opacity:1" />
    <path
       d="M52.0500 5.0500 A2.0000 2.0000 0.0 0 0 54.0500 3.0500"
       id="path26538"
       style="stroke:#ff0000;stroke-opacity:1" />
    <path
       d="M0.0500 68.2500 A2.0000 2.0000 0.0 0 0 2.0500 70.2500"
       id="path26540"
       style="stroke:#ff0000;stroke-opacity:1" />
    <path
       d="M138.8500 71.0500 L138.8500 69.8500 "
       id="path26542"
       style="stroke:#ff0000;stroke-opacity:1" />
    <path
       d="M77.8500 79.2500 L70.5500 79.8250 "
       id="path26544"
       style="stroke:#ff0000;stroke-opacity:1" />
    <path
       d="M116.1794 86.4500 L123.5639 89.7714 "
       id="path26546"
       style="stroke:#ff0000;stroke-opacity:1" />
    <path
       d="M74.0500 3.0500 A2.0000 2.0000 0.0 0 0 76.0500 5.0500"
       id="path26548"
       style="stroke:#ff0000;stroke-opacity:1" />
    <path
       d="M92.0500 6.0500 A2.0312 2.0312 0.0 0 0 93.8000 7.0500"
       id="path26550"
       style="stroke:#ff0000;stroke-opacity:1" />
    <path
       d="M0.0500 19.0500 L0.0500 68.2500 "
       id="path26552"
       style="stroke:#ff0000;stroke-opacity:1" />
    <path
       d="M129.1429 20.9500 A1.0000 1.0000 0.0 0 0 128.1429 19.9500"
       id="path26554"
       style="stroke:#ff0000;stroke-opacity:1" />
    <path
       d="M118.9500 26.5500 A1.0000 1.0000 0.0 0 0 119.9500 27.5500"
       id="path26556"
       style="stroke:#ff0000;stroke-opacity:1" />
    <path
       d="M72.0500 0.0500 L56.0500 0.0500 "
       id="path26558"
       style="stroke:#ff0000;stroke-opacity:1" />
    <path
       d="M2.0500 17.0500 A2.0000 2.0000 0.0 0 0 0.0500 19.0500"
       id="path26560"
       style="stroke:#ff0000;stroke-opacity:1" />
    <path
       d="M63.8000 77.7750 A34.5380 34.5380 0.0 0 0 42.5500 70.2500"
       id="path26562"
       style="stroke:#ff0000;stroke-opacity:1" />
    <path
       d="M119.9500 19.9500 L128.1429 19.9500 "
       id="path26564"
       style="stroke:#ff0000;stroke-opacity:1" />
    <path
       d="M52.0500 5.0500 L38.0500 5.0500 "
       id="path26566"
       style="stroke:#ff0000;stroke-opacity:1" />
    <path
       d="M92.0500 6.0500 A1.9450 1.9450 0.0 0 0 90.3500 5.0500"
       id="path26568"
       style="stroke:#ff0000;stroke-opacity:1" />
    <path
       d="M138.8500 69.8500 L138.8500 8.8500 "
       id="path26570"
       style="stroke:#ff0000;stroke-opacity:1" />
    <path
       d="M34.0500 17.0500 A2.0000 2.0000 0.0 0 0 36.0500 15.0500"
       id="path26572"
       style="stroke:#ff0000;stroke-opacity:1" />
    <path
       d="M123.5639 89.7714 A1.9138 1.9138 0.0 0 0 126.0000 89.1000"
       id="path26574"
       style="stroke:#ff0000;stroke-opacity:1" />
    <path
       d="M90.3500 5.0500 L76.0500 5.0500 "
       id="path26576"
       style="stroke:#ff0000;stroke-opacity:1" />
    <path
       d="M116.1794 86.4500 A72.2355 72.2355 0.0 0 0 77.8500 79.2500"
       id="path26578"
       style="stroke:#ff0000;stroke-opacity:1" />
    <g
       id="g26580"
       style="stroke:#ff0000;stroke-opacity:1" />
    <g
       id="g26582"
       style="stroke:#ff0000;stroke-opacity:1" />
    <g
       id="g26584"
       style="stroke:#ff0000;stroke-opacity:1" />
    <g
       id="g26586"
       style="stroke:#ff0000;stroke-opacity:1" />
    <g
       id="g26588"
       style="stroke:#ff0000;stroke-opacity:1" />
    <g
       id="g26590"
       style="stroke:#ff0000;stroke-opacity:1" />
    <g
       id="g26592"
       style="stroke:#ff0000;stroke-opacity:1" />
    <g
       id="g26594"
       style="stroke:#ff0000;stroke-opacity:1" />
    <g
       id="g26596"
       style="stroke:#ff0000;stroke-opacity:1" />
    <g
       id="g26598"
       style="stroke:#ff0000;stroke-opacity:1" />
    <g
       id="g26600"
       style="stroke:#ff0000;stroke-opacity:1" />
    <g
       id="g26602"
       style="stroke:#ff0000;stroke-opacity:1" />
    <g
       id="g26604"
       style="stroke:#ff0000;stroke-opacity:1" />
    <g
       id="g26606"
       style="stroke:#ff0000;stroke-opacity:1" />
    <g
       id="g26608"
       style="stroke:#ff0000;stroke-opacity:1" />
    <g
       id="g26610"
       style="stroke:#ff0000;stroke-opacity:1" />
    <g
       id="g26612"
       style="stroke:#ff0000;stroke-opacity:1" />
    <g
       id="g26614"
       style="stroke:#ff0000;stroke-opacity:1" />
    <g
       id="g26616"
       style="stroke:#ff0000;stroke-opacity:1" />
    <g
       id="g26618"
       style="stroke:#ff0000;stroke-opacity:1" />
    <g
       id="g26620"
       style="stroke:#ff0000;stroke-opacity:1" />
    <g
       id="g26622"
       style="stroke:#ff0000;stroke-opacity:1" />
    <g
       id="g26624"
       style="stroke:#ff0000;stroke-opacity:1" />
    <g
       id="g26626"
       style="stroke:#ff0000;stroke-opacity:1" />
  </g>
</svg>
