%TF.GenerationSoftware,KiCad,Pcbnew,(6.0.5-0)*%
%TF.CreationDate,2023-02-14T08:53:57-08:00*%
%TF.ProjectId,keyboard_pcb,6b657962-6f61-4726-945f-7063622e6b69,rev1.0*%
%TF.SameCoordinates,PX2ebae40PY925c430*%
%TF.FileFunction,Legend,Bot*%
%TF.FilePolarity,Positive*%
%FSLAX46Y46*%
G04 Gerber Fmt 4.6, Leading zero omitted, Abs format (unit mm)*
G04 Created by KiCad (PCBNEW (6.0.5-0)) date 2023-02-14 08:53:57*
%MOMM*%
%LPD*%
G01*
G04 APERTURE LIST*
%ADD10C,0.400000*%
%ADD11C,0.150000*%
%ADD12C,0.120000*%
G04 APERTURE END LIST*
D10*
X139578571Y73998572D02*
X139769047Y74141429D01*
X139959523Y74570000D01*
X139959523Y74855715D01*
X139769047Y75284286D01*
X139388095Y75570000D01*
X139007142Y75712858D01*
X138245238Y75855715D01*
X137673809Y75855715D01*
X136911904Y75712858D01*
X136530952Y75570000D01*
X136150000Y75284286D01*
X135959523Y74855715D01*
X135959523Y74570000D01*
X136150000Y74141429D01*
X136340476Y73998572D01*
X139959523Y71427143D02*
X137864285Y71427143D01*
X137483333Y71570000D01*
X137292857Y71855715D01*
X137292857Y72427143D01*
X137483333Y72712858D01*
X139769047Y71427143D02*
X139959523Y71712858D01*
X139959523Y72427143D01*
X139769047Y72712858D01*
X139388095Y72855715D01*
X139007142Y72855715D01*
X138626190Y72712858D01*
X138435714Y72427143D01*
X138435714Y71712858D01*
X138245238Y71427143D01*
X137292857Y69998572D02*
X139959523Y69998572D01*
X137673809Y69998572D02*
X137483333Y69855715D01*
X137292857Y69570000D01*
X137292857Y69141429D01*
X137483333Y68855715D01*
X137864285Y68712858D01*
X139959523Y68712858D01*
X137292857Y67712858D02*
X137292857Y66570000D01*
X135959523Y67284286D02*
X139388095Y67284286D01*
X139769047Y67141429D01*
X139959523Y66855715D01*
X139959523Y66570000D01*
X139959523Y65141429D02*
X139769047Y65427143D01*
X139578571Y65570000D01*
X139197619Y65712858D01*
X138054761Y65712858D01*
X137673809Y65570000D01*
X137483333Y65427143D01*
X137292857Y65141429D01*
X137292857Y64712858D01*
X137483333Y64427143D01*
X137673809Y64284286D01*
X138054761Y64141429D01*
X139197619Y64141429D01*
X139578571Y64284286D01*
X139769047Y64427143D01*
X139959523Y64712858D01*
X139959523Y65141429D01*
X139959523Y62855715D02*
X137292857Y62855715D01*
X138054761Y62855715D02*
X137673809Y62712858D01*
X137483333Y62570000D01*
X137292857Y62284286D01*
X137292857Y61998572D01*
D11*
%TO.C,K25*%
X116214285Y63172620D02*
X116214285Y64172620D01*
X115642857Y63172620D02*
X116071428Y63744048D01*
X115642857Y64172620D02*
X116214285Y63601191D01*
X115261904Y64077381D02*
X115214285Y64125000D01*
X115119047Y64172620D01*
X114880952Y64172620D01*
X114785714Y64125000D01*
X114738095Y64077381D01*
X114690476Y63982143D01*
X114690476Y63886905D01*
X114738095Y63744048D01*
X115309523Y63172620D01*
X114690476Y63172620D01*
X113785714Y64172620D02*
X114261904Y64172620D01*
X114309523Y63696429D01*
X114261904Y63744048D01*
X114166666Y63791667D01*
X113928571Y63791667D01*
X113833333Y63744048D01*
X113785714Y63696429D01*
X113738095Y63601191D01*
X113738095Y63363096D01*
X113785714Y63267858D01*
X113833333Y63220239D01*
X113928571Y63172620D01*
X114166666Y63172620D01*
X114261904Y63220239D01*
X114309523Y63267858D01*
%TO.C,K24*%
X97164285Y65172620D02*
X97164285Y66172620D01*
X96592857Y65172620D02*
X97021428Y65744048D01*
X96592857Y66172620D02*
X97164285Y65601191D01*
X96211904Y66077381D02*
X96164285Y66125000D01*
X96069047Y66172620D01*
X95830952Y66172620D01*
X95735714Y66125000D01*
X95688095Y66077381D01*
X95640476Y65982143D01*
X95640476Y65886905D01*
X95688095Y65744048D01*
X96259523Y65172620D01*
X95640476Y65172620D01*
X94783333Y65839286D02*
X94783333Y65172620D01*
X95021428Y66220239D02*
X95259523Y65505953D01*
X94640476Y65505953D01*
%TO.C,K21*%
X40014285Y53172620D02*
X40014285Y54172620D01*
X39442857Y53172620D02*
X39871428Y53744048D01*
X39442857Y54172620D02*
X40014285Y53601191D01*
X39061904Y54077381D02*
X39014285Y54125000D01*
X38919047Y54172620D01*
X38680952Y54172620D01*
X38585714Y54125000D01*
X38538095Y54077381D01*
X38490476Y53982143D01*
X38490476Y53886905D01*
X38538095Y53744048D01*
X39109523Y53172620D01*
X38490476Y53172620D01*
X37538095Y53172620D02*
X38109523Y53172620D01*
X37823809Y53172620D02*
X37823809Y54172620D01*
X37919047Y54029762D01*
X38014285Y53934524D01*
X38109523Y53886905D01*
%TO.C,K02*%
X59064285Y103272620D02*
X59064285Y104272620D01*
X58492857Y103272620D02*
X58921428Y103844048D01*
X58492857Y104272620D02*
X59064285Y103701191D01*
X57873809Y104272620D02*
X57778571Y104272620D01*
X57683333Y104225000D01*
X57635714Y104177381D01*
X57588095Y104082143D01*
X57540476Y103891667D01*
X57540476Y103653572D01*
X57588095Y103463096D01*
X57635714Y103367858D01*
X57683333Y103320239D01*
X57778571Y103272620D01*
X57873809Y103272620D01*
X57969047Y103320239D01*
X58016666Y103367858D01*
X58064285Y103463096D01*
X58111904Y103653572D01*
X58111904Y103891667D01*
X58064285Y104082143D01*
X58016666Y104177381D01*
X57969047Y104225000D01*
X57873809Y104272620D01*
X57159523Y104177381D02*
X57111904Y104225000D01*
X57016666Y104272620D01*
X56778571Y104272620D01*
X56683333Y104225000D01*
X56635714Y104177381D01*
X56588095Y104082143D01*
X56588095Y103986905D01*
X56635714Y103844048D01*
X57207142Y103272620D01*
X56588095Y103272620D01*
%TO.C,K10*%
X20964285Y72222620D02*
X20964285Y73222620D01*
X20392857Y72222620D02*
X20821428Y72794048D01*
X20392857Y73222620D02*
X20964285Y72651191D01*
X19440476Y72222620D02*
X20011904Y72222620D01*
X19726190Y72222620D02*
X19726190Y73222620D01*
X19821428Y73079762D01*
X19916666Y72984524D01*
X20011904Y72936905D01*
X18821428Y73222620D02*
X18726190Y73222620D01*
X18630952Y73175000D01*
X18583333Y73127381D01*
X18535714Y73032143D01*
X18488095Y72841667D01*
X18488095Y72603572D01*
X18535714Y72413096D01*
X18583333Y72317858D01*
X18630952Y72270239D01*
X18726190Y72222620D01*
X18821428Y72222620D01*
X18916666Y72270239D01*
X18964285Y72317858D01*
X19011904Y72413096D01*
X19059523Y72603572D01*
X19059523Y72841667D01*
X19011904Y73032143D01*
X18964285Y73127381D01*
X18916666Y73175000D01*
X18821428Y73222620D01*
%TO.C,K04*%
X97164285Y103272620D02*
X97164285Y104272620D01*
X96592857Y103272620D02*
X97021428Y103844048D01*
X96592857Y104272620D02*
X97164285Y103701191D01*
X95973809Y104272620D02*
X95878571Y104272620D01*
X95783333Y104225000D01*
X95735714Y104177381D01*
X95688095Y104082143D01*
X95640476Y103891667D01*
X95640476Y103653572D01*
X95688095Y103463096D01*
X95735714Y103367858D01*
X95783333Y103320239D01*
X95878571Y103272620D01*
X95973809Y103272620D01*
X96069047Y103320239D01*
X96116666Y103367858D01*
X96164285Y103463096D01*
X96211904Y103653572D01*
X96211904Y103891667D01*
X96164285Y104082143D01*
X96116666Y104177381D01*
X96069047Y104225000D01*
X95973809Y104272620D01*
X94783333Y103939286D02*
X94783333Y103272620D01*
X95021428Y104320239D02*
X95259523Y103605953D01*
X94640476Y103605953D01*
%TO.C,K12*%
X59064285Y84222620D02*
X59064285Y85222620D01*
X58492857Y84222620D02*
X58921428Y84794048D01*
X58492857Y85222620D02*
X59064285Y84651191D01*
X57540476Y84222620D02*
X58111904Y84222620D01*
X57826190Y84222620D02*
X57826190Y85222620D01*
X57921428Y85079762D01*
X58016666Y84984524D01*
X58111904Y84936905D01*
X57159523Y85127381D02*
X57111904Y85175000D01*
X57016666Y85222620D01*
X56778571Y85222620D01*
X56683333Y85175000D01*
X56635714Y85127381D01*
X56588095Y85032143D01*
X56588095Y84936905D01*
X56635714Y84794048D01*
X57207142Y84222620D01*
X56588095Y84222620D01*
%TO.C,K30*%
X92329621Y42148760D02*
X92242465Y43144955D01*
X91760367Y42098957D02*
X92137504Y42705563D01*
X91673211Y43095151D02*
X92292269Y42575701D01*
X91341146Y43066099D02*
X90724454Y43012146D01*
X91089721Y42661695D01*
X90947408Y42649244D01*
X90856683Y42593506D01*
X90813395Y42541918D01*
X90774258Y42442892D01*
X90795009Y42205703D01*
X90850747Y42114977D01*
X90902336Y42071690D01*
X91001361Y42032552D01*
X91285989Y42057454D01*
X91376714Y42113192D01*
X91420002Y42164780D01*
X90107762Y42958192D02*
X90012887Y42949892D01*
X89922161Y42894153D01*
X89878874Y42842565D01*
X89839736Y42743539D01*
X89808900Y42549638D01*
X89829651Y42312448D01*
X89893690Y42126847D01*
X89949428Y42036122D01*
X90001017Y41992834D01*
X90100042Y41953697D01*
X90194918Y41961998D01*
X90285644Y42017736D01*
X90328931Y42069324D01*
X90368068Y42168350D01*
X90398905Y42362252D01*
X90378154Y42599441D01*
X90314115Y42785042D01*
X90258376Y42875767D01*
X90206788Y42919055D01*
X90107762Y42958192D01*
%TO.C,K01*%
X40014285Y91272620D02*
X40014285Y92272620D01*
X39442857Y91272620D02*
X39871428Y91844048D01*
X39442857Y92272620D02*
X40014285Y91701191D01*
X38823809Y92272620D02*
X38728571Y92272620D01*
X38633333Y92225000D01*
X38585714Y92177381D01*
X38538095Y92082143D01*
X38490476Y91891667D01*
X38490476Y91653572D01*
X38538095Y91463096D01*
X38585714Y91367858D01*
X38633333Y91320239D01*
X38728571Y91272620D01*
X38823809Y91272620D01*
X38919047Y91320239D01*
X38966666Y91367858D01*
X39014285Y91463096D01*
X39061904Y91653572D01*
X39061904Y91891667D01*
X39014285Y92082143D01*
X38966666Y92177381D01*
X38919047Y92225000D01*
X38823809Y92272620D01*
X37538095Y91272620D02*
X38109523Y91272620D01*
X37823809Y91272620D02*
X37823809Y92272620D01*
X37919047Y92129762D01*
X38014285Y92034524D01*
X38109523Y91986905D01*
%TO.C,K14*%
X97164285Y84222620D02*
X97164285Y85222620D01*
X96592857Y84222620D02*
X97021428Y84794048D01*
X96592857Y85222620D02*
X97164285Y84651191D01*
X95640476Y84222620D02*
X96211904Y84222620D01*
X95926190Y84222620D02*
X95926190Y85222620D01*
X96021428Y85079762D01*
X96116666Y84984524D01*
X96211904Y84936905D01*
X94783333Y84889286D02*
X94783333Y84222620D01*
X95021428Y85270239D02*
X95259523Y84555953D01*
X94640476Y84555953D01*
%TO.C,K23*%
X78114285Y70172620D02*
X78114285Y71172620D01*
X77542857Y70172620D02*
X77971428Y70744048D01*
X77542857Y71172620D02*
X78114285Y70601191D01*
X77161904Y71077381D02*
X77114285Y71125000D01*
X77019047Y71172620D01*
X76780952Y71172620D01*
X76685714Y71125000D01*
X76638095Y71077381D01*
X76590476Y70982143D01*
X76590476Y70886905D01*
X76638095Y70744048D01*
X77209523Y70172620D01*
X76590476Y70172620D01*
X76257142Y71172620D02*
X75638095Y71172620D01*
X75971428Y70791667D01*
X75828571Y70791667D01*
X75733333Y70744048D01*
X75685714Y70696429D01*
X75638095Y70601191D01*
X75638095Y70363096D01*
X75685714Y70267858D01*
X75733333Y70220239D01*
X75828571Y70172620D01*
X76114285Y70172620D01*
X76209523Y70220239D01*
X76257142Y70267858D01*
%TO.C,K03*%
X78114285Y108272620D02*
X78114285Y109272620D01*
X77542857Y108272620D02*
X77971428Y108844048D01*
X77542857Y109272620D02*
X78114285Y108701191D01*
X76923809Y109272620D02*
X76828571Y109272620D01*
X76733333Y109225000D01*
X76685714Y109177381D01*
X76638095Y109082143D01*
X76590476Y108891667D01*
X76590476Y108653572D01*
X76638095Y108463096D01*
X76685714Y108367858D01*
X76733333Y108320239D01*
X76828571Y108272620D01*
X76923809Y108272620D01*
X77019047Y108320239D01*
X77066666Y108367858D01*
X77114285Y108463096D01*
X77161904Y108653572D01*
X77161904Y108891667D01*
X77114285Y109082143D01*
X77066666Y109177381D01*
X77019047Y109225000D01*
X76923809Y109272620D01*
X76257142Y109272620D02*
X75638095Y109272620D01*
X75971428Y108891667D01*
X75828571Y108891667D01*
X75733333Y108844048D01*
X75685714Y108796429D01*
X75638095Y108701191D01*
X75638095Y108463096D01*
X75685714Y108367858D01*
X75733333Y108320239D01*
X75828571Y108272620D01*
X76114285Y108272620D01*
X76209523Y108320239D01*
X76257142Y108367858D01*
%TO.C,K22*%
X59064285Y65172620D02*
X59064285Y66172620D01*
X58492857Y65172620D02*
X58921428Y65744048D01*
X58492857Y66172620D02*
X59064285Y65601191D01*
X58111904Y66077381D02*
X58064285Y66125000D01*
X57969047Y66172620D01*
X57730952Y66172620D01*
X57635714Y66125000D01*
X57588095Y66077381D01*
X57540476Y65982143D01*
X57540476Y65886905D01*
X57588095Y65744048D01*
X58159523Y65172620D01*
X57540476Y65172620D01*
X57159523Y66077381D02*
X57111904Y66125000D01*
X57016666Y66172620D01*
X56778571Y66172620D01*
X56683333Y66125000D01*
X56635714Y66077381D01*
X56588095Y65982143D01*
X56588095Y65886905D01*
X56635714Y65744048D01*
X57207142Y65172620D01*
X56588095Y65172620D01*
%TO.C,K15*%
X116214285Y82222620D02*
X116214285Y83222620D01*
X115642857Y82222620D02*
X116071428Y82794048D01*
X115642857Y83222620D02*
X116214285Y82651191D01*
X114690476Y82222620D02*
X115261904Y82222620D01*
X114976190Y82222620D02*
X114976190Y83222620D01*
X115071428Y83079762D01*
X115166666Y82984524D01*
X115261904Y82936905D01*
X113785714Y83222620D02*
X114261904Y83222620D01*
X114309523Y82746429D01*
X114261904Y82794048D01*
X114166666Y82841667D01*
X113928571Y82841667D01*
X113833333Y82794048D01*
X113785714Y82746429D01*
X113738095Y82651191D01*
X113738095Y82413096D01*
X113785714Y82317858D01*
X113833333Y82270239D01*
X113928571Y82222620D01*
X114166666Y82222620D01*
X114261904Y82270239D01*
X114309523Y82317858D01*
%TO.C,K32*%
X137379381Y34674747D02*
X136956763Y33768439D01*
X137897272Y34433251D02*
X137267358Y34096483D01*
X137474653Y33526943D02*
X137198259Y34286330D01*
X137776756Y33386071D02*
X138337804Y33124450D01*
X138196698Y33610583D01*
X138326171Y33550209D01*
X138432611Y33553117D01*
X138495893Y33576149D01*
X138579300Y33642340D01*
X138679923Y33858127D01*
X138677015Y33964567D01*
X138653982Y34027849D01*
X138587792Y34111256D01*
X138328847Y34232004D01*
X138222407Y34229096D01*
X138159125Y34206063D01*
X138723313Y33049767D02*
X138746346Y32986485D01*
X138812536Y32903078D01*
X139028324Y32802455D01*
X139134763Y32805363D01*
X139198046Y32828396D01*
X139281453Y32894586D01*
X139321702Y32980901D01*
X139338918Y33130498D01*
X139062524Y33889885D01*
X139623572Y33628264D01*
%TO.C,K11*%
X40014285Y72222620D02*
X40014285Y73222620D01*
X39442857Y72222620D02*
X39871428Y72794048D01*
X39442857Y73222620D02*
X40014285Y72651191D01*
X38490476Y72222620D02*
X39061904Y72222620D01*
X38776190Y72222620D02*
X38776190Y73222620D01*
X38871428Y73079762D01*
X38966666Y72984524D01*
X39061904Y72936905D01*
X37538095Y72222620D02*
X38109523Y72222620D01*
X37823809Y72222620D02*
X37823809Y73222620D01*
X37919047Y73079762D01*
X38014285Y72984524D01*
X38109523Y72936905D01*
%TO.C,U1*%
X138458095Y101017620D02*
X138458095Y100208096D01*
X138505714Y100112858D01*
X138553333Y100065239D01*
X138648571Y100017620D01*
X138839047Y100017620D01*
X138934285Y100065239D01*
X138981904Y100112858D01*
X139029523Y100208096D01*
X139029523Y101017620D01*
X140029523Y100017620D02*
X139458095Y100017620D01*
X139743809Y100017620D02*
X139743809Y101017620D01*
X139648571Y100874762D01*
X139553333Y100779524D01*
X139458095Y100731905D01*
%TO.C,K05*%
X116214285Y101272620D02*
X116214285Y102272620D01*
X115642857Y101272620D02*
X116071428Y101844048D01*
X115642857Y102272620D02*
X116214285Y101701191D01*
X115023809Y102272620D02*
X114928571Y102272620D01*
X114833333Y102225000D01*
X114785714Y102177381D01*
X114738095Y102082143D01*
X114690476Y101891667D01*
X114690476Y101653572D01*
X114738095Y101463096D01*
X114785714Y101367858D01*
X114833333Y101320239D01*
X114928571Y101272620D01*
X115023809Y101272620D01*
X115119047Y101320239D01*
X115166666Y101367858D01*
X115214285Y101463096D01*
X115261904Y101653572D01*
X115261904Y101891667D01*
X115214285Y102082143D01*
X115166666Y102177381D01*
X115119047Y102225000D01*
X115023809Y102272620D01*
X113785714Y102272620D02*
X114261904Y102272620D01*
X114309523Y101796429D01*
X114261904Y101844048D01*
X114166666Y101891667D01*
X113928571Y101891667D01*
X113833333Y101844048D01*
X113785714Y101796429D01*
X113738095Y101701191D01*
X113738095Y101463096D01*
X113785714Y101367858D01*
X113833333Y101320239D01*
X113928571Y101272620D01*
X114166666Y101272620D01*
X114261904Y101320239D01*
X114309523Y101367858D01*
%TO.C,K20*%
X20964285Y53172620D02*
X20964285Y54172620D01*
X20392857Y53172620D02*
X20821428Y53744048D01*
X20392857Y54172620D02*
X20964285Y53601191D01*
X20011904Y54077381D02*
X19964285Y54125000D01*
X19869047Y54172620D01*
X19630952Y54172620D01*
X19535714Y54125000D01*
X19488095Y54077381D01*
X19440476Y53982143D01*
X19440476Y53886905D01*
X19488095Y53744048D01*
X20059523Y53172620D01*
X19440476Y53172620D01*
X18821428Y54172620D02*
X18726190Y54172620D01*
X18630952Y54125000D01*
X18583333Y54077381D01*
X18535714Y53982143D01*
X18488095Y53791667D01*
X18488095Y53553572D01*
X18535714Y53363096D01*
X18583333Y53267858D01*
X18630952Y53220239D01*
X18726190Y53172620D01*
X18821428Y53172620D01*
X18916666Y53220239D01*
X18964285Y53267858D01*
X19011904Y53363096D01*
X19059523Y53553572D01*
X19059523Y53791667D01*
X19011904Y53982143D01*
X18964285Y54077381D01*
X18916666Y54125000D01*
X18821428Y54172620D01*
%TO.C,K13*%
X78114285Y89222620D02*
X78114285Y90222620D01*
X77542857Y89222620D02*
X77971428Y89794048D01*
X77542857Y90222620D02*
X78114285Y89651191D01*
X76590476Y89222620D02*
X77161904Y89222620D01*
X76876190Y89222620D02*
X76876190Y90222620D01*
X76971428Y90079762D01*
X77066666Y89984524D01*
X77161904Y89936905D01*
X76257142Y90222620D02*
X75638095Y90222620D01*
X75971428Y89841667D01*
X75828571Y89841667D01*
X75733333Y89794048D01*
X75685714Y89746429D01*
X75638095Y89651191D01*
X75638095Y89413096D01*
X75685714Y89317858D01*
X75733333Y89270239D01*
X75828571Y89222620D01*
X76114285Y89222620D01*
X76209523Y89270239D01*
X76257142Y89317858D01*
%TO.C,K00*%
X20964285Y91272620D02*
X20964285Y92272620D01*
X20392857Y91272620D02*
X20821428Y91844048D01*
X20392857Y92272620D02*
X20964285Y91701191D01*
X19773809Y92272620D02*
X19678571Y92272620D01*
X19583333Y92225000D01*
X19535714Y92177381D01*
X19488095Y92082143D01*
X19440476Y91891667D01*
X19440476Y91653572D01*
X19488095Y91463096D01*
X19535714Y91367858D01*
X19583333Y91320239D01*
X19678571Y91272620D01*
X19773809Y91272620D01*
X19869047Y91320239D01*
X19916666Y91367858D01*
X19964285Y91463096D01*
X20011904Y91653572D01*
X20011904Y91891667D01*
X19964285Y92082143D01*
X19916666Y92177381D01*
X19869047Y92225000D01*
X19773809Y92272620D01*
X18821428Y92272620D02*
X18726190Y92272620D01*
X18630952Y92225000D01*
X18583333Y92177381D01*
X18535714Y92082143D01*
X18488095Y91891667D01*
X18488095Y91653572D01*
X18535714Y91463096D01*
X18583333Y91367858D01*
X18630952Y91320239D01*
X18726190Y91272620D01*
X18821428Y91272620D01*
X18916666Y91320239D01*
X18964285Y91367858D01*
X19011904Y91463096D01*
X19059523Y91653572D01*
X19059523Y91891667D01*
X19011904Y92082143D01*
X18964285Y92177381D01*
X18916666Y92225000D01*
X18821428Y92272620D01*
%TO.C,K31*%
X114116183Y42055955D02*
X113942534Y41071148D01*
X114678930Y41956728D02*
X114157642Y41468401D01*
X114505282Y40971920D02*
X114041762Y41633895D01*
X114833551Y40914037D02*
X115443194Y40806541D01*
X115181076Y41239588D01*
X115321763Y41214781D01*
X115423823Y41245139D01*
X115478988Y41283766D01*
X115542421Y41369288D01*
X115583766Y41603766D01*
X115553409Y41705826D01*
X115514782Y41760991D01*
X115429260Y41824424D01*
X115147886Y41874038D01*
X115045826Y41843680D01*
X114990661Y41805054D01*
X116554754Y41625969D02*
X115992007Y41725197D01*
X116273381Y41675583D02*
X116099732Y40690775D01*
X116030748Y40848000D01*
X115953495Y40958329D01*
X115867973Y41021763D01*
%TO.C,J1*%
X151860000Y48500000D02*
X139760000Y48500000D01*
X151860000Y42400000D02*
X139760000Y42400000D01*
X151860000Y48250000D02*
X153860000Y48250000D01*
X139760000Y48500000D02*
X139760000Y42400000D01*
X151860000Y42650000D02*
X153860000Y42650000D01*
X151860000Y48500000D02*
X151860000Y42400000D01*
X153860000Y48250000D02*
X153860000Y42650000D01*
D12*
%TO.C,U1*%
X146545000Y101720000D02*
X146545000Y50920000D01*
X128705000Y99180000D02*
X131365000Y99180000D01*
X128705000Y50860000D02*
X128705000Y99180000D01*
X146545000Y50920000D02*
X144005000Y50920000D01*
X144005000Y101720000D02*
X146545000Y101720000D01*
X144005000Y50920000D02*
X144005000Y101720000D01*
X128705000Y101780000D02*
X130035000Y101780000D01*
X131365000Y99180000D02*
X131365000Y50860000D01*
X131365000Y50860000D02*
X128705000Y50860000D01*
X128705000Y100450000D02*
X128705000Y101780000D01*
%TD*%
M02*
