M48
; DRILL file {KiCad (6.0.5-0)} date Tuesday, February 14, 2023 at 08:53:54 AM
; FORMAT={-:-/ absolute / inch / decimal}
; #@! TF.CreationDate,2023-02-14T08:53:54-08:00
; #@! TF.GenerationSoftware,Kicad,Pcbnew,(6.0.5-0)
; #@! TF.FileFunction,Plated,1,2,PTH
FMAT,2
INCH
; #@! TA.AperFunction,Plated,PTH,ComponentDrill
T1C0.0118
; #@! TA.AperFunction,Plated,PTH,ViaDrill
T2C0.0157
; #@! TA.AperFunction,Plated,PTH,ComponentDrill
T3C0.0157
; #@! TA.AperFunction,Plated,PTH,ComponentDrill
T4C0.0354
; #@! TA.AperFunction,Plated,PTH,ComponentDrill
T5C0.0394
; #@! TA.AperFunction,Plated,PTH,ComponentDrill
T6C0.0472
%
G90
G05
T2
X5.0228Y3.2555
X5.0228Y2.6524
X5.0232Y3.4543
X5.4862Y3.1051
X5.5689Y3.178
T5
X5.1195Y3.9547
X5.1195Y3.8547
X5.1195Y3.7547
X5.1195Y3.6547
X5.1195Y3.5547
X5.1195Y3.4547
X5.1195Y3.3547
X5.1195Y3.2547
X5.1195Y3.1547
X5.1195Y3.0547
X5.1195Y2.9547
X5.1195Y2.8547
X5.1195Y2.7547
X5.1195Y2.6547
X5.1195Y2.5547
X5.1195Y2.4547
X5.1195Y2.3547
X5.1195Y2.2547
X5.1195Y2.1547
X5.1195Y2.0547
X5.2242Y3.9555
X5.2242Y3.8555
X5.2242Y3.7555
X5.2242Y3.6555
X5.2242Y3.5555
X5.2242Y3.4555
X5.2242Y3.3555
X5.2242Y3.2555
X5.2242Y3.1555
X5.2242Y3.0555
X5.2242Y2.9555
X5.2242Y2.8555
X5.2242Y2.7555
X5.2242Y2.6555
X5.2242Y2.5555
X5.2242Y2.4555
X5.2242Y2.3555
X5.2242Y2.2555
X5.2242Y2.1555
X5.2242Y2.0555
X5.7195Y3.9547
X5.7195Y3.8547
X5.7195Y3.7547
X5.7195Y3.6547
X5.7195Y3.5547
X5.7195Y3.4547
X5.7195Y3.3547
X5.7195Y3.2547
X5.7195Y3.1547
X5.7195Y3.0547
X5.7195Y2.9547
X5.7195Y2.8547
X5.7195Y2.7547
X5.7195Y2.6547
X5.7195Y2.5547
X5.7195Y2.4547
X5.7195Y2.3547
X5.7195Y2.2547
X5.7195Y2.1547
X5.7195Y2.0547
X5.8242Y3.9555
X5.8242Y3.8555
X5.8242Y3.7555
X5.8242Y3.6555
X5.8242Y3.5555
X5.8242Y3.4555
X5.8242Y3.3555
X5.8242Y3.2555
X5.8242Y3.1555
X5.8242Y3.0555
X5.8242Y2.9555
X5.8242Y2.8555
X5.8242Y2.7555
X5.8242Y2.6555
X5.8242Y2.5555
X5.8242Y2.4555
X5.8242Y2.3555
X5.8242Y2.2555
X5.8242Y2.1555
X5.8242Y2.0555
T6
X0.6276Y3.3862
X0.6276Y2.6362
X0.6276Y1.8862
X0.6776Y3.4862
X0.6776Y2.7362
X0.6776Y1.9862
X0.8776Y3.4862
X0.8776Y2.7362
X0.8776Y1.9862
X0.9276Y3.3862
X0.9276Y2.6362
X0.9276Y1.8862
X1.3776Y3.3862
X1.3776Y2.6362
X1.3776Y1.8862
X1.4276Y3.4862
X1.4276Y2.7362
X1.4276Y1.9862
X1.6276Y3.4862
X1.6276Y2.7362
X1.6276Y1.9862
X1.6776Y3.3862
X1.6776Y2.6362
X1.6776Y1.8862
X2.1276Y3.8587
X2.1276Y3.1087
X2.1276Y2.3587
X2.1776Y3.9587
X2.1776Y3.2087
X2.1776Y2.4587
X2.3776Y3.9587
X2.3776Y3.2087
X2.3776Y2.4587
X2.4276Y3.8587
X2.4276Y3.1087
X2.4276Y2.3587
X2.8776Y4.0555
X2.8776Y3.3055
X2.8776Y2.5555
X2.9276Y4.1555
X2.9276Y3.4055
X2.9276Y2.6555
X3.1276Y4.1555
X3.1276Y3.4055
X3.1276Y2.6555
X3.1776Y4.0555
X3.1776Y3.3055
X3.1776Y2.5555
X3.456Y1.4358
X3.4971Y1.5397
X3.6276Y3.8587
X3.6276Y3.1087
X3.6276Y2.3587
X3.6776Y3.9587
X3.6776Y3.2087
X3.6776Y2.4587
X3.6964Y1.5572
X3.7549Y1.4619
X3.8776Y3.9587
X3.8776Y3.2087
X3.8776Y2.4587
X3.9276Y3.8587
X3.9276Y3.1087
X3.9276Y2.3587
X4.35Y1.4344
X4.3776Y3.7799
X4.3776Y3.0299
X4.3776Y2.2799
X4.4166Y1.5242
X4.4276Y3.8799
X4.4276Y3.1299
X4.4276Y2.3799
X4.6135Y1.4894
X4.6276Y3.8799
X4.6276Y3.1299
X4.6276Y2.3799
X4.6454Y1.3823
X4.6776Y3.7799
X4.6776Y3.0299
X4.6776Y2.2799
X5.2134Y1.1883
X5.301Y1.2578
X5.4822Y1.1733
X5.4853Y1.0615
T1
G00X0.5669Y3.5048
M15
G01X0.5945Y3.5046
M16
G05
G00X0.5669Y2.7548
M15
G01X0.5945Y2.7546
M16
G05
G00X0.5669Y2.0048
M15
G01X0.5945Y2.0046
M16
G05
G00X0.7638Y3.0539
M15
G01X0.7913Y3.0539
M16
G05
G00X0.7638Y2.3039
M15
G01X0.7913Y2.3039
M16
G05
G00X0.7638Y1.5539
M15
G01X0.7913Y1.5539
M16
G05
G00X0.9606Y3.5046
M15
G01X0.9882Y3.5048
M16
G05
G00X0.9606Y2.7546
M15
G01X0.9882Y2.7548
M16
G05
G00X0.9606Y2.0046
M15
G01X0.9882Y2.0048
M16
G05
G00X1.3169Y3.5048
M15
G01X1.3445Y3.5046
M16
G05
G00X1.3169Y2.7548
M15
G01X1.3445Y2.7546
M16
G05
G00X1.3169Y2.0048
M15
G01X1.3445Y2.0046
M16
G05
G00X1.5138Y3.0539
M15
G01X1.5413Y3.0539
M16
G05
G00X1.5138Y2.3039
M15
G01X1.5413Y2.3039
M16
G05
G00X1.5138Y1.5539
M15
G01X1.5413Y1.5539
M16
G05
G00X1.7106Y3.5046
M15
G01X1.7382Y3.5048
M16
G05
G00X1.7106Y2.7546
M15
G01X1.7382Y2.7548
M16
G05
G00X1.7106Y2.0046
M15
G01X1.7382Y2.0048
M16
G05
G00X2.0669Y3.9773
M15
G01X2.0945Y3.977
M16
G05
G00X2.0669Y3.2273
M15
G01X2.0945Y3.227
M16
G05
G00X2.0669Y2.4773
M15
G01X2.0945Y2.477
M16
G05
G00X2.2638Y3.5264
M15
G01X2.2913Y3.5264
M16
G05
G00X2.2638Y2.7764
M15
G01X2.2913Y2.7764
M16
G05
G00X2.2638Y2.0264
M15
G01X2.2913Y2.0264
M16
G05
G00X2.4606Y3.977
M15
G01X2.4882Y3.9773
M16
G05
G00X2.4606Y3.227
M15
G01X2.4882Y3.2273
M16
G05
G00X2.4606Y2.477
M15
G01X2.4882Y2.4773
M16
G05
G00X2.8169Y4.1741
M15
G01X2.8445Y4.1739
M16
G05
G00X2.8169Y3.4241
M15
G01X2.8445Y3.4239
M16
G05
G00X2.8169Y2.6741
M15
G01X2.8445Y2.6739
M16
G05
G00X3.0138Y3.7232
M15
G01X3.0413Y3.7232
M16
G05
G00X3.0138Y2.9732
M15
G01X3.0413Y2.9732
M16
G05
G00X3.0138Y2.2232
M15
G01X3.0413Y2.2232
M16
G05
G00X3.2106Y4.1739
M15
G01X3.2382Y4.1741
M16
G05
G00X3.2106Y3.4239
M15
G01X3.2382Y3.4241
M16
G05
G00X3.2106Y2.6739
M15
G01X3.2382Y2.6741
M16
G05
G00X3.3853Y1.5486
M15
G01X3.4128Y1.5508
M16
G05
G00X3.5669Y3.9773
M15
G01X3.5945Y3.977
M16
G05
G00X3.5669Y3.2273
M15
G01X3.5945Y3.227
M16
G05
G00X3.5669Y2.4773
M15
G01X3.5945Y2.477
M16
G05
G00X3.6207Y1.1166
M15
G01X3.6481Y1.119
M16
G05
G00X3.7638Y3.5264
M15
G01X3.7913Y3.5264
M16
G05
G00X3.7638Y2.7764
M15
G01X3.7913Y2.7764
M16
G05
G00X3.7638Y2.0264
M15
G01X3.7913Y2.0264
M16
G05
G00X3.7775Y1.5827
M15
G01X3.8049Y1.5854
M16
G05
G00X3.9606Y3.977
M15
G01X3.9882Y3.9773
M16
G05
G00X3.9606Y3.227
M15
G01X3.9882Y3.2273
M16
G05
G00X3.9606Y2.477
M15
G01X3.9882Y2.4773
M16
G05
G00X4.3108Y1.5617
M15
G01X4.3379Y1.5567
M16
G05
G00X4.3169Y3.8985
M15
G01X4.3445Y3.8983
M16
G05
G00X4.3169Y3.1485
M15
G01X4.3445Y3.1483
M16
G05
G00X4.3169Y2.3985
M15
G01X4.3445Y2.3983
M16
G05
G00X4.4264Y1.0835
M15
G01X4.4535Y1.0787
M16
G05
G00X4.5138Y3.4476
M15
G01X4.5413Y3.4476
M16
G05
G00X4.5138Y2.6976
M15
G01X4.5413Y2.6976
M16
G05
G00X4.5138Y1.9476
M15
G01X4.5413Y1.9476
M16
G05
G00X4.6985Y1.4931
M15
G01X4.7257Y1.4886
M16
G05
G00X4.7106Y3.8983
M15
G01X4.7382Y3.8985
M16
G05
G00X4.7106Y3.1483
M15
G01X4.7382Y3.1485
M16
G05
G00X4.7106Y2.3983
M15
G01X4.7382Y2.3985
M16
G05
G00X5.1964Y0.8296
M15
G01X5.2214Y0.8179
M16
G05
G00X5.2086Y1.3214
M15
G01X5.2335Y1.3095
M16
G05
G00X5.5653Y1.1548
M15
G01X5.5904Y1.1434
M16
G05
T3
G00X0.565Y3.1327
M15
G01X0.5886Y3.1327
M16
G05
G00X0.565Y2.3827
M15
G01X0.5886Y2.3827
M16
G05
G00X0.565Y1.6327
M15
G01X0.5886Y1.6327
M16
G05
G00X0.9665Y3.1327
M15
G01X0.9902Y3.1327
M16
G05
G00X0.9665Y2.3827
M15
G01X0.9902Y2.3827
M16
G05
G00X0.9665Y1.6327
M15
G01X0.9902Y1.6327
M16
G05
G00X1.315Y3.1327
M15
G01X1.3386Y3.1327
M16
G05
G00X1.315Y2.3827
M15
G01X1.3386Y2.3827
M16
G05
G00X1.315Y1.6327
M15
G01X1.3386Y1.6327
M16
G05
G00X1.7165Y3.1327
M15
G01X1.7402Y3.1327
M16
G05
G00X1.7165Y2.3827
M15
G01X1.7402Y2.3827
M16
G05
G00X1.7165Y1.6327
M15
G01X1.7402Y1.6327
M16
G05
G00X2.065Y3.6051
M15
G01X2.0886Y3.6051
M16
G05
G00X2.065Y2.8551
M15
G01X2.0886Y2.8551
M16
G05
G00X2.065Y2.1051
M15
G01X2.0886Y2.1051
M16
G05
G00X2.4665Y3.6051
M15
G01X2.4902Y3.6051
M16
G05
G00X2.4665Y2.8551
M15
G01X2.4902Y2.8551
M16
G05
G00X2.4665Y2.1051
M15
G01X2.4902Y2.1051
M16
G05
G00X2.815Y3.802
M15
G01X2.8386Y3.802
M16
G05
G00X2.815Y3.052
M15
G01X2.8386Y3.052
M16
G05
G00X2.815Y2.302
M15
G01X2.8386Y2.302
M16
G05
G00X3.2165Y3.802
M15
G01X3.2402Y3.802
M16
G05
G00X3.2165Y3.052
M15
G01X3.2402Y3.052
M16
G05
G00X3.2165Y2.302
M15
G01X3.2402Y2.302
M16
G05
G00X3.4158Y1.1777
M15
G01X3.4393Y1.1798
M16
G05
G00X3.565Y3.6051
M15
G01X3.5886Y3.6051
M16
G05
G00X3.565Y2.8551
M15
G01X3.5886Y2.8551
M16
G05
G00X3.565Y2.1051
M15
G01X3.5886Y2.1051
M16
G05
G00X3.8158Y1.2127
M15
G01X3.8393Y1.2148
M16
G05
G00X3.9665Y3.6051
M15
G01X3.9902Y3.6051
M16
G05
G00X3.9665Y2.8551
M15
G01X3.9902Y2.8551
M16
G05
G00X3.9665Y2.1051
M15
G01X3.9902Y2.1051
M16
G05
G00X4.2443Y1.1955
M15
G01X4.2675Y1.1914
M16
G05
G00X4.315Y3.5264
M15
G01X4.3386Y3.5264
M16
G05
G00X4.315Y2.7764
M15
G01X4.3386Y2.7764
M16
G05
G00X4.315Y2.0264
M15
G01X4.3386Y2.0264
M16
G05
G00X4.6398Y1.1258
M15
G01X4.663Y1.1217
M16
G05
G00X4.7165Y3.5264
M15
G01X4.7402Y3.5264
M16
G05
G00X4.7165Y2.7764
M15
G01X4.7402Y2.7764
M16
G05
G00X4.7165Y2.0264
M15
G01X4.7402Y2.0264
M16
G05
G00X5.0495Y0.9849
M15
G01X5.0709Y0.975
M16
G05
G00X5.4135Y0.8152
M15
G01X5.4349Y0.8052
M16
G05
T4
G00X5.5417Y1.7972
M15
G01X5.526Y1.7972
M16
G05
G00X5.5417Y1.6988
M15
G01X5.526Y1.6988
M16
G05
G00X5.585Y1.8799
M15
G01X5.5693Y1.8799
M16
G05
G00X5.585Y1.6161
M15
G01X5.5693Y1.6161
M16
G05
G00X5.7425Y1.8799
M15
G01X5.7268Y1.8799
M16
G05
G00X5.7425Y1.6161
M15
G01X5.7268Y1.6161
M16
G05
G00X5.8606Y1.8799
M15
G01X5.8449Y1.8799
M16
G05
G00X5.8606Y1.6161
M15
G01X5.8449Y1.6161
M16
G05
T0
M30
