M48
; DRILL file {KiCad (6.0.5-0)} date Monday, February 13, 2023 at 07:00:41 PM
; FORMAT={-:-/ absolute / inch / decimal}
; #@! TF.CreationDate,2023-02-13T19:00:41-08:00
; #@! TF.GenerationSoftware,Kicad,Pcbnew,(6.0.5-0)
; #@! TF.FileFunction,NonPlated,1,2,NPTH
FMAT,2
INCH
; #@! TA.AperFunction,NonPlated,NPTH,ComponentDrill
T1C0.0315
; #@! TA.AperFunction,NonPlated,NPTH,ComponentDrill
T2C0.0669
; #@! TA.AperFunction,NonPlated,NPTH,ComponentDrill
T3C0.0709
; #@! TA.AperFunction,NonPlated,NPTH,ComponentDrill
T4C0.1929
%
G90
G05
T1
X7.6476Y-4.252
X7.6476Y-4.3346
X7.9232Y-4.252
X7.9232Y-4.3346
T2
X2.5067Y-2.7559
X2.5067Y-3.5059
X2.5067Y-4.2559
X2.9067Y-2.7559
X2.9067Y-3.5059
X2.9067Y-4.2559
X3.2567Y-2.7559
X3.2567Y-3.5059
X3.2567Y-4.2559
X3.6567Y-2.7559
X3.6567Y-3.5059
X3.6567Y-4.2559
X4.0067Y-2.2835
X4.0067Y-3.0335
X4.0067Y-3.7835
X4.4067Y-2.2835
X4.4067Y-3.0335
X4.4067Y-3.7835
X4.7567Y-2.0866
X4.7567Y-2.8366
X4.7567Y-3.5866
X5.1567Y-2.0866
X5.1567Y-2.8366
X5.1567Y-3.5866
X5.3441Y-4.7103
X5.5067Y-2.2835
X5.5067Y-3.0335
X5.5067Y-3.7835
X5.7425Y-4.6755
X5.9067Y-2.2835
X5.9067Y-3.0335
X5.9067Y-3.7835
X6.2125Y-4.6976
X6.2567Y-2.3622
X6.2567Y-3.1122
X6.2567Y-3.8622
X6.6064Y-4.767
X6.6567Y-2.3622
X6.6567Y-3.1122
X6.6567Y-3.8622
X7.055Y-4.9234
X7.4175Y-5.0924
T3
X2.4902Y-2.7559
X2.4902Y-3.5059
X2.4902Y-4.2559
X2.9232Y-2.7559
X2.9232Y-3.5059
X2.9232Y-4.2559
X3.2402Y-2.7559
X3.2402Y-3.5059
X3.2402Y-4.2559
X3.6732Y-2.7559
X3.6732Y-3.5059
X3.6732Y-4.2559
X3.9902Y-2.2835
X3.9902Y-3.0335
X3.9902Y-3.7835
X4.4232Y-2.2835
X4.4232Y-3.0335
X4.4232Y-3.7835
X4.7402Y-2.0866
X4.7402Y-2.8366
X4.7402Y-3.5866
X5.1732Y-2.0866
X5.1732Y-2.8366
X5.1732Y-3.5866
X5.3276Y-4.7118
X5.4902Y-2.2835
X5.4902Y-3.0335
X5.4902Y-3.7835
X5.759Y-4.674
X5.9232Y-2.2835
X5.9232Y-3.0335
X5.9232Y-3.7835
X6.1962Y-4.6947
X6.2402Y-2.3622
X6.2402Y-3.1122
X6.2402Y-3.8622
X6.6227Y-4.7699
X6.6732Y-2.3622
X6.6732Y-3.1122
X6.6732Y-3.8622
X7.04Y-4.9164
X7.4325Y-5.0994
T4
X2.7067Y-2.7559
X2.7067Y-3.5059
X2.7067Y-4.2559
X3.4567Y-2.7559
X3.4567Y-3.5059
X3.4567Y-4.2559
X4.2067Y-2.2835
X4.2067Y-3.0335
X4.2067Y-3.7835
X4.9567Y-2.0866
X4.9567Y-2.8366
X4.9567Y-3.5866
X5.5433Y-4.6929
X5.7067Y-2.2835
X5.7067Y-3.0335
X5.7067Y-3.7835
X6.4094Y-4.7323
X6.4567Y-2.3622
X6.4567Y-3.1122
X6.4567Y-3.8622
X7.2362Y-5.0079
T0
M30
