M48
; DRILL file {KiCad (6.0.5-0)} date Monday, February 13, 2023 at 07:00:41 PM
; FORMAT={-:-/ absolute / inch / decimal}
; #@! TF.CreationDate,2023-02-13T19:00:41-08:00
; #@! TF.GenerationSoftware,Kicad,Pcbnew,(6.0.5-0)
; #@! TF.FileFunction,Plated,1,2,PTH
FMAT,2
INCH
; #@! TA.AperFunction,Plated,PTH,ComponentDrill
T1C0.0118
; #@! TA.AperFunction,Plated,PTH,ViaDrill
T2C0.0157
; #@! TA.AperFunction,Plated,PTH,ComponentDrill
T3C0.0157
; #@! TA.AperFunction,Plated,PTH,ComponentDrill
T4C0.0354
; #@! TA.AperFunction,Plated,PTH,ComponentDrill
T5C0.0394
; #@! TA.AperFunction,Plated,PTH,ComponentDrill
T6C0.0472
%
G90
G05
T2
X6.9291Y-2.748
X6.9409Y-3.4134
X6.9587Y-2.5925
X6.9724Y-3.248
X7.2807Y-3.8425
X7.3Y-2.9425
X7.498Y-2.8642
X7.8713Y-3.3406
X7.8732Y-2.2346
T5
X7.0486Y-2.0874
X7.0486Y-2.1874
X7.0486Y-2.2874
X7.0486Y-2.3874
X7.0486Y-2.4874
X7.0486Y-2.5874
X7.0486Y-2.6874
X7.0486Y-2.7874
X7.0486Y-2.8874
X7.0486Y-2.9874
X7.0486Y-3.0874
X7.0486Y-3.1874
X7.0486Y-3.2874
X7.0486Y-3.3874
X7.0486Y-3.4874
X7.0486Y-3.5874
X7.0486Y-3.6874
X7.0486Y-3.7874
X7.0486Y-3.8874
X7.0486Y-3.9874
X7.1533Y-2.0866
X7.1533Y-2.1866
X7.1533Y-2.2866
X7.1533Y-2.3866
X7.1533Y-2.4866
X7.1533Y-2.5866
X7.1533Y-2.6866
X7.1533Y-2.7866
X7.1533Y-2.8866
X7.1533Y-2.9866
X7.1533Y-3.0866
X7.1533Y-3.1866
X7.1533Y-3.2866
X7.1533Y-3.3866
X7.1533Y-3.4866
X7.1533Y-3.5866
X7.1533Y-3.6866
X7.1533Y-3.7866
X7.1533Y-3.8866
X7.1533Y-3.9866
X7.6486Y-2.0874
X7.6486Y-2.1874
X7.6486Y-2.2874
X7.6486Y-2.3874
X7.6486Y-2.4874
X7.6486Y-2.5874
X7.6486Y-2.6874
X7.6486Y-2.7874
X7.6486Y-2.8874
X7.6486Y-2.9874
X7.6486Y-3.0874
X7.6486Y-3.1874
X7.6486Y-3.2874
X7.6486Y-3.3874
X7.6486Y-3.4874
X7.6486Y-3.5874
X7.6486Y-3.6874
X7.6486Y-3.7874
X7.6486Y-3.8874
X7.6486Y-3.9874
X7.7533Y-2.0866
X7.7533Y-2.1866
X7.7533Y-2.2866
X7.7533Y-2.3866
X7.7533Y-2.4866
X7.7533Y-2.5866
X7.7533Y-2.6866
X7.7533Y-2.7866
X7.7533Y-2.8866
X7.7533Y-2.9866
X7.7533Y-3.0866
X7.7533Y-3.1866
X7.7533Y-3.2866
X7.7533Y-3.3866
X7.7533Y-3.4866
X7.7533Y-3.5866
X7.7533Y-3.6866
X7.7533Y-3.7866
X7.7533Y-3.8866
X7.7533Y-3.9866
T6
X2.5567Y-2.6559
X2.5567Y-3.4059
X2.5567Y-4.1559
X2.6067Y-2.5559
X2.6067Y-3.3059
X2.6067Y-4.0559
X2.8067Y-2.5559
X2.8067Y-3.3059
X2.8067Y-4.0559
X2.8567Y-2.6559
X2.8567Y-3.4059
X2.8567Y-4.1559
X3.3067Y-2.6559
X3.3067Y-3.4059
X3.3067Y-4.1559
X3.3567Y-2.5559
X3.3567Y-3.3059
X3.3567Y-4.0559
X3.5567Y-2.5559
X3.5567Y-3.3059
X3.5567Y-4.0559
X3.6067Y-2.6559
X3.6067Y-3.4059
X3.6067Y-4.1559
X4.0567Y-2.1835
X4.0567Y-2.9335
X4.0567Y-3.6835
X4.1067Y-2.0835
X4.1067Y-2.8335
X4.1067Y-3.5835
X4.3067Y-2.0835
X4.3067Y-2.8335
X4.3067Y-3.5835
X4.3567Y-2.1835
X4.3567Y-2.9335
X4.3567Y-3.6835
X4.8067Y-1.9866
X4.8067Y-2.7366
X4.8067Y-3.4866
X4.8567Y-1.8866
X4.8567Y-2.6366
X4.8567Y-3.3866
X5.0567Y-1.8866
X5.0567Y-2.6366
X5.0567Y-3.3866
X5.1067Y-1.9866
X5.1067Y-2.7366
X5.1067Y-3.4866
X5.3852Y-4.6064
X5.4263Y-4.5024
X5.5567Y-2.1835
X5.5567Y-2.9335
X5.5567Y-3.6835
X5.6067Y-2.0835
X5.6067Y-2.8335
X5.6067Y-3.5835
X5.6255Y-4.485
X5.684Y-4.5802
X5.8067Y-2.0835
X5.8067Y-2.8335
X5.8067Y-3.5835
X5.8567Y-2.1835
X5.8567Y-2.9335
X5.8567Y-3.6835
X6.2791Y-4.6078
X6.3067Y-2.2622
X6.3067Y-3.0122
X6.3067Y-3.7622
X6.3457Y-4.518
X6.3567Y-2.1622
X6.3567Y-2.9122
X6.3567Y-3.6622
X6.5427Y-4.5527
X6.5567Y-2.1622
X6.5567Y-2.9122
X6.5567Y-3.6622
X6.5745Y-4.6598
X6.6067Y-2.2622
X6.6067Y-3.0122
X6.6067Y-3.7622
X7.1425Y-4.8539
X7.2301Y-4.7844
X7.4114Y-4.8689
X7.4144Y-4.9806
T1
G00X2.4961Y-2.5373
M15
G01X2.5236Y-2.5375
M16
G05
G00X2.4961Y-3.2873
M15
G01X2.5236Y-3.2875
M16
G05
G00X2.4961Y-4.0373
M15
G01X2.5236Y-4.0375
M16
G05
G00X2.6929Y-2.9882
M15
G01X2.7205Y-2.9882
M16
G05
G00X2.6929Y-3.7382
M15
G01X2.7205Y-3.7382
M16
G05
G00X2.6929Y-4.4882
M15
G01X2.7205Y-4.4882
M16
G05
G00X2.8898Y-2.5375
M15
G01X2.9173Y-2.5373
M16
G05
G00X2.8898Y-3.2875
M15
G01X2.9173Y-3.2873
M16
G05
G00X2.8898Y-4.0375
M15
G01X2.9173Y-4.0373
M16
G05
G00X3.2461Y-2.5373
M15
G01X3.2736Y-2.5375
M16
G05
G00X3.2461Y-3.2873
M15
G01X3.2736Y-3.2875
M16
G05
G00X3.2461Y-4.0373
M15
G01X3.2736Y-4.0375
M16
G05
G00X3.4429Y-2.9882
M15
G01X3.4705Y-2.9882
M16
G05
G00X3.4429Y-3.7382
M15
G01X3.4705Y-3.7382
M16
G05
G00X3.4429Y-4.4882
M15
G01X3.4705Y-4.4882
M16
G05
G00X3.6398Y-2.5375
M15
G01X3.6673Y-2.5373
M16
G05
G00X3.6398Y-3.2875
M15
G01X3.6673Y-3.2873
M16
G05
G00X3.6398Y-4.0375
M15
G01X3.6673Y-4.0373
M16
G05
G00X3.9961Y-2.0648
M15
G01X4.0236Y-2.0651
M16
G05
G00X3.9961Y-2.8148
M15
G01X4.0236Y-2.8151
M16
G05
G00X3.9961Y-3.5648
M15
G01X4.0236Y-3.5651
M16
G05
G00X4.1929Y-2.5157
M15
G01X4.2205Y-2.5157
M16
G05
G00X4.1929Y-3.2657
M15
G01X4.2205Y-3.2657
M16
G05
G00X4.1929Y-4.0157
M15
G01X4.2205Y-4.0157
M16
G05
G00X4.3898Y-2.0651
M15
G01X4.4173Y-2.0648
M16
G05
G00X4.3898Y-2.8151
M15
G01X4.4173Y-2.8148
M16
G05
G00X4.3898Y-3.5651
M15
G01X4.4173Y-3.5648
M16
G05
G00X4.7461Y-1.868
M15
G01X4.7736Y-1.8682
M16
G05
G00X4.7461Y-2.618
M15
G01X4.7736Y-2.6182
M16
G05
G00X4.7461Y-3.368
M15
G01X4.7736Y-3.3682
M16
G05
G00X4.9429Y-2.3189
M15
G01X4.9705Y-2.3189
M16
G05
G00X4.9429Y-3.0689
M15
G01X4.9705Y-3.0689
M16
G05
G00X4.9429Y-3.8189
M15
G01X4.9705Y-3.8189
M16
G05
G00X5.1398Y-1.8682
M15
G01X5.1673Y-1.868
M16
G05
G00X5.1398Y-2.6182
M15
G01X5.1673Y-2.618
M16
G05
G00X5.1398Y-3.3682
M15
G01X5.1673Y-3.368
M16
G05
G00X5.3144Y-4.4935
M15
G01X5.3419Y-4.4913
M16
G05
G00X5.4961Y-2.0648
M15
G01X5.5236Y-2.0651
M16
G05
G00X5.4961Y-2.8148
M15
G01X5.5236Y-2.8151
M16
G05
G00X5.4961Y-3.5648
M15
G01X5.5236Y-3.5651
M16
G05
G00X5.5498Y-4.9255
M15
G01X5.5773Y-4.9231
M16
G05
G00X5.6929Y-2.5157
M15
G01X5.7205Y-2.5157
M16
G05
G00X5.6929Y-3.2657
M15
G01X5.7205Y-3.2657
M16
G05
G00X5.6929Y-4.0157
M15
G01X5.7205Y-4.0157
M16
G05
G00X5.7066Y-4.4594
M15
G01X5.7341Y-4.4568
M16
G05
G00X5.8898Y-2.0651
M15
G01X5.9173Y-2.0648
M16
G05
G00X5.8898Y-2.8151
M15
G01X5.9173Y-2.8148
M16
G05
G00X5.8898Y-3.5651
M15
G01X5.9173Y-3.5648
M16
G05
G00X6.24Y-4.4804
M15
G01X6.2671Y-4.4854
M16
G05
G00X6.2461Y-2.1436
M15
G01X6.2736Y-2.1438
M16
G05
G00X6.2461Y-2.8936
M15
G01X6.2736Y-2.8938
M16
G05
G00X6.2461Y-3.6436
M15
G01X6.2736Y-3.6438
M16
G05
G00X6.3555Y-4.9586
M15
G01X6.3827Y-4.9634
M16
G05
G00X6.4429Y-2.5945
M15
G01X6.4705Y-2.5945
M16
G05
G00X6.4429Y-3.3445
M15
G01X6.4705Y-3.3445
M16
G05
G00X6.4429Y-4.0945
M15
G01X6.4705Y-4.0945
M16
G05
G00X6.6277Y-4.549
M15
G01X6.6548Y-4.5536
M16
G05
G00X6.6398Y-2.1438
M15
G01X6.6673Y-2.1436
M16
G05
G00X6.6398Y-2.8938
M15
G01X6.6673Y-2.8936
M16
G05
G00X6.6398Y-3.6438
M15
G01X6.6673Y-3.6436
M16
G05
G00X7.1256Y-5.2126
M15
G01X7.1505Y-5.2242
M16
G05
G00X7.1377Y-4.7207
M15
G01X7.1626Y-4.7326
M16
G05
G00X7.4944Y-4.8873
M15
G01X7.5195Y-4.8987
M16
G05
T3
G00X2.4941Y-2.9094
M15
G01X2.5177Y-2.9094
M16
G05
G00X2.4941Y-3.6594
M15
G01X2.5177Y-3.6594
M16
G05
G00X2.4941Y-4.4094
M15
G01X2.5177Y-4.4094
M16
G05
G00X2.8957Y-2.9094
M15
G01X2.9193Y-2.9094
M16
G05
G00X2.8957Y-3.6594
M15
G01X2.9193Y-3.6594
M16
G05
G00X2.8957Y-4.4094
M15
G01X2.9193Y-4.4094
M16
G05
G00X3.2441Y-2.9094
M15
G01X3.2677Y-2.9094
M16
G05
G00X3.2441Y-3.6594
M15
G01X3.2677Y-3.6594
M16
G05
G00X3.2441Y-4.4094
M15
G01X3.2677Y-4.4094
M16
G05
G00X3.6457Y-2.9094
M15
G01X3.6693Y-2.9094
M16
G05
G00X3.6457Y-3.6594
M15
G01X3.6693Y-3.6594
M16
G05
G00X3.6457Y-4.4094
M15
G01X3.6693Y-4.4094
M16
G05
G00X3.9941Y-2.437
M15
G01X4.0177Y-2.437
M16
G05
G00X3.9941Y-3.187
M15
G01X4.0177Y-3.187
M16
G05
G00X3.9941Y-3.937
M15
G01X4.0177Y-3.937
M16
G05
G00X4.3957Y-2.437
M15
G01X4.4193Y-2.437
M16
G05
G00X4.3957Y-3.187
M15
G01X4.4193Y-3.187
M16
G05
G00X4.3957Y-3.937
M15
G01X4.4193Y-3.937
M16
G05
G00X4.7441Y-2.2402
M15
G01X4.7677Y-2.2402
M16
G05
G00X4.7441Y-2.9902
M15
G01X4.7677Y-2.9902
M16
G05
G00X4.7441Y-3.7402
M15
G01X4.7677Y-3.7402
M16
G05
G00X5.1457Y-2.2402
M15
G01X5.1693Y-2.2402
M16
G05
G00X5.1457Y-2.9902
M15
G01X5.1693Y-2.9902
M16
G05
G00X5.1457Y-3.7402
M15
G01X5.1693Y-3.7402
M16
G05
G00X5.3449Y-4.8644
M15
G01X5.3684Y-4.8623
M16
G05
G00X5.4941Y-2.437
M15
G01X5.5177Y-2.437
M16
G05
G00X5.4941Y-3.187
M15
G01X5.5177Y-3.187
M16
G05
G00X5.4941Y-3.937
M15
G01X5.5177Y-3.937
M16
G05
G00X5.7449Y-4.8294
M15
G01X5.7685Y-4.8273
M16
G05
G00X5.8957Y-2.437
M15
G01X5.9193Y-2.437
M16
G05
G00X5.8957Y-3.187
M15
G01X5.9193Y-3.187
M16
G05
G00X5.8957Y-3.937
M15
G01X5.9193Y-3.937
M16
G05
G00X6.1734Y-4.8466
M15
G01X6.1967Y-4.8507
M16
G05
G00X6.2441Y-2.5157
M15
G01X6.2677Y-2.5157
M16
G05
G00X6.2441Y-3.2657
M15
G01X6.2677Y-3.2657
M16
G05
G00X6.2441Y-4.0157
M15
G01X6.2677Y-4.0157
M16
G05
G00X6.5689Y-4.9163
M15
G01X6.5922Y-4.9204
M16
G05
G00X6.6457Y-2.5157
M15
G01X6.6693Y-2.5157
M16
G05
G00X6.6457Y-3.2657
M15
G01X6.6693Y-3.2657
M16
G05
G00X6.6457Y-4.0157
M15
G01X6.6693Y-4.0157
M16
G05
G00X6.9787Y-5.0572
M15
G01X7.0001Y-5.0672
M16
G05
G00X7.3426Y-5.2269
M15
G01X7.364Y-5.2369
M16
G05
T4
G00X7.5492Y-4.2441
M15
G01X7.5335Y-4.2441
M16
G05
G00X7.5492Y-4.3425
M15
G01X7.5335Y-4.3425
M16
G05
G00X7.5925Y-4.1614
M15
G01X7.5768Y-4.1614
M16
G05
G00X7.5925Y-4.4252
M15
G01X7.5768Y-4.4252
M16
G05
G00X7.75Y-4.1614
M15
G01X7.7343Y-4.1614
M16
G05
G00X7.75Y-4.4252
M15
G01X7.7343Y-4.4252
M16
G05
G00X7.8681Y-4.1614
M15
G01X7.8524Y-4.1614
M16
G05
G00X7.8681Y-4.4252
M15
G01X7.8524Y-4.4252
M16
G05
T0
M30
