G04 #@! TF.GenerationSoftware,KiCad,Pcbnew,(6.0.5-0)*
G04 #@! TF.CreationDate,2023-02-14T11:13:25-08:00*
G04 #@! TF.ProjectId,keyboard_pcb,6b657962-6f61-4726-945f-7063622e6b69,rev1.0*
G04 #@! TF.SameCoordinates,Original*
G04 #@! TF.FileFunction,Profile,NP*
%FSLAX46Y46*%
G04 Gerber Fmt 4.6, Leading zero omitted, Abs format (unit mm)*
G04 Created by KiCad (PCBNEW (6.0.5-0)) date 2023-02-14 11:13:25*
%MOMM*%
%LPD*%
G01*
G04 APERTURE LIST*
G04 #@! TA.AperFunction,Profile*
%ADD10C,0.100000*%
G04 #@! TD*
G04 APERTURE END LIST*
D10*
X113990000Y-47243452D02*
G75*
G03*
X115226552Y-46006896I0J1236552D01*
G01*
X182900000Y-69900000D02*
X182900000Y-64300000D01*
X59230000Y-118800000D02*
X106500000Y-118800000D01*
X189530000Y-140160000D02*
X200535831Y-116915940D01*
X129689969Y-129140030D02*
G75*
G03*
X133510000Y-130590000I3440031J3305930D01*
G01*
X155800002Y-48280000D02*
G75*
G03*
X157010000Y-49290000I1209998J219800D01*
G01*
X192100000Y-70900000D02*
X183900000Y-70900000D01*
X199570000Y-49290000D02*
X157010000Y-49290000D01*
X183900000Y-63300000D02*
G75*
G03*
X182900000Y-64300000I200J-1000200D01*
G01*
X115226552Y-43480000D02*
X115226552Y-46006896D01*
X192100000Y-70900000D02*
G75*
G03*
X193100000Y-69900000I0J1000000D01*
G01*
X116463104Y-42243448D02*
X135430000Y-42243448D01*
X137903104Y-47300000D02*
X154590000Y-47300000D01*
X200860029Y-50540000D02*
G75*
G03*
X199570000Y-49290000I-1241029J9900D01*
G01*
X193092893Y-64300000D02*
X193100000Y-69900000D01*
X97420000Y-47243448D02*
X113990000Y-47243448D01*
X200535825Y-116915937D02*
G75*
G03*
X200860000Y-115620000I-2650525J1351537D01*
G01*
X97420000Y-47243473D02*
G75*
G03*
X96170000Y-48480000I-13400J-1236527D01*
G01*
X136666552Y-43480000D02*
X136666552Y-46070000D01*
X141840000Y-129870000D02*
X133510000Y-130590000D01*
X179810000Y-137010000D02*
X187513868Y-140691488D01*
X58003460Y-117583448D02*
G75*
G03*
X59230000Y-118800000I1216640J48D01*
G01*
X155800008Y-48279998D02*
G75*
G03*
X154590000Y-47300000I-1210008J-257002D01*
G01*
X59240000Y-59243448D02*
G75*
G03*
X58003448Y-60480000I0J-1236552D01*
G01*
X94935626Y-59242178D02*
G75*
G03*
X96172178Y-58005626I-26J1236578D01*
G01*
X59240000Y-59243448D02*
X94935626Y-59242178D01*
X136666583Y-46070000D02*
G75*
G03*
X137903104Y-47300000I1230017J0D01*
G01*
X193092900Y-64300000D02*
G75*
G03*
X192092893Y-63300000I-1000000J0D01*
G01*
X182900000Y-69900000D02*
G75*
G03*
X183900000Y-70900000I1010000J10000D01*
G01*
X116463104Y-42243452D02*
G75*
G03*
X115226552Y-43480000I-4J-1236548D01*
G01*
X96170000Y-48480000D02*
X96172178Y-58005626D01*
X129690002Y-129139998D02*
G75*
G03*
X106500000Y-118800000I-22380702J-19019602D01*
G01*
X183900000Y-63300000D02*
X192092893Y-63300000D01*
X136666552Y-43480000D02*
G75*
G03*
X135430000Y-42243448I-1236552J0D01*
G01*
X200860000Y-115620000D02*
X200860000Y-50540000D01*
X187513882Y-140691448D02*
G75*
G03*
X189530000Y-140160000I623118J1726048D01*
G01*
X58003448Y-117583448D02*
X58003448Y-60480000D01*
X179810001Y-137009998D02*
G75*
G03*
X141840000Y-129870000I-31697901J-64036302D01*
G01*
M02*
