%TF.GenerationSoftware,KiCad,Pcbnew,(6.0.5-0)*%
%TF.CreationDate,2023-02-13T19:00:38-08:00*%
%TF.ProjectId,keyboard_pcb,6b657962-6f61-4726-945f-7063622e6b69,rev1.0*%
%TF.SameCoordinates,Original*%
%TF.FileFunction,Legend,Bot*%
%TF.FilePolarity,Positive*%
%FSLAX46Y46*%
G04 Gerber Fmt 4.6, Leading zero omitted, Abs format (unit mm)*
G04 Created by KiCad (PCBNEW (6.0.5-0)) date 2023-02-13 19:00:38*
%MOMM*%
%LPD*%
G01*
G04 APERTURE LIST*
%ADD10C,0.400000*%
%ADD11C,0.150000*%
%ADD12C,0.120000*%
G04 APERTURE END LIST*
D10*
X188578571Y-79471428D02*
X188769047Y-79328571D01*
X188959523Y-78900000D01*
X188959523Y-78614285D01*
X188769047Y-78185714D01*
X188388095Y-77900000D01*
X188007142Y-77757142D01*
X187245238Y-77614285D01*
X186673809Y-77614285D01*
X185911904Y-77757142D01*
X185530952Y-77900000D01*
X185150000Y-78185714D01*
X184959523Y-78614285D01*
X184959523Y-78900000D01*
X185150000Y-79328571D01*
X185340476Y-79471428D01*
X188959523Y-82042857D02*
X186864285Y-82042857D01*
X186483333Y-81900000D01*
X186292857Y-81614285D01*
X186292857Y-81042857D01*
X186483333Y-80757142D01*
X188769047Y-82042857D02*
X188959523Y-81757142D01*
X188959523Y-81042857D01*
X188769047Y-80757142D01*
X188388095Y-80614285D01*
X188007142Y-80614285D01*
X187626190Y-80757142D01*
X187435714Y-81042857D01*
X187435714Y-81757142D01*
X187245238Y-82042857D01*
X186292857Y-83471428D02*
X188959523Y-83471428D01*
X186673809Y-83471428D02*
X186483333Y-83614285D01*
X186292857Y-83900000D01*
X186292857Y-84328571D01*
X186483333Y-84614285D01*
X186864285Y-84757142D01*
X188959523Y-84757142D01*
X186292857Y-85757142D02*
X186292857Y-86900000D01*
X184959523Y-86185714D02*
X188388095Y-86185714D01*
X188769047Y-86328571D01*
X188959523Y-86614285D01*
X188959523Y-86900000D01*
X188959523Y-88328571D02*
X188769047Y-88042857D01*
X188578571Y-87900000D01*
X188197619Y-87757142D01*
X187054761Y-87757142D01*
X186673809Y-87900000D01*
X186483333Y-88042857D01*
X186292857Y-88328571D01*
X186292857Y-88757142D01*
X186483333Y-89042857D01*
X186673809Y-89185714D01*
X187054761Y-89328571D01*
X188197619Y-89328571D01*
X188578571Y-89185714D01*
X188769047Y-89042857D01*
X188959523Y-88757142D01*
X188959523Y-88328571D01*
X188959523Y-90614285D02*
X186292857Y-90614285D01*
X187054761Y-90614285D02*
X186673809Y-90757142D01*
X186483333Y-90900000D01*
X186292857Y-91185714D01*
X186292857Y-91471428D01*
D11*
%TO.C,K25*%
X165214285Y-90297380D02*
X165214285Y-89297380D01*
X164642857Y-90297380D02*
X165071428Y-89725952D01*
X164642857Y-89297380D02*
X165214285Y-89868809D01*
X164261904Y-89392619D02*
X164214285Y-89345000D01*
X164119047Y-89297380D01*
X163880952Y-89297380D01*
X163785714Y-89345000D01*
X163738095Y-89392619D01*
X163690476Y-89487857D01*
X163690476Y-89583095D01*
X163738095Y-89725952D01*
X164309523Y-90297380D01*
X163690476Y-90297380D01*
X162785714Y-89297380D02*
X163261904Y-89297380D01*
X163309523Y-89773571D01*
X163261904Y-89725952D01*
X163166666Y-89678333D01*
X162928571Y-89678333D01*
X162833333Y-89725952D01*
X162785714Y-89773571D01*
X162738095Y-89868809D01*
X162738095Y-90106904D01*
X162785714Y-90202142D01*
X162833333Y-90249761D01*
X162928571Y-90297380D01*
X163166666Y-90297380D01*
X163261904Y-90249761D01*
X163309523Y-90202142D01*
%TO.C,K24*%
X146164285Y-88297380D02*
X146164285Y-87297380D01*
X145592857Y-88297380D02*
X146021428Y-87725952D01*
X145592857Y-87297380D02*
X146164285Y-87868809D01*
X145211904Y-87392619D02*
X145164285Y-87345000D01*
X145069047Y-87297380D01*
X144830952Y-87297380D01*
X144735714Y-87345000D01*
X144688095Y-87392619D01*
X144640476Y-87487857D01*
X144640476Y-87583095D01*
X144688095Y-87725952D01*
X145259523Y-88297380D01*
X144640476Y-88297380D01*
X143783333Y-87630714D02*
X143783333Y-88297380D01*
X144021428Y-87249761D02*
X144259523Y-87964047D01*
X143640476Y-87964047D01*
%TO.C,K21*%
X89014285Y-100297380D02*
X89014285Y-99297380D01*
X88442857Y-100297380D02*
X88871428Y-99725952D01*
X88442857Y-99297380D02*
X89014285Y-99868809D01*
X88061904Y-99392619D02*
X88014285Y-99345000D01*
X87919047Y-99297380D01*
X87680952Y-99297380D01*
X87585714Y-99345000D01*
X87538095Y-99392619D01*
X87490476Y-99487857D01*
X87490476Y-99583095D01*
X87538095Y-99725952D01*
X88109523Y-100297380D01*
X87490476Y-100297380D01*
X86538095Y-100297380D02*
X87109523Y-100297380D01*
X86823809Y-100297380D02*
X86823809Y-99297380D01*
X86919047Y-99440238D01*
X87014285Y-99535476D01*
X87109523Y-99583095D01*
%TO.C,K02*%
X108064285Y-50197380D02*
X108064285Y-49197380D01*
X107492857Y-50197380D02*
X107921428Y-49625952D01*
X107492857Y-49197380D02*
X108064285Y-49768809D01*
X106873809Y-49197380D02*
X106778571Y-49197380D01*
X106683333Y-49245000D01*
X106635714Y-49292619D01*
X106588095Y-49387857D01*
X106540476Y-49578333D01*
X106540476Y-49816428D01*
X106588095Y-50006904D01*
X106635714Y-50102142D01*
X106683333Y-50149761D01*
X106778571Y-50197380D01*
X106873809Y-50197380D01*
X106969047Y-50149761D01*
X107016666Y-50102142D01*
X107064285Y-50006904D01*
X107111904Y-49816428D01*
X107111904Y-49578333D01*
X107064285Y-49387857D01*
X107016666Y-49292619D01*
X106969047Y-49245000D01*
X106873809Y-49197380D01*
X106159523Y-49292619D02*
X106111904Y-49245000D01*
X106016666Y-49197380D01*
X105778571Y-49197380D01*
X105683333Y-49245000D01*
X105635714Y-49292619D01*
X105588095Y-49387857D01*
X105588095Y-49483095D01*
X105635714Y-49625952D01*
X106207142Y-50197380D01*
X105588095Y-50197380D01*
%TO.C,K10*%
X69964285Y-81247380D02*
X69964285Y-80247380D01*
X69392857Y-81247380D02*
X69821428Y-80675952D01*
X69392857Y-80247380D02*
X69964285Y-80818809D01*
X68440476Y-81247380D02*
X69011904Y-81247380D01*
X68726190Y-81247380D02*
X68726190Y-80247380D01*
X68821428Y-80390238D01*
X68916666Y-80485476D01*
X69011904Y-80533095D01*
X67821428Y-80247380D02*
X67726190Y-80247380D01*
X67630952Y-80295000D01*
X67583333Y-80342619D01*
X67535714Y-80437857D01*
X67488095Y-80628333D01*
X67488095Y-80866428D01*
X67535714Y-81056904D01*
X67583333Y-81152142D01*
X67630952Y-81199761D01*
X67726190Y-81247380D01*
X67821428Y-81247380D01*
X67916666Y-81199761D01*
X67964285Y-81152142D01*
X68011904Y-81056904D01*
X68059523Y-80866428D01*
X68059523Y-80628333D01*
X68011904Y-80437857D01*
X67964285Y-80342619D01*
X67916666Y-80295000D01*
X67821428Y-80247380D01*
%TO.C,K04*%
X146164285Y-50197380D02*
X146164285Y-49197380D01*
X145592857Y-50197380D02*
X146021428Y-49625952D01*
X145592857Y-49197380D02*
X146164285Y-49768809D01*
X144973809Y-49197380D02*
X144878571Y-49197380D01*
X144783333Y-49245000D01*
X144735714Y-49292619D01*
X144688095Y-49387857D01*
X144640476Y-49578333D01*
X144640476Y-49816428D01*
X144688095Y-50006904D01*
X144735714Y-50102142D01*
X144783333Y-50149761D01*
X144878571Y-50197380D01*
X144973809Y-50197380D01*
X145069047Y-50149761D01*
X145116666Y-50102142D01*
X145164285Y-50006904D01*
X145211904Y-49816428D01*
X145211904Y-49578333D01*
X145164285Y-49387857D01*
X145116666Y-49292619D01*
X145069047Y-49245000D01*
X144973809Y-49197380D01*
X143783333Y-49530714D02*
X143783333Y-50197380D01*
X144021428Y-49149761D02*
X144259523Y-49864047D01*
X143640476Y-49864047D01*
%TO.C,K12*%
X108064285Y-69247380D02*
X108064285Y-68247380D01*
X107492857Y-69247380D02*
X107921428Y-68675952D01*
X107492857Y-68247380D02*
X108064285Y-68818809D01*
X106540476Y-69247380D02*
X107111904Y-69247380D01*
X106826190Y-69247380D02*
X106826190Y-68247380D01*
X106921428Y-68390238D01*
X107016666Y-68485476D01*
X107111904Y-68533095D01*
X106159523Y-68342619D02*
X106111904Y-68295000D01*
X106016666Y-68247380D01*
X105778571Y-68247380D01*
X105683333Y-68295000D01*
X105635714Y-68342619D01*
X105588095Y-68437857D01*
X105588095Y-68533095D01*
X105635714Y-68675952D01*
X106207142Y-69247380D01*
X105588095Y-69247380D01*
%TO.C,K30*%
X141329621Y-111321240D02*
X141242465Y-110325045D01*
X140760367Y-111371043D02*
X141137504Y-110764437D01*
X140673211Y-110374849D02*
X141292269Y-110894299D01*
X140341146Y-110403901D02*
X139724454Y-110457854D01*
X140089721Y-110808305D01*
X139947408Y-110820756D01*
X139856683Y-110876494D01*
X139813395Y-110928082D01*
X139774258Y-111027108D01*
X139795009Y-111264297D01*
X139850747Y-111355023D01*
X139902336Y-111398310D01*
X140001361Y-111437448D01*
X140285989Y-111412546D01*
X140376714Y-111356808D01*
X140420002Y-111305220D01*
X139107762Y-110511808D02*
X139012887Y-110520108D01*
X138922161Y-110575847D01*
X138878874Y-110627435D01*
X138839736Y-110726461D01*
X138808900Y-110920362D01*
X138829651Y-111157552D01*
X138893690Y-111343153D01*
X138949428Y-111433878D01*
X139001017Y-111477166D01*
X139100042Y-111516303D01*
X139194918Y-111508002D01*
X139285644Y-111452264D01*
X139328931Y-111400676D01*
X139368068Y-111301650D01*
X139398905Y-111107748D01*
X139378154Y-110870559D01*
X139314115Y-110684958D01*
X139258376Y-110594233D01*
X139206788Y-110550945D01*
X139107762Y-110511808D01*
%TO.C,K01*%
X89014285Y-62197380D02*
X89014285Y-61197380D01*
X88442857Y-62197380D02*
X88871428Y-61625952D01*
X88442857Y-61197380D02*
X89014285Y-61768809D01*
X87823809Y-61197380D02*
X87728571Y-61197380D01*
X87633333Y-61245000D01*
X87585714Y-61292619D01*
X87538095Y-61387857D01*
X87490476Y-61578333D01*
X87490476Y-61816428D01*
X87538095Y-62006904D01*
X87585714Y-62102142D01*
X87633333Y-62149761D01*
X87728571Y-62197380D01*
X87823809Y-62197380D01*
X87919047Y-62149761D01*
X87966666Y-62102142D01*
X88014285Y-62006904D01*
X88061904Y-61816428D01*
X88061904Y-61578333D01*
X88014285Y-61387857D01*
X87966666Y-61292619D01*
X87919047Y-61245000D01*
X87823809Y-61197380D01*
X86538095Y-62197380D02*
X87109523Y-62197380D01*
X86823809Y-62197380D02*
X86823809Y-61197380D01*
X86919047Y-61340238D01*
X87014285Y-61435476D01*
X87109523Y-61483095D01*
%TO.C,K14*%
X146164285Y-69247380D02*
X146164285Y-68247380D01*
X145592857Y-69247380D02*
X146021428Y-68675952D01*
X145592857Y-68247380D02*
X146164285Y-68818809D01*
X144640476Y-69247380D02*
X145211904Y-69247380D01*
X144926190Y-69247380D02*
X144926190Y-68247380D01*
X145021428Y-68390238D01*
X145116666Y-68485476D01*
X145211904Y-68533095D01*
X143783333Y-68580714D02*
X143783333Y-69247380D01*
X144021428Y-68199761D02*
X144259523Y-68914047D01*
X143640476Y-68914047D01*
%TO.C,K23*%
X127114285Y-83297380D02*
X127114285Y-82297380D01*
X126542857Y-83297380D02*
X126971428Y-82725952D01*
X126542857Y-82297380D02*
X127114285Y-82868809D01*
X126161904Y-82392619D02*
X126114285Y-82345000D01*
X126019047Y-82297380D01*
X125780952Y-82297380D01*
X125685714Y-82345000D01*
X125638095Y-82392619D01*
X125590476Y-82487857D01*
X125590476Y-82583095D01*
X125638095Y-82725952D01*
X126209523Y-83297380D01*
X125590476Y-83297380D01*
X125257142Y-82297380D02*
X124638095Y-82297380D01*
X124971428Y-82678333D01*
X124828571Y-82678333D01*
X124733333Y-82725952D01*
X124685714Y-82773571D01*
X124638095Y-82868809D01*
X124638095Y-83106904D01*
X124685714Y-83202142D01*
X124733333Y-83249761D01*
X124828571Y-83297380D01*
X125114285Y-83297380D01*
X125209523Y-83249761D01*
X125257142Y-83202142D01*
%TO.C,K03*%
X127114285Y-45197380D02*
X127114285Y-44197380D01*
X126542857Y-45197380D02*
X126971428Y-44625952D01*
X126542857Y-44197380D02*
X127114285Y-44768809D01*
X125923809Y-44197380D02*
X125828571Y-44197380D01*
X125733333Y-44245000D01*
X125685714Y-44292619D01*
X125638095Y-44387857D01*
X125590476Y-44578333D01*
X125590476Y-44816428D01*
X125638095Y-45006904D01*
X125685714Y-45102142D01*
X125733333Y-45149761D01*
X125828571Y-45197380D01*
X125923809Y-45197380D01*
X126019047Y-45149761D01*
X126066666Y-45102142D01*
X126114285Y-45006904D01*
X126161904Y-44816428D01*
X126161904Y-44578333D01*
X126114285Y-44387857D01*
X126066666Y-44292619D01*
X126019047Y-44245000D01*
X125923809Y-44197380D01*
X125257142Y-44197380D02*
X124638095Y-44197380D01*
X124971428Y-44578333D01*
X124828571Y-44578333D01*
X124733333Y-44625952D01*
X124685714Y-44673571D01*
X124638095Y-44768809D01*
X124638095Y-45006904D01*
X124685714Y-45102142D01*
X124733333Y-45149761D01*
X124828571Y-45197380D01*
X125114285Y-45197380D01*
X125209523Y-45149761D01*
X125257142Y-45102142D01*
%TO.C,K22*%
X108064285Y-88297380D02*
X108064285Y-87297380D01*
X107492857Y-88297380D02*
X107921428Y-87725952D01*
X107492857Y-87297380D02*
X108064285Y-87868809D01*
X107111904Y-87392619D02*
X107064285Y-87345000D01*
X106969047Y-87297380D01*
X106730952Y-87297380D01*
X106635714Y-87345000D01*
X106588095Y-87392619D01*
X106540476Y-87487857D01*
X106540476Y-87583095D01*
X106588095Y-87725952D01*
X107159523Y-88297380D01*
X106540476Y-88297380D01*
X106159523Y-87392619D02*
X106111904Y-87345000D01*
X106016666Y-87297380D01*
X105778571Y-87297380D01*
X105683333Y-87345000D01*
X105635714Y-87392619D01*
X105588095Y-87487857D01*
X105588095Y-87583095D01*
X105635714Y-87725952D01*
X106207142Y-88297380D01*
X105588095Y-88297380D01*
%TO.C,K15*%
X165214285Y-71247380D02*
X165214285Y-70247380D01*
X164642857Y-71247380D02*
X165071428Y-70675952D01*
X164642857Y-70247380D02*
X165214285Y-70818809D01*
X163690476Y-71247380D02*
X164261904Y-71247380D01*
X163976190Y-71247380D02*
X163976190Y-70247380D01*
X164071428Y-70390238D01*
X164166666Y-70485476D01*
X164261904Y-70533095D01*
X162785714Y-70247380D02*
X163261904Y-70247380D01*
X163309523Y-70723571D01*
X163261904Y-70675952D01*
X163166666Y-70628333D01*
X162928571Y-70628333D01*
X162833333Y-70675952D01*
X162785714Y-70723571D01*
X162738095Y-70818809D01*
X162738095Y-71056904D01*
X162785714Y-71152142D01*
X162833333Y-71199761D01*
X162928571Y-71247380D01*
X163166666Y-71247380D01*
X163261904Y-71199761D01*
X163309523Y-71152142D01*
%TO.C,K32*%
X186379381Y-118795253D02*
X185956763Y-119701561D01*
X186897272Y-119036749D02*
X186267358Y-119373517D01*
X186474653Y-119943057D02*
X186198259Y-119183670D01*
X186776756Y-120083929D02*
X187337804Y-120345550D01*
X187196698Y-119859417D01*
X187326171Y-119919791D01*
X187432611Y-119916883D01*
X187495893Y-119893851D01*
X187579300Y-119827660D01*
X187679923Y-119611873D01*
X187677015Y-119505433D01*
X187653982Y-119442151D01*
X187587792Y-119358744D01*
X187328847Y-119237996D01*
X187222407Y-119240904D01*
X187159125Y-119263937D01*
X187723313Y-120420233D02*
X187746346Y-120483515D01*
X187812536Y-120566922D01*
X188028324Y-120667545D01*
X188134763Y-120664637D01*
X188198046Y-120641604D01*
X188281453Y-120575414D01*
X188321702Y-120489099D01*
X188338918Y-120339502D01*
X188062524Y-119580115D01*
X188623572Y-119841736D01*
%TO.C,K11*%
X89014285Y-81247380D02*
X89014285Y-80247380D01*
X88442857Y-81247380D02*
X88871428Y-80675952D01*
X88442857Y-80247380D02*
X89014285Y-80818809D01*
X87490476Y-81247380D02*
X88061904Y-81247380D01*
X87776190Y-81247380D02*
X87776190Y-80247380D01*
X87871428Y-80390238D01*
X87966666Y-80485476D01*
X88061904Y-80533095D01*
X86538095Y-81247380D02*
X87109523Y-81247380D01*
X86823809Y-81247380D02*
X86823809Y-80247380D01*
X86919047Y-80390238D01*
X87014285Y-80485476D01*
X87109523Y-80533095D01*
%TO.C,U1*%
X188653095Y-48662380D02*
X188653095Y-49471904D01*
X188700714Y-49567142D01*
X188748333Y-49614761D01*
X188843571Y-49662380D01*
X189034047Y-49662380D01*
X189129285Y-49614761D01*
X189176904Y-49567142D01*
X189224523Y-49471904D01*
X189224523Y-48662380D01*
X190224523Y-49662380D02*
X189653095Y-49662380D01*
X189938809Y-49662380D02*
X189938809Y-48662380D01*
X189843571Y-48805238D01*
X189748333Y-48900476D01*
X189653095Y-48948095D01*
%TO.C,K05*%
X165214285Y-52197380D02*
X165214285Y-51197380D01*
X164642857Y-52197380D02*
X165071428Y-51625952D01*
X164642857Y-51197380D02*
X165214285Y-51768809D01*
X164023809Y-51197380D02*
X163928571Y-51197380D01*
X163833333Y-51245000D01*
X163785714Y-51292619D01*
X163738095Y-51387857D01*
X163690476Y-51578333D01*
X163690476Y-51816428D01*
X163738095Y-52006904D01*
X163785714Y-52102142D01*
X163833333Y-52149761D01*
X163928571Y-52197380D01*
X164023809Y-52197380D01*
X164119047Y-52149761D01*
X164166666Y-52102142D01*
X164214285Y-52006904D01*
X164261904Y-51816428D01*
X164261904Y-51578333D01*
X164214285Y-51387857D01*
X164166666Y-51292619D01*
X164119047Y-51245000D01*
X164023809Y-51197380D01*
X162785714Y-51197380D02*
X163261904Y-51197380D01*
X163309523Y-51673571D01*
X163261904Y-51625952D01*
X163166666Y-51578333D01*
X162928571Y-51578333D01*
X162833333Y-51625952D01*
X162785714Y-51673571D01*
X162738095Y-51768809D01*
X162738095Y-52006904D01*
X162785714Y-52102142D01*
X162833333Y-52149761D01*
X162928571Y-52197380D01*
X163166666Y-52197380D01*
X163261904Y-52149761D01*
X163309523Y-52102142D01*
%TO.C,K20*%
X69964285Y-100297380D02*
X69964285Y-99297380D01*
X69392857Y-100297380D02*
X69821428Y-99725952D01*
X69392857Y-99297380D02*
X69964285Y-99868809D01*
X69011904Y-99392619D02*
X68964285Y-99345000D01*
X68869047Y-99297380D01*
X68630952Y-99297380D01*
X68535714Y-99345000D01*
X68488095Y-99392619D01*
X68440476Y-99487857D01*
X68440476Y-99583095D01*
X68488095Y-99725952D01*
X69059523Y-100297380D01*
X68440476Y-100297380D01*
X67821428Y-99297380D02*
X67726190Y-99297380D01*
X67630952Y-99345000D01*
X67583333Y-99392619D01*
X67535714Y-99487857D01*
X67488095Y-99678333D01*
X67488095Y-99916428D01*
X67535714Y-100106904D01*
X67583333Y-100202142D01*
X67630952Y-100249761D01*
X67726190Y-100297380D01*
X67821428Y-100297380D01*
X67916666Y-100249761D01*
X67964285Y-100202142D01*
X68011904Y-100106904D01*
X68059523Y-99916428D01*
X68059523Y-99678333D01*
X68011904Y-99487857D01*
X67964285Y-99392619D01*
X67916666Y-99345000D01*
X67821428Y-99297380D01*
%TO.C,K13*%
X127114285Y-64247380D02*
X127114285Y-63247380D01*
X126542857Y-64247380D02*
X126971428Y-63675952D01*
X126542857Y-63247380D02*
X127114285Y-63818809D01*
X125590476Y-64247380D02*
X126161904Y-64247380D01*
X125876190Y-64247380D02*
X125876190Y-63247380D01*
X125971428Y-63390238D01*
X126066666Y-63485476D01*
X126161904Y-63533095D01*
X125257142Y-63247380D02*
X124638095Y-63247380D01*
X124971428Y-63628333D01*
X124828571Y-63628333D01*
X124733333Y-63675952D01*
X124685714Y-63723571D01*
X124638095Y-63818809D01*
X124638095Y-64056904D01*
X124685714Y-64152142D01*
X124733333Y-64199761D01*
X124828571Y-64247380D01*
X125114285Y-64247380D01*
X125209523Y-64199761D01*
X125257142Y-64152142D01*
%TO.C,K00*%
X69964285Y-62197380D02*
X69964285Y-61197380D01*
X69392857Y-62197380D02*
X69821428Y-61625952D01*
X69392857Y-61197380D02*
X69964285Y-61768809D01*
X68773809Y-61197380D02*
X68678571Y-61197380D01*
X68583333Y-61245000D01*
X68535714Y-61292619D01*
X68488095Y-61387857D01*
X68440476Y-61578333D01*
X68440476Y-61816428D01*
X68488095Y-62006904D01*
X68535714Y-62102142D01*
X68583333Y-62149761D01*
X68678571Y-62197380D01*
X68773809Y-62197380D01*
X68869047Y-62149761D01*
X68916666Y-62102142D01*
X68964285Y-62006904D01*
X69011904Y-61816428D01*
X69011904Y-61578333D01*
X68964285Y-61387857D01*
X68916666Y-61292619D01*
X68869047Y-61245000D01*
X68773809Y-61197380D01*
X67821428Y-61197380D02*
X67726190Y-61197380D01*
X67630952Y-61245000D01*
X67583333Y-61292619D01*
X67535714Y-61387857D01*
X67488095Y-61578333D01*
X67488095Y-61816428D01*
X67535714Y-62006904D01*
X67583333Y-62102142D01*
X67630952Y-62149761D01*
X67726190Y-62197380D01*
X67821428Y-62197380D01*
X67916666Y-62149761D01*
X67964285Y-62102142D01*
X68011904Y-62006904D01*
X68059523Y-61816428D01*
X68059523Y-61578333D01*
X68011904Y-61387857D01*
X67964285Y-61292619D01*
X67916666Y-61245000D01*
X67821428Y-61197380D01*
%TO.C,K31*%
X163116183Y-111414045D02*
X162942534Y-112398852D01*
X163678930Y-111513272D02*
X163157642Y-112001599D01*
X163505282Y-112498080D02*
X163041762Y-111836105D01*
X163833551Y-112555963D02*
X164443194Y-112663459D01*
X164181076Y-112230412D01*
X164321763Y-112255219D01*
X164423823Y-112224861D01*
X164478988Y-112186234D01*
X164542421Y-112100712D01*
X164583766Y-111866234D01*
X164553409Y-111764174D01*
X164514782Y-111709009D01*
X164429260Y-111645576D01*
X164147886Y-111595962D01*
X164045826Y-111626320D01*
X163990661Y-111664946D01*
X165554754Y-111844031D02*
X164992007Y-111744803D01*
X165273381Y-111794417D02*
X165099732Y-112779225D01*
X165030748Y-112622000D01*
X164953495Y-112511671D01*
X164867973Y-112448237D01*
%TO.C,J1*%
X204850000Y-105200000D02*
X204850000Y-110800000D01*
X202850000Y-104950000D02*
X202850000Y-111050000D01*
X202850000Y-110800000D02*
X204850000Y-110800000D01*
X190750000Y-104950000D02*
X190750000Y-111050000D01*
X202850000Y-105200000D02*
X204850000Y-105200000D01*
X202850000Y-111050000D02*
X190750000Y-111050000D01*
X202850000Y-104950000D02*
X190750000Y-104950000D01*
D12*
%TO.C,U1*%
X195545000Y-51750000D02*
X195545000Y-102550000D01*
X177705000Y-54290000D02*
X180365000Y-54290000D01*
X177705000Y-102610000D02*
X177705000Y-54290000D01*
X195545000Y-102550000D02*
X193005000Y-102550000D01*
X193005000Y-51750000D02*
X195545000Y-51750000D01*
X193005000Y-102550000D02*
X193005000Y-51750000D01*
X177705000Y-51690000D02*
X179035000Y-51690000D01*
X180365000Y-54290000D02*
X180365000Y-102610000D01*
X180365000Y-102610000D02*
X177705000Y-102610000D01*
X177705000Y-53020000D02*
X177705000Y-51690000D01*
%TD*%
M02*
