M48
; DRILL file {KiCad (6.0.5-0)} date Tuesday, February 14, 2023 at 11:13:35 AM
; FORMAT={-:-/ absolute / metric / decimal}
; #@! TF.CreationDate,2023-02-14T11:13:35-08:00
; #@! TF.GenerationSoftware,Kicad,Pcbnew,(6.0.5-0)
; #@! TF.FileFunction,Plated,1,2,PTH
FMAT,2
METRIC
; #@! TA.AperFunction,Plated,PTH,ComponentDrill
T1C0.300
; #@! TA.AperFunction,Plated,PTH,ViaDrill
T2C0.400
; #@! TA.AperFunction,Plated,PTH,ComponentDrill
T3C0.400
; #@! TA.AperFunction,Plated,PTH,ComponentDrill
T4C0.900
; #@! TA.AperFunction,Plated,PTH,ComponentDrill
T5C1.000
; #@! TA.AperFunction,Plated,PTH,ComponentDrill
T6C1.200
%
G90
G05
T2
X50.58Y0.72
X50.58Y-14.6
X50.59Y5.77
X62.35Y-3.1
X64.45Y-1.25
T5
X53.035Y18.48
X53.035Y15.94
X53.035Y13.4
X53.035Y10.86
X53.035Y8.32
X53.035Y5.78
X53.035Y3.24
X53.035Y0.7
X53.035Y-1.84
X53.035Y-4.38
X53.035Y-6.92
X53.035Y-9.46
X53.035Y-12.0
X53.035Y-14.54
X53.035Y-17.08
X53.035Y-19.62
X53.035Y-22.16
X53.035Y-24.7
X53.035Y-27.24
X53.035Y-29.78
X55.695Y18.5
X55.695Y15.96
X55.695Y13.42
X55.695Y10.88
X55.695Y8.34
X55.695Y5.8
X55.695Y3.26
X55.695Y0.72
X55.695Y-1.82
X55.695Y-4.36
X55.695Y-6.9
X55.695Y-9.44
X55.695Y-11.98
X55.695Y-14.52
X55.695Y-17.06
X55.695Y-19.6
X55.695Y-22.14
X55.695Y-24.68
X55.695Y-27.22
X55.695Y-29.76
X68.275Y18.48
X68.275Y15.94
X68.275Y13.4
X68.275Y10.86
X68.275Y8.32
X68.275Y5.78
X68.275Y3.24
X68.275Y0.7
X68.275Y-1.84
X68.275Y-4.38
X68.275Y-6.92
X68.275Y-9.46
X68.275Y-12.0
X68.275Y-14.54
X68.275Y-17.08
X68.275Y-19.62
X68.275Y-22.16
X68.275Y-24.7
X68.275Y-27.24
X68.275Y-29.78
X70.935Y18.5
X70.935Y15.96
X70.935Y13.42
X70.935Y10.88
X70.935Y8.34
X70.935Y5.8
X70.935Y3.26
X70.935Y0.72
X70.935Y-1.82
X70.935Y-4.36
X70.935Y-6.9
X70.935Y-9.44
X70.935Y-11.98
X70.935Y-14.52
X70.935Y-17.06
X70.935Y-19.6
X70.935Y-22.14
X70.935Y-24.68
X70.935Y-27.22
X70.935Y-29.76
T6
X-61.06Y4.04
X-61.06Y-15.01
X-61.06Y-34.06
X-59.79Y6.58
X-59.79Y-12.47
X-59.79Y-31.52
X-54.71Y6.58
X-54.71Y-12.47
X-54.71Y-31.52
X-53.44Y4.04
X-53.44Y-15.01
X-53.44Y-34.06
X-42.01Y4.04
X-42.01Y-15.01
X-42.01Y-34.06
X-40.74Y6.58
X-40.74Y-12.47
X-40.74Y-31.52
X-35.66Y6.58
X-35.66Y-12.47
X-35.66Y-31.52
X-34.39Y4.04
X-34.39Y-15.01
X-34.39Y-34.06
X-22.96Y16.04
X-22.96Y-3.01
X-22.96Y-22.06
X-21.69Y18.58
X-21.69Y-0.47
X-21.69Y-19.52
X-16.61Y18.58
X-16.61Y-0.47
X-16.61Y-19.52
X-15.34Y16.04
X-15.34Y-3.01
X-15.34Y-22.06
X-3.91Y21.04
X-3.91Y1.99
X-3.91Y-17.06
X-2.64Y23.58
X-2.64Y4.53
X-2.64Y-14.52
X2.44Y23.58
X2.44Y4.53
X2.44Y-14.52
X3.71Y21.04
X3.71Y1.99
X3.71Y-17.06
X10.783Y-45.502
X11.827Y-42.861
X15.14Y16.04
X15.14Y-3.01
X15.14Y-22.06
X16.41Y18.58
X16.41Y-0.47
X16.41Y-19.52
X16.888Y-42.418
X18.374Y-44.838
X21.49Y18.58
X21.49Y-0.47
X21.49Y-19.52
X22.76Y16.04
X22.76Y-3.01
X22.76Y-22.06
X33.489Y-45.537
X34.19Y14.04
X34.19Y-5.01
X34.19Y-24.06
X35.181Y-43.256
X35.46Y16.58
X35.46Y-2.47
X35.46Y-21.52
X40.184Y-44.138
X40.54Y16.58
X40.54Y-2.47
X40.54Y-21.52
X40.993Y-46.86
X41.81Y14.04
X41.81Y-5.01
X41.81Y-24.06
X55.42Y-51.788
X57.645Y-50.023
X62.249Y-52.169
X62.326Y-55.008
T1
X-62.6Y7.053G85X-61.9Y7.047
G05
X-62.6Y-11.997G85X-61.9Y-12.003
G05
X-62.6Y-31.047G85X-61.9Y-31.053
G05
X-57.6Y-4.4G85X-56.9Y-4.4
G05
X-57.6Y-23.45G85X-56.9Y-23.45
G05
X-57.6Y-42.5G85X-56.9Y-42.5
G05
X-52.6Y7.047G85X-51.9Y7.053
G05
X-52.6Y-12.003G85X-51.9Y-11.997
G05
X-52.6Y-31.053G85X-51.9Y-31.047
G05
X-43.55Y7.053G85X-42.85Y7.047
G05
X-43.55Y-11.997G85X-42.85Y-12.003
G05
X-43.55Y-31.047G85X-42.85Y-31.053
G05
X-38.55Y-4.4G85X-37.85Y-4.4
G05
X-38.55Y-23.45G85X-37.85Y-23.45
G05
X-38.55Y-42.5G85X-37.85Y-42.5
G05
X-33.55Y7.047G85X-32.85Y7.053
G05
X-33.55Y-12.003G85X-32.85Y-11.997
G05
X-33.55Y-31.053G85X-32.85Y-31.047
G05
X-24.5Y19.053G85X-23.8Y19.047
G05
X-24.5Y0.003G85X-23.8Y-0.003
G05
X-24.5Y-19.047G85X-23.8Y-19.053
G05
X-19.5Y7.6G85X-18.8Y7.6
G05
X-19.5Y-11.45G85X-18.8Y-11.45
G05
X-19.5Y-30.5G85X-18.8Y-30.5
G05
X-14.5Y19.047G85X-13.8Y19.053
G05
X-14.5Y-0.003G85X-13.8Y0.003
G05
X-14.5Y-19.053G85X-13.8Y-19.047
G05
X-5.45Y24.053G85X-4.75Y24.047
G05
X-5.45Y5.003G85X-4.75Y4.997
G05
X-5.45Y-14.047G85X-4.75Y-14.053
G05
X-0.45Y12.6G85X0.25Y12.6
G05
X-0.45Y-6.45G85X0.25Y-6.45
G05
X-0.45Y-25.5G85X0.25Y-25.5
G05
X4.55Y24.047G85X5.25Y24.053
G05
X4.55Y4.997G85X5.25Y5.003
G05
X4.55Y-14.053G85X5.25Y-14.047
G05
X8.986Y-42.634G85X9.684Y-42.579
G05
X13.6Y19.053G85X14.3Y19.047
G05
X13.6Y0.003G85X14.3Y-0.003
G05
X13.6Y-19.047G85X14.3Y-19.053
G05
X14.966Y-53.608G85X15.663Y-53.547
G05
X18.6Y7.6G85X19.3Y7.6
G05
X18.6Y-11.45G85X19.3Y-11.45
G05
X18.6Y-30.5G85X19.3Y-30.5
G05
X18.949Y-41.769G85X19.646Y-41.702
G05
X23.6Y19.047G85X24.3Y19.053
G05
X23.6Y-0.003G85X24.3Y0.003
G05
X23.6Y-19.053G85X24.3Y-19.047
G05
X32.496Y-42.302G85X33.184Y-42.43
G05
X32.65Y17.053G85X33.35Y17.047
G05
X32.65Y-1.997G85X33.35Y-2.003
G05
X32.65Y-21.047G85X33.35Y-21.053
G05
X35.431Y-54.45G85X36.12Y-54.571
G05
X37.65Y5.6G85X38.35Y5.6
G05
X37.65Y-13.45G85X38.35Y-13.45
G05
X37.65Y-32.5G85X38.35Y-32.5
G05
X42.343Y-44.045G85X43.033Y-44.16
G05
X42.65Y17.047G85X43.35Y17.053
G05
X42.65Y-2.003G85X43.35Y-1.997
G05
X42.65Y-21.053G85X43.35Y-21.047
G05
X54.989Y-60.899G85X55.624Y-61.195
G05
X55.298Y-48.406G85X55.93Y-48.708
G05
X64.359Y-52.638G85X64.996Y-52.928
G05
T3
X-62.65Y-2.4G85X-62.05Y-2.4
G05
X-62.65Y-21.45G85X-62.05Y-21.45
G05
X-62.65Y-40.5G85X-62.05Y-40.5
G05
X-52.45Y-2.4G85X-51.85Y-2.4
G05
X-52.45Y-21.45G85X-51.85Y-21.45
G05
X-52.45Y-40.5G85X-51.85Y-40.5
G05
X-43.6Y-2.4G85X-43.0Y-2.4
G05
X-43.6Y-21.45G85X-43.0Y-21.45
G05
X-43.6Y-40.5G85X-43.0Y-40.5
G05
X-33.4Y-2.4G85X-32.8Y-2.4
G05
X-33.4Y-21.45G85X-32.8Y-21.45
G05
X-33.4Y-40.5G85X-32.8Y-40.5
G05
X-24.55Y9.6G85X-23.95Y9.6
G05
X-24.55Y-9.45G85X-23.95Y-9.45
G05
X-24.55Y-28.5G85X-23.95Y-28.5
G05
X-14.35Y9.6G85X-13.75Y9.6
G05
X-14.35Y-9.45G85X-13.75Y-9.45
G05
X-14.35Y-28.5G85X-13.75Y-28.5
G05
X-5.5Y14.6G85X-4.9Y14.6
G05
X-5.5Y-4.45G85X-4.9Y-4.45
G05
X-5.5Y-23.5G85X-4.9Y-23.5
G05
X4.7Y14.6G85X5.3Y14.6
G05
X4.7Y-4.45G85X5.3Y-4.45
G05
X4.7Y-23.5G85X5.3Y-23.5
G05
X9.76Y-52.056G85X10.358Y-52.004
G05
X13.55Y9.6G85X14.15Y9.6
G05
X13.55Y-9.45G85X14.15Y-9.45
G05
X13.55Y-28.5G85X14.15Y-28.5
G05
X19.922Y-51.167G85X20.519Y-51.115
G05
X23.75Y9.6G85X24.35Y9.6
G05
X23.75Y-9.45G85X24.35Y-9.45
G05
X23.75Y-28.5G85X24.35Y-28.5
G05
X30.805Y-51.603G85X31.396Y-51.707
G05
X32.6Y7.6G85X33.2Y7.6
G05
X32.6Y-11.45G85X33.2Y-11.45
G05
X32.6Y-30.5G85X33.2Y-30.5
G05
X40.85Y-53.374G85X41.441Y-53.478
G05
X42.8Y7.6G85X43.4Y7.6
G05
X42.8Y-11.45G85X43.4Y-11.45
G05
X42.8Y-30.5G85X43.4Y-30.5
G05
X51.258Y-56.952G85X51.802Y-57.206
G05
X60.502Y-61.263G85X61.046Y-61.517
G05
T4
X63.76Y-36.32G85X63.36Y-36.32
G05
X63.76Y-38.82G85X63.36Y-38.82
G05
X64.86Y-34.22G85X64.46Y-34.22
G05
X64.86Y-40.92G85X64.46Y-40.92
G05
X68.86Y-34.22G85X68.46Y-34.22
G05
X68.86Y-40.92G85X68.46Y-40.92
G05
X71.86Y-34.22G85X71.46Y-34.22
G05
X71.86Y-40.92G85X71.46Y-40.92
G05
T0
M30
