G04 #@! TF.GenerationSoftware,KiCad,Pcbnew,(6.0.5-0)*
G04 #@! TF.CreationDate,2023-02-14T11:13:25-08:00*
G04 #@! TF.ProjectId,keyboard_pcb,6b657962-6f61-4726-945f-7063622e6b69,rev1.0*
G04 #@! TF.SameCoordinates,Original*
G04 #@! TF.FileFunction,Soldermask,Top*
G04 #@! TF.FilePolarity,Negative*
%FSLAX46Y46*%
G04 Gerber Fmt 4.6, Leading zero omitted, Abs format (unit mm)*
G04 Created by KiCad (PCBNEW (6.0.5-0)) date 2023-02-14 11:13:25*
%MOMM*%
%LPD*%
G01*
G04 APERTURE LIST*
G04 Aperture macros list*
%AMHorizOval*
0 Thick line with rounded ends*
0 $1 width*
0 $2 $3 position (X,Y) of the first rounded end (center of the circle)*
0 $4 $5 position (X,Y) of the second rounded end (center of the circle)*
0 Add line between two ends*
20,1,$1,$2,$3,$4,$5,0*
0 Add two circle primitives to create the rounded ends*
1,1,$1,$2,$3*
1,1,$1,$4,$5*%
G04 Aperture macros list end*
%ADD10C,0.120000*%
%ADD11C,1.700000*%
%ADD12C,4.900000*%
%ADD13C,1.800000*%
%ADD14O,2.200000X1.600000*%
%ADD15C,2.400000*%
%ADD16O,2.200000X1.500000*%
%ADD17HorizOval,1.500000X1.449945X0.012653X-1.449945X-0.012653X0*%
%ADD18HorizOval,1.500000X1.449945X-0.012653X-1.449945X0.012653X0*%
%ADD19HorizOval,1.600000X0.298858X0.026147X-0.298858X-0.026147X0*%
%ADD20HorizOval,1.500000X1.445530X0.113766X-1.445530X-0.113766X0*%
%ADD21HorizOval,1.500000X0.348668X0.030505X-0.348668X-0.030505X0*%
%ADD22HorizOval,1.500000X1.443324X0.138976X-1.443324X-0.138976X0*%
%ADD23C,0.800000*%
%ADD24O,2.000000X1.600000*%
%ADD25HorizOval,1.600000X0.271892X-0.126785X-0.271892X0.126785X0*%
%ADD26HorizOval,1.500000X1.308749X-0.624241X-1.308749X0.624241X0*%
%ADD27HorizOval,1.500000X0.317208X-0.147916X-0.317208X0.147916X0*%
%ADD28HorizOval,1.500000X1.319444X-0.601305X-1.319444X0.601305X0*%
%ADD29R,1.700000X1.700000*%
%ADD30HorizOval,1.600000X0.295442X-0.052094X-0.295442X0.052094X0*%
%ADD31HorizOval,1.500000X1.425720X-0.264242X-1.425720X0.264242X0*%
%ADD32HorizOval,1.500000X0.344683X-0.060777X-0.344683X0.060777X0*%
%ADD33HorizOval,1.500000X1.430114X-0.239319X-1.430114X0.239319X0*%
G04 APERTURE END LIST*
D10*
X180425000Y-102530000D02*
X182965000Y-102530000D01*
D11*
X169080000Y-98100000D03*
D12*
X164000000Y-98100000D03*
D11*
X158920000Y-98100000D03*
D13*
X169500000Y-98100000D03*
X158500000Y-98100000D03*
D14*
X169100000Y-102000000D03*
D15*
X160190000Y-95560000D03*
X167810000Y-95560000D03*
D14*
X158900000Y-102000000D03*
D16*
X164000000Y-104000000D03*
D17*
X167900042Y-92559599D03*
D15*
X161460000Y-93020000D03*
X166540000Y-93020000D03*
D18*
X160099958Y-92559599D03*
D13*
X150450000Y-96100000D03*
X139450000Y-96100000D03*
D11*
X150030000Y-96100000D03*
X139870000Y-96100000D03*
D12*
X144950000Y-96100000D03*
D14*
X139850000Y-100000000D03*
D15*
X148760000Y-93560000D03*
D14*
X150050000Y-100000000D03*
D15*
X141140000Y-93560000D03*
D16*
X144950000Y-102000000D03*
D15*
X147490000Y-91020000D03*
D17*
X148850042Y-90559599D03*
D18*
X141049958Y-90559599D03*
D15*
X142410000Y-91020000D03*
D13*
X93300000Y-108100000D03*
X82300000Y-108100000D03*
D12*
X87800000Y-108100000D03*
D11*
X92880000Y-108100000D03*
X82720000Y-108100000D03*
D14*
X82700000Y-112000000D03*
D15*
X83990000Y-105560000D03*
X91610000Y-105560000D03*
D14*
X92900000Y-112000000D03*
D15*
X90340000Y-103020000D03*
X85260000Y-103020000D03*
D17*
X91700042Y-102559599D03*
D18*
X83899958Y-102559599D03*
D16*
X87800000Y-114000000D03*
D11*
X111930000Y-58000000D03*
D12*
X106850000Y-58000000D03*
D13*
X112350000Y-58000000D03*
D11*
X101770000Y-58000000D03*
D13*
X101350000Y-58000000D03*
D14*
X101750000Y-61900000D03*
D15*
X110660000Y-55460000D03*
D14*
X111950000Y-61900000D03*
D15*
X103040000Y-55460000D03*
D17*
X110750042Y-52459599D03*
D16*
X106850000Y-63900000D03*
D15*
X109390000Y-52920000D03*
D18*
X102949958Y-52459599D03*
D15*
X104310000Y-52920000D03*
D11*
X73830000Y-89050000D03*
D13*
X74250000Y-89050000D03*
D11*
X63670000Y-89050000D03*
D13*
X63250000Y-89050000D03*
D12*
X68750000Y-89050000D03*
D15*
X72560000Y-86510000D03*
D14*
X73850000Y-92950000D03*
X63650000Y-92950000D03*
D15*
X64940000Y-86510000D03*
D17*
X72650042Y-83509599D03*
D16*
X68750000Y-94950000D03*
D15*
X71290000Y-83970000D03*
X66210000Y-83970000D03*
D18*
X64849958Y-83509599D03*
D13*
X150450000Y-58000000D03*
D11*
X139870000Y-58000000D03*
X150030000Y-58000000D03*
D13*
X139450000Y-58000000D03*
D12*
X144950000Y-58000000D03*
D15*
X141140000Y-55460000D03*
D14*
X150050000Y-61900000D03*
D15*
X148760000Y-55460000D03*
D14*
X139850000Y-61900000D03*
D15*
X142410000Y-52920000D03*
D18*
X141049958Y-52459599D03*
D16*
X144950000Y-63900000D03*
D15*
X147490000Y-52920000D03*
D17*
X148850042Y-52459599D03*
D11*
X101770000Y-77050000D03*
D13*
X112350000Y-77050000D03*
X101350000Y-77050000D03*
D11*
X111930000Y-77050000D03*
D12*
X106850000Y-77050000D03*
D14*
X111950000Y-80950000D03*
D15*
X103040000Y-74510000D03*
X110660000Y-74510000D03*
D14*
X101750000Y-80950000D03*
D18*
X102949958Y-71509599D03*
D16*
X106850000Y-82950000D03*
D15*
X109390000Y-71970000D03*
X104310000Y-71970000D03*
D17*
X110750042Y-71509599D03*
D11*
X145860669Y-118757249D03*
X135739331Y-119642751D03*
D13*
X146279071Y-118720643D03*
D12*
X140800000Y-119200000D03*
D13*
X135320929Y-119679357D03*
D19*
X136059314Y-123529654D03*
X146220500Y-122640665D03*
D15*
X136783123Y-117001729D03*
X144374126Y-116337602D03*
X142887583Y-113917955D03*
D20*
X136431921Y-114020593D03*
D21*
X141314219Y-125077549D03*
D15*
X137826914Y-114360707D03*
D22*
X144202323Y-113340771D03*
D12*
X87800000Y-70000000D03*
D11*
X82720000Y-70000000D03*
X92880000Y-70000000D03*
D13*
X82300000Y-70000000D03*
X93300000Y-70000000D03*
D14*
X82700000Y-73900000D03*
X92900000Y-73900000D03*
D15*
X91610000Y-67460000D03*
X83990000Y-67460000D03*
D17*
X91700042Y-64459599D03*
D18*
X83899958Y-64459599D03*
D16*
X87800000Y-75900000D03*
D15*
X90340000Y-64920000D03*
X85260000Y-64920000D03*
D11*
X139870000Y-77050000D03*
X150030000Y-77050000D03*
D13*
X139450000Y-77050000D03*
X150450000Y-77050000D03*
D12*
X144950000Y-77050000D03*
D15*
X148760000Y-74510000D03*
X141140000Y-74510000D03*
D14*
X139850000Y-80950000D03*
X150050000Y-80950000D03*
D18*
X141049958Y-71509599D03*
D15*
X147490000Y-71970000D03*
D16*
X144950000Y-82950000D03*
D15*
X142410000Y-71970000D03*
D17*
X148850042Y-71509599D03*
D12*
X125900000Y-91100000D03*
D11*
X120820000Y-91100000D03*
D13*
X120400000Y-91100000D03*
D11*
X130980000Y-91100000D03*
D13*
X131400000Y-91100000D03*
D15*
X129710000Y-88560000D03*
D14*
X131000000Y-95000000D03*
D15*
X122090000Y-88560000D03*
D14*
X120800000Y-95000000D03*
D17*
X129800042Y-85559599D03*
D15*
X128440000Y-86020000D03*
X123360000Y-86020000D03*
D18*
X121999958Y-85559599D03*
D16*
X125900000Y-97000000D03*
D13*
X120400000Y-53000000D03*
D12*
X125900000Y-53000000D03*
D11*
X120820000Y-53000000D03*
D13*
X131400000Y-53000000D03*
D11*
X130980000Y-53000000D03*
D15*
X122090000Y-50460000D03*
D14*
X131000000Y-56900000D03*
X120800000Y-56900000D03*
D15*
X129710000Y-50460000D03*
D18*
X121999958Y-47459599D03*
D15*
X123360000Y-47920000D03*
X128440000Y-47920000D03*
D16*
X125900000Y-58900000D03*
D17*
X129800042Y-47459599D03*
D13*
X112350000Y-96100000D03*
D11*
X111930000Y-96100000D03*
D13*
X101350000Y-96100000D03*
D12*
X106850000Y-96100000D03*
D11*
X101770000Y-96100000D03*
D15*
X110660000Y-93560000D03*
X103040000Y-93560000D03*
D14*
X111950000Y-100000000D03*
X101750000Y-100000000D03*
D18*
X102949958Y-90559599D03*
D15*
X109390000Y-91020000D03*
X104310000Y-91020000D03*
D16*
X106850000Y-102000000D03*
D17*
X110750042Y-90559599D03*
D23*
X192260000Y-110120000D03*
X199260000Y-110120000D03*
X199260000Y-108020000D03*
X192260000Y-108020000D03*
D24*
X189560000Y-107820000D03*
X189560000Y-110320000D03*
X190660000Y-112420000D03*
X190660000Y-105720000D03*
X197660000Y-112420000D03*
X194660000Y-105720000D03*
X197660000Y-105720000D03*
X194660000Y-112420000D03*
D12*
X164000000Y-79050000D03*
D13*
X158500000Y-79050000D03*
X169500000Y-79050000D03*
D11*
X158920000Y-79050000D03*
X169080000Y-79050000D03*
D15*
X160190000Y-76510000D03*
D14*
X158900000Y-82950000D03*
X169100000Y-82950000D03*
D15*
X167810000Y-76510000D03*
D18*
X160099958Y-73509599D03*
D15*
X166540000Y-73970000D03*
D17*
X167900042Y-73509599D03*
D16*
X164000000Y-84950000D03*
D15*
X161460000Y-73970000D03*
D11*
X188404044Y-129346901D03*
X179195956Y-125053099D03*
D12*
X183800000Y-127200000D03*
D13*
X188784693Y-129524400D03*
X178815307Y-124875600D03*
D15*
X181420418Y-123287803D03*
D25*
X186773958Y-132889954D03*
D15*
X188326483Y-126508154D03*
D25*
X177529619Y-128579247D03*
D26*
X182606836Y-120530462D03*
D27*
X181306552Y-132547216D03*
D28*
X189676113Y-123826920D03*
D15*
X183644879Y-121522506D03*
X188248923Y-123669407D03*
D11*
X82720000Y-89050000D03*
X92880000Y-89050000D03*
D13*
X93300000Y-89050000D03*
D12*
X87800000Y-89050000D03*
D13*
X82300000Y-89050000D03*
D14*
X92900000Y-92950000D03*
D15*
X83990000Y-86510000D03*
X91610000Y-86510000D03*
D14*
X82700000Y-92950000D03*
D16*
X87800000Y-94950000D03*
D15*
X85260000Y-83970000D03*
D17*
X91700042Y-83509599D03*
D15*
X90340000Y-83970000D03*
D18*
X83899958Y-83509599D03*
D29*
X179035000Y-53020000D03*
X196935000Y-53000000D03*
D11*
X179035000Y-55560000D03*
X196935000Y-55540000D03*
X196935000Y-58080000D03*
X179035000Y-58100000D03*
X196935000Y-60620000D03*
X179035000Y-60640000D03*
X196935000Y-63160000D03*
X179035000Y-63180000D03*
X196935000Y-65700000D03*
X179035000Y-65720000D03*
X179035000Y-68260000D03*
X196935000Y-68240000D03*
X179035000Y-70800000D03*
X196935000Y-70780000D03*
X196935000Y-73320000D03*
X179035000Y-73340000D03*
X196935000Y-75860000D03*
X179035000Y-75880000D03*
X179035000Y-78420000D03*
X196935000Y-78400000D03*
X196935000Y-80940000D03*
X179035000Y-80960000D03*
X196935000Y-83480000D03*
X179035000Y-83500000D03*
X196935000Y-86020000D03*
X179035000Y-86040000D03*
X179035000Y-88580000D03*
X196935000Y-88560000D03*
X179035000Y-91120000D03*
X196935000Y-91100000D03*
X196935000Y-93640000D03*
X179035000Y-93660000D03*
X196935000Y-96180000D03*
X179035000Y-96200000D03*
X196935000Y-98720000D03*
X179035000Y-98740000D03*
X179035000Y-101280000D03*
X196935000Y-101260000D03*
X194275000Y-101280000D03*
X181695000Y-101260000D03*
X194275000Y-98740000D03*
X181695000Y-98720000D03*
X181695000Y-96180000D03*
X194275000Y-96200000D03*
X181695000Y-93640000D03*
X194275000Y-93660000D03*
X194275000Y-91120000D03*
X181695000Y-91100000D03*
X181695000Y-88560000D03*
X194275000Y-88580000D03*
X181695000Y-86020000D03*
X194275000Y-86040000D03*
X194275000Y-83500000D03*
X181695000Y-83480000D03*
X194275000Y-80960000D03*
X181695000Y-80940000D03*
X181695000Y-78400000D03*
X194275000Y-78420000D03*
X181695000Y-75860000D03*
X194275000Y-75880000D03*
X194275000Y-73340000D03*
X181695000Y-73320000D03*
X194275000Y-70800000D03*
X181695000Y-70780000D03*
X181695000Y-68240000D03*
X194275000Y-68260000D03*
X194275000Y-65720000D03*
X181695000Y-65700000D03*
X181695000Y-63160000D03*
X194275000Y-63180000D03*
X194275000Y-60640000D03*
X181695000Y-60620000D03*
X181695000Y-58080000D03*
X194275000Y-58100000D03*
X181695000Y-55540000D03*
X194275000Y-55560000D03*
X181695000Y-53000000D03*
X194275000Y-53020000D03*
D13*
X158500000Y-60000000D03*
X169500000Y-60000000D03*
D11*
X169080000Y-60000000D03*
X158920000Y-60000000D03*
D12*
X164000000Y-60000000D03*
D15*
X160190000Y-57460000D03*
X167810000Y-57460000D03*
D14*
X158900000Y-63900000D03*
X169100000Y-63900000D03*
D15*
X166540000Y-54920000D03*
X161460000Y-54920000D03*
D17*
X167900042Y-54459599D03*
D18*
X160099958Y-54459599D03*
D16*
X164000000Y-65900000D03*
D13*
X63250000Y-108100000D03*
D11*
X73830000Y-108100000D03*
X63670000Y-108100000D03*
D12*
X68750000Y-108100000D03*
D13*
X74250000Y-108100000D03*
D14*
X63650000Y-112000000D03*
D15*
X72560000Y-105560000D03*
X64940000Y-105560000D03*
D14*
X73850000Y-112000000D03*
D15*
X66210000Y-103020000D03*
D16*
X68750000Y-114000000D03*
D18*
X64849958Y-102559599D03*
D17*
X72650042Y-102559599D03*
D15*
X71290000Y-103020000D03*
D12*
X125900000Y-72050000D03*
D11*
X130980000Y-72050000D03*
D13*
X120400000Y-72050000D03*
D11*
X120820000Y-72050000D03*
D13*
X131400000Y-72050000D03*
D15*
X129710000Y-69510000D03*
D14*
X120800000Y-75950000D03*
D15*
X122090000Y-69510000D03*
D14*
X131000000Y-75950000D03*
D16*
X125900000Y-77950000D03*
D15*
X128440000Y-66970000D03*
D17*
X129800042Y-66509599D03*
D15*
X123360000Y-66970000D03*
D18*
X121999958Y-66509599D03*
D11*
X73830000Y-70000000D03*
X63670000Y-70000000D03*
D13*
X63250000Y-70000000D03*
X74250000Y-70000000D03*
D12*
X68750000Y-70000000D03*
D15*
X64940000Y-67460000D03*
X72560000Y-67460000D03*
D14*
X73850000Y-73900000D03*
X63650000Y-73900000D03*
D15*
X66210000Y-64920000D03*
D16*
X68750000Y-75900000D03*
D15*
X71290000Y-64920000D03*
D17*
X72650042Y-64459599D03*
D18*
X64849958Y-64459599D03*
D12*
X162800000Y-120200000D03*
D11*
X167802823Y-121082133D03*
D13*
X168216443Y-121155065D03*
D11*
X157797177Y-119317867D03*
D13*
X157383557Y-119244935D03*
D30*
X167145292Y-124926356D03*
X157100253Y-123155145D03*
D15*
X159488949Y-117036989D03*
X166993184Y-118360188D03*
X161180721Y-114756110D03*
X166183544Y-115638243D03*
D31*
X159921289Y-114066535D03*
D32*
X161775476Y-126010366D03*
D33*
X167602872Y-115421006D03*
M02*
