%TF.GenerationSoftware,KiCad,Pcbnew,(6.0.5-0)*%
%TF.CreationDate,2023-02-14T08:53:57-08:00*%
%TF.ProjectId,keyboard_pcb,6b657962-6f61-4726-945f-7063622e6b69,rev1.0*%
%TF.SameCoordinates,PX2ebae40PY925c430*%
%TF.FileFunction,Legend,Top*%
%TF.FilePolarity,Positive*%
%FSLAX46Y46*%
G04 Gerber Fmt 4.6, Leading zero omitted, Abs format (unit mm)*
G04 Created by KiCad (PCBNEW (6.0.5-0)) date 2023-02-14 08:53:57*
%MOMM*%
%LPD*%
G01*
G04 APERTURE LIST*
%ADD10C,0.250000*%
%ADD11C,0.150000*%
%ADD12C,0.120000*%
G04 APERTURE END LIST*
D10*
X137294285Y54720000D02*
X137389523Y54648572D01*
X137484761Y54434286D01*
X137484761Y54291429D01*
X137389523Y54077143D01*
X137199047Y53934286D01*
X137008571Y53862858D01*
X136627619Y53791429D01*
X136341904Y53791429D01*
X135960952Y53862858D01*
X135770476Y53934286D01*
X135580000Y54077143D01*
X135484761Y54291429D01*
X135484761Y54434286D01*
X135580000Y54648572D01*
X135675238Y54720000D01*
X137484761Y56005715D02*
X136437142Y56005715D01*
X136246666Y55934286D01*
X136151428Y55791429D01*
X136151428Y55505715D01*
X136246666Y55362858D01*
X137389523Y56005715D02*
X137484761Y55862858D01*
X137484761Y55505715D01*
X137389523Y55362858D01*
X137199047Y55291429D01*
X137008571Y55291429D01*
X136818095Y55362858D01*
X136722857Y55505715D01*
X136722857Y55862858D01*
X136627619Y56005715D01*
X136151428Y56720000D02*
X137484761Y56720000D01*
X136341904Y56720000D02*
X136246666Y56791429D01*
X136151428Y56934286D01*
X136151428Y57148572D01*
X136246666Y57291429D01*
X136437142Y57362858D01*
X137484761Y57362858D01*
X136151428Y57862858D02*
X136151428Y58434286D01*
X135484761Y58077143D02*
X137199047Y58077143D01*
X137389523Y58148572D01*
X137484761Y58291429D01*
X137484761Y58434286D01*
X137484761Y59148572D02*
X137389523Y59005715D01*
X137294285Y58934286D01*
X137103809Y58862858D01*
X136532380Y58862858D01*
X136341904Y58934286D01*
X136246666Y59005715D01*
X136151428Y59148572D01*
X136151428Y59362858D01*
X136246666Y59505715D01*
X136341904Y59577143D01*
X136532380Y59648572D01*
X137103809Y59648572D01*
X137294285Y59577143D01*
X137389523Y59505715D01*
X137484761Y59362858D01*
X137484761Y59148572D01*
X137484761Y60291429D02*
X136151428Y60291429D01*
X136532380Y60291429D02*
X136341904Y60362858D01*
X136246666Y60434286D01*
X136151428Y60577143D01*
X136151428Y60720000D01*
X137484761Y62362858D02*
X136151428Y62362858D01*
X136532380Y62362858D02*
X136341904Y62434286D01*
X136246666Y62505715D01*
X136151428Y62648572D01*
X136151428Y62791429D01*
X137389523Y63862858D02*
X137484761Y63720000D01*
X137484761Y63434286D01*
X137389523Y63291429D01*
X137199047Y63220000D01*
X136437142Y63220000D01*
X136246666Y63291429D01*
X136151428Y63434286D01*
X136151428Y63720000D01*
X136246666Y63862858D01*
X136437142Y63934286D01*
X136627619Y63934286D01*
X136818095Y63220000D01*
X136151428Y64434286D02*
X137484761Y64791429D01*
X136151428Y65148572D01*
X137484761Y66505715D02*
X137484761Y65648572D01*
X137484761Y66077143D02*
X135484761Y66077143D01*
X135770476Y65934286D01*
X135960952Y65791429D01*
X136056190Y65648572D01*
X137294285Y67148572D02*
X137389523Y67220000D01*
X137484761Y67148572D01*
X137389523Y67077143D01*
X137294285Y67148572D01*
X137484761Y67148572D01*
X137484761Y68648572D02*
X137484761Y67791429D01*
X137484761Y68220000D02*
X135484761Y68220000D01*
X135770476Y68077143D01*
X135960952Y67934286D01*
X136056190Y67791429D01*
X138246666Y70862858D02*
X138151428Y70791429D01*
X137865714Y70648572D01*
X137675238Y70577143D01*
X137389523Y70505715D01*
X136913333Y70434286D01*
X136532380Y70434286D01*
X136056190Y70505715D01*
X135770476Y70577143D01*
X135580000Y70648572D01*
X135294285Y70791429D01*
X135199047Y70862858D01*
X137294285Y72291429D02*
X137389523Y72220000D01*
X137484761Y72005715D01*
X137484761Y71862858D01*
X137389523Y71648572D01*
X137199047Y71505715D01*
X137008571Y71434286D01*
X136627619Y71362858D01*
X136341904Y71362858D01*
X135960952Y71434286D01*
X135770476Y71505715D01*
X135580000Y71648572D01*
X135484761Y71862858D01*
X135484761Y72005715D01*
X135580000Y72220000D01*
X135675238Y72291429D01*
X137484761Y72934286D02*
X135484761Y72934286D01*
X137484761Y73577143D02*
X136437142Y73577143D01*
X136246666Y73505715D01*
X136151428Y73362858D01*
X136151428Y73148572D01*
X136246666Y73005715D01*
X136341904Y72934286D01*
X137484761Y74505715D02*
X137389523Y74362858D01*
X137294285Y74291429D01*
X137103809Y74220001D01*
X136532380Y74220001D01*
X136341904Y74291429D01*
X136246666Y74362858D01*
X136151428Y74505715D01*
X136151428Y74720001D01*
X136246666Y74862858D01*
X136341904Y74934286D01*
X136532380Y75005715D01*
X137103809Y75005715D01*
X137294285Y74934286D01*
X137389523Y74862858D01*
X137484761Y74720001D01*
X137484761Y74505715D01*
X137389523Y76291429D02*
X137484761Y76148572D01*
X137484761Y75862858D01*
X137389523Y75720001D01*
X137294285Y75648572D01*
X137103809Y75577143D01*
X136532380Y75577143D01*
X136341904Y75648572D01*
X136246666Y75720001D01*
X136151428Y75862858D01*
X136151428Y76148572D01*
X136246666Y76291429D01*
X135484761Y77862858D02*
X137484761Y78362858D01*
X135484761Y78862858D01*
X135675238Y79291429D02*
X135580000Y79362858D01*
X135484761Y79505715D01*
X135484761Y79862858D01*
X135580000Y80005715D01*
X135675238Y80077143D01*
X135865714Y80148572D01*
X136056190Y80148572D01*
X136341904Y80077143D01*
X137484761Y79220001D01*
X137484761Y80148572D01*
X138246666Y80648572D02*
X138151428Y80720001D01*
X137865714Y80862858D01*
X137675238Y80934286D01*
X137389523Y81005715D01*
X136913333Y81077143D01*
X136532380Y81077143D01*
X136056190Y81005715D01*
X135770476Y80934286D01*
X135580000Y80862858D01*
X135294285Y80720001D01*
X135199047Y80648572D01*
D11*
%TO.C,J1*%
X153860000Y40550000D02*
X153860000Y46150000D01*
X151860000Y46150000D02*
X153860000Y46150000D01*
X151860000Y40300000D02*
X139760000Y40300000D01*
X151860000Y46400000D02*
X139760000Y46400000D01*
X151860000Y40550000D02*
X153860000Y40550000D01*
X151860000Y40300000D02*
X151860000Y46400000D01*
X139760000Y40300000D02*
X139760000Y46400000D01*
D12*
%TO.C,U1*%
X146605000Y50880000D02*
X149265000Y50880000D01*
X149265000Y50880000D02*
X149265000Y99200000D01*
X133965000Y50940000D02*
X131425000Y50940000D01*
X149265000Y100470000D02*
X149265000Y101800000D01*
X133965000Y101740000D02*
X131425000Y101740000D01*
X133965000Y50940000D02*
X133965000Y101740000D01*
X146605000Y99200000D02*
X146605000Y50880000D01*
X131425000Y101740000D02*
X131425000Y50940000D01*
X149265000Y101800000D02*
X147935000Y101800000D01*
X149265000Y99200000D02*
X146605000Y99200000D01*
%TD*%
M02*
