M48
; DRILL file {KiCad (6.0.5-0)} date Tuesday, February 14, 2023 at 08:53:54 AM
; FORMAT={-:-/ absolute / inch / decimal}
; #@! TF.CreationDate,2023-02-14T08:53:54-08:00
; #@! TF.GenerationSoftware,Kicad,Pcbnew,(6.0.5-0)
; #@! TF.FileFunction,NonPlated,1,2,NPTH
FMAT,2
INCH
; #@! TA.AperFunction,NonPlated,NPTH,ComponentDrill
T1C0.0315
; #@! TA.AperFunction,NonPlated,NPTH,ComponentDrill
T2C0.0669
; #@! TA.AperFunction,NonPlated,NPTH,ComponentDrill
T3C0.0709
; #@! TA.AperFunction,NonPlated,NPTH,ComponentDrill
T4C0.1929
%
G90
G05
T1
X5.6402Y1.7894
X5.6402Y1.7067
X5.9157Y1.7894
X5.9157Y1.7067
T2
X0.5776Y3.2862
X0.5776Y2.5362
X0.5776Y1.7862
X0.9776Y3.2862
X0.9776Y2.5362
X0.9776Y1.7862
X1.3276Y3.2862
X1.3276Y2.5362
X1.3276Y1.7862
X1.7276Y3.2862
X1.7276Y2.5362
X1.7276Y1.7862
X2.0776Y3.7587
X2.0776Y3.0087
X2.0776Y2.2587
X2.4776Y3.7587
X2.4776Y3.0087
X2.4776Y2.2587
X2.8276Y3.9555
X2.8276Y3.2055
X2.8276Y2.4555
X3.2276Y3.9555
X3.2276Y3.2055
X3.2276Y2.4555
X3.4149Y1.3318
X3.5776Y3.7587
X3.5776Y3.0087
X3.5776Y2.2587
X3.8134Y1.3666
X3.9776Y3.7587
X3.9776Y3.0087
X3.9776Y2.2587
X4.2834Y1.3446
X4.3276Y3.6799
X4.3276Y2.9299
X4.3276Y2.1799
X4.6773Y1.2751
X4.7276Y3.6799
X4.7276Y2.9299
X4.7276Y2.1799
X5.1258Y1.1188
X5.4883Y0.9497
T3
X0.561Y3.2862
X0.561Y2.5362
X0.561Y1.7862
X0.9941Y3.2862
X0.9941Y2.5362
X0.9941Y1.7862
X1.311Y3.2862
X1.311Y2.5362
X1.311Y1.7862
X1.7441Y3.2862
X1.7441Y2.5362
X1.7441Y1.7862
X2.061Y3.7587
X2.061Y3.0087
X2.061Y2.2587
X2.4941Y3.7587
X2.4941Y3.0087
X2.4941Y2.2587
X2.811Y3.9555
X2.811Y3.2055
X2.811Y2.4555
X3.2441Y3.9555
X3.2441Y3.2055
X3.2441Y2.4555
X3.3985Y1.3303
X3.561Y3.7587
X3.561Y3.0087
X3.561Y2.2587
X3.8299Y1.3681
X3.9941Y3.7587
X3.9941Y3.0087
X3.9941Y2.2587
X4.2671Y1.3474
X4.311Y3.6799
X4.311Y2.9299
X4.311Y2.1799
X4.6936Y1.2722
X4.7441Y3.6799
X4.7441Y2.9299
X4.7441Y2.1799
X5.1108Y1.1258
X5.5033Y0.9427
T4
X0.7776Y3.2862
X0.7776Y2.5362
X0.7776Y1.7862
X1.5276Y3.2862
X1.5276Y2.5362
X1.5276Y1.7862
X2.2776Y3.7587
X2.2776Y3.0087
X2.2776Y2.2587
X3.0276Y3.9555
X3.0276Y3.2055
X3.0276Y2.4555
X3.6142Y1.3492
X3.7776Y3.7587
X3.7776Y3.0087
X3.7776Y2.2587
X4.4803Y1.3098
X4.5276Y3.6799
X4.5276Y2.9299
X4.5276Y2.1799
X5.3071Y1.0343
T0
M30
