M48
; DRILL file {KiCad (7.0.0-0)} date Thursday, February 16, 2023 at 05:59:54 PM
; FORMAT={-:-/ absolute / metric / decimal}
; #@! TF.CreationDate,2023-02-16T17:59:54-08:00
; #@! TF.GenerationSoftware,Kicad,Pcbnew,(7.0.0-0)
; #@! TF.FileFunction,NonPlated,1,2,NPTH
FMAT,2
METRIC
; #@! TA.AperFunction,NonPlated,NPTH,ComponentDrill
T1C0.800
; #@! TA.AperFunction,NonPlated,NPTH,ComponentDrill
T2C1.700
; #@! TA.AperFunction,NonPlated,NPTH,ComponentDrill
T3C1.800
; #@! TA.AperFunction,NonPlated,NPTH,ComponentDrill
T4C4.900
%
G90
G05
T1
X66.36Y-35.97
X66.36Y-38.07
X73.36Y-35.97
X73.36Y-38.07
T2
X-62.23Y2.05
X-62.23Y-17.0
X-62.23Y-36.05
X-52.07Y2.05
X-52.07Y-17.0
X-52.07Y-36.05
X-43.18Y2.05
X-43.18Y-17.0
X-43.18Y-36.05
X-33.02Y2.05
X-33.02Y-17.0
X-33.02Y-36.05
X-24.13Y14.05
X-24.13Y-5.0
X-24.13Y-24.05
X-13.97Y14.05
X-13.97Y-5.0
X-13.97Y-24.05
X-5.08Y19.05
X-5.08Y0.0
X-5.08Y-19.05
X5.08Y19.05
X5.08Y0.0
X5.08Y-19.05
X9.839Y-47.593
X13.97Y14.05
X13.97Y-5.0
X13.97Y-24.05
X19.961Y-46.707
X24.13Y14.05
X24.13Y-5.0
X24.13Y-24.05
X31.897Y-47.268
X33.02Y12.05
X33.02Y-7.0
X33.02Y-26.05
X41.903Y-49.032
X43.18Y12.05
X43.18Y-7.0
X43.18Y-26.05
X53.296Y-53.003
X62.504Y-57.297
T3
X-62.65Y2.05
X-62.65Y-17.0
X-62.65Y-36.05
X-51.65Y2.05
X-51.65Y-17.0
X-51.65Y-36.05
X-43.6Y2.05
X-43.6Y-17.0
X-43.6Y-36.05
X-32.6Y2.05
X-32.6Y-17.0
X-32.6Y-36.05
X-24.55Y14.05
X-24.55Y-5.0
X-24.55Y-24.05
X-13.55Y14.05
X-13.55Y-5.0
X-13.55Y-24.05
X-5.5Y19.05
X-5.5Y0.0
X-5.5Y-19.05
X5.5Y19.05
X5.5Y0.0
X5.5Y-19.05
X9.421Y-47.629
X13.55Y14.05
X13.55Y-5.0
X13.55Y-24.05
X20.379Y-46.671
X24.55Y14.05
X24.55Y-5.0
X24.55Y-24.05
X31.484Y-47.195
X32.6Y12.05
X32.6Y-7.0
X32.6Y-26.05
X42.316Y-49.105
X43.6Y12.05
X43.6Y-7.0
X43.6Y-26.05
X52.915Y-52.826
X62.885Y-57.474
T4
X-57.15Y2.05
X-57.15Y-17.0
X-57.15Y-36.05
X-38.1Y2.05
X-38.1Y-17.0
X-38.1Y-36.05
X-19.05Y14.05
X-19.05Y-5.0
X-19.05Y-24.05
X0.0Y19.05
X0.0Y0.0
X0.0Y-19.05
X14.9Y-47.15
X19.05Y14.05
X19.05Y-5.0
X19.05Y-24.05
X36.9Y-48.15
X38.1Y12.05
X38.1Y-7.0
X38.1Y-26.05
X57.9Y-55.15
T0
M30
