G04 #@! TF.GenerationSoftware,KiCad,Pcbnew,(6.0.5-0)*
G04 #@! TF.CreationDate,2023-02-14T11:13:25-08:00*
G04 #@! TF.ProjectId,keyboard_pcb,6b657962-6f61-4726-945f-7063622e6b69,rev1.0*
G04 #@! TF.SameCoordinates,Original*
G04 #@! TF.FileFunction,Legend,Top*
G04 #@! TF.FilePolarity,Positive*
%FSLAX46Y46*%
G04 Gerber Fmt 4.6, Leading zero omitted, Abs format (unit mm)*
G04 Created by KiCad (PCBNEW (6.0.5-0)) date 2023-02-14 11:13:25*
%MOMM*%
%LPD*%
G01*
G04 APERTURE LIST*
G04 Aperture macros list*
%AMHorizOval*
0 Thick line with rounded ends*
0 $1 width*
0 $2 $3 position (X,Y) of the first rounded end (center of the circle)*
0 $4 $5 position (X,Y) of the second rounded end (center of the circle)*
0 Add line between two ends*
20,1,$1,$2,$3,$4,$5,0*
0 Add two circle primitives to create the rounded ends*
1,1,$1,$2,$3*
1,1,$1,$4,$5*%
G04 Aperture macros list end*
%ADD10C,0.250000*%
%ADD11C,0.150000*%
%ADD12C,0.120000*%
%ADD13C,1.700000*%
%ADD14C,4.900000*%
%ADD15C,1.800000*%
%ADD16O,2.200000X1.600000*%
%ADD17C,2.400000*%
%ADD18O,2.200000X1.500000*%
%ADD19HorizOval,1.500000X1.449945X0.012653X-1.449945X-0.012653X0*%
%ADD20HorizOval,1.500000X1.449945X-0.012653X-1.449945X0.012653X0*%
%ADD21HorizOval,1.600000X0.298858X0.026147X-0.298858X-0.026147X0*%
%ADD22HorizOval,1.500000X1.445530X0.113766X-1.445530X-0.113766X0*%
%ADD23HorizOval,1.500000X0.348668X0.030505X-0.348668X-0.030505X0*%
%ADD24HorizOval,1.500000X1.443324X0.138976X-1.443324X-0.138976X0*%
%ADD25C,0.800000*%
%ADD26O,2.000000X1.600000*%
%ADD27HorizOval,1.600000X0.271892X-0.126785X-0.271892X0.126785X0*%
%ADD28HorizOval,1.500000X1.308749X-0.624241X-1.308749X0.624241X0*%
%ADD29HorizOval,1.500000X0.317208X-0.147916X-0.317208X0.147916X0*%
%ADD30HorizOval,1.500000X1.319444X-0.601305X-1.319444X0.601305X0*%
%ADD31R,1.700000X1.700000*%
%ADD32HorizOval,1.600000X0.295442X-0.052094X-0.295442X0.052094X0*%
%ADD33HorizOval,1.500000X1.425720X-0.264242X-1.425720X0.264242X0*%
%ADD34HorizOval,1.500000X0.344683X-0.060777X-0.344683X0.060777X0*%
%ADD35HorizOval,1.500000X1.430114X-0.239319X-1.430114X0.239319X0*%
G04 APERTURE END LIST*
D10*
X186294285Y-98750000D02*
X186389523Y-98821428D01*
X186484761Y-99035714D01*
X186484761Y-99178571D01*
X186389523Y-99392857D01*
X186199047Y-99535714D01*
X186008571Y-99607142D01*
X185627619Y-99678571D01*
X185341904Y-99678571D01*
X184960952Y-99607142D01*
X184770476Y-99535714D01*
X184580000Y-99392857D01*
X184484761Y-99178571D01*
X184484761Y-99035714D01*
X184580000Y-98821428D01*
X184675238Y-98750000D01*
X186484761Y-97464285D02*
X185437142Y-97464285D01*
X185246666Y-97535714D01*
X185151428Y-97678571D01*
X185151428Y-97964285D01*
X185246666Y-98107142D01*
X186389523Y-97464285D02*
X186484761Y-97607142D01*
X186484761Y-97964285D01*
X186389523Y-98107142D01*
X186199047Y-98178571D01*
X186008571Y-98178571D01*
X185818095Y-98107142D01*
X185722857Y-97964285D01*
X185722857Y-97607142D01*
X185627619Y-97464285D01*
X185151428Y-96750000D02*
X186484761Y-96750000D01*
X185341904Y-96750000D02*
X185246666Y-96678571D01*
X185151428Y-96535714D01*
X185151428Y-96321428D01*
X185246666Y-96178571D01*
X185437142Y-96107142D01*
X186484761Y-96107142D01*
X185151428Y-95607142D02*
X185151428Y-95035714D01*
X184484761Y-95392857D02*
X186199047Y-95392857D01*
X186389523Y-95321428D01*
X186484761Y-95178571D01*
X186484761Y-95035714D01*
X186484761Y-94321428D02*
X186389523Y-94464285D01*
X186294285Y-94535714D01*
X186103809Y-94607142D01*
X185532380Y-94607142D01*
X185341904Y-94535714D01*
X185246666Y-94464285D01*
X185151428Y-94321428D01*
X185151428Y-94107142D01*
X185246666Y-93964285D01*
X185341904Y-93892857D01*
X185532380Y-93821428D01*
X186103809Y-93821428D01*
X186294285Y-93892857D01*
X186389523Y-93964285D01*
X186484761Y-94107142D01*
X186484761Y-94321428D01*
X186484761Y-93178571D02*
X185151428Y-93178571D01*
X185532380Y-93178571D02*
X185341904Y-93107142D01*
X185246666Y-93035714D01*
X185151428Y-92892857D01*
X185151428Y-92750000D01*
X186484761Y-91107142D02*
X185151428Y-91107142D01*
X185532380Y-91107142D02*
X185341904Y-91035714D01*
X185246666Y-90964285D01*
X185151428Y-90821428D01*
X185151428Y-90678571D01*
X186389523Y-89607142D02*
X186484761Y-89750000D01*
X186484761Y-90035714D01*
X186389523Y-90178571D01*
X186199047Y-90250000D01*
X185437142Y-90250000D01*
X185246666Y-90178571D01*
X185151428Y-90035714D01*
X185151428Y-89750000D01*
X185246666Y-89607142D01*
X185437142Y-89535714D01*
X185627619Y-89535714D01*
X185818095Y-90250000D01*
X185151428Y-89035714D02*
X186484761Y-88678571D01*
X185151428Y-88321428D01*
X186484761Y-86964285D02*
X186484761Y-87821428D01*
X186484761Y-87392857D02*
X184484761Y-87392857D01*
X184770476Y-87535714D01*
X184960952Y-87678571D01*
X185056190Y-87821428D01*
X186294285Y-86321428D02*
X186389523Y-86250000D01*
X186484761Y-86321428D01*
X186389523Y-86392857D01*
X186294285Y-86321428D01*
X186484761Y-86321428D01*
X186484761Y-84821428D02*
X186484761Y-85678571D01*
X186484761Y-85250000D02*
X184484761Y-85250000D01*
X184770476Y-85392857D01*
X184960952Y-85535714D01*
X185056190Y-85678571D01*
X187246666Y-82607142D02*
X187151428Y-82678571D01*
X186865714Y-82821428D01*
X186675238Y-82892857D01*
X186389523Y-82964285D01*
X185913333Y-83035714D01*
X185532380Y-83035714D01*
X185056190Y-82964285D01*
X184770476Y-82892857D01*
X184580000Y-82821428D01*
X184294285Y-82678571D01*
X184199047Y-82607142D01*
X186294285Y-81178571D02*
X186389523Y-81250000D01*
X186484761Y-81464285D01*
X186484761Y-81607142D01*
X186389523Y-81821428D01*
X186199047Y-81964285D01*
X186008571Y-82035714D01*
X185627619Y-82107142D01*
X185341904Y-82107142D01*
X184960952Y-82035714D01*
X184770476Y-81964285D01*
X184580000Y-81821428D01*
X184484761Y-81607142D01*
X184484761Y-81464285D01*
X184580000Y-81250000D01*
X184675238Y-81178571D01*
X186484761Y-80535714D02*
X184484761Y-80535714D01*
X186484761Y-79892857D02*
X185437142Y-79892857D01*
X185246666Y-79964285D01*
X185151428Y-80107142D01*
X185151428Y-80321428D01*
X185246666Y-80464285D01*
X185341904Y-80535714D01*
X186484761Y-78964285D02*
X186389523Y-79107142D01*
X186294285Y-79178571D01*
X186103809Y-79249999D01*
X185532380Y-79249999D01*
X185341904Y-79178571D01*
X185246666Y-79107142D01*
X185151428Y-78964285D01*
X185151428Y-78749999D01*
X185246666Y-78607142D01*
X185341904Y-78535714D01*
X185532380Y-78464285D01*
X186103809Y-78464285D01*
X186294285Y-78535714D01*
X186389523Y-78607142D01*
X186484761Y-78749999D01*
X186484761Y-78964285D01*
X186389523Y-77178571D02*
X186484761Y-77321428D01*
X186484761Y-77607142D01*
X186389523Y-77749999D01*
X186294285Y-77821428D01*
X186103809Y-77892857D01*
X185532380Y-77892857D01*
X185341904Y-77821428D01*
X185246666Y-77749999D01*
X185151428Y-77607142D01*
X185151428Y-77321428D01*
X185246666Y-77178571D01*
X184484761Y-75607142D02*
X186484761Y-75107142D01*
X184484761Y-74607142D01*
X184675238Y-74178571D02*
X184580000Y-74107142D01*
X184484761Y-73964285D01*
X184484761Y-73607142D01*
X184580000Y-73464285D01*
X184675238Y-73392857D01*
X184865714Y-73321428D01*
X185056190Y-73321428D01*
X185341904Y-73392857D01*
X186484761Y-74249999D01*
X186484761Y-73321428D01*
X187246666Y-72821428D02*
X187151428Y-72749999D01*
X186865714Y-72607142D01*
X186675238Y-72535714D01*
X186389523Y-72464285D01*
X185913333Y-72392857D01*
X185532380Y-72392857D01*
X185056190Y-72464285D01*
X184770476Y-72535714D01*
X184580000Y-72607142D01*
X184294285Y-72749999D01*
X184199047Y-72821428D01*
D11*
X200860000Y-107320000D02*
X202860000Y-107320000D01*
X200860000Y-113170000D02*
X200860000Y-107070000D01*
X202860000Y-112920000D02*
X202860000Y-107320000D01*
X200860000Y-113170000D02*
X188760000Y-113170000D01*
X188760000Y-113170000D02*
X188760000Y-107070000D01*
X200860000Y-112920000D02*
X202860000Y-112920000D01*
X200860000Y-107070000D02*
X188760000Y-107070000D01*
D12*
X182965000Y-102530000D02*
X180425000Y-102530000D01*
X198265000Y-102590000D02*
X198265000Y-54270000D01*
X198265000Y-51670000D02*
X196935000Y-51670000D01*
X180425000Y-51730000D02*
X180425000Y-102530000D01*
X182965000Y-51730000D02*
X180425000Y-51730000D01*
X198265000Y-54270000D02*
X195605000Y-54270000D01*
X182965000Y-102530000D02*
X182965000Y-51730000D01*
X198265000Y-53000000D02*
X198265000Y-51670000D01*
X195605000Y-102590000D02*
X198265000Y-102590000D01*
X195605000Y-54270000D02*
X195605000Y-102590000D01*
%LPC*%
X180425000Y-102530000D02*
X182965000Y-102530000D01*
D13*
X169080000Y-98100000D03*
D14*
X164000000Y-98100000D03*
D13*
X158920000Y-98100000D03*
D15*
X169500000Y-98100000D03*
X158500000Y-98100000D03*
D16*
X169100000Y-102000000D03*
D17*
X160190000Y-95560000D03*
X167810000Y-95560000D03*
D16*
X158900000Y-102000000D03*
D18*
X164000000Y-104000000D03*
D19*
X167900042Y-92559599D03*
D17*
X161460000Y-93020000D03*
X166540000Y-93020000D03*
D20*
X160099958Y-92559599D03*
D15*
X150450000Y-96100000D03*
X139450000Y-96100000D03*
D13*
X150030000Y-96100000D03*
X139870000Y-96100000D03*
D14*
X144950000Y-96100000D03*
D16*
X139850000Y-100000000D03*
D17*
X148760000Y-93560000D03*
D16*
X150050000Y-100000000D03*
D17*
X141140000Y-93560000D03*
D18*
X144950000Y-102000000D03*
D17*
X147490000Y-91020000D03*
D19*
X148850042Y-90559599D03*
D20*
X141049958Y-90559599D03*
D17*
X142410000Y-91020000D03*
D15*
X93300000Y-108100000D03*
X82300000Y-108100000D03*
D14*
X87800000Y-108100000D03*
D13*
X92880000Y-108100000D03*
X82720000Y-108100000D03*
D16*
X82700000Y-112000000D03*
D17*
X83990000Y-105560000D03*
X91610000Y-105560000D03*
D16*
X92900000Y-112000000D03*
D17*
X90340000Y-103020000D03*
X85260000Y-103020000D03*
D19*
X91700042Y-102559599D03*
D20*
X83899958Y-102559599D03*
D18*
X87800000Y-114000000D03*
D13*
X111930000Y-58000000D03*
D14*
X106850000Y-58000000D03*
D15*
X112350000Y-58000000D03*
D13*
X101770000Y-58000000D03*
D15*
X101350000Y-58000000D03*
D16*
X101750000Y-61900000D03*
D17*
X110660000Y-55460000D03*
D16*
X111950000Y-61900000D03*
D17*
X103040000Y-55460000D03*
D19*
X110750042Y-52459599D03*
D18*
X106850000Y-63900000D03*
D17*
X109390000Y-52920000D03*
D20*
X102949958Y-52459599D03*
D17*
X104310000Y-52920000D03*
D13*
X73830000Y-89050000D03*
D15*
X74250000Y-89050000D03*
D13*
X63670000Y-89050000D03*
D15*
X63250000Y-89050000D03*
D14*
X68750000Y-89050000D03*
D17*
X72560000Y-86510000D03*
D16*
X73850000Y-92950000D03*
X63650000Y-92950000D03*
D17*
X64940000Y-86510000D03*
D19*
X72650042Y-83509599D03*
D18*
X68750000Y-94950000D03*
D17*
X71290000Y-83970000D03*
X66210000Y-83970000D03*
D20*
X64849958Y-83509599D03*
D15*
X150450000Y-58000000D03*
D13*
X139870000Y-58000000D03*
X150030000Y-58000000D03*
D15*
X139450000Y-58000000D03*
D14*
X144950000Y-58000000D03*
D17*
X141140000Y-55460000D03*
D16*
X150050000Y-61900000D03*
D17*
X148760000Y-55460000D03*
D16*
X139850000Y-61900000D03*
D17*
X142410000Y-52920000D03*
D20*
X141049958Y-52459599D03*
D18*
X144950000Y-63900000D03*
D17*
X147490000Y-52920000D03*
D19*
X148850042Y-52459599D03*
D13*
X101770000Y-77050000D03*
D15*
X112350000Y-77050000D03*
X101350000Y-77050000D03*
D13*
X111930000Y-77050000D03*
D14*
X106850000Y-77050000D03*
D16*
X111950000Y-80950000D03*
D17*
X103040000Y-74510000D03*
X110660000Y-74510000D03*
D16*
X101750000Y-80950000D03*
D20*
X102949958Y-71509599D03*
D18*
X106850000Y-82950000D03*
D17*
X109390000Y-71970000D03*
X104310000Y-71970000D03*
D19*
X110750042Y-71509599D03*
D13*
X145860669Y-118757249D03*
X135739331Y-119642751D03*
D15*
X146279071Y-118720643D03*
D14*
X140800000Y-119200000D03*
D15*
X135320929Y-119679357D03*
D21*
X136059314Y-123529654D03*
X146220500Y-122640665D03*
D17*
X136783123Y-117001729D03*
X144374126Y-116337602D03*
X142887583Y-113917955D03*
D22*
X136431921Y-114020593D03*
D23*
X141314219Y-125077549D03*
D17*
X137826914Y-114360707D03*
D24*
X144202323Y-113340771D03*
D14*
X87800000Y-70000000D03*
D13*
X82720000Y-70000000D03*
X92880000Y-70000000D03*
D15*
X82300000Y-70000000D03*
X93300000Y-70000000D03*
D16*
X82700000Y-73900000D03*
X92900000Y-73900000D03*
D17*
X91610000Y-67460000D03*
X83990000Y-67460000D03*
D19*
X91700042Y-64459599D03*
D20*
X83899958Y-64459599D03*
D18*
X87800000Y-75900000D03*
D17*
X90340000Y-64920000D03*
X85260000Y-64920000D03*
D13*
X139870000Y-77050000D03*
X150030000Y-77050000D03*
D15*
X139450000Y-77050000D03*
X150450000Y-77050000D03*
D14*
X144950000Y-77050000D03*
D17*
X148760000Y-74510000D03*
X141140000Y-74510000D03*
D16*
X139850000Y-80950000D03*
X150050000Y-80950000D03*
D20*
X141049958Y-71509599D03*
D17*
X147490000Y-71970000D03*
D18*
X144950000Y-82950000D03*
D17*
X142410000Y-71970000D03*
D19*
X148850042Y-71509599D03*
D14*
X125900000Y-91100000D03*
D13*
X120820000Y-91100000D03*
D15*
X120400000Y-91100000D03*
D13*
X130980000Y-91100000D03*
D15*
X131400000Y-91100000D03*
D17*
X129710000Y-88560000D03*
D16*
X131000000Y-95000000D03*
D17*
X122090000Y-88560000D03*
D16*
X120800000Y-95000000D03*
D19*
X129800042Y-85559599D03*
D17*
X128440000Y-86020000D03*
X123360000Y-86020000D03*
D20*
X121999958Y-85559599D03*
D18*
X125900000Y-97000000D03*
D15*
X120400000Y-53000000D03*
D14*
X125900000Y-53000000D03*
D13*
X120820000Y-53000000D03*
D15*
X131400000Y-53000000D03*
D13*
X130980000Y-53000000D03*
D17*
X122090000Y-50460000D03*
D16*
X131000000Y-56900000D03*
X120800000Y-56900000D03*
D17*
X129710000Y-50460000D03*
D20*
X121999958Y-47459599D03*
D17*
X123360000Y-47920000D03*
X128440000Y-47920000D03*
D18*
X125900000Y-58900000D03*
D19*
X129800042Y-47459599D03*
D15*
X112350000Y-96100000D03*
D13*
X111930000Y-96100000D03*
D15*
X101350000Y-96100000D03*
D14*
X106850000Y-96100000D03*
D13*
X101770000Y-96100000D03*
D17*
X110660000Y-93560000D03*
X103040000Y-93560000D03*
D16*
X111950000Y-100000000D03*
X101750000Y-100000000D03*
D20*
X102949958Y-90559599D03*
D17*
X109390000Y-91020000D03*
X104310000Y-91020000D03*
D18*
X106850000Y-102000000D03*
D19*
X110750042Y-90559599D03*
D25*
X192260000Y-110120000D03*
X199260000Y-110120000D03*
X199260000Y-108020000D03*
X192260000Y-108020000D03*
D26*
X189560000Y-107820000D03*
X189560000Y-110320000D03*
X190660000Y-112420000D03*
X190660000Y-105720000D03*
X197660000Y-112420000D03*
X194660000Y-105720000D03*
X197660000Y-105720000D03*
X194660000Y-112420000D03*
D14*
X164000000Y-79050000D03*
D15*
X158500000Y-79050000D03*
X169500000Y-79050000D03*
D13*
X158920000Y-79050000D03*
X169080000Y-79050000D03*
D17*
X160190000Y-76510000D03*
D16*
X158900000Y-82950000D03*
X169100000Y-82950000D03*
D17*
X167810000Y-76510000D03*
D20*
X160099958Y-73509599D03*
D17*
X166540000Y-73970000D03*
D19*
X167900042Y-73509599D03*
D18*
X164000000Y-84950000D03*
D17*
X161460000Y-73970000D03*
D13*
X188404044Y-129346901D03*
X179195956Y-125053099D03*
D14*
X183800000Y-127200000D03*
D15*
X188784693Y-129524400D03*
X178815307Y-124875600D03*
D17*
X181420418Y-123287803D03*
D27*
X186773958Y-132889954D03*
D17*
X188326483Y-126508154D03*
D27*
X177529619Y-128579247D03*
D28*
X182606836Y-120530462D03*
D29*
X181306552Y-132547216D03*
D30*
X189676113Y-123826920D03*
D17*
X183644879Y-121522506D03*
X188248923Y-123669407D03*
D13*
X82720000Y-89050000D03*
X92880000Y-89050000D03*
D15*
X93300000Y-89050000D03*
D14*
X87800000Y-89050000D03*
D15*
X82300000Y-89050000D03*
D16*
X92900000Y-92950000D03*
D17*
X83990000Y-86510000D03*
X91610000Y-86510000D03*
D16*
X82700000Y-92950000D03*
D18*
X87800000Y-94950000D03*
D17*
X85260000Y-83970000D03*
D19*
X91700042Y-83509599D03*
D17*
X90340000Y-83970000D03*
D20*
X83899958Y-83509599D03*
D31*
X179035000Y-53020000D03*
X196935000Y-53000000D03*
D13*
X179035000Y-55560000D03*
X196935000Y-55540000D03*
X196935000Y-58080000D03*
X179035000Y-58100000D03*
X196935000Y-60620000D03*
X179035000Y-60640000D03*
X196935000Y-63160000D03*
X179035000Y-63180000D03*
X196935000Y-65700000D03*
X179035000Y-65720000D03*
X179035000Y-68260000D03*
X196935000Y-68240000D03*
X179035000Y-70800000D03*
X196935000Y-70780000D03*
X196935000Y-73320000D03*
X179035000Y-73340000D03*
X196935000Y-75860000D03*
X179035000Y-75880000D03*
X179035000Y-78420000D03*
X196935000Y-78400000D03*
X196935000Y-80940000D03*
X179035000Y-80960000D03*
X196935000Y-83480000D03*
X179035000Y-83500000D03*
X196935000Y-86020000D03*
X179035000Y-86040000D03*
X179035000Y-88580000D03*
X196935000Y-88560000D03*
X179035000Y-91120000D03*
X196935000Y-91100000D03*
X196935000Y-93640000D03*
X179035000Y-93660000D03*
X196935000Y-96180000D03*
X179035000Y-96200000D03*
X196935000Y-98720000D03*
X179035000Y-98740000D03*
X179035000Y-101280000D03*
X196935000Y-101260000D03*
X194275000Y-101280000D03*
X181695000Y-101260000D03*
X194275000Y-98740000D03*
X181695000Y-98720000D03*
X181695000Y-96180000D03*
X194275000Y-96200000D03*
X181695000Y-93640000D03*
X194275000Y-93660000D03*
X194275000Y-91120000D03*
X181695000Y-91100000D03*
X181695000Y-88560000D03*
X194275000Y-88580000D03*
X181695000Y-86020000D03*
X194275000Y-86040000D03*
X194275000Y-83500000D03*
X181695000Y-83480000D03*
X194275000Y-80960000D03*
X181695000Y-80940000D03*
X181695000Y-78400000D03*
X194275000Y-78420000D03*
X181695000Y-75860000D03*
X194275000Y-75880000D03*
X194275000Y-73340000D03*
X181695000Y-73320000D03*
X194275000Y-70800000D03*
X181695000Y-70780000D03*
X181695000Y-68240000D03*
X194275000Y-68260000D03*
X194275000Y-65720000D03*
X181695000Y-65700000D03*
X181695000Y-63160000D03*
X194275000Y-63180000D03*
X194275000Y-60640000D03*
X181695000Y-60620000D03*
X181695000Y-58080000D03*
X194275000Y-58100000D03*
X181695000Y-55540000D03*
X194275000Y-55560000D03*
X181695000Y-53000000D03*
X194275000Y-53020000D03*
D15*
X158500000Y-60000000D03*
X169500000Y-60000000D03*
D13*
X169080000Y-60000000D03*
X158920000Y-60000000D03*
D14*
X164000000Y-60000000D03*
D17*
X160190000Y-57460000D03*
X167810000Y-57460000D03*
D16*
X158900000Y-63900000D03*
X169100000Y-63900000D03*
D17*
X166540000Y-54920000D03*
X161460000Y-54920000D03*
D19*
X167900042Y-54459599D03*
D20*
X160099958Y-54459599D03*
D18*
X164000000Y-65900000D03*
D15*
X63250000Y-108100000D03*
D13*
X73830000Y-108100000D03*
X63670000Y-108100000D03*
D14*
X68750000Y-108100000D03*
D15*
X74250000Y-108100000D03*
D16*
X63650000Y-112000000D03*
D17*
X72560000Y-105560000D03*
X64940000Y-105560000D03*
D16*
X73850000Y-112000000D03*
D17*
X66210000Y-103020000D03*
D18*
X68750000Y-114000000D03*
D20*
X64849958Y-102559599D03*
D19*
X72650042Y-102559599D03*
D17*
X71290000Y-103020000D03*
D14*
X125900000Y-72050000D03*
D13*
X130980000Y-72050000D03*
D15*
X120400000Y-72050000D03*
D13*
X120820000Y-72050000D03*
D15*
X131400000Y-72050000D03*
D17*
X129710000Y-69510000D03*
D16*
X120800000Y-75950000D03*
D17*
X122090000Y-69510000D03*
D16*
X131000000Y-75950000D03*
D18*
X125900000Y-77950000D03*
D17*
X128440000Y-66970000D03*
D19*
X129800042Y-66509599D03*
D17*
X123360000Y-66970000D03*
D20*
X121999958Y-66509599D03*
D13*
X73830000Y-70000000D03*
X63670000Y-70000000D03*
D15*
X63250000Y-70000000D03*
X74250000Y-70000000D03*
D14*
X68750000Y-70000000D03*
D17*
X64940000Y-67460000D03*
X72560000Y-67460000D03*
D16*
X73850000Y-73900000D03*
X63650000Y-73900000D03*
D17*
X66210000Y-64920000D03*
D18*
X68750000Y-75900000D03*
D17*
X71290000Y-64920000D03*
D19*
X72650042Y-64459599D03*
D20*
X64849958Y-64459599D03*
D14*
X162800000Y-120200000D03*
D13*
X167802823Y-121082133D03*
D15*
X168216443Y-121155065D03*
D13*
X157797177Y-119317867D03*
D15*
X157383557Y-119244935D03*
D32*
X167145292Y-124926356D03*
X157100253Y-123155145D03*
D17*
X159488949Y-117036989D03*
X166993184Y-118360188D03*
X161180721Y-114756110D03*
X166183544Y-115638243D03*
D33*
X159921289Y-114066535D03*
D34*
X161775476Y-126010366D03*
D35*
X167602872Y-115421006D03*
M02*
