M48
; DRILL file {KiCad (6.0.5-0)} date Tuesday, February 14, 2023 at 11:13:35 AM
; FORMAT={-:-/ absolute / metric / decimal}
; #@! TF.CreationDate,2023-02-14T11:13:35-08:00
; #@! TF.GenerationSoftware,Kicad,Pcbnew,(6.0.5-0)
; #@! TF.FileFunction,NonPlated,1,2,NPTH
FMAT,2
METRIC
; #@! TA.AperFunction,NonPlated,NPTH,ComponentDrill
T1C0.800
; #@! TA.AperFunction,NonPlated,NPTH,ComponentDrill
T2C1.700
; #@! TA.AperFunction,NonPlated,NPTH,ComponentDrill
T3C1.800
; #@! TA.AperFunction,NonPlated,NPTH,ComponentDrill
T4C4.900
%
G90
G05
T1
X66.26Y-36.52
X66.26Y-38.62
X73.26Y-36.52
X73.26Y-38.62
T2
X-62.33Y1.5
X-62.33Y-17.55
X-62.33Y-36.6
X-52.17Y1.5
X-52.17Y-17.55
X-52.17Y-36.6
X-43.28Y1.5
X-43.28Y-17.55
X-43.28Y-36.6
X-33.12Y1.5
X-33.12Y-17.55
X-33.12Y-36.6
X-24.23Y13.5
X-24.23Y-5.55
X-24.23Y-24.6
X-14.07Y13.5
X-14.07Y-5.55
X-14.07Y-24.6
X-5.18Y18.5
X-5.18Y-0.55
X-5.18Y-19.6
X4.98Y18.5
X4.98Y-0.55
X4.98Y-19.6
X9.739Y-48.143
X13.87Y13.5
X13.87Y-5.55
X13.87Y-24.6
X19.861Y-47.257
X24.03Y13.5
X24.03Y-5.55
X24.03Y-24.6
X31.797Y-47.818
X32.92Y11.5
X32.92Y-7.55
X32.92Y-26.6
X41.803Y-49.582
X43.08Y11.5
X43.08Y-7.55
X43.08Y-26.6
X53.196Y-53.553
X62.404Y-57.847
T3
X-62.75Y1.5
X-62.75Y-17.55
X-62.75Y-36.6
X-51.75Y1.5
X-51.75Y-17.55
X-51.75Y-36.6
X-43.7Y1.5
X-43.7Y-17.55
X-43.7Y-36.6
X-32.7Y1.5
X-32.7Y-17.55
X-32.7Y-36.6
X-24.65Y13.5
X-24.65Y-5.55
X-24.65Y-24.6
X-13.65Y13.5
X-13.65Y-5.55
X-13.65Y-24.6
X-5.6Y18.5
X-5.6Y-0.55
X-5.6Y-19.6
X5.4Y18.5
X5.4Y-0.55
X5.4Y-19.6
X9.321Y-48.179
X13.45Y13.5
X13.45Y-5.55
X13.45Y-24.6
X20.279Y-47.221
X24.45Y13.5
X24.45Y-5.55
X24.45Y-24.6
X31.384Y-47.745
X32.5Y11.5
X32.5Y-7.55
X32.5Y-26.6
X42.216Y-49.655
X43.5Y11.5
X43.5Y-7.55
X43.5Y-26.6
X52.815Y-53.376
X62.785Y-58.024
T4
X-57.25Y1.5
X-57.25Y-17.55
X-57.25Y-36.6
X-38.2Y1.5
X-38.2Y-17.55
X-38.2Y-36.6
X-19.15Y13.5
X-19.15Y-5.55
X-19.15Y-24.6
X-0.1Y18.5
X-0.1Y-0.55
X-0.1Y-19.6
X14.8Y-47.7
X18.95Y13.5
X18.95Y-5.55
X18.95Y-24.6
X36.8Y-48.7
X38.0Y11.5
X38.0Y-7.55
X38.0Y-26.6
X57.8Y-55.7
T0
M30
