%TF.GenerationSoftware,KiCad,Pcbnew,(6.0.5-0)*%
%TF.CreationDate,2023-02-13T19:00:38-08:00*%
%TF.ProjectId,keyboard_pcb,6b657962-6f61-4726-945f-7063622e6b69,rev1.0*%
%TF.SameCoordinates,Original*%
%TF.FileFunction,Soldermask,Bot*%
%TF.FilePolarity,Negative*%
%FSLAX46Y46*%
G04 Gerber Fmt 4.6, Leading zero omitted, Abs format (unit mm)*
G04 Created by KiCad (PCBNEW (6.0.5-0)) date 2023-02-13 19:00:38*
%MOMM*%
%LPD*%
G01*
G04 APERTURE LIST*
G04 Aperture macros list*
%AMHorizOval*
0 Thick line with rounded ends*
0 $1 width*
0 $2 $3 position (X,Y) of the first rounded end (center of the circle)*
0 $4 $5 position (X,Y) of the second rounded end (center of the circle)*
0 Add line between two ends*
20,1,$1,$2,$3,$4,$5,0*
0 Add two circle primitives to create the rounded ends*
1,1,$1,$2,$3*
1,1,$1,$4,$5*%
G04 Aperture macros list end*
%ADD10C,4.900000*%
%ADD11C,1.800000*%
%ADD12C,1.700000*%
%ADD13C,2.400000*%
%ADD14O,2.200000X1.600000*%
%ADD15HorizOval,1.500000X1.449945X0.012653X-1.449945X-0.012653X0*%
%ADD16O,2.200000X1.500000*%
%ADD17HorizOval,1.600000X0.298858X0.026147X-0.298858X-0.026147X0*%
%ADD18HorizOval,1.500000X0.348668X0.030505X-0.348668X-0.030505X0*%
%ADD19HorizOval,1.500000X1.443324X0.138976X-1.443324X-0.138976X0*%
%ADD20C,0.800000*%
%ADD21O,2.000000X1.600000*%
%ADD22HorizOval,1.600000X0.271892X-0.126785X-0.271892X0.126785X0*%
%ADD23HorizOval,1.500000X0.317208X-0.147916X-0.317208X0.147916X0*%
%ADD24HorizOval,1.500000X1.319444X-0.601305X-1.319444X0.601305X0*%
%ADD25R,1.700000X1.700000*%
%ADD26HorizOval,1.600000X0.295442X-0.052094X-0.295442X0.052094X0*%
%ADD27HorizOval,1.500000X1.430114X-0.239319X-1.430114X0.239319X0*%
%ADD28HorizOval,1.500000X0.344683X-0.060777X-0.344683X0.060777X0*%
G04 APERTURE END LIST*
D10*
%TO.C,K25*%
X164000000Y-98100000D03*
D11*
X169500000Y-98100000D03*
X158500000Y-98100000D03*
D12*
X158920000Y-98100000D03*
X169080000Y-98100000D03*
D13*
X160190000Y-95560000D03*
D14*
X158900000Y-102000000D03*
D15*
X167900042Y-92559599D03*
D13*
X166540000Y-93020000D03*
D16*
X164000000Y-104000000D03*
%TD*%
D11*
%TO.C,K24*%
X150450000Y-96100000D03*
D12*
X150030000Y-96100000D03*
D10*
X144950000Y-96100000D03*
D11*
X139450000Y-96100000D03*
D12*
X139870000Y-96100000D03*
D13*
X141140000Y-93560000D03*
D14*
X139850000Y-100000000D03*
D16*
X144950000Y-102000000D03*
D15*
X148850042Y-90559599D03*
D13*
X147490000Y-91020000D03*
%TD*%
D11*
%TO.C,K21*%
X93300000Y-108100000D03*
D10*
X87800000Y-108100000D03*
D12*
X92880000Y-108100000D03*
X82720000Y-108100000D03*
D11*
X82300000Y-108100000D03*
D14*
X82700000Y-112000000D03*
D13*
X83990000Y-105560000D03*
D16*
X87800000Y-114000000D03*
D13*
X90340000Y-103020000D03*
D15*
X91700042Y-102559599D03*
%TD*%
D10*
%TO.C,K02*%
X106850000Y-58000000D03*
D12*
X111930000Y-58000000D03*
X101770000Y-58000000D03*
D11*
X112350000Y-58000000D03*
X101350000Y-58000000D03*
D13*
X103040000Y-55460000D03*
D14*
X101750000Y-61900000D03*
D13*
X109390000Y-52920000D03*
D15*
X110750042Y-52459599D03*
D16*
X106850000Y-63900000D03*
%TD*%
D11*
%TO.C,K10*%
X74250000Y-89050000D03*
D12*
X73830000Y-89050000D03*
X63670000Y-89050000D03*
D10*
X68750000Y-89050000D03*
D11*
X63250000Y-89050000D03*
D13*
X64940000Y-86510000D03*
D14*
X63650000Y-92950000D03*
D15*
X72650042Y-83509599D03*
D13*
X71290000Y-83970000D03*
D16*
X68750000Y-94950000D03*
%TD*%
D12*
%TO.C,K04*%
X150030000Y-58000000D03*
D10*
X144950000Y-58000000D03*
D11*
X139450000Y-58000000D03*
D12*
X139870000Y-58000000D03*
D11*
X150450000Y-58000000D03*
D14*
X139850000Y-61900000D03*
D13*
X141140000Y-55460000D03*
X147490000Y-52920000D03*
D15*
X148850042Y-52459599D03*
D16*
X144950000Y-63900000D03*
%TD*%
D12*
%TO.C,K12*%
X111930000Y-77050000D03*
D11*
X101350000Y-77050000D03*
X112350000Y-77050000D03*
D10*
X106850000Y-77050000D03*
D12*
X101770000Y-77050000D03*
D13*
X103040000Y-74510000D03*
D14*
X101750000Y-80950000D03*
D13*
X109390000Y-71970000D03*
D15*
X110750042Y-71509599D03*
D16*
X106850000Y-82950000D03*
%TD*%
D10*
%TO.C,K30*%
X140800000Y-119200000D03*
D11*
X135320929Y-119679357D03*
D12*
X145860669Y-118757249D03*
D11*
X146279071Y-118720643D03*
D12*
X135739331Y-119642751D03*
D13*
X136783123Y-117001729D03*
D17*
X136059314Y-123529654D03*
D18*
X141314219Y-125077549D03*
D19*
X144202323Y-113340771D03*
D13*
X142887583Y-113917955D03*
%TD*%
D12*
%TO.C,K01*%
X92880000Y-70000000D03*
X82720000Y-70000000D03*
D11*
X93300000Y-70000000D03*
X82300000Y-70000000D03*
D10*
X87800000Y-70000000D03*
D14*
X82700000Y-73900000D03*
D13*
X83990000Y-67460000D03*
X90340000Y-64920000D03*
D15*
X91700042Y-64459599D03*
D16*
X87800000Y-75900000D03*
%TD*%
D11*
%TO.C,K14*%
X150450000Y-77050000D03*
D12*
X150030000Y-77050000D03*
D11*
X139450000Y-77050000D03*
D10*
X144950000Y-77050000D03*
D12*
X139870000Y-77050000D03*
D13*
X141140000Y-74510000D03*
D14*
X139850000Y-80950000D03*
D15*
X148850042Y-71509599D03*
D13*
X147490000Y-71970000D03*
D16*
X144950000Y-82950000D03*
%TD*%
D11*
%TO.C,K23*%
X131400000Y-91100000D03*
D10*
X125900000Y-91100000D03*
D12*
X130980000Y-91100000D03*
X120820000Y-91100000D03*
D11*
X120400000Y-91100000D03*
D14*
X120800000Y-95000000D03*
D13*
X122090000Y-88560000D03*
D16*
X125900000Y-97000000D03*
D13*
X128440000Y-86020000D03*
D15*
X129800042Y-85559599D03*
%TD*%
D11*
%TO.C,K03*%
X120400000Y-53000000D03*
D10*
X125900000Y-53000000D03*
D11*
X131400000Y-53000000D03*
D12*
X120820000Y-53000000D03*
X130980000Y-53000000D03*
D14*
X120800000Y-56900000D03*
D13*
X122090000Y-50460000D03*
D16*
X125900000Y-58900000D03*
D13*
X128440000Y-47920000D03*
D15*
X129800042Y-47459599D03*
%TD*%
D12*
%TO.C,K22*%
X111930000Y-96100000D03*
D11*
X112350000Y-96100000D03*
D12*
X101770000Y-96100000D03*
D10*
X106850000Y-96100000D03*
D11*
X101350000Y-96100000D03*
D14*
X101750000Y-100000000D03*
D13*
X103040000Y-93560000D03*
X109390000Y-91020000D03*
D15*
X110750042Y-90559599D03*
D16*
X106850000Y-102000000D03*
%TD*%
D20*
%TO.C,J1*%
X201250000Y-110100000D03*
X194250000Y-108000000D03*
X194250000Y-110100000D03*
X201250000Y-108000000D03*
D21*
X191550000Y-107800000D03*
X191550000Y-110300000D03*
X192650000Y-112400000D03*
X192650000Y-105700000D03*
X199650000Y-112400000D03*
X196650000Y-105700000D03*
X196650000Y-112400000D03*
X199650000Y-105700000D03*
%TD*%
D12*
%TO.C,K15*%
X158920000Y-79050000D03*
D11*
X158500000Y-79050000D03*
D12*
X169080000Y-79050000D03*
D11*
X169500000Y-79050000D03*
D10*
X164000000Y-79050000D03*
D14*
X158900000Y-82950000D03*
D13*
X160190000Y-76510000D03*
D16*
X164000000Y-84950000D03*
D13*
X166540000Y-73970000D03*
D15*
X167900042Y-73509599D03*
%TD*%
D12*
%TO.C,K32*%
X188404044Y-129346901D03*
D11*
X178815307Y-124875600D03*
D10*
X183800000Y-127200000D03*
D11*
X188784693Y-129524400D03*
D12*
X179195956Y-125053099D03*
D22*
X177529619Y-128579247D03*
D13*
X181420418Y-123287803D03*
D23*
X181306552Y-132547216D03*
D24*
X189676113Y-123826920D03*
D13*
X188248923Y-123669407D03*
%TD*%
D10*
%TO.C,K11*%
X87800000Y-89050000D03*
D11*
X93300000Y-89050000D03*
D12*
X92880000Y-89050000D03*
X82720000Y-89050000D03*
D11*
X82300000Y-89050000D03*
D13*
X83990000Y-86510000D03*
D14*
X82700000Y-92950000D03*
D13*
X90340000Y-83970000D03*
D16*
X87800000Y-94950000D03*
D15*
X91700042Y-83509599D03*
%TD*%
D25*
%TO.C,U1*%
X179035000Y-53020000D03*
X196935000Y-53000000D03*
D12*
X196935000Y-55540000D03*
X179035000Y-55560000D03*
X179035000Y-58100000D03*
X196935000Y-58080000D03*
X196935000Y-60620000D03*
X179035000Y-60640000D03*
X179035000Y-63180000D03*
X196935000Y-63160000D03*
X196935000Y-65700000D03*
X179035000Y-65720000D03*
X196935000Y-68240000D03*
X179035000Y-68260000D03*
X196935000Y-70780000D03*
X179035000Y-70800000D03*
X179035000Y-73340000D03*
X196935000Y-73320000D03*
X196935000Y-75860000D03*
X179035000Y-75880000D03*
X179035000Y-78420000D03*
X196935000Y-78400000D03*
X179035000Y-80960000D03*
X196935000Y-80940000D03*
X196935000Y-83480000D03*
X179035000Y-83500000D03*
X179035000Y-86040000D03*
X196935000Y-86020000D03*
X179035000Y-88580000D03*
X196935000Y-88560000D03*
X196935000Y-91100000D03*
X179035000Y-91120000D03*
X196935000Y-93640000D03*
X179035000Y-93660000D03*
X179035000Y-96200000D03*
X196935000Y-96180000D03*
X196935000Y-98720000D03*
X179035000Y-98740000D03*
X196935000Y-101260000D03*
X179035000Y-101280000D03*
X194275000Y-101280000D03*
X181695000Y-101260000D03*
X181695000Y-98720000D03*
X194275000Y-98740000D03*
X181695000Y-96180000D03*
X194275000Y-96200000D03*
X194275000Y-93660000D03*
X181695000Y-93640000D03*
X194275000Y-91120000D03*
X181695000Y-91100000D03*
X194275000Y-88580000D03*
X181695000Y-88560000D03*
X194275000Y-86040000D03*
X181695000Y-86020000D03*
X194275000Y-83500000D03*
X181695000Y-83480000D03*
X181695000Y-80940000D03*
X194275000Y-80960000D03*
X181695000Y-78400000D03*
X194275000Y-78420000D03*
X194275000Y-75880000D03*
X181695000Y-75860000D03*
X181695000Y-73320000D03*
X194275000Y-73340000D03*
X181695000Y-70780000D03*
X194275000Y-70800000D03*
X194275000Y-68260000D03*
X181695000Y-68240000D03*
X194275000Y-65720000D03*
X181695000Y-65700000D03*
X181695000Y-63160000D03*
X194275000Y-63180000D03*
X194275000Y-60640000D03*
X181695000Y-60620000D03*
X181695000Y-58080000D03*
X194275000Y-58100000D03*
X181695000Y-55540000D03*
X194275000Y-55560000D03*
X181695000Y-53000000D03*
X194275000Y-53020000D03*
%TD*%
D11*
%TO.C,K05*%
X158500000Y-60000000D03*
D12*
X158920000Y-60000000D03*
D11*
X169500000Y-60000000D03*
D10*
X164000000Y-60000000D03*
D12*
X169080000Y-60000000D03*
D13*
X160190000Y-57460000D03*
D14*
X158900000Y-63900000D03*
D16*
X164000000Y-65900000D03*
D15*
X167900042Y-54459599D03*
D13*
X166540000Y-54920000D03*
%TD*%
D12*
%TO.C,K20*%
X73830000Y-108100000D03*
X63670000Y-108100000D03*
D11*
X74250000Y-108100000D03*
D10*
X68750000Y-108100000D03*
D11*
X63250000Y-108100000D03*
D14*
X63650000Y-112000000D03*
D13*
X64940000Y-105560000D03*
D16*
X68750000Y-114000000D03*
D15*
X72650042Y-102559599D03*
D13*
X71290000Y-103020000D03*
%TD*%
D11*
%TO.C,K13*%
X120400000Y-72050000D03*
D10*
X125900000Y-72050000D03*
D11*
X131400000Y-72050000D03*
D12*
X120820000Y-72050000D03*
X130980000Y-72050000D03*
D13*
X122090000Y-69510000D03*
D14*
X120800000Y-75950000D03*
D16*
X125900000Y-77950000D03*
D15*
X129800042Y-66509599D03*
D13*
X128440000Y-66970000D03*
%TD*%
D11*
%TO.C,K00*%
X63250000Y-70000000D03*
D12*
X73830000Y-70000000D03*
D11*
X74250000Y-70000000D03*
D12*
X63670000Y-70000000D03*
D10*
X68750000Y-70000000D03*
D13*
X64940000Y-67460000D03*
D14*
X63650000Y-73900000D03*
D16*
X68750000Y-75900000D03*
D15*
X72650042Y-64459599D03*
D13*
X71290000Y-64920000D03*
%TD*%
D11*
%TO.C,K31*%
X157383557Y-119244935D03*
D12*
X167802823Y-121082133D03*
X157797177Y-119317867D03*
D11*
X168216443Y-121155065D03*
D10*
X162800000Y-120200000D03*
D13*
X159488949Y-117036989D03*
D26*
X157100253Y-123155145D03*
D27*
X167602872Y-115421006D03*
D13*
X166183544Y-115638243D03*
D28*
X161775476Y-126010366D03*
%TD*%
M02*
