%TF.GenerationSoftware,KiCad,Pcbnew,(6.0.5-0)*%
%TF.CreationDate,2023-02-13T19:00:38-08:00*%
%TF.ProjectId,keyboard_pcb,6b657962-6f61-4726-945f-7063622e6b69,rev1.0*%
%TF.SameCoordinates,Original*%
%TF.FileFunction,Legend,Top*%
%TF.FilePolarity,Positive*%
%FSLAX46Y46*%
G04 Gerber Fmt 4.6, Leading zero omitted, Abs format (unit mm)*
G04 Created by KiCad (PCBNEW (6.0.5-0)) date 2023-02-13 19:00:38*
%MOMM*%
%LPD*%
G01*
G04 APERTURE LIST*
%ADD10C,0.250000*%
%ADD11C,0.150000*%
%ADD12C,0.120000*%
G04 APERTURE END LIST*
D10*
X186294285Y-98750000D02*
X186389523Y-98821428D01*
X186484761Y-99035714D01*
X186484761Y-99178571D01*
X186389523Y-99392857D01*
X186199047Y-99535714D01*
X186008571Y-99607142D01*
X185627619Y-99678571D01*
X185341904Y-99678571D01*
X184960952Y-99607142D01*
X184770476Y-99535714D01*
X184580000Y-99392857D01*
X184484761Y-99178571D01*
X184484761Y-99035714D01*
X184580000Y-98821428D01*
X184675238Y-98750000D01*
X186484761Y-97464285D02*
X185437142Y-97464285D01*
X185246666Y-97535714D01*
X185151428Y-97678571D01*
X185151428Y-97964285D01*
X185246666Y-98107142D01*
X186389523Y-97464285D02*
X186484761Y-97607142D01*
X186484761Y-97964285D01*
X186389523Y-98107142D01*
X186199047Y-98178571D01*
X186008571Y-98178571D01*
X185818095Y-98107142D01*
X185722857Y-97964285D01*
X185722857Y-97607142D01*
X185627619Y-97464285D01*
X185151428Y-96750000D02*
X186484761Y-96750000D01*
X185341904Y-96750000D02*
X185246666Y-96678571D01*
X185151428Y-96535714D01*
X185151428Y-96321428D01*
X185246666Y-96178571D01*
X185437142Y-96107142D01*
X186484761Y-96107142D01*
X185151428Y-95607142D02*
X185151428Y-95035714D01*
X184484761Y-95392857D02*
X186199047Y-95392857D01*
X186389523Y-95321428D01*
X186484761Y-95178571D01*
X186484761Y-95035714D01*
X186484761Y-94321428D02*
X186389523Y-94464285D01*
X186294285Y-94535714D01*
X186103809Y-94607142D01*
X185532380Y-94607142D01*
X185341904Y-94535714D01*
X185246666Y-94464285D01*
X185151428Y-94321428D01*
X185151428Y-94107142D01*
X185246666Y-93964285D01*
X185341904Y-93892857D01*
X185532380Y-93821428D01*
X186103809Y-93821428D01*
X186294285Y-93892857D01*
X186389523Y-93964285D01*
X186484761Y-94107142D01*
X186484761Y-94321428D01*
X186484761Y-93178571D02*
X185151428Y-93178571D01*
X185532380Y-93178571D02*
X185341904Y-93107142D01*
X185246666Y-93035714D01*
X185151428Y-92892857D01*
X185151428Y-92750000D01*
X186484761Y-91107142D02*
X185151428Y-91107142D01*
X185532380Y-91107142D02*
X185341904Y-91035714D01*
X185246666Y-90964285D01*
X185151428Y-90821428D01*
X185151428Y-90678571D01*
X186389523Y-89607142D02*
X186484761Y-89750000D01*
X186484761Y-90035714D01*
X186389523Y-90178571D01*
X186199047Y-90250000D01*
X185437142Y-90250000D01*
X185246666Y-90178571D01*
X185151428Y-90035714D01*
X185151428Y-89750000D01*
X185246666Y-89607142D01*
X185437142Y-89535714D01*
X185627619Y-89535714D01*
X185818095Y-90250000D01*
X185151428Y-89035714D02*
X186484761Y-88678571D01*
X185151428Y-88321428D01*
X186484761Y-86964285D02*
X186484761Y-87821428D01*
X186484761Y-87392857D02*
X184484761Y-87392857D01*
X184770476Y-87535714D01*
X184960952Y-87678571D01*
X185056190Y-87821428D01*
X186294285Y-86321428D02*
X186389523Y-86250000D01*
X186484761Y-86321428D01*
X186389523Y-86392857D01*
X186294285Y-86321428D01*
X186484761Y-86321428D01*
X186484761Y-84821428D02*
X186484761Y-85678571D01*
X186484761Y-85250000D02*
X184484761Y-85250000D01*
X184770476Y-85392857D01*
X184960952Y-85535714D01*
X185056190Y-85678571D01*
X187246666Y-82607142D02*
X187151428Y-82678571D01*
X186865714Y-82821428D01*
X186675238Y-82892857D01*
X186389523Y-82964285D01*
X185913333Y-83035714D01*
X185532380Y-83035714D01*
X185056190Y-82964285D01*
X184770476Y-82892857D01*
X184580000Y-82821428D01*
X184294285Y-82678571D01*
X184199047Y-82607142D01*
X186294285Y-81178571D02*
X186389523Y-81250000D01*
X186484761Y-81464285D01*
X186484761Y-81607142D01*
X186389523Y-81821428D01*
X186199047Y-81964285D01*
X186008571Y-82035714D01*
X185627619Y-82107142D01*
X185341904Y-82107142D01*
X184960952Y-82035714D01*
X184770476Y-81964285D01*
X184580000Y-81821428D01*
X184484761Y-81607142D01*
X184484761Y-81464285D01*
X184580000Y-81250000D01*
X184675238Y-81178571D01*
X186484761Y-80535714D02*
X184484761Y-80535714D01*
X186484761Y-79892857D02*
X185437142Y-79892857D01*
X185246666Y-79964285D01*
X185151428Y-80107142D01*
X185151428Y-80321428D01*
X185246666Y-80464285D01*
X185341904Y-80535714D01*
X186484761Y-78964285D02*
X186389523Y-79107142D01*
X186294285Y-79178571D01*
X186103809Y-79249999D01*
X185532380Y-79249999D01*
X185341904Y-79178571D01*
X185246666Y-79107142D01*
X185151428Y-78964285D01*
X185151428Y-78749999D01*
X185246666Y-78607142D01*
X185341904Y-78535714D01*
X185532380Y-78464285D01*
X186103809Y-78464285D01*
X186294285Y-78535714D01*
X186389523Y-78607142D01*
X186484761Y-78749999D01*
X186484761Y-78964285D01*
X186389523Y-77178571D02*
X186484761Y-77321428D01*
X186484761Y-77607142D01*
X186389523Y-77749999D01*
X186294285Y-77821428D01*
X186103809Y-77892857D01*
X185532380Y-77892857D01*
X185341904Y-77821428D01*
X185246666Y-77749999D01*
X185151428Y-77607142D01*
X185151428Y-77321428D01*
X185246666Y-77178571D01*
X184484761Y-75607142D02*
X186484761Y-75107142D01*
X184484761Y-74607142D01*
X184675238Y-74178571D02*
X184580000Y-74107142D01*
X184484761Y-73964285D01*
X184484761Y-73607142D01*
X184580000Y-73464285D01*
X184675238Y-73392857D01*
X184865714Y-73321428D01*
X185056190Y-73321428D01*
X185341904Y-73392857D01*
X186484761Y-74249999D01*
X186484761Y-73321428D01*
X187246666Y-72821428D02*
X187151428Y-72749999D01*
X186865714Y-72607142D01*
X186675238Y-72535714D01*
X186389523Y-72464285D01*
X185913333Y-72392857D01*
X185532380Y-72392857D01*
X185056190Y-72464285D01*
X184770476Y-72535714D01*
X184580000Y-72607142D01*
X184294285Y-72749999D01*
X184199047Y-72821428D01*
D11*
%TO.C,J1*%
X190750000Y-113150000D02*
X190750000Y-107050000D01*
X202850000Y-113150000D02*
X202850000Y-107050000D01*
X202850000Y-112900000D02*
X204850000Y-112900000D01*
X202850000Y-107050000D02*
X190750000Y-107050000D01*
X202850000Y-113150000D02*
X190750000Y-113150000D01*
X202850000Y-107300000D02*
X204850000Y-107300000D01*
X204850000Y-112900000D02*
X204850000Y-107300000D01*
D12*
%TO.C,U1*%
X195605000Y-102590000D02*
X198265000Y-102590000D01*
X198265000Y-102590000D02*
X198265000Y-54270000D01*
X182965000Y-102530000D02*
X180425000Y-102530000D01*
X198265000Y-53000000D02*
X198265000Y-51670000D01*
X182965000Y-51730000D02*
X180425000Y-51730000D01*
X182965000Y-102530000D02*
X182965000Y-51730000D01*
X195605000Y-54270000D02*
X195605000Y-102590000D01*
X180425000Y-51730000D02*
X180425000Y-102530000D01*
X198265000Y-51670000D02*
X196935000Y-51670000D01*
X198265000Y-54270000D02*
X195605000Y-54270000D01*
%TD*%
M02*
