M48
; DRILL file {KiCad (7.0.0-0)} date Thursday, February 16, 2023 at 05:59:54 PM
; FORMAT={-:-/ absolute / metric / decimal}
; #@! TF.CreationDate,2023-02-16T17:59:54-08:00
; #@! TF.GenerationSoftware,Kicad,Pcbnew,(7.0.0-0)
; #@! TF.FileFunction,Plated,1,2,PTH
FMAT,2
METRIC
; #@! TA.AperFunction,Plated,PTH,ComponentDrill
T1C0.300
; #@! TA.AperFunction,Plated,PTH,ViaDrill
T2C0.400
; #@! TA.AperFunction,Plated,PTH,ComponentDrill
T3C0.400
; #@! TA.AperFunction,Plated,PTH,ComponentDrill
T4C0.900
; #@! TA.AperFunction,Plated,PTH,ComponentDrill
T5C1.000
; #@! TA.AperFunction,Plated,PTH,ComponentDrill
T6C1.200
%
G90
G05
T2
X50.68Y1.27
X50.68Y-14.05
X50.69Y6.32
X62.45Y-2.55
X64.55Y-0.7
T5
X53.135Y19.03
X53.135Y16.49
X53.135Y13.95
X53.135Y11.41
X53.135Y8.87
X53.135Y6.33
X53.135Y3.79
X53.135Y1.25
X53.135Y-1.29
X53.135Y-3.83
X53.135Y-6.37
X53.135Y-8.91
X53.135Y-11.45
X53.135Y-13.99
X53.135Y-16.53
X53.135Y-19.07
X53.135Y-21.61
X53.135Y-24.15
X53.135Y-26.69
X53.135Y-29.23
X55.795Y19.05
X55.795Y16.51
X55.795Y13.97
X55.795Y11.43
X55.795Y8.89
X55.795Y6.35
X55.795Y3.81
X55.795Y1.27
X55.795Y-1.27
X55.795Y-3.81
X55.795Y-6.35
X55.795Y-8.89
X55.795Y-11.43
X55.795Y-13.97
X55.795Y-16.51
X55.795Y-19.05
X55.795Y-21.59
X55.795Y-24.13
X55.795Y-26.67
X55.795Y-29.21
X68.375Y19.03
X68.375Y16.49
X68.375Y13.95
X68.375Y11.41
X68.375Y8.87
X68.375Y6.33
X68.375Y3.79
X68.375Y1.25
X68.375Y-1.29
X68.375Y-3.83
X68.375Y-6.37
X68.375Y-8.91
X68.375Y-11.45
X68.375Y-13.99
X68.375Y-16.53
X68.375Y-19.07
X68.375Y-21.61
X68.375Y-24.15
X68.375Y-26.69
X68.375Y-29.23
X71.035Y19.05
X71.035Y16.51
X71.035Y13.97
X71.035Y11.43
X71.035Y8.89
X71.035Y6.35
X71.035Y3.81
X71.035Y1.27
X71.035Y-1.27
X71.035Y-3.81
X71.035Y-6.35
X71.035Y-8.89
X71.035Y-11.43
X71.035Y-13.97
X71.035Y-16.51
X71.035Y-19.05
X71.035Y-21.59
X71.035Y-24.13
X71.035Y-26.67
X71.035Y-29.21
T6
X-60.96Y4.59
X-60.96Y-14.46
X-60.96Y-33.51
X-59.69Y7.13
X-59.69Y-11.92
X-59.69Y-30.97
X-54.61Y7.13
X-54.61Y-11.92
X-54.61Y-30.97
X-53.34Y4.59
X-53.34Y-14.46
X-53.34Y-33.51
X-41.91Y4.59
X-41.91Y-14.46
X-41.91Y-33.51
X-40.64Y7.13
X-40.64Y-11.92
X-40.64Y-30.97
X-35.56Y7.13
X-35.56Y-11.92
X-35.56Y-30.97
X-34.29Y4.59
X-34.29Y-14.46
X-34.29Y-33.51
X-22.86Y16.59
X-22.86Y-2.46
X-22.86Y-21.51
X-21.59Y19.13
X-21.59Y0.08
X-21.59Y-18.97
X-16.51Y19.13
X-16.51Y0.08
X-16.51Y-18.97
X-15.24Y16.59
X-15.24Y-2.46
X-15.24Y-21.51
X-3.81Y21.59
X-3.81Y2.54
X-3.81Y-16.51
X-2.54Y24.13
X-2.54Y5.08
X-2.54Y-13.97
X2.54Y24.13
X2.54Y5.08
X2.54Y-13.97
X3.81Y21.59
X3.81Y2.54
X3.81Y-16.51
X10.883Y-44.952
X11.927Y-42.311
X15.24Y16.59
X15.24Y-2.46
X15.24Y-21.51
X16.51Y19.13
X16.51Y0.08
X16.51Y-18.97
X16.988Y-41.868
X18.474Y-44.288
X21.59Y19.13
X21.59Y0.08
X21.59Y-18.97
X22.86Y16.59
X22.86Y-2.46
X22.86Y-21.51
X33.589Y-44.987
X34.29Y14.59
X34.29Y-4.46
X34.29Y-23.51
X35.281Y-42.706
X35.56Y17.13
X35.56Y-1.92
X35.56Y-20.97
X40.284Y-43.588
X40.64Y17.13
X40.64Y-1.92
X40.64Y-20.97
X41.093Y-46.31
X41.91Y14.59
X41.91Y-4.46
X41.91Y-23.51
X55.52Y-51.238
X57.745Y-49.473
X62.349Y-51.619
X62.426Y-54.458
T1
X-62.5Y7.603G85X-61.8Y7.597
G05
X-62.5Y-11.447G85X-61.8Y-11.453
G05
X-62.5Y-30.497G85X-61.8Y-30.503
G05
X-57.5Y-3.85G85X-56.8Y-3.85
G05
X-57.5Y-22.9G85X-56.8Y-22.9
G05
X-57.5Y-41.95G85X-56.8Y-41.95
G05
X-52.5Y7.597G85X-51.8Y7.603
G05
X-52.5Y-11.453G85X-51.8Y-11.447
G05
X-52.5Y-30.503G85X-51.8Y-30.497
G05
X-43.45Y7.603G85X-42.75Y7.597
G05
X-43.45Y-11.447G85X-42.75Y-11.453
G05
X-43.45Y-30.497G85X-42.75Y-30.503
G05
X-38.45Y-3.85G85X-37.75Y-3.85
G05
X-38.45Y-22.9G85X-37.75Y-22.9
G05
X-38.45Y-41.95G85X-37.75Y-41.95
G05
X-33.45Y7.597G85X-32.75Y7.603
G05
X-33.45Y-11.453G85X-32.75Y-11.447
G05
X-33.45Y-30.503G85X-32.75Y-30.497
G05
X-24.4Y19.603G85X-23.7Y19.597
G05
X-24.4Y0.553G85X-23.7Y0.547
G05
X-24.4Y-18.497G85X-23.7Y-18.503
G05
X-19.4Y8.15G85X-18.7Y8.15
G05
X-19.4Y-10.9G85X-18.7Y-10.9
G05
X-19.4Y-29.95G85X-18.7Y-29.95
G05
X-14.4Y19.597G85X-13.7Y19.603
G05
X-14.4Y0.547G85X-13.7Y0.553
G05
X-14.4Y-18.503G85X-13.7Y-18.497
G05
X-5.35Y24.603G85X-4.65Y24.597
G05
X-5.35Y5.553G85X-4.65Y5.547
G05
X-5.35Y-13.497G85X-4.65Y-13.503
G05
X-0.35Y13.15G85X0.35Y13.15
G05
X-0.35Y-5.9G85X0.35Y-5.9
G05
X-0.35Y-24.95G85X0.35Y-24.95
G05
X4.65Y24.597G85X5.35Y24.603
G05
X4.65Y5.547G85X5.35Y5.553
G05
X4.65Y-13.503G85X5.35Y-13.497
G05
X9.086Y-42.084G85X9.784Y-42.029
G05
X13.7Y19.603G85X14.4Y19.597
G05
X13.7Y0.553G85X14.4Y0.547
G05
X13.7Y-18.497G85X14.4Y-18.503
G05
X15.066Y-53.058G85X15.763Y-52.997
G05
X18.7Y8.15G85X19.4Y8.15
G05
X18.7Y-10.9G85X19.4Y-10.9
G05
X18.7Y-29.95G85X19.4Y-29.95
G05
X19.049Y-41.219G85X19.746Y-41.152
G05
X23.7Y19.597G85X24.4Y19.603
G05
X23.7Y0.547G85X24.4Y0.553
G05
X23.7Y-18.503G85X24.4Y-18.497
G05
X32.596Y-41.752G85X33.284Y-41.88
G05
X32.75Y17.603G85X33.45Y17.597
G05
X32.75Y-1.447G85X33.45Y-1.453
G05
X32.75Y-20.497G85X33.45Y-20.503
G05
X35.531Y-53.9G85X36.22Y-54.021
G05
X37.75Y6.15G85X38.45Y6.15
G05
X37.75Y-12.9G85X38.45Y-12.9
G05
X37.75Y-31.95G85X38.45Y-31.95
G05
X42.443Y-43.495G85X43.133Y-43.61
G05
X42.75Y17.597G85X43.45Y17.603
G05
X42.75Y-1.453G85X43.45Y-1.447
G05
X42.75Y-20.503G85X43.45Y-20.497
G05
X55.089Y-60.349G85X55.724Y-60.645
G05
X55.398Y-47.856G85X56.03Y-48.158
G05
X64.459Y-52.088G85X65.096Y-52.378
G05
T3
X-62.55Y-1.85G85X-61.95Y-1.85
G05
X-62.55Y-20.9G85X-61.95Y-20.9
G05
X-62.55Y-39.95G85X-61.95Y-39.95
G05
X-52.35Y-1.85G85X-51.75Y-1.85
G05
X-52.35Y-20.9G85X-51.75Y-20.9
G05
X-52.35Y-39.95G85X-51.75Y-39.95
G05
X-43.5Y-1.85G85X-42.9Y-1.85
G05
X-43.5Y-20.9G85X-42.9Y-20.9
G05
X-43.5Y-39.95G85X-42.9Y-39.95
G05
X-33.3Y-1.85G85X-32.7Y-1.85
G05
X-33.3Y-20.9G85X-32.7Y-20.9
G05
X-33.3Y-39.95G85X-32.7Y-39.95
G05
X-24.45Y10.15G85X-23.85Y10.15
G05
X-24.45Y-8.9G85X-23.85Y-8.9
G05
X-24.45Y-27.95G85X-23.85Y-27.95
G05
X-14.25Y10.15G85X-13.65Y10.15
G05
X-14.25Y-8.9G85X-13.65Y-8.9
G05
X-14.25Y-27.95G85X-13.65Y-27.95
G05
X-5.4Y15.15G85X-4.8Y15.15
G05
X-5.4Y-3.9G85X-4.8Y-3.9
G05
X-5.4Y-22.95G85X-4.8Y-22.95
G05
X4.8Y15.15G85X5.4Y15.15
G05
X4.8Y-3.9G85X5.4Y-3.9
G05
X4.8Y-22.95G85X5.4Y-22.95
G05
X9.86Y-51.506G85X10.458Y-51.454
G05
X13.65Y10.15G85X14.25Y10.15
G05
X13.65Y-8.9G85X14.25Y-8.9
G05
X13.65Y-27.95G85X14.25Y-27.95
G05
X20.022Y-50.617G85X20.619Y-50.565
G05
X23.85Y10.15G85X24.45Y10.15
G05
X23.85Y-8.9G85X24.45Y-8.9
G05
X23.85Y-27.95G85X24.45Y-27.95
G05
X30.905Y-51.053G85X31.496Y-51.157
G05
X32.7Y8.15G85X33.3Y8.15
G05
X32.7Y-10.9G85X33.3Y-10.9
G05
X32.7Y-29.95G85X33.3Y-29.95
G05
X40.95Y-52.824G85X41.541Y-52.928
G05
X42.9Y8.15G85X43.5Y8.15
G05
X42.9Y-10.9G85X43.5Y-10.9
G05
X42.9Y-29.95G85X43.5Y-29.95
G05
X51.358Y-56.402G85X51.902Y-56.656
G05
X60.602Y-60.713G85X61.146Y-60.967
G05
T4
X63.86Y-35.77G85X63.46Y-35.77
G05
X63.86Y-38.27G85X63.46Y-38.27
G05
X64.96Y-33.67G85X64.56Y-33.67
G05
X64.96Y-40.37G85X64.56Y-40.37
G05
X68.96Y-33.67G85X68.56Y-33.67
G05
X68.96Y-40.37G85X68.56Y-40.37
G05
X71.96Y-33.67G85X71.56Y-33.67
G05
X71.96Y-40.37G85X71.56Y-40.37
G05
T0
M30
