%TF.GenerationSoftware,KiCad,Pcbnew,(7.0.0-0)*%
%TF.CreationDate,2023-04-05T15:35:58-07:00*%
%TF.ProjectId,keyboard_pcb,6b657962-6f61-4726-945f-7063622e6b69,rev1.0*%
%TF.SameCoordinates,PX78114e0PY44b6550*%
%TF.FileFunction,Soldermask,Bot*%
%TF.FilePolarity,Negative*%
%FSLAX46Y46*%
G04 Gerber Fmt 4.6, Leading zero omitted, Abs format (unit mm)*
G04 Created by KiCad (PCBNEW (7.0.0-0)) date 2023-04-05 15:35:58*
%MOMM*%
%LPD*%
G01*
G04 APERTURE LIST*
G04 Aperture macros list*
%AMHorizOval*
0 Thick line with rounded ends*
0 $1 width*
0 $2 $3 position (X,Y) of the first rounded end (center of the circle)*
0 $4 $5 position (X,Y) of the second rounded end (center of the circle)*
0 Add line between two ends*
20,1,$1,$2,$3,$4,$5,0*
0 Add two circle primitives to create the rounded ends*
1,1,$1,$2,$3*
1,1,$1,$4,$5*%
%AMFreePoly0*
4,1,18,-0.500000,0.000000,-0.488573,0.106283,-0.438839,0.239624,-0.353553,0.353553,-0.239624,0.438839,-0.106283,0.488573,0.000000,0.500000,0.106283,0.488573,0.239624,0.438839,0.353553,0.353553,0.438839,0.239624,0.488573,0.106283,0.500000,0.000000,0.500000,-0.350000,0.350000,-0.500000,-0.350000,-0.500000,-0.500000,-0.350000,-0.500000,0.000000,-0.500000,0.000000,$1*%
%AMFreePoly1*
4,1,63,0.427079,0.472920,0.504408,0.479255,0.615902,0.456205,0.716386,0.402678,0.797720,0.323009,0.853314,0.223654,0.892986,0.120693,0.998611,-0.073066,1.128778,-0.251268,1.281229,-0.410824,1.453322,-0.548967,1.642072,-0.663302,1.743121,-0.707620,1.839843,-0.767679,1.915727,-0.852554,1.964625,-0.955371,1.982576,-1.067799,1.972958,-1.142958,2.090000,-1.260000,1.948947,-1.401052,
1.954264,-1.436221,1.938879,-1.549029,1.892336,-1.652932,1.818405,-1.739514,1.723076,-1.801761,1.647333,-1.837120,1.510085,-1.932575,1.391205,-2.050118,1.294204,-2.186278,1.221945,-2.337035,1.176562,-2.497936,1.167886,-2.581074,1.140197,-2.691507,1.082516,-2.789667,0.999518,-2.867600,0.897925,-2.918992,0.785969,-2.939681,0.672719,-2.927990,0.658844,-2.922311,0.590000,-3.060000,
0.451254,-2.921254,0.435905,-2.924555,0.322363,-2.916164,0.215784,-2.876125,0.124803,-2.807681,0.056790,-2.716376,0.017254,-2.609609,-0.010335,-2.481161,-0.089264,-2.230539,-0.191191,-1.988358,-0.315230,-1.756721,-0.460303,-1.537644,-0.625148,-1.333030,-0.716764,-1.238866,-0.783714,-1.146780,-0.822008,-1.039561,-0.828544,-0.925897,-0.822785,-0.901096,-0.900000,-0.810000,-0.900000,0.000000,
-0.300000,0.600000,0.300000,0.600000,0.427079,0.472920,0.427079,0.472920,$1*%
%AMFreePoly2*
4,1,13,-1.000000,1.100000,0.760000,1.100000,0.851844,1.081731,0.929706,1.029706,0.981731,0.951844,1.000000,0.860000,1.000000,-0.860000,0.981731,-0.951844,0.929706,-1.029706,0.851844,-1.081731,0.760000,-1.100000,-1.000000,-1.100000,-1.000000,1.100000,-1.000000,1.100000,$1*%
%AMFreePoly3*
4,1,18,-1.000000,0.860000,-0.981731,0.951844,-0.929706,1.029706,-0.851844,1.081731,-0.760000,1.100000,0.760000,1.100000,0.851844,1.081731,0.929706,1.029706,0.981731,0.951844,1.000000,0.860000,1.000000,-0.860000,0.981731,-0.951844,0.929706,-1.029706,0.851844,-1.081731,0.760000,-1.100000,-0.500000,-1.100000,-1.000000,-0.600000,-1.000000,0.860000,-1.000000,0.860000,$1*%
%AMFreePoly4*
4,1,25,0.178017,0.779942,0.347107,0.720775,0.427915,0.670000,0.860000,0.670000,0.800000,0.000000,0.779942,-0.178017,0.720775,-0.347107,0.625465,-0.498792,0.498792,-0.625465,0.347107,-0.720775,0.178017,-0.779942,0.000000,-0.800000,-0.178017,-0.779942,-0.347107,-0.720775,-0.498792,-0.625465,-0.625465,-0.498792,-0.720775,-0.347107,-0.779942,-0.178017,-0.800000,0.000000,-0.740000,0.670000,
-0.427915,0.670000,-0.347107,0.720775,-0.178017,0.779942,0.000000,0.800000,0.178017,0.779942,0.178017,0.779942,$1*%
%AMFreePoly5*
4,1,28,-0.850000,0.400000,0.000000,1.250000,0.114750,1.242219,0.293119,1.197860,0.457783,1.116195,0.601041,1.001041,0.716195,0.857783,0.797860,0.693119,0.842219,0.514750,0.850000,0.400000,0.850000,-0.400000,0.842219,-0.514750,0.797860,-0.693119,0.716195,-0.857783,0.601041,-1.001041,0.457783,-1.116195,0.293119,-1.197860,0.114750,-1.242219,0.000000,-1.250000,-0.114750,-1.242219,
-0.293119,-1.197860,-0.457783,-1.116195,-0.601041,-1.001041,-0.716195,-0.857783,-0.797860,-0.693119,-0.842219,-0.514750,-0.850000,-0.400000,-0.850000,0.400000,-0.850000,0.400000,$1*%
%AMFreePoly6*
4,1,28,-0.850000,0.400000,-0.842219,0.514750,-0.797860,0.693119,-0.716195,0.857783,-0.601041,1.001041,-0.457783,1.116195,-0.293119,1.197860,-0.114750,1.242219,0.000000,1.250000,0.114750,1.242219,0.293119,1.197860,0.457783,1.116195,0.601041,1.001041,0.716195,0.857783,0.797860,0.693119,0.842219,0.514750,0.850000,0.400000,0.850000,-0.400000,0.842219,-0.514750,0.797860,-0.693119,
0.716195,-0.857783,0.601041,-1.001041,0.457783,-1.116195,0.293119,-1.197860,0.114750,-1.242219,0.000000,-1.250000,-0.850000,-0.400000,-0.850000,0.400000,-0.850000,0.400000,$1*%
G04 Aperture macros list end*
%ADD10HorizOval,1.000000X0.000000X0.000000X0.000000X0.000000X0*%
%ADD11C,1.800000*%
%ADD12C,1.700000*%
%ADD13C,3.000000*%
%ADD14C,4.800000*%
%ADD15C,6.400000*%
%ADD16C,2.300000*%
%ADD17FreePoly0,0.500000*%
%ADD18FreePoly1,0.000000*%
%ADD19O,1.800000X1.200000*%
%ADD20O,1.200000X1.800000*%
%ADD21FreePoly2,0.000000*%
%ADD22FreePoly3,0.000000*%
%ADD23C,1.600000*%
%ADD24FreePoly4,0.000000*%
%ADD25HorizOval,1.000000X0.000000X0.000000X0.000000X0.000000X0*%
%ADD26FreePoly0,5.500000*%
%ADD27FreePoly1,5.000000*%
%ADD28HorizOval,1.200000X0.298858X0.026147X-0.298858X-0.026147X0*%
%ADD29HorizOval,1.200000X-0.298858X-0.026147X0.298858X0.026147X0*%
%ADD30HorizOval,1.200000X-0.026147X0.298858X0.026147X-0.298858X0*%
%ADD31FreePoly2,5.000000*%
%ADD32FreePoly3,5.000000*%
%ADD33FreePoly4,5.000000*%
%ADD34C,1.200000*%
%ADD35FreePoly5,270.000000*%
%ADD36FreePoly6,270.000000*%
%ADD37O,2.500000X1.700000*%
%ADD38HorizOval,1.000000X0.000000X0.000000X0.000000X0.000000X0*%
%ADD39FreePoly0,335.500000*%
%ADD40FreePoly1,335.000000*%
%ADD41HorizOval,1.200000X0.271892X-0.126785X-0.271892X0.126785X0*%
%ADD42HorizOval,1.200000X-0.271892X0.126785X0.271892X-0.126785X0*%
%ADD43HorizOval,1.200000X0.126785X0.271892X-0.126785X-0.271892X0*%
%ADD44FreePoly2,335.000000*%
%ADD45FreePoly3,335.000000*%
%ADD46FreePoly4,335.000000*%
%ADD47R,1.700000X1.700000*%
%ADD48HorizOval,1.000000X0.000000X0.000000X0.000000X0.000000X0*%
%ADD49FreePoly0,350.500000*%
%ADD50FreePoly1,350.000000*%
%ADD51HorizOval,1.200000X0.295442X-0.052094X-0.295442X0.052094X0*%
%ADD52HorizOval,1.200000X-0.295442X0.052094X0.295442X-0.052094X0*%
%ADD53HorizOval,1.200000X0.052094X0.295442X-0.052094X-0.295442X0*%
%ADD54FreePoly2,350.000000*%
%ADD55FreePoly3,350.000000*%
%ADD56FreePoly4,350.000000*%
%TA.AperFunction,Profile*%
%ADD57C,0.100000*%
%TD*%
G04 APERTURE END LIST*
D10*
%TO.C,K25*%
X32050018Y-31604362D03*
D11*
X32600000Y-26050000D03*
D12*
X33020000Y-26050000D03*
D13*
X33100000Y-22350000D03*
X38100000Y-20150000D03*
D14*
X38100000Y-26050000D03*
D15*
X38100000Y-26050000D03*
D16*
X38100000Y-29800000D03*
D13*
X43100000Y-22350000D03*
D12*
X43180000Y-26050000D03*
D11*
X43600000Y-26050000D03*
D17*
X43647381Y-20200010D03*
D18*
X41910000Y-28590000D03*
D11*
X41910000Y-28590000D03*
D19*
X41909999Y-29399999D03*
X42249999Y-29399999D03*
D20*
X42499999Y-30749999D03*
D19*
X43099999Y-29849999D03*
D21*
X46374999Y-22349999D03*
D22*
X35099999Y-20149999D03*
D23*
X35500000Y-31800000D03*
D24*
X35500000Y-31800000D03*
D23*
X35560000Y-31130000D03*
X38100000Y-32000000D03*
%TD*%
D10*
%TO.C,K24*%
X13000018Y-29604362D03*
D11*
X13550000Y-24050000D03*
D12*
X13970000Y-24050000D03*
D13*
X14050000Y-20350000D03*
X19050000Y-18150000D03*
D14*
X19050000Y-24050000D03*
D15*
X19050000Y-24050000D03*
D16*
X19050000Y-27800000D03*
D13*
X24050000Y-20350000D03*
D12*
X24130000Y-24050000D03*
D11*
X24550000Y-24050000D03*
D17*
X24597381Y-18200010D03*
D18*
X22860000Y-26590000D03*
D11*
X22860000Y-26590000D03*
D19*
X22859999Y-27399999D03*
X23199999Y-27399999D03*
D20*
X23449999Y-28749999D03*
D19*
X24049999Y-27849999D03*
D21*
X27324999Y-20349999D03*
D22*
X16049999Y-18149999D03*
D23*
X16450000Y-29800000D03*
D24*
X16450000Y-29800000D03*
D23*
X16510000Y-29130000D03*
X19050000Y-30000000D03*
%TD*%
D10*
%TO.C,K21*%
X-44149980Y-41604362D03*
D11*
X-43600000Y-36050000D03*
D12*
X-43180000Y-36050000D03*
D13*
X-43100000Y-32350000D03*
X-38100000Y-30150000D03*
D14*
X-38100000Y-36050000D03*
D15*
X-38100000Y-36050000D03*
D16*
X-38100000Y-39800000D03*
D13*
X-33100000Y-32350000D03*
D12*
X-33020000Y-36050000D03*
D11*
X-32600000Y-36050000D03*
D17*
X-32552617Y-30200010D03*
D18*
X-34290000Y-38590000D03*
D11*
X-34290000Y-38590000D03*
D19*
X-34289999Y-39399999D03*
X-33949999Y-39399999D03*
D20*
X-33699999Y-40749999D03*
D19*
X-33099999Y-39849999D03*
D21*
X-29824999Y-32349999D03*
D22*
X-41099999Y-30149999D03*
D23*
X-40700000Y-41800000D03*
D24*
X-40700000Y-41800000D03*
D23*
X-40640000Y-41130000D03*
X-38100000Y-42000000D03*
%TD*%
D10*
%TO.C,K02*%
X-25099980Y8495636D03*
D11*
X-24550000Y14050000D03*
D12*
X-24130000Y14050000D03*
D13*
X-24050000Y17750000D03*
X-19050000Y19950000D03*
D14*
X-19050000Y14050000D03*
D15*
X-19050000Y14050000D03*
D16*
X-19050000Y10300000D03*
D13*
X-14050000Y17750000D03*
D12*
X-13970000Y14050000D03*
D11*
X-13550000Y14050000D03*
D17*
X-13502617Y19899988D03*
D18*
X-15240000Y11510000D03*
D11*
X-15240000Y11510000D03*
D19*
X-15239999Y10699999D03*
X-14899999Y10699999D03*
D20*
X-14649999Y9349999D03*
D19*
X-14049999Y10249999D03*
D21*
X-10774999Y17749999D03*
D22*
X-22049999Y19949999D03*
D23*
X-21650000Y8300000D03*
D24*
X-21650000Y8300000D03*
D23*
X-21590000Y8970000D03*
X-19050000Y8100000D03*
%TD*%
D10*
%TO.C,K10*%
X-63199980Y-22554362D03*
D11*
X-62650000Y-17000000D03*
D12*
X-62230000Y-17000000D03*
D13*
X-62150000Y-13300000D03*
X-57150000Y-11100000D03*
D14*
X-57150000Y-17000000D03*
D15*
X-57150000Y-17000000D03*
D16*
X-57150000Y-20750000D03*
D13*
X-52150000Y-13300000D03*
D12*
X-52070000Y-17000000D03*
D11*
X-51650000Y-17000000D03*
D17*
X-51602617Y-11150010D03*
D18*
X-53340000Y-19540000D03*
D11*
X-53340000Y-19540000D03*
D19*
X-53339999Y-20349999D03*
X-52999999Y-20349999D03*
D20*
X-52749999Y-21699999D03*
D19*
X-52149999Y-20799999D03*
D21*
X-48874999Y-13299999D03*
D22*
X-60149999Y-11099999D03*
D23*
X-59750000Y-22750000D03*
D24*
X-59750000Y-22750000D03*
D23*
X-59690000Y-22080000D03*
X-57150000Y-22950000D03*
%TD*%
D10*
%TO.C,K04*%
X13000018Y8495636D03*
D11*
X13550000Y14050000D03*
D12*
X13970000Y14050000D03*
D13*
X14050000Y17750000D03*
X19050000Y19950000D03*
D14*
X19050000Y14050000D03*
D15*
X19050000Y14050000D03*
D16*
X19050000Y10300000D03*
D13*
X24050000Y17750000D03*
D12*
X24130000Y14050000D03*
D11*
X24550000Y14050000D03*
D17*
X24597381Y19899988D03*
D18*
X22860000Y11510000D03*
D11*
X22860000Y11510000D03*
D19*
X22859999Y10699999D03*
X23199999Y10699999D03*
D20*
X23449999Y9349999D03*
D19*
X24049999Y10249999D03*
D21*
X27324999Y17749999D03*
D22*
X16049999Y19949999D03*
D23*
X16450000Y8300000D03*
D24*
X16450000Y8300000D03*
D23*
X16510000Y8970000D03*
X19050000Y8100000D03*
%TD*%
D10*
%TO.C,K12*%
X-25099980Y-10554362D03*
D11*
X-24550000Y-5000000D03*
D12*
X-24130000Y-5000000D03*
D13*
X-24050000Y-1300000D03*
X-19050000Y900000D03*
D14*
X-19050000Y-5000000D03*
D15*
X-19050000Y-5000000D03*
D16*
X-19050000Y-8750000D03*
D13*
X-14050000Y-1300000D03*
D12*
X-13970000Y-5000000D03*
D11*
X-13550000Y-5000000D03*
D17*
X-13502617Y849988D03*
D18*
X-15240000Y-7540000D03*
D11*
X-15240000Y-7540000D03*
D19*
X-15239999Y-8349999D03*
X-14899999Y-8349999D03*
D20*
X-14649999Y-9699999D03*
D19*
X-14049999Y-8799999D03*
D21*
X-10774999Y-1299999D03*
D22*
X-22049999Y899999D03*
D23*
X-21650000Y-10750000D03*
D24*
X-21650000Y-10750000D03*
D23*
X-21590000Y-10080000D03*
X-19050000Y-10950000D03*
%TD*%
D25*
%TO.C,K30*%
X9357135Y-53210517D03*
D11*
X9420929Y-47629357D03*
D12*
X9839331Y-47592751D03*
D13*
X9596550Y-43899858D03*
X14385781Y-41272451D03*
D14*
X14900000Y-47150000D03*
D15*
X14900000Y-47150000D03*
D16*
X15226834Y-50885730D03*
D13*
X19558497Y-43028301D03*
D12*
X19960669Y-46707249D03*
D11*
X20379071Y-46670643D03*
D26*
X19916411Y-40838785D03*
D27*
X18916877Y-49348271D03*
D11*
X18916877Y-49348271D03*
D28*
X18987473Y-50155188D03*
D29*
X19326179Y-50125555D03*
D30*
X19692888Y-51448629D03*
D28*
X20212164Y-50499760D03*
D31*
X22821034Y-42742865D03*
D32*
X11397196Y-41533918D03*
D23*
X12811039Y-53104724D03*
D33*
X12811039Y-53104724D03*
D23*
X12812417Y-52432045D03*
X15418577Y-53077358D03*
%TD*%
D10*
%TO.C,K01*%
X-44149980Y-3504362D03*
D11*
X-43600000Y2050000D03*
D12*
X-43180000Y2050000D03*
D13*
X-43100000Y5750000D03*
X-38100000Y7950000D03*
D14*
X-38100000Y2050000D03*
D15*
X-38100000Y2050000D03*
D16*
X-38100000Y-1700000D03*
D13*
X-33100000Y5750000D03*
D12*
X-33020000Y2050000D03*
D11*
X-32600000Y2050000D03*
D17*
X-32552617Y7899988D03*
D18*
X-34290000Y-490000D03*
D11*
X-34290000Y-490000D03*
D19*
X-34289999Y-1299999D03*
X-33949999Y-1299999D03*
D20*
X-33699999Y-2649999D03*
D19*
X-33099999Y-1749999D03*
D21*
X-29824999Y5749999D03*
D22*
X-41099999Y7949999D03*
D23*
X-40700000Y-3700000D03*
D24*
X-40700000Y-3700000D03*
D23*
X-40640000Y-3030000D03*
X-38100000Y-3900000D03*
%TD*%
D10*
%TO.C,K14*%
X13000018Y-10554362D03*
D11*
X13550000Y-5000000D03*
D12*
X13970000Y-5000000D03*
D13*
X14050000Y-1300000D03*
X19050000Y900000D03*
D14*
X19050000Y-5000000D03*
D15*
X19050000Y-5000000D03*
D16*
X19050000Y-8750000D03*
D13*
X24050000Y-1300000D03*
D12*
X24130000Y-5000000D03*
D11*
X24550000Y-5000000D03*
D17*
X24597381Y849988D03*
D18*
X22860000Y-7540000D03*
D11*
X22860000Y-7540000D03*
D19*
X22859999Y-8349999D03*
X23199999Y-8349999D03*
D20*
X23449999Y-9699999D03*
D19*
X24049999Y-8799999D03*
D21*
X27324999Y-1299999D03*
D22*
X16049999Y899999D03*
D23*
X16450000Y-10750000D03*
D24*
X16450000Y-10750000D03*
D23*
X16510000Y-10080000D03*
X19050000Y-10950000D03*
%TD*%
D10*
%TO.C,K23*%
X-6049980Y-24604362D03*
D11*
X-5500000Y-19050000D03*
D12*
X-5080000Y-19050000D03*
D13*
X-5000000Y-15350000D03*
X0Y-13150000D03*
D14*
X0Y-19050000D03*
D15*
X0Y-19050000D03*
D16*
X0Y-22800000D03*
D13*
X5000000Y-15350000D03*
D12*
X5080000Y-19050000D03*
D11*
X5500000Y-19050000D03*
D17*
X5547381Y-13200010D03*
D18*
X3810000Y-21590000D03*
D11*
X3810000Y-21590000D03*
D19*
X3809999Y-22399999D03*
X4149999Y-22399999D03*
D20*
X4399999Y-23749999D03*
D19*
X4999999Y-22849999D03*
D21*
X8274999Y-15349999D03*
D22*
X-2999999Y-13149999D03*
D23*
X-2600000Y-24800000D03*
D24*
X-2600000Y-24800000D03*
D23*
X-2540000Y-24130000D03*
X0Y-25000000D03*
%TD*%
D10*
%TO.C,K03*%
X-6049980Y13495636D03*
D11*
X-5500000Y19050000D03*
D12*
X-5080000Y19050000D03*
D13*
X-5000000Y22750000D03*
X0Y24950000D03*
D14*
X0Y19050000D03*
D15*
X0Y19050000D03*
D16*
X0Y15300000D03*
D13*
X5000000Y22750000D03*
D12*
X5080000Y19050000D03*
D11*
X5500000Y19050000D03*
D17*
X5547381Y24899988D03*
D18*
X3810000Y16510000D03*
D11*
X3810000Y16510000D03*
D19*
X3809999Y15699999D03*
X4149999Y15699999D03*
D20*
X4399999Y14349999D03*
D19*
X4999999Y15249999D03*
D21*
X8274999Y22749999D03*
D22*
X-2999999Y24949999D03*
D23*
X-2600000Y13300000D03*
D24*
X-2600000Y13300000D03*
D23*
X-2540000Y13970000D03*
X0Y13100000D03*
%TD*%
D10*
%TO.C,K22*%
X-25099980Y-29604362D03*
D11*
X-24550000Y-24050000D03*
D12*
X-24130000Y-24050000D03*
D13*
X-24050000Y-20350000D03*
X-19050000Y-18150000D03*
D14*
X-19050000Y-24050000D03*
D15*
X-19050000Y-24050000D03*
D16*
X-19050000Y-27800000D03*
D13*
X-14050000Y-20350000D03*
D12*
X-13970000Y-24050000D03*
D11*
X-13550000Y-24050000D03*
D17*
X-13502617Y-18200010D03*
D18*
X-15240000Y-26590000D03*
D11*
X-15240000Y-26590000D03*
D19*
X-15239999Y-27399999D03*
X-14899999Y-27399999D03*
D20*
X-14649999Y-28749999D03*
D19*
X-14049999Y-27849999D03*
D21*
X-10774999Y-20349999D03*
D22*
X-22049999Y-18149999D03*
D23*
X-21650000Y-29800000D03*
D24*
X-21650000Y-29800000D03*
D23*
X-21590000Y-29130000D03*
X-19050000Y-30000000D03*
%TD*%
D34*
%TO.C,J1*%
X73460000Y-34320000D03*
X66460000Y-34320000D03*
X73460000Y-36070000D03*
X66460000Y-36070000D03*
D35*
X63159999Y-33969999D03*
D36*
X64659999Y-38169999D03*
D37*
X68659999Y-38169999D03*
X71659999Y-38169999D03*
%TD*%
D10*
%TO.C,K15*%
X32050018Y-12554362D03*
D11*
X32600000Y-7000000D03*
D12*
X33020000Y-7000000D03*
D13*
X33100000Y-3300000D03*
X38100000Y-1100000D03*
D14*
X38100000Y-7000000D03*
D15*
X38100000Y-7000000D03*
D16*
X38100000Y-10750000D03*
D13*
X43100000Y-3300000D03*
D12*
X43180000Y-7000000D03*
D11*
X43600000Y-7000000D03*
D17*
X43647381Y-1150010D03*
D18*
X41910000Y-9540000D03*
D11*
X41910000Y-9540000D03*
D19*
X41909999Y-10349999D03*
X42249999Y-10349999D03*
D20*
X42499999Y-11699999D03*
D19*
X43099999Y-10799999D03*
D21*
X46374999Y-3299999D03*
D22*
X35099999Y-1099999D03*
D23*
X35500000Y-12750000D03*
D24*
X35500000Y-12750000D03*
D23*
X35560000Y-12080000D03*
X38100000Y-12950000D03*
%TD*%
D38*
%TO.C,K32*%
X50069478Y-57627129D03*
D11*
X52915307Y-52825600D03*
D12*
X53295956Y-53003099D03*
D13*
X54932149Y-49683570D03*
X60393448Y-49802784D03*
D14*
X57900000Y-55150000D03*
D15*
X57900000Y-55150000D03*
D16*
X56315182Y-58548654D03*
D13*
X63995227Y-53909752D03*
D12*
X62504044Y-57296901D03*
D11*
X62884693Y-57474400D03*
D39*
X65399947Y-52192534D03*
D40*
X60279582Y-59062197D03*
D11*
X60279582Y-59062197D03*
D41*
X59937260Y-59796306D03*
D42*
X60245405Y-59939996D03*
D43*
X59901447Y-61269166D03*
D41*
X60825589Y-60707060D03*
D44*
X66963384Y-55293826D03*
D45*
X57674523Y-48534928D03*
D23*
X53113545Y-59262462D03*
D46*
X53113545Y-59262462D03*
D23*
X53451077Y-58680593D03*
X55385421Y-60542531D03*
%TD*%
D10*
%TO.C,K11*%
X-44149980Y-22554362D03*
D11*
X-43600000Y-17000000D03*
D12*
X-43180000Y-17000000D03*
D13*
X-43100000Y-13300000D03*
X-38100000Y-11100000D03*
D14*
X-38100000Y-17000000D03*
D15*
X-38100000Y-17000000D03*
D16*
X-38100000Y-20750000D03*
D13*
X-33100000Y-13300000D03*
D12*
X-33020000Y-17000000D03*
D11*
X-32600000Y-17000000D03*
D17*
X-32552617Y-11150010D03*
D18*
X-34290000Y-19540000D03*
D11*
X-34290000Y-19540000D03*
D19*
X-34289999Y-20349999D03*
X-33949999Y-20349999D03*
D20*
X-33699999Y-21699999D03*
D19*
X-33099999Y-20799999D03*
D21*
X-29824999Y-13299999D03*
D22*
X-41099999Y-11099999D03*
D23*
X-40700000Y-22750000D03*
D24*
X-40700000Y-22750000D03*
D23*
X-40640000Y-22080000D03*
X-38100000Y-22950000D03*
%TD*%
D47*
%TO.C,U1*%
X71034999Y21449999D03*
D12*
X71035000Y18910000D03*
X71035000Y16370000D03*
X71035000Y13830000D03*
X71035000Y11290000D03*
X71035000Y8750000D03*
X71035000Y6210000D03*
X71035000Y3670000D03*
X71035000Y1130000D03*
X71035000Y-1410000D03*
X71035000Y-3950000D03*
X71035000Y-6490000D03*
X71035000Y-9030000D03*
X71035000Y-11570000D03*
X71035000Y-14110000D03*
X71035000Y-16650000D03*
X71035000Y-19190000D03*
X71035000Y-21730000D03*
X71035000Y-24270000D03*
X71035000Y-26810000D03*
X55795000Y-26810000D03*
X55795000Y-24270000D03*
X55795000Y-21730000D03*
X55795000Y-19190000D03*
X55795000Y-16650000D03*
X55795000Y-14110000D03*
X55795000Y-11570000D03*
X55795000Y-9030000D03*
X55795000Y-6490000D03*
X55795000Y-3950000D03*
X55795000Y-1410000D03*
X55795000Y1130000D03*
X55795000Y3670000D03*
X55795000Y6210000D03*
X55795000Y8750000D03*
X55795000Y11290000D03*
X55795000Y13830000D03*
X55795000Y16370000D03*
X55795000Y18910000D03*
X55795000Y21450000D03*
%TD*%
D10*
%TO.C,K05*%
X32050018Y6495636D03*
D11*
X32600000Y12050000D03*
D12*
X33020000Y12050000D03*
D13*
X33100000Y15750000D03*
X38100000Y17950000D03*
D14*
X38100000Y12050000D03*
D15*
X38100000Y12050000D03*
D16*
X38100000Y8300000D03*
D13*
X43100000Y15750000D03*
D12*
X43180000Y12050000D03*
D11*
X43600000Y12050000D03*
D17*
X43647381Y17899988D03*
D18*
X41910000Y9510000D03*
D11*
X41910000Y9510000D03*
D19*
X41909999Y8699999D03*
X42249999Y8699999D03*
D20*
X42499999Y7349999D03*
D19*
X43099999Y8249999D03*
D21*
X46374999Y15749999D03*
D22*
X35099999Y17949999D03*
D23*
X35500000Y6300000D03*
D24*
X35500000Y6300000D03*
D23*
X35560000Y6970000D03*
X38100000Y6100000D03*
%TD*%
D10*
%TO.C,K20*%
X-63199980Y-41604362D03*
D11*
X-62650000Y-36050000D03*
D12*
X-62230000Y-36050000D03*
D13*
X-62150000Y-32350000D03*
X-57150000Y-30150000D03*
D14*
X-57150000Y-36050000D03*
D15*
X-57150000Y-36050000D03*
D16*
X-57150000Y-39800000D03*
D13*
X-52150000Y-32350000D03*
D12*
X-52070000Y-36050000D03*
D11*
X-51650000Y-36050000D03*
D17*
X-51602617Y-30200010D03*
D18*
X-53340000Y-38590000D03*
D11*
X-53340000Y-38590000D03*
D19*
X-53339999Y-39399999D03*
X-52999999Y-39399999D03*
D20*
X-52749999Y-40749999D03*
D19*
X-52149999Y-39849999D03*
D21*
X-48874999Y-32349999D03*
D22*
X-60149999Y-30149999D03*
D23*
X-59750000Y-41800000D03*
D24*
X-59750000Y-41800000D03*
D23*
X-59690000Y-41130000D03*
X-57150000Y-42000000D03*
%TD*%
D10*
%TO.C,K13*%
X-6049980Y-5554362D03*
D11*
X-5500000Y0D03*
D12*
X-5080000Y0D03*
D13*
X-5000000Y3700000D03*
X0Y5900000D03*
D14*
X0Y0D03*
D15*
X0Y0D03*
D16*
X0Y-3750000D03*
D13*
X5000000Y3700000D03*
D12*
X5080000Y0D03*
D11*
X5500000Y0D03*
D17*
X5547381Y5849988D03*
D18*
X3810000Y-2540000D03*
D11*
X3810000Y-2540000D03*
D19*
X3809999Y-3349999D03*
X4149999Y-3349999D03*
D20*
X4399999Y-4699999D03*
D19*
X4999999Y-3799999D03*
D21*
X8274999Y3699999D03*
D22*
X-2999999Y5899999D03*
D23*
X-2600000Y-5750000D03*
D24*
X-2600000Y-5750000D03*
D23*
X-2540000Y-5080000D03*
X0Y-5950000D03*
%TD*%
D10*
%TO.C,K00*%
X-63199980Y-3504362D03*
D11*
X-62650000Y2050000D03*
D12*
X-62230000Y2050000D03*
D13*
X-62150000Y5750000D03*
X-57150000Y7950000D03*
D14*
X-57150000Y2050000D03*
D15*
X-57150000Y2050000D03*
D16*
X-57150000Y-1700000D03*
D13*
X-52150000Y5750000D03*
D12*
X-52070000Y2050000D03*
D11*
X-51650000Y2050000D03*
D17*
X-51602617Y7899988D03*
D18*
X-53340000Y-490000D03*
D11*
X-53340000Y-490000D03*
D19*
X-53339999Y-1299999D03*
X-52999999Y-1299999D03*
D20*
X-52749999Y-2649999D03*
D19*
X-52149999Y-1749999D03*
D21*
X-48874999Y5749999D03*
D22*
X-60149999Y7949999D03*
D23*
X-59750000Y-3700000D03*
D24*
X-59750000Y-3700000D03*
D23*
X-59690000Y-3030000D03*
X-57150000Y-3900000D03*
%TD*%
D48*
%TO.C,K31*%
X29977426Y-52569411D03*
D11*
X31483557Y-47194935D03*
D12*
X31897177Y-47267867D03*
D13*
X32618459Y-43637970D03*
X37924524Y-42339634D03*
D14*
X36900000Y-48150000D03*
D15*
X36900000Y-48150000D03*
D16*
X36248819Y-51843029D03*
D13*
X42466537Y-45374452D03*
D12*
X41902823Y-49032133D03*
D11*
X42316443Y-49105065D03*
D49*
X43378943Y-43352177D03*
D50*
X40211051Y-51313011D03*
D11*
X40211051Y-51313011D03*
D51*
X40070395Y-52110705D03*
D52*
X40405230Y-52169745D03*
D53*
X40417007Y-53542647D03*
D51*
X41164175Y-52760509D03*
D54*
X45691781Y-45943149D03*
D55*
X34970100Y-41818689D03*
D23*
X33341023Y-53361159D03*
D56*
X33341023Y-53361159D03*
D23*
X33516456Y-52711757D03*
X35866793Y-54009606D03*
%TD*%
D57*
X-11910000Y24806548D02*
G75*
G03*
X-10673448Y26043104I0J1236552D01*
G01*
X-66670000Y-46750000D02*
X-19400000Y-46750000D01*
X63630000Y-68110000D02*
X74635831Y-44865940D01*
X3789970Y-57090029D02*
G75*
G03*
X7610000Y-58539999I3440030J3305929D01*
G01*
X29900002Y23770000D02*
G75*
G03*
X31110000Y22760000I1209998J219800D01*
G01*
X73670000Y22760000D02*
X31110000Y22760000D01*
X-10673448Y28570000D02*
X-10673448Y26043104D01*
X-9436896Y29806552D02*
X9530000Y29806552D01*
X12003104Y24750000D02*
X28690000Y24750000D01*
X74960028Y21510000D02*
G75*
G03*
X73670000Y22759999I-1241028J9900D01*
G01*
X-28480000Y24806552D02*
X-11910000Y24806552D01*
X74635824Y-44865936D02*
G75*
G03*
X74959999Y-43570000I-2650524J1351536D01*
G01*
X-28480000Y24806527D02*
G75*
G03*
X-29730000Y23570000I-13400J-1236527D01*
G01*
X10766552Y28570000D02*
X10766552Y25980000D01*
X15940000Y-57820000D02*
X7610000Y-58540000D01*
X53910000Y-64960000D02*
X61613868Y-68641488D01*
X-67896540Y-45533448D02*
G75*
G03*
X-66670000Y-46750000I1216640J48D01*
G01*
X29900008Y23770002D02*
G75*
G03*
X28690000Y24750000I-1210008J-257002D01*
G01*
X-66660000Y12806552D02*
G75*
G03*
X-67896552Y11570000I0J-1236552D01*
G01*
X-30964374Y12807822D02*
G75*
G03*
X-29727822Y14044374I-26J1236578D01*
G01*
X-66660000Y12806552D02*
X-30964374Y12807822D01*
X10766583Y25980000D02*
G75*
G03*
X12003104Y24750000I1230017J0D01*
G01*
X-9436896Y29806548D02*
G75*
G03*
X-10673448Y28570000I-4J-1236548D01*
G01*
X-29730000Y23570000D02*
X-29727822Y14044374D01*
X3790002Y-57089998D02*
G75*
G03*
X-19400000Y-46750000I-22380702J-19019602D01*
G01*
X10766552Y28570000D02*
G75*
G03*
X9530000Y29806552I-1236552J0D01*
G01*
X74960000Y-43570000D02*
X74960000Y21510000D01*
X61613883Y-68641447D02*
G75*
G03*
X63629999Y-68109999I623117J1726047D01*
G01*
X-67896552Y-45533448D02*
X-67896552Y11570000D01*
X53910001Y-64959998D02*
G75*
G03*
X15940000Y-57820000I-31697901J-64036302D01*
G01*
M02*
