%TF.GenerationSoftware,KiCad,Pcbnew,(7.0.0-0)*%
%TF.CreationDate,2023-04-05T15:35:58-07:00*%
%TF.ProjectId,keyboard_pcb,6b657962-6f61-4726-945f-7063622e6b69,rev1.0*%
%TF.SameCoordinates,PX78114e0PY44b6550*%
%TF.FileFunction,Soldermask,Top*%
%TF.FilePolarity,Negative*%
%FSLAX46Y46*%
G04 Gerber Fmt 4.6, Leading zero omitted, Abs format (unit mm)*
G04 Created by KiCad (PCBNEW (7.0.0-0)) date 2023-04-05 15:35:58*
%MOMM*%
%LPD*%
G01*
G04 APERTURE LIST*
G04 Aperture macros list*
%AMHorizOval*
0 Thick line with rounded ends*
0 $1 width*
0 $2 $3 position (X,Y) of the first rounded end (center of the circle)*
0 $4 $5 position (X,Y) of the second rounded end (center of the circle)*
0 Add line between two ends*
20,1,$1,$2,$3,$4,$5,0*
0 Add two circle primitives to create the rounded ends*
1,1,$1,$2,$3*
1,1,$1,$4,$5*%
%AMFreePoly0*
4,1,18,-0.500000,0.000000,-0.488573,0.106283,-0.438839,0.239624,-0.353553,0.353553,-0.239624,0.438839,-0.106283,0.488573,0.000000,0.500000,0.106283,0.488573,0.239624,0.438839,0.353553,0.353553,0.438839,0.239624,0.488573,0.106283,0.500000,0.000000,0.500000,-0.350000,0.350000,-0.500000,-0.350000,-0.500000,-0.500000,-0.350000,-0.500000,0.000000,-0.500000,0.000000,$1*%
%AMFreePoly1*
4,1,13,-1.000000,0.860000,-0.981731,0.951844,-0.929706,1.029706,-0.851844,1.081731,-0.760000,1.100000,1.000000,1.100000,1.000000,-1.100000,-0.760000,-1.100000,-0.851844,-1.081731,-0.929706,-1.029706,-0.981731,-0.951844,-1.000000,-0.860000,-1.000000,0.860000,-1.000000,0.860000,$1*%
%AMFreePoly2*
4,1,63,0.900000,0.000000,0.900000,-0.810000,0.822785,-0.901096,0.828544,-0.925897,0.822008,-1.039561,0.783714,-1.146780,0.716764,-1.238866,0.625147,-1.333029,0.460302,-1.537643,0.315229,-1.756721,0.191191,-1.988357,0.089263,-2.230539,0.010334,-2.481160,-0.017255,-2.609609,-0.056790,-2.716376,-0.124803,-2.807681,-0.215784,-2.876125,-0.322363,-2.916164,-0.435905,-2.924555,-0.451254,-2.921254,
-0.590000,-3.060000,-0.658844,-2.922311,-0.672719,-2.927990,-0.785969,-2.939681,-0.897925,-2.918992,-0.999518,-2.867600,-1.082516,-2.789667,-1.140196,-2.691508,-1.167886,-2.581075,-1.176561,-2.497936,-1.221944,-2.337034,-1.294203,-2.186278,-1.391205,-2.050117,-1.510085,-1.932573,-1.647333,-1.837117,-1.723076,-1.801757,-1.818405,-1.739511,-1.892336,-1.652929,-1.938879,-1.549025,-1.954263,-1.436217,
-1.948946,-1.401053,-2.090000,-1.260000,-1.972958,-1.142958,-1.982576,-1.067797,-1.964625,-0.955369,-1.915726,-0.852553,-1.839842,-0.767678,-1.743120,-0.707619,-1.642071,-0.663303,-1.453321,-0.548968,-1.281228,-0.410825,-1.128778,-0.251270,-0.998611,-0.073068,-0.892987,0.120691,-0.853315,0.223652,-0.797722,0.323008,-0.716388,0.402677,-0.615904,0.456205,-0.504410,0.479254,-0.427080,0.472919,
-0.300000,0.600000,0.300000,0.600000,0.900000,0.000000,0.900000,0.000000,$1*%
%AMFreePoly3*
4,1,25,0.178017,0.779942,0.347107,0.720775,0.427915,0.670000,0.740000,0.670000,0.800000,0.000000,0.779942,-0.178017,0.720775,-0.347107,0.625465,-0.498792,0.498792,-0.625465,0.347107,-0.720775,0.178017,-0.779942,0.000000,-0.800000,-0.178017,-0.779942,-0.347107,-0.720775,-0.498792,-0.625465,-0.625465,-0.498792,-0.720775,-0.347107,-0.779942,-0.178017,-0.800000,0.000000,-0.860000,0.670000,
-0.427915,0.670000,-0.347107,0.720775,-0.178017,0.779942,0.000000,0.800000,0.178017,0.779942,0.178017,0.779942,$1*%
%AMFreePoly4*
4,1,18,-1.000000,0.860000,-0.981731,0.951844,-0.929706,1.029706,-0.851844,1.081731,-0.760000,1.100000,0.760000,1.100000,0.851844,1.081731,0.929706,1.029706,0.981731,0.951844,1.000000,0.860000,1.000000,-0.600000,0.500000,-1.100000,-0.760000,-1.100000,-0.851844,-1.081731,-0.929706,-1.029706,-0.981731,-0.951844,-1.000000,-0.860000,-1.000000,0.860000,-1.000000,0.860000,$1*%
%AMFreePoly5*
4,1,28,-0.850000,0.400000,-0.842219,0.514750,-0.797860,0.693119,-0.716195,0.857783,-0.601041,1.001041,-0.457783,1.116195,-0.293119,1.197860,-0.114750,1.242219,0.000000,1.250000,0.850000,0.400000,0.850000,-0.400000,0.842219,-0.514750,0.797860,-0.693119,0.716195,-0.857783,0.601041,-1.001041,0.457783,-1.116195,0.293119,-1.197860,0.114750,-1.242219,0.000000,-1.250000,-0.114750,-1.242219,
-0.293119,-1.197860,-0.457783,-1.116195,-0.601041,-1.001041,-0.716195,-0.857783,-0.797860,-0.693119,-0.842219,-0.514750,-0.850000,-0.400000,-0.850000,0.400000,-0.850000,0.400000,$1*%
%AMFreePoly6*
4,1,28,-0.850000,0.400000,-0.842219,0.514750,-0.797860,0.693119,-0.716195,0.857783,-0.601041,1.001041,-0.457783,1.116195,-0.293119,1.197860,-0.114750,1.242219,0.000000,1.250000,0.114750,1.242219,0.293119,1.197860,0.457783,1.116195,0.601041,1.001041,0.716195,0.857783,0.797860,0.693119,0.842219,0.514750,0.850000,0.400000,0.850000,-0.400000,0.000000,-1.250000,-0.114750,-1.242219,
-0.293119,-1.197860,-0.457783,-1.116195,-0.601041,-1.001041,-0.716195,-0.857783,-0.797860,-0.693119,-0.842219,-0.514750,-0.850000,-0.400000,-0.850000,0.400000,-0.850000,0.400000,$1*%
G04 Aperture macros list end*
%ADD10C,0.120000*%
%ADD11FreePoly0,0.000000*%
%ADD12C,1.800000*%
%ADD13C,1.700000*%
%ADD14C,3.000000*%
%ADD15C,4.800000*%
%ADD16C,6.400000*%
%ADD17C,2.300000*%
%ADD18O,1.000000X1.000000*%
%ADD19FreePoly1,0.000000*%
%ADD20O,1.800000X1.200000*%
%ADD21O,1.200000X1.800000*%
%ADD22FreePoly2,0.000000*%
%ADD23C,1.600000*%
%ADD24FreePoly3,0.000000*%
%ADD25FreePoly4,0.000000*%
%ADD26FreePoly0,5.000000*%
%ADD27HorizOval,1.000000X0.000000X0.000000X0.000000X0.000000X0*%
%ADD28FreePoly1,5.000000*%
%ADD29HorizOval,1.200000X0.298858X0.026147X-0.298858X-0.026147X0*%
%ADD30HorizOval,1.200000X-0.026147X0.298858X0.026147X-0.298858X0*%
%ADD31HorizOval,1.200000X-0.298858X-0.026147X0.298858X0.026147X0*%
%ADD32FreePoly2,5.000000*%
%ADD33FreePoly3,5.000000*%
%ADD34FreePoly4,5.000000*%
%ADD35C,1.200000*%
%ADD36FreePoly5,270.000000*%
%ADD37FreePoly6,270.000000*%
%ADD38O,2.500000X1.700000*%
%ADD39R,1.955800X2.311400*%
%ADD40FreePoly0,335.000000*%
%ADD41HorizOval,1.000000X0.000000X0.000000X0.000000X0.000000X0*%
%ADD42FreePoly1,335.000000*%
%ADD43HorizOval,1.200000X0.271892X-0.126785X-0.271892X0.126785X0*%
%ADD44HorizOval,1.200000X0.126785X0.271892X-0.126785X-0.271892X0*%
%ADD45HorizOval,1.200000X-0.271892X0.126785X0.271892X-0.126785X0*%
%ADD46FreePoly2,335.000000*%
%ADD47FreePoly3,335.000000*%
%ADD48FreePoly4,335.000000*%
%ADD49R,1.700000X1.700000*%
%ADD50FreePoly0,350.000000*%
%ADD51HorizOval,1.000000X0.000000X0.000000X0.000000X0.000000X0*%
%ADD52FreePoly1,350.000000*%
%ADD53HorizOval,1.200000X0.295442X-0.052094X-0.295442X0.052094X0*%
%ADD54HorizOval,1.200000X0.052094X0.295442X-0.052094X-0.295442X0*%
%ADD55HorizOval,1.200000X-0.295442X0.052094X0.295442X-0.052094X0*%
%ADD56FreePoly2,350.000000*%
%ADD57FreePoly3,350.000000*%
%ADD58FreePoly4,350.000000*%
%TA.AperFunction,Profile*%
%ADD59C,0.100000*%
%TD*%
G04 APERTURE END LIST*
D10*
%TO.C,U1*%
X54525000Y-28080000D02*
X57065000Y-28080000D01*
%TD*%
D11*
%TO.C,K25*%
X32549999Y-20199999D03*
D12*
X32600000Y-26050000D03*
D13*
X33020000Y-26050000D03*
D14*
X33100000Y-22350000D03*
X38100000Y-20150000D03*
D15*
X38100000Y-26050000D03*
D16*
X38100000Y-26050000D03*
D17*
X38100000Y-29800000D03*
D14*
X43100000Y-22350000D03*
D13*
X43180000Y-26050000D03*
D12*
X43600000Y-26050000D03*
D18*
X44149999Y-31599999D03*
D19*
X29824999Y-22349999D03*
D20*
X33099999Y-29849999D03*
D21*
X33699999Y-30749999D03*
D20*
X33949999Y-29399999D03*
D22*
X34290000Y-28590000D03*
D12*
X34290000Y-28590000D03*
D20*
X34289999Y-29399999D03*
D23*
X38100000Y-32000000D03*
X40640000Y-31130000D03*
X40700000Y-31800000D03*
D24*
X40700000Y-31800000D03*
D25*
X41099999Y-20149999D03*
%TD*%
D11*
%TO.C,K24*%
X13499999Y-18199999D03*
D12*
X13550000Y-24050000D03*
D13*
X13970000Y-24050000D03*
D14*
X14050000Y-20350000D03*
X19050000Y-18150000D03*
D15*
X19050000Y-24050000D03*
D16*
X19050000Y-24050000D03*
D17*
X19050000Y-27800000D03*
D14*
X24050000Y-20350000D03*
D13*
X24130000Y-24050000D03*
D12*
X24550000Y-24050000D03*
D18*
X25099999Y-29599999D03*
D19*
X10774999Y-20349999D03*
D20*
X14049999Y-27849999D03*
D21*
X14649999Y-28749999D03*
D20*
X14899999Y-27399999D03*
D22*
X15240000Y-26590000D03*
D12*
X15240000Y-26590000D03*
D20*
X15239999Y-27399999D03*
D23*
X19050000Y-30000000D03*
X21590000Y-29130000D03*
X21650000Y-29800000D03*
D24*
X21650000Y-29800000D03*
D25*
X22049999Y-18149999D03*
%TD*%
D11*
%TO.C,K21*%
X-43649999Y-30199999D03*
D12*
X-43600000Y-36050000D03*
D13*
X-43180000Y-36050000D03*
D14*
X-43100000Y-32350000D03*
X-38100000Y-30150000D03*
D15*
X-38100000Y-36050000D03*
D16*
X-38100000Y-36050000D03*
D17*
X-38100000Y-39800000D03*
D14*
X-33100000Y-32350000D03*
D13*
X-33020000Y-36050000D03*
D12*
X-32600000Y-36050000D03*
D18*
X-32049999Y-41599999D03*
D19*
X-46374999Y-32349999D03*
D20*
X-43099999Y-39849999D03*
D21*
X-42499999Y-40749999D03*
D20*
X-42249999Y-39399999D03*
D22*
X-41910000Y-38590000D03*
D12*
X-41910000Y-38590000D03*
D20*
X-41909999Y-39399999D03*
D23*
X-38100000Y-42000000D03*
X-35560000Y-41130000D03*
X-35500000Y-41800000D03*
D24*
X-35500000Y-41800000D03*
D25*
X-35099999Y-30149999D03*
%TD*%
D11*
%TO.C,K02*%
X-24599999Y19899999D03*
D12*
X-24550000Y14050000D03*
D13*
X-24130000Y14050000D03*
D14*
X-24050000Y17750000D03*
X-19050000Y19950000D03*
D15*
X-19050000Y14050000D03*
D16*
X-19050000Y14050000D03*
D17*
X-19050000Y10300000D03*
D14*
X-14050000Y17750000D03*
D13*
X-13970000Y14050000D03*
D12*
X-13550000Y14050000D03*
D18*
X-12999999Y8499999D03*
D19*
X-27324999Y17749999D03*
D20*
X-24049999Y10249999D03*
D21*
X-23449999Y9349999D03*
D20*
X-23199999Y10699999D03*
D22*
X-22860000Y11510000D03*
D12*
X-22860000Y11510000D03*
D20*
X-22859999Y10699999D03*
D23*
X-19050000Y8100000D03*
X-16510000Y8970000D03*
X-16450000Y8300000D03*
D24*
X-16450000Y8300000D03*
D25*
X-16049999Y19949999D03*
%TD*%
D11*
%TO.C,K10*%
X-62699999Y-11149999D03*
D12*
X-62650000Y-17000000D03*
D13*
X-62230000Y-17000000D03*
D14*
X-62150000Y-13300000D03*
X-57150000Y-11100000D03*
D15*
X-57150000Y-17000000D03*
D16*
X-57150000Y-17000000D03*
D17*
X-57150000Y-20750000D03*
D14*
X-52150000Y-13300000D03*
D13*
X-52070000Y-17000000D03*
D12*
X-51650000Y-17000000D03*
D18*
X-51099999Y-22549999D03*
D19*
X-65424999Y-13299999D03*
D20*
X-62149999Y-20799999D03*
D21*
X-61549999Y-21699999D03*
D20*
X-61299999Y-20349999D03*
D22*
X-60960000Y-19540000D03*
D12*
X-60960000Y-19540000D03*
D20*
X-60959999Y-20349999D03*
D23*
X-57150000Y-22950000D03*
X-54610000Y-22080000D03*
X-54550000Y-22750000D03*
D24*
X-54550000Y-22750000D03*
D25*
X-54149999Y-11099999D03*
%TD*%
D11*
%TO.C,K04*%
X13499999Y19899999D03*
D12*
X13550000Y14050000D03*
D13*
X13970000Y14050000D03*
D14*
X14050000Y17750000D03*
X19050000Y19950000D03*
D15*
X19050000Y14050000D03*
D16*
X19050000Y14050000D03*
D17*
X19050000Y10300000D03*
D14*
X24050000Y17750000D03*
D13*
X24130000Y14050000D03*
D12*
X24550000Y14050000D03*
D18*
X25099999Y8499999D03*
D19*
X10774999Y17749999D03*
D20*
X14049999Y10249999D03*
D21*
X14649999Y9349999D03*
D20*
X14899999Y10699999D03*
D22*
X15240000Y11510000D03*
D12*
X15240000Y11510000D03*
D20*
X15239999Y10699999D03*
D23*
X19050000Y8100000D03*
X21590000Y8970000D03*
X21650000Y8300000D03*
D24*
X21650000Y8300000D03*
D25*
X22049999Y19949999D03*
%TD*%
D11*
%TO.C,K12*%
X-24599999Y849999D03*
D12*
X-24550000Y-5000000D03*
D13*
X-24130000Y-5000000D03*
D14*
X-24050000Y-1300000D03*
X-19050000Y900000D03*
D15*
X-19050000Y-5000000D03*
D16*
X-19050000Y-5000000D03*
D17*
X-19050000Y-8750000D03*
D14*
X-14050000Y-1300000D03*
D13*
X-13970000Y-5000000D03*
D12*
X-13550000Y-5000000D03*
D18*
X-12999999Y-10549999D03*
D19*
X-27324999Y-1299999D03*
D20*
X-24049999Y-8799999D03*
D21*
X-23449999Y-9699999D03*
D20*
X-23199999Y-8349999D03*
D22*
X-22860000Y-7540000D03*
D12*
X-22860000Y-7540000D03*
D20*
X-22859999Y-8349999D03*
D23*
X-19050000Y-10950000D03*
X-16510000Y-10080000D03*
X-16450000Y-10750000D03*
D24*
X-16450000Y-10750000D03*
D25*
X-16049999Y899999D03*
%TD*%
D26*
%TO.C,K30*%
X8861257Y-41805975D03*
D12*
X9420929Y-47629357D03*
D13*
X9839331Y-47592751D03*
D14*
X9596550Y-43899858D03*
X14385781Y-41272451D03*
D15*
X14900000Y-47150000D03*
D16*
X14900000Y-47150000D03*
D17*
X15226834Y-50885730D03*
D14*
X19558497Y-43028301D03*
D13*
X19960669Y-46707249D03*
D12*
X20379071Y-46670643D03*
D27*
X21410691Y-52151587D03*
D28*
X6334012Y-44185292D03*
D29*
X10250217Y-51371318D03*
D30*
X10926374Y-52215599D03*
D31*
X11057763Y-50848948D03*
D32*
X11325874Y-50012398D03*
D12*
X11325874Y-50012398D03*
D29*
X11396469Y-50819315D03*
D23*
X15418577Y-53077358D03*
X17873086Y-51989293D03*
X17991252Y-52651515D03*
D33*
X17991252Y-52651515D03*
D34*
X17374364Y-41010983D03*
%TD*%
D11*
%TO.C,K01*%
X-43649999Y7899999D03*
D12*
X-43600000Y2050000D03*
D13*
X-43180000Y2050000D03*
D14*
X-43100000Y5750000D03*
X-38100000Y7950000D03*
D15*
X-38100000Y2050000D03*
D16*
X-38100000Y2050000D03*
D17*
X-38100000Y-1700000D03*
D14*
X-33100000Y5750000D03*
D13*
X-33020000Y2050000D03*
D12*
X-32600000Y2050000D03*
D18*
X-32049999Y-3499999D03*
D19*
X-46374999Y5749999D03*
D20*
X-43099999Y-1749999D03*
D21*
X-42499999Y-2649999D03*
D20*
X-42249999Y-1299999D03*
D22*
X-41910000Y-490000D03*
D12*
X-41910000Y-490000D03*
D20*
X-41909999Y-1299999D03*
D23*
X-38100000Y-3900000D03*
X-35560000Y-3030000D03*
X-35500000Y-3700000D03*
D24*
X-35500000Y-3700000D03*
D25*
X-35099999Y7949999D03*
%TD*%
D11*
%TO.C,K14*%
X13499999Y849999D03*
D12*
X13550000Y-5000000D03*
D13*
X13970000Y-5000000D03*
D14*
X14050000Y-1300000D03*
X19050000Y900000D03*
D15*
X19050000Y-5000000D03*
D16*
X19050000Y-5000000D03*
D17*
X19050000Y-8750000D03*
D14*
X24050000Y-1300000D03*
D13*
X24130000Y-5000000D03*
D12*
X24550000Y-5000000D03*
D18*
X25099999Y-10549999D03*
D19*
X10774999Y-1299999D03*
D20*
X14049999Y-8799999D03*
D21*
X14649999Y-9699999D03*
D20*
X14899999Y-8349999D03*
D22*
X15240000Y-7540000D03*
D12*
X15240000Y-7540000D03*
D20*
X15239999Y-8349999D03*
D23*
X19050000Y-10950000D03*
X21590000Y-10080000D03*
X21650000Y-10750000D03*
D24*
X21650000Y-10750000D03*
D25*
X22049999Y899999D03*
%TD*%
D11*
%TO.C,K23*%
X-5549999Y-13199999D03*
D12*
X-5500000Y-19050000D03*
D13*
X-5080000Y-19050000D03*
D14*
X-5000000Y-15350000D03*
X0Y-13150000D03*
D15*
X0Y-19050000D03*
D16*
X0Y-19050000D03*
D17*
X0Y-22800000D03*
D14*
X5000000Y-15350000D03*
D13*
X5080000Y-19050000D03*
D12*
X5500000Y-19050000D03*
D18*
X6049999Y-24599999D03*
D19*
X-8274999Y-15349999D03*
D20*
X-4999999Y-22849999D03*
D21*
X-4399999Y-23749999D03*
D20*
X-4149999Y-22399999D03*
D22*
X-3810000Y-21590000D03*
D12*
X-3810000Y-21590000D03*
D20*
X-3809999Y-22399999D03*
D23*
X0Y-25000000D03*
X2540000Y-24130000D03*
X2600000Y-24800000D03*
D24*
X2600000Y-24800000D03*
D25*
X2999999Y-13149999D03*
%TD*%
D11*
%TO.C,K03*%
X-5549999Y24899999D03*
D12*
X-5500000Y19050000D03*
D13*
X-5080000Y19050000D03*
D14*
X-5000000Y22750000D03*
X0Y24950000D03*
D15*
X0Y19050000D03*
D16*
X0Y19050000D03*
D17*
X0Y15300000D03*
D14*
X5000000Y22750000D03*
D13*
X5080000Y19050000D03*
D12*
X5500000Y19050000D03*
D18*
X6049999Y13499999D03*
D19*
X-8274999Y22749999D03*
D20*
X-4999999Y15249999D03*
D21*
X-4399999Y14349999D03*
D20*
X-4149999Y15699999D03*
D22*
X-3810000Y16510000D03*
D12*
X-3810000Y16510000D03*
D20*
X-3809999Y15699999D03*
D23*
X0Y13100000D03*
X2540000Y13970000D03*
X2600000Y13300000D03*
D24*
X2600000Y13300000D03*
D25*
X2999999Y24949999D03*
%TD*%
D11*
%TO.C,K22*%
X-24599999Y-18199999D03*
D12*
X-24550000Y-24050000D03*
D13*
X-24130000Y-24050000D03*
D14*
X-24050000Y-20350000D03*
X-19050000Y-18150000D03*
D15*
X-19050000Y-24050000D03*
D16*
X-19050000Y-24050000D03*
D17*
X-19050000Y-27800000D03*
D14*
X-14050000Y-20350000D03*
D13*
X-13970000Y-24050000D03*
D12*
X-13550000Y-24050000D03*
D18*
X-12999999Y-29599999D03*
D19*
X-27324999Y-20349999D03*
D20*
X-24049999Y-27849999D03*
D21*
X-23449999Y-28749999D03*
D20*
X-23199999Y-27399999D03*
D22*
X-22860000Y-26590000D03*
D12*
X-22860000Y-26590000D03*
D20*
X-22859999Y-27399999D03*
D23*
X-19050000Y-30000000D03*
X-16510000Y-29130000D03*
X-16450000Y-29800000D03*
D24*
X-16450000Y-29800000D03*
D25*
X-16049999Y-18149999D03*
%TD*%
D35*
%TO.C,J1*%
X73460000Y-34320000D03*
X66460000Y-34320000D03*
X73460000Y-36070000D03*
X66460000Y-36070000D03*
D36*
X63159999Y-36419999D03*
D37*
X64659999Y-32219999D03*
D38*
X68659999Y-32219999D03*
X71659999Y-32219999D03*
%TD*%
D39*
%TO.C,LS1*%
X62084999Y15188999D03*
X62084999Y1599999D03*
%TD*%
D11*
%TO.C,K15*%
X32549999Y-1149999D03*
D12*
X32600000Y-7000000D03*
D13*
X33020000Y-7000000D03*
D14*
X33100000Y-3300000D03*
X38100000Y-1100000D03*
D15*
X38100000Y-7000000D03*
D16*
X38100000Y-7000000D03*
D17*
X38100000Y-10750000D03*
D14*
X43100000Y-3300000D03*
D13*
X43180000Y-7000000D03*
D12*
X43600000Y-7000000D03*
D18*
X44149999Y-12549999D03*
D19*
X29824999Y-3299999D03*
D20*
X33099999Y-10799999D03*
D21*
X33699999Y-11699999D03*
D20*
X33949999Y-10349999D03*
D22*
X34290000Y-9540000D03*
D12*
X34290000Y-9540000D03*
D20*
X34289999Y-10349999D03*
D23*
X38100000Y-12950000D03*
X40640000Y-12080000D03*
X40700000Y-12750000D03*
D24*
X40700000Y-12750000D03*
D25*
X41099999Y-1099999D03*
%TD*%
D40*
%TO.C,K32*%
X55342307Y-47502567D03*
D12*
X52915307Y-52825600D03*
D13*
X53295956Y-53003099D03*
D14*
X54932149Y-49683570D03*
X60393448Y-49802784D03*
D15*
X57900000Y-55150000D03*
D16*
X57900000Y-55150000D03*
D17*
X56315182Y-58548654D03*
D14*
X63995227Y-53909752D03*
D13*
X62504044Y-57296901D03*
D12*
X62884693Y-57474400D03*
D41*
X61037630Y-62736848D03*
D42*
X51963990Y-48299494D03*
D43*
X51762511Y-56480877D03*
D44*
X51925939Y-57550125D03*
D45*
X52723051Y-56432264D03*
D46*
X53373517Y-55841846D03*
D12*
X53373517Y-55841846D03*
D43*
X53031195Y-56575955D03*
D23*
X55385421Y-60542531D03*
X58055121Y-60827494D03*
X57826345Y-61460077D03*
D47*
X57826345Y-61460077D03*
D48*
X63112370Y-51070638D03*
%TD*%
D11*
%TO.C,K11*%
X-43649999Y-11149999D03*
D12*
X-43600000Y-17000000D03*
D13*
X-43180000Y-17000000D03*
D14*
X-43100000Y-13300000D03*
X-38100000Y-11100000D03*
D15*
X-38100000Y-17000000D03*
D16*
X-38100000Y-17000000D03*
D17*
X-38100000Y-20750000D03*
D14*
X-33100000Y-13300000D03*
D13*
X-33020000Y-17000000D03*
D12*
X-32600000Y-17000000D03*
D18*
X-32049999Y-22549999D03*
D19*
X-46374999Y-13299999D03*
D20*
X-43099999Y-20799999D03*
D21*
X-42499999Y-21699999D03*
D20*
X-42249999Y-20349999D03*
D22*
X-41910000Y-19540000D03*
D12*
X-41910000Y-19540000D03*
D20*
X-41909999Y-20349999D03*
D23*
X-38100000Y-22950000D03*
X-35560000Y-22080000D03*
X-35500000Y-22750000D03*
D24*
X-35500000Y-22750000D03*
D25*
X-35099999Y-11099999D03*
%TD*%
D49*
%TO.C,U1*%
X53134999Y21429999D03*
D13*
X53135000Y18890000D03*
X53135000Y16350000D03*
X53135000Y13810000D03*
X53135000Y11270000D03*
X53135000Y8730000D03*
X53135000Y6190000D03*
X53135000Y3650000D03*
X53135000Y1110000D03*
X53135000Y-1430000D03*
X53135000Y-3970000D03*
X53135000Y-6510000D03*
X53135000Y-9050000D03*
X53135000Y-11590000D03*
X53135000Y-14130000D03*
X53135000Y-16670000D03*
X53135000Y-19210000D03*
X53135000Y-21750000D03*
X53135000Y-24290000D03*
X53135000Y-26830000D03*
X68375000Y-26830000D03*
X68375000Y-24290000D03*
X68375000Y-21750000D03*
X68375000Y-19210000D03*
X68375000Y-16670000D03*
X68375000Y-14130000D03*
X68375000Y-11590000D03*
X68375000Y-9050000D03*
X68375000Y-6510000D03*
X68375000Y-3970000D03*
X68375000Y-1430000D03*
X68375000Y1110000D03*
X68375000Y3650000D03*
X68375000Y6190000D03*
X68375000Y8730000D03*
X68375000Y11270000D03*
X68375000Y13810000D03*
X68375000Y16350000D03*
X68375000Y18890000D03*
X68375000Y21430000D03*
%TD*%
D11*
%TO.C,K05*%
X32549999Y17899999D03*
D12*
X32600000Y12050000D03*
D13*
X33020000Y12050000D03*
D14*
X33100000Y15750000D03*
X38100000Y17950000D03*
D15*
X38100000Y12050000D03*
D16*
X38100000Y12050000D03*
D17*
X38100000Y8300000D03*
D14*
X43100000Y15750000D03*
D13*
X43180000Y12050000D03*
D12*
X43600000Y12050000D03*
D18*
X44149999Y6499999D03*
D19*
X29824999Y15749999D03*
D20*
X33099999Y8249999D03*
D21*
X33699999Y7349999D03*
D20*
X33949999Y8699999D03*
D22*
X34290000Y9510000D03*
D12*
X34290000Y9510000D03*
D20*
X34289999Y8699999D03*
D23*
X38100000Y6100000D03*
X40640000Y6970000D03*
X40700000Y6300000D03*
D24*
X40700000Y6300000D03*
D25*
X41099999Y17949999D03*
%TD*%
D11*
%TO.C,K20*%
X-62699999Y-30199999D03*
D12*
X-62650000Y-36050000D03*
D13*
X-62230000Y-36050000D03*
D14*
X-62150000Y-32350000D03*
X-57150000Y-30150000D03*
D15*
X-57150000Y-36050000D03*
D16*
X-57150000Y-36050000D03*
D17*
X-57150000Y-39800000D03*
D14*
X-52150000Y-32350000D03*
D13*
X-52070000Y-36050000D03*
D12*
X-51650000Y-36050000D03*
D18*
X-51099999Y-41599999D03*
D19*
X-65424999Y-32349999D03*
D20*
X-62149999Y-39849999D03*
D21*
X-61549999Y-40749999D03*
D20*
X-61299999Y-39399999D03*
D22*
X-60960000Y-38590000D03*
D12*
X-60960000Y-38590000D03*
D20*
X-60959999Y-39399999D03*
D23*
X-57150000Y-42000000D03*
X-54610000Y-41130000D03*
X-54550000Y-41800000D03*
D24*
X-54550000Y-41800000D03*
D25*
X-54149999Y-30149999D03*
%TD*%
D11*
%TO.C,K13*%
X-5549999Y5849999D03*
D12*
X-5500000Y0D03*
D13*
X-5080000Y0D03*
D14*
X-5000000Y3700000D03*
X0Y5900000D03*
D15*
X0Y0D03*
D16*
X0Y0D03*
D17*
X0Y-3750000D03*
D14*
X5000000Y3700000D03*
D13*
X5080000Y0D03*
D12*
X5500000Y0D03*
D18*
X6049999Y-5549999D03*
D19*
X-8274999Y3699999D03*
D20*
X-4999999Y-3799999D03*
D21*
X-4399999Y-4699999D03*
D20*
X-4149999Y-3349999D03*
D22*
X-3810000Y-2540000D03*
D12*
X-3810000Y-2540000D03*
D20*
X-3809999Y-3349999D03*
D23*
X0Y-5950000D03*
X2540000Y-5080000D03*
X2600000Y-5750000D03*
D24*
X2600000Y-5750000D03*
D25*
X2999999Y5899999D03*
%TD*%
D11*
%TO.C,K00*%
X-62699999Y7899999D03*
D12*
X-62650000Y2050000D03*
D13*
X-62230000Y2050000D03*
D14*
X-62150000Y5750000D03*
X-57150000Y7950000D03*
D15*
X-57150000Y2050000D03*
D16*
X-57150000Y2050000D03*
D17*
X-57150000Y-1700000D03*
D14*
X-52150000Y5750000D03*
D13*
X-52070000Y2050000D03*
D12*
X-51650000Y2050000D03*
D18*
X-51099999Y-3499999D03*
D19*
X-65424999Y5749999D03*
D20*
X-62149999Y-1749999D03*
D21*
X-61549999Y-2649999D03*
D20*
X-61299999Y-1299999D03*
D22*
X-60960000Y-490000D03*
D12*
X-60960000Y-490000D03*
D20*
X-60959999Y-1299999D03*
D23*
X-57150000Y-3900000D03*
X-54610000Y-3030000D03*
X-54550000Y-3700000D03*
D24*
X-54550000Y-3700000D03*
D25*
X-54149999Y7949999D03*
%TD*%
D50*
%TO.C,K31*%
X32450157Y-41425127D03*
D12*
X31483557Y-47194935D03*
D13*
X31897177Y-47267867D03*
D14*
X32618459Y-43637970D03*
X37924524Y-42339634D03*
D15*
X36900000Y-48150000D03*
D16*
X36900000Y-48150000D03*
D17*
X36248819Y-51843029D03*
D14*
X42466537Y-45374452D03*
D13*
X41902823Y-49032133D03*
D12*
X42316443Y-49105065D03*
D51*
X41894339Y-54666253D03*
D52*
X29393213Y-43069272D03*
D53*
X31316097Y-51024028D03*
D54*
X31750698Y-52014543D03*
D55*
X32231325Y-50728465D03*
D56*
X32706816Y-49989812D03*
D12*
X32706816Y-49989812D03*
D53*
X32566160Y-50787505D03*
D23*
X35866793Y-54009606D03*
X38519279Y-53593890D03*
X38462023Y-54264130D03*
D57*
X38462023Y-54264130D03*
D58*
X40878947Y-42860578D03*
%TD*%
D59*
X-11910000Y24806548D02*
G75*
G03*
X-10673448Y26043104I0J1236552D01*
G01*
X-66670000Y-46750000D02*
X-19400000Y-46750000D01*
X63630000Y-68110000D02*
X74635831Y-44865940D01*
X3789970Y-57090029D02*
G75*
G03*
X7610000Y-58539999I3440030J3305929D01*
G01*
X29900002Y23770000D02*
G75*
G03*
X31110000Y22760000I1209998J219800D01*
G01*
X73670000Y22760000D02*
X31110000Y22760000D01*
X-10673448Y28570000D02*
X-10673448Y26043104D01*
X-9436896Y29806552D02*
X9530000Y29806552D01*
X12003104Y24750000D02*
X28690000Y24750000D01*
X74960028Y21510000D02*
G75*
G03*
X73670000Y22759999I-1241028J9900D01*
G01*
X-28480000Y24806552D02*
X-11910000Y24806552D01*
X74635824Y-44865936D02*
G75*
G03*
X74959999Y-43570000I-2650524J1351536D01*
G01*
X-28480000Y24806527D02*
G75*
G03*
X-29730000Y23570000I-13400J-1236527D01*
G01*
X10766552Y28570000D02*
X10766552Y25980000D01*
X15940000Y-57820000D02*
X7610000Y-58540000D01*
X53910000Y-64960000D02*
X61613868Y-68641488D01*
X-67896540Y-45533448D02*
G75*
G03*
X-66670000Y-46750000I1216640J48D01*
G01*
X29900008Y23770002D02*
G75*
G03*
X28690000Y24750000I-1210008J-257002D01*
G01*
X-66660000Y12806552D02*
G75*
G03*
X-67896552Y11570000I0J-1236552D01*
G01*
X-30964374Y12807822D02*
G75*
G03*
X-29727822Y14044374I-26J1236578D01*
G01*
X-66660000Y12806552D02*
X-30964374Y12807822D01*
X10766583Y25980000D02*
G75*
G03*
X12003104Y24750000I1230017J0D01*
G01*
X-9436896Y29806548D02*
G75*
G03*
X-10673448Y28570000I-4J-1236548D01*
G01*
X-29730000Y23570000D02*
X-29727822Y14044374D01*
X3790002Y-57089998D02*
G75*
G03*
X-19400000Y-46750000I-22380702J-19019602D01*
G01*
X10766552Y28570000D02*
G75*
G03*
X9530000Y29806552I-1236552J0D01*
G01*
X74960000Y-43570000D02*
X74960000Y21510000D01*
X61613883Y-68641447D02*
G75*
G03*
X63629999Y-68109999I623117J1726047D01*
G01*
X-67896552Y-45533448D02*
X-67896552Y11570000D01*
X53910001Y-64959998D02*
G75*
G03*
X15940000Y-57820000I-31697901J-64036302D01*
G01*
M02*
